<?xml version="1.0" encoding="utf-8"?>
<!-- Generator: Adobe Illustrator 21.1.0, SVG Export Plug-In . SVG Version: 6.00 Build 0)  -->
<svg version="1.1" id="Слой_1" xmlns="http://www.w3.org/2000/svg" xmlns:xlink="http://www.w3.org/1999/xlink" x="0px" y="0px"
	 viewBox="0 0 60 42.5" style="enable-background:new 0 0 60 42.5;" xml:space="preserve">
<style type="text/css">
	.st0{fill:#D1A41A;}
	.st1{fill:#FFDC76;}
</style>
<g id="Calque_3">
	<g id="XMLID_1_">
		<path class="st0" d="M10.4,28c0.7,0.8,1.4,1.7,2.3,2.6c-2.4,0.7-4,2.1-5,3.3c-1.6,1.9-2.4,4.4-2.2,6.6H1.2
			C2.1,38.5,5.4,33.3,10.4,28z"/>
		<path class="st0" d="M58.9,41.5h-5.1C42.1,35.4,31.9,31.1,21,30.2c0-1.5,0.3-3.2,0.8-5.1l-1-0.3c-0.5,2-0.8,3.7-0.8,5.3
			C18.8,30,17.7,30,16.5,30c-1,0-1.9,0.1-2.7,0.2c-1.1-1.1-2-2.1-2.7-3c5-5.2,13.3-10,20.5-11.7c2,6.7,6.4,11.4,11.7,14.5
			c0.4-0.2,0.8-0.5,1.1-0.7l9.2,9.9l0.4,0c2.5-0.2,3.9,1.1,4.3,1.6C58.6,41,58.8,41.3,58.9,41.5z"/>
		<path class="st1" d="M54.4,8.3c0.2,9.2-4.5,16.4-11,20.2C32.3,23,30.2,9,32.1,1.5c0.5,2.9,1.5,4.7,3.5,5.6
			c4.5-1.3,10.7-1.4,15.3-0.1c1.9-1.4,2.6-3.5,3-5.3C54.4,3.7,54.4,8.3,54.4,8.3z"/>
	</g>
</g>
<g id="Layer_1">
	<polygon points="26.5,17 28.2,22 23,18.6 	"/>
	<polygon points="21.5,19.2 23.3,22.3 19.5,20.4 	"/>
	<polygon points="17.4,21.6 18.2,24.8 15.6,23 	"/>
	<polygon points="45.4,30 43.8,32.6 46.7,31.2 	"/>
	<polygon points="48,32.9 45.3,34.9 49,34 	"/>
	<polygon points="41.6,5.7 43.5,10 44.8,5.6 	"/>
	<polygon points="31.7,11.9 34.8,13.6 32,13.7 	"/>
	<polygon points="32.5,15.2 34.4,16 32.8,16.4 	"/>
	<polygon points="54.4,13.1 51.9,14.2 54,14.5 	"/>
	<polygon points="53.4,16.2 51.5,16.7 53.1,17.3 	"/>
</g>
<g id="Calque_4">
	<rect x="30.7" y="20.9" width="6.1" height="0.7"/>
	<rect x="30.7" y="19.1" width="6.1" height="0.7"/>
	<rect x="49.2" y="20.9" width="6.1" height="0.7"/>
	<rect x="49.2" y="19.1" width="6.1" height="0.7"/>
	<g>
		<path d="M47.1,14.7h-6.3h-0.7h-2.9V14h3.1c0.4-1.6,0.5-3.2,0-3.9c-0.2-0.3-0.5-0.5-0.8-0.5c-1.8,0-2.5,1.9-2.5,1.9l0,0l-0.6-0.2
			c0-0.1,0.9-2.4,3.1-2.4c0.6,0,1.1,0.3,1.4,0.8c0.6,1,0.5,2.6,0.1,4.3h5.4c0.7-2.1,2.2-3.1,4.7-3.1v0.7c-2.7,0-3.5,1.1-4,2.4H50
			l0,0.7L47.1,14.7z"/>
		<path d="M47.5,18L47.5,18c-0.8-1.2-1-2.2-0.7-3.3l-0.7,0c-0.2,0.8-0.1,1.9,0.4,2.9h-6.8c0.4-0.8,0.8-1.9,1.1-2.9h-0.7
			c-0.3,1.1-0.7,2.2-1.2,3.1L38.7,18l3.8,2.4l-2.2,1.4l0.4,0.6l2.4-1.6l2.6,1.7l0.4-0.6l-2.4-1.5C43.7,20.5,47.3,18.1,47.5,18
			C47.5,18,47.5,18,47.5,18z M43.2,20l-2.8-1.8l5.6,0L43.2,20z"/>
	</g>
</g>
<g id="Calque_2">
	<path d="M55.5,7.5c0-1.2-0.4-6.1-1-7.5c-1.8,0.7-5.1,2.9-5.9,5.2C45,4.7,41,4.8,37.4,5.4c-0.6-2.5-3.6-4.3-5.8-5.4
		c-0.9,1.6-1.4,5.3-1.3,7.9c0,0,0,0,0,0c0.4,11,5.8,17.9,12.9,22C50.5,25.8,55.7,17.7,55.5,7.5C55.5,7.5,55.5,7.5,55.5,7.5z
		 M49.5,5.4C49.5,5.4,49.5,5.4,49.5,5.4C49.5,5.4,49.5,5.4,49.5,5.4z M49,5.3c0.1,0,0.1,0,0.2,0C49.1,5.3,49.1,5.3,49,5.3z
		 M54.4,8.3c0.2,9.2-4.5,16.4-11,20.2C32.3,23,30.2,9,32.1,1.4c0.5,2.9,1.5,4.7,3.6,5.6c4.5-1.3,10.7-1.4,15.3-0.1
		c1.9-1.4,2.6-3.5,3-5.3C54.4,3.7,54.4,8.3,54.4,8.3z"/>
	<path d="M59.1,40c-1.1-1.3-3.4-1.9-5.2-1.8c-1.3-1.6-9-9.7-9-9.7l-0.5,0.7l9.3,10l0.4,0c2.5-0.2,3.9,1.1,4.3,1.6
		c0.3,0.3,0.4,0.6,0.5,0.8h-5.1C42.1,35.4,31.9,31.1,21,30.2c0-1.5,0.3-3.2,0.8-5.1l-1-0.3c-0.5,2-0.8,3.7-0.8,5.3
		C18.8,30,17.7,30,16.5,30c-1,0-1.9,0.1-2.7,0.2c-1.1-1.1-2-2.1-2.7-3c5.1-5.3,13.4-10,20.6-11.8l-0.2-1c-7.8,1.9-16.3,7-21.1,11.9
		c-2.2-3-3.1-5.4-3.3-7.3c-0.3-2.3,0.2-4.5,1.6-6.2c2.2-2.7,5.2-2.9,8.4-2.3c-0.1,0.5,0,1,0.2,1.3c0.8,1.2,5.3,1.7,8,0.5
		c-2-2.8-6-4.1-7.1-3.6c-0.4,0.2-0.6,0.5-0.8,0.9c-1.1-0.2-2.2-0.3-3-0.3c-2.8,0-4.9,1-6.5,3c-1.6,1.9-2.2,4.4-1.8,7
		c0.3,2.5,1.6,5.1,3.6,7.9c-0.3,0.4-0.7,0.7-1,1.1C3.7,33.8,0,39.9,0,40.9v0.5h6.6l-0.1-0.6c-0.4-2,0.4-4.5,1.9-6.3
		c1-1.2,2.6-2.5,5.1-3.1c2.2,2.2,5.1,4.5,8.2,6.7h4.9v-0.5c0-0.6-0.3-1.1-0.8-1.4c-0.8-0.5-2-0.6-3.1-0.2c-1.1-1.2-1.6-2.7-1.8-4.7
		c10.7,0.9,21,5.3,32.5,11.3h6.4l0.1-0.4C60.1,41.5,59.8,40.7,59.1,40z M7.6,33.8c-1.6,1.9-2.4,4.4-2.2,6.6H1.2
		c0.8-1.8,4.2-7.1,9.1-12.4c0.7,0.8,1.4,1.7,2.3,2.6C10.2,31.2,8.6,32.6,7.6,33.8z"/>
</g>
</svg>
