<?xml version="1.0" encoding="utf-8"?>
<!-- Generator: Adobe Illustrator 21.1.0, SVG Export Plug-In . SVG Version: 6.00 Build 0)  -->
<svg version="1.1" id="Layer_1" xmlns="http://www.w3.org/2000/svg" xmlns:xlink="http://www.w3.org/1999/xlink" x="0px" y="0px"
	 viewBox="0 0 34 38.2" style="enable-background:new 0 0 34 38.2;" xml:space="preserve">
<style type="text/css">
	.st0{fill:#9A4993;}
	.st1{fill:#6A1577;}
	.st2{fill:#813084;}
	.st3{fill:#FFFFFF;}
</style>
<path id="XMLID_3_" class="st0" d="M34,11.2c0-0.6-0.1-1.2-0.4-1.7c-0.3-0.5-0.7-0.9-1.2-1.2c-4.5-2.6-9.1-5.2-13.6-7.8
	c-1.2-0.7-2.4-0.7-3.6,0C13.4,1.6,4.3,6.8,1.6,8.3C0.5,9,0,10,0,11.2C0,16.5,0,21.7,0,27c0,0.6,0.1,1.2,0.4,1.7
	c0.3,0.5,0.7,0.9,1.2,1.2c2.7,1.6,11.7,6.7,13.5,7.8c1.2,0.7,2.4,0.7,3.6,0c4.5-2.6,9.1-5.2,13.6-7.8c0.6-0.3,1-0.7,1.2-1.2
	c0.3-0.5,0.4-1,0.4-1.7C34,27,34,16.5,34,11.2"/>
<path id="XMLID_4_" class="st1" d="M17.1,19.1L0.4,28.6c0.3,0.5,0.7,0.9,1.2,1.2c2.7,1.6,11.7,6.7,13.5,7.8c1.2,0.7,2.4,0.7,3.6,0
	c4.5-2.6,9.1-5.2,13.6-7.8c0.6-0.3,1-0.7,1.2-1.2L17.1,19.1"/>
<path id="XMLID_5_" class="st1" d="M12.1,21.9c1,1.7,2.8,2.8,4.9,2.8c2.1,0,3.9-1.2,4.9-2.9l-4.8-2.8L12.1,21.9"/>
<path id="XMLID_6_" class="st2" d="M34,11.2c0-0.6-0.1-1.2-0.4-1.7l-16.5,9.5l16.6,9.6c0.3-0.5,0.4-1,0.4-1.7C34,27,34,16.5,34,11.2
	"/>
<path id="XMLID_9_" class="st3" d="M21.9,21.9c-1,1.7-2.8,2.9-4.9,2.9c-2.1,0-3.9-1.1-4.9-2.8c-0.5-0.8-0.7-1.8-0.7-2.8
	c0-3.1,2.5-5.6,5.6-5.6c2.1,0,3.9,1.1,4.9,2.8l4.9-2.8c-2-3.4-5.6-5.6-9.8-5.6c-6.2,0-11.3,5.1-11.3,11.3c0,2,0.5,4,1.5,5.6
	c1.9,3.4,5.6,5.7,9.8,5.7c4.2,0,7.9-2.3,9.8-5.7L21.9,21.9"/>
<g id="XMLID_32_">
	<rect id="XMLID_1_" x="27" y="16.4" class="st3" width="1.1" height="5.4"/>
	<rect id="XMLID_30_" x="29.5" y="16.4" class="st3" width="1.1" height="5.4"/>
	
		<rect id="XMLID_31_" x="28.2" y="15.2" transform="matrix(-1.836970e-16 1 -1 -1.836970e-16 46.6919 -10.8868)" class="st3" width="1.1" height="5.4"/>
	
		<rect id="XMLID_23_" x="28.2" y="17.7" transform="matrix(-1.836970e-16 1 -1 -1.836970e-16 49.1696 -8.409)" class="st3" width="1.1" height="5.4"/>
</g>
</svg>
