<?xml version="1.0" encoding="utf-8"?>
<!-- Generator: Adobe Illustrator 21.1.0, SVG Export Plug-In . SVG Version: 6.00 Build 0)  -->
<svg version="1.1" id="Capa_1" xmlns="http://www.w3.org/2000/svg" xmlns:xlink="http://www.w3.org/1999/xlink" x="0px" y="0px"
	 viewBox="0 0 34 38.2" style="enable-background:new 0 0 34 38.2;" xml:space="preserve">
<style type="text/css">
	.st0{fill-rule:evenodd;clip-rule:evenodd;fill:#6799D0;}
	.st1{fill:#0D4580;}
	.st2{fill:#085A9C;}
	.st3{fill:#FFFFFF;}
</style>
<g>
	<g>
		<path class="st0" d="M17,13.5c-3.1,0-5.6,2.5-5.6,5.6c0,1,0.3,2,0.7,2.8l9.7-5.6C20.9,14.6,19.1,13.5,17,13.5z"/>
		<path class="st0" d="M5.7,19.1c0-6.2,5.1-11.3,11.3-11.3c4.2,0,7.8,2.3,9.8,5.6l6.8-3.9c-0.3-0.5-0.7-0.9-1.2-1.2
			c-4.5-2.6-9.1-5.2-13.6-7.8c-1.2-0.7-2.4-0.7-3.6,0C13.4,1.6,4.3,6.8,1.6,8.3C0.5,9,0,10,0,11.2C0,16.5,0,21.7,0,27
			c0,0.6,0.1,1.2,0.4,1.7l6.8-3.9C6.3,23.1,5.7,21.2,5.7,19.1z"/>
	</g>
	<g>
		<path class="st1" d="M12.1,21.9c1,1.7,2.8,2.8,4.9,2.8c2.1,0,3.9-1.2,4.9-2.9l-4.8-2.8L12.1,21.9z"/>
		<path class="st1" d="M17,30.4c-4.2,0-7.8-2.3-9.8-5.7l-6.8,3.9c0.3,0.5,0.7,0.9,1.2,1.2c2.7,1.6,11.7,6.7,13.5,7.8
			c1.2,0.7,2.4,0.7,3.6,0c4.5-2.6,9.1-5.2,13.6-7.8c0.6-0.3,1-0.7,1.2-1.2l-6.8-3.9C24.9,28.1,21.2,30.4,17,30.4z"/>
	</g>
	<path class="st2" d="M34,11.2c0-0.6-0.1-1.2-0.4-1.7l-16.5,9.5l16.6,9.6c0.3-0.5,0.4-1,0.4-1.7C34,27,34,16.5,34,11.2z M28.4,19.7
		h-1.3V21h-1.3v-1.3h-1.3v-1.3h1.3v-1.3h1.3v1.3h1.3V19.7z M33.1,19.7h-1.3V21h-1.3v-1.3h-1.3v-1.3h1.3v-1.3h1.3v1.3h1.3V19.7z"/>
	<g>
		<polygon class="st3" points="31.8,17.2 30.5,17.2 30.5,18.4 29.2,18.4 29.2,19.7 30.5,19.7 30.5,21 31.8,21 31.8,19.7 33.1,19.7 
			33.1,18.4 31.8,18.4 		"/>
		<polygon class="st3" points="27.1,17.2 25.8,17.2 25.8,18.4 24.5,18.4 24.5,19.7 25.8,19.7 25.8,21 27.1,21 27.1,19.7 28.4,19.7 
			28.4,18.4 27.1,18.4 		"/>
		<path class="st3" d="M21.9,21.9c-1,1.7-2.8,2.9-4.9,2.9c-2.1,0-3.9-1.1-4.9-2.8c-0.5-0.8-0.7-1.8-0.7-2.8c0-3.1,2.5-5.6,5.6-5.6
			c2.1,0,3.9,1.1,4.9,2.8l4.9-2.8c-2-3.4-5.6-5.6-9.8-5.6c-6.2,0-11.3,5.1-11.3,11.3c0,2,0.5,4,1.5,5.6c1.9,3.4,5.6,5.7,9.8,5.7
			c4.2,0,7.9-2.3,9.8-5.7L21.9,21.9z"/>
	</g>
</g>
</svg>
