<?xml version="1.0" encoding="utf-8"?>
<!-- Generator: Adobe Illustrator 21.1.0, SVG Export Plug-In . SVG Version: 6.00 Build 0)  -->
<svg version="1.1" id="Layer_1" xmlns="http://www.w3.org/2000/svg" xmlns:xlink="http://www.w3.org/1999/xlink" x="0px" y="0px"
	 viewBox="148 341.1 118 116.9" style="enable-background:new 148 341.1 118 116.9;" xml:space="preserve">
<style type="text/css">
	.st0{fill:#E4EAF8;}
	.st1{opacity:0.5;fill:#AFB9D2;}
	.st2{fill:#F94B54;}
	.st3{fill:#F9C573;}
	.st4{fill:#E2AB5A;}
	.st5{opacity:0.5;}
	.st6{fill:#C6122C;}
	.st7{fill:#5B5D6E;}
</style>
<path class="st0" d="M262.9,353.6h-7.7v9.9c0,2.1-1.7,3.8-3.8,3.8c-2.1,0-3.8-1.7-3.8-3.8v-9.9h-7.7v9.9c0,2.1-1.7,3.8-3.8,3.8
	c-2.1,0-3.8-1.7-3.8-3.8v-9.9h-50.8v9.9c0,2.1-1.7,3.8-3.8,3.8c-2.1,0-3.8-1.7-3.8-3.8v-9.9h-7.7v9.9c0,2.1-1.7,3.8-3.8,3.8
	c-2.1,0-3.8-1.7-3.8-3.8v-9.9h-7.7c-1.7,0-3.1,1.4-3.1,3.1c0,4.8,0,93.4,0,98.2c0,1.7,1.4,3.1,3.1,3.1c1.9,0,111.2,0,111.8,0
	c1.7,0,3.1-1.4,3.1-3.1c0-4.8,0-93.4,0-98.2C266,355,264.6,353.6,262.9,353.6z"/>
<path class="st1" d="M155.2,454.8c0-4.8,0-93.4,0-98.2c0-1.7,1.4-3.1,3.1-3.1h-7.2c-1.7,0-3.1,1.4-3.1,3.1c0,4.6,0,93.6,0,98.2
	c0,1.7,1.4,3.1,3.1,3.1h7.2C156.6,457.9,155.2,456.5,155.2,454.8z"/>
<path class="st2" d="M246.2,384.5H266v-29c0-1.7-1.4-3.1-3.1-3.1h-7.7v9.9c0,2.1-1.7,3.8-3.8,3.8c-2.1,0-3.8-1.7-3.8-3.8v-9.9h-7.7
	v9.9c0,2.1-1.7,3.8-3.8,3.8c-2.1,0-3.8-1.7-3.8-3.8v-9.9h-50.8v9.9c0,2.1-1.7,3.8-3.8,3.8c-2.1,0-3.8-1.7-3.8-3.8v-9.9h-7.7v9.9
	c0,2.1-1.7,3.8-3.8,3.8c-2.1,0-3.8-1.7-3.8-3.8v-9.9h-7.7c-1.7,0-3.1,1.4-3.1,3.1v29h91.5"/>
<g>
	<path class="st3" d="M166.3,362.3c0,2.1-1.7,3.8-3.8,3.8l0,0c-2.1,0-3.8-1.7-3.8-3.8v-17.5c0-2.1,1.7-3.8,3.8-3.8
		c2.1,0,3.8,1.7,3.8,3.8V362.3z"/>
	<path class="st3" d="M181.6,362.3c0,2.1-1.7,3.8-3.8,3.8l0,0c-2.1,0-3.8-1.7-3.8-3.8v-17.5c0-2.1,1.7-3.8,3.8-3.8
		c2.1,0,3.8,1.7,3.8,3.8V362.3z"/>
	<path class="st3" d="M239.9,362.3c0,2.1-1.7,3.8-3.8,3.8l0,0c-2.1,0-3.8-1.7-3.8-3.8v-17.5c0-2.1,1.7-3.8,3.8-3.8
		c2.1,0,3.8,1.7,3.8,3.8V362.3z"/>
	<path class="st3" d="M255.2,362.3c0,2.1-1.7,3.8-3.8,3.8l0,0c-2.1,0-3.8-1.7-3.8-3.8v-17.5c0-2.1,1.7-3.8,3.8-3.8s3.8,1.7,3.8,3.8
		V362.3z"/>
</g>
<g>
	<path class="st4" d="M162.7,362.3v-17.5c0-1.4,0.7-2.6,1.8-3.2c-2.5-1.5-5.7,0.3-5.7,3.2v17.5c0,2.1,1.7,3.8,3.8,3.8
		c0.7,0,1.4-0.2,2-0.6C163.4,364.9,162.7,363.7,162.7,362.3z"/>
	<path class="st4" d="M178,362.3v-17.5c0-1.4,0.7-2.6,1.8-3.2c-2.5-1.5-5.7,0.3-5.7,3.2v17.5c0,2.1,1.7,3.8,3.8,3.8
		c0.7,0,1.4-0.2,2-0.6C178.7,364.9,178,363.7,178,362.3z"/>
	<path class="st4" d="M236.3,362.3v-17.5c0-1.4,0.7-2.6,1.8-3.2c-0.6-0.4-1.2-0.6-2-0.6c-2.1,0-3.8,1.7-3.8,3.8v17.5
		c0,2.9,3.2,4.8,5.7,3.2C237,364.9,236.3,363.7,236.3,362.3z"/>
	<path class="st4" d="M251.6,362.3v-17.5c0-1.4,0.7-2.6,1.8-3.2c-0.6-0.4-1.2-0.6-2-0.6c-2.1,0-3.8,1.7-3.8,3.8v17.5
		c0,2.9,3.2,4.8,5.7,3.2C252.3,364.9,251.6,363.7,251.6,362.3z"/>
</g>
<g class="st5">
	<path class="st6" d="M155.2,355.3c0-1.3,0.8-2.3,1.8-2.8h-6c-1.7,0-3.1,1.4-3.1,3.1c0,1.7,0,27.4,0,29h7.2
		C155.2,383.3,155.2,356.4,155.2,355.3z"/>
	<g>
		<path class="st6" d="M218,367.8H196c-1.1,0-1.9-0.9-1.9-1.9c0-1.1,0.9-1.9,1.9-1.9H218c1.1,0,1.9,0.9,1.9,1.9S219,367.8,218,367.8
			z"/>
		<path class="st6" d="M218,375.9H196c-1.1,0-1.9-0.9-1.9-1.9c0-1.1,0.9-1.9,1.9-1.9H218c1.1,0,1.9,0.9,1.9,1.9
			C219.9,375.1,219,375.9,218,375.9z"/>
	</g>
</g>
<g>
	<path class="st7" d="M212.2,406.6h-20.2V399h33.4l-22,44.4h-9.5L212.2,406.6z"/>
</g>
</svg>
