<?xml version="1.0" encoding="utf-8"?>
<!-- Generator: Adobe Illustrator 21.1.0, SVG Export Plug-In . SVG Version: 6.00 Build 0)  -->
<svg version="1.1" id="Слой_1" xmlns="http://www.w3.org/2000/svg" xmlns:xlink="http://www.w3.org/1999/xlink" x="0px" y="0px"
	 viewBox="0 0 75 56.9" style="enable-background:new 0 0 75 56.9;" xml:space="preserve">
<style type="text/css">
	.st0{fill:#D2DCF0;}
	.st1{fill:#FFFFFF;}
	.st2{fill:#FF6469;}
	.st3{fill:#FFE169;}
	.st4{fill:#87E1AA;}
	.st5{fill:#E4EAF6;}
	.st6{fill:#D2555F;}
	.st7{fill:#DEE3ED;}
	.st8{fill:#FF969B;}
	.st9{fill:#A0DCF0;}
	.st10{fill:#91E6BE;}
	.st11{fill:#464655;}
</style>
<g>
	<path class="st0" d="M71.1,0H3.9C1.7,0,0,1.7,0,3.9V53c0,2.1,1.7,3.9,3.9,3.9h67.2c2.1,0,3.9-1.7,3.9-3.9V3.9C75,1.7,73.3,0,71.1,0
		L71.1,0z M64.7,2.6h1.3c0.7,0,1.3,0.6,1.3,1.3c0,0.7-0.6,1.3-1.3,1.3h-1.3c-0.7,0-1.3-0.6-1.3-1.3C63.4,3.2,63.9,2.6,64.7,2.6
		L64.7,2.6z M28.4,2.6h31c0.7,0,1.3,0.6,1.3,1.3c0,0.7-0.6,1.3-1.3,1.3h-31c-0.7,0-1.3-0.6-1.3-1.3C27.2,3.2,27.7,2.6,28.4,2.6
		L28.4,2.6z M22,2.6h1.3c0.7,0,1.3,0.6,1.3,1.3c0,0.7-0.6,1.3-1.3,1.3H22c-0.7,0-1.3-0.6-1.3-1.3C20.7,3.2,21.3,2.6,22,2.6L22,2.6z
		 M16.8,2.6h1.3c0.7,0,1.3,0.6,1.3,1.3c0,0.7-0.6,1.3-1.3,1.3h-1.3c-0.7,0-1.3-0.6-1.3-1.3C15.5,3.2,16.1,2.6,16.8,2.6L16.8,2.6z
		 M11.6,2.6c0.7,0,1.3,0.6,1.3,1.3c0,0.7-0.6,1.3-1.3,1.3c-0.7,0-1.3-0.6-1.3-1.3C10.3,3.2,10.9,2.6,11.6,2.6L11.6,2.6z M7.8,2.6
		c0.7,0,1.3,0.6,1.3,1.3c0,0.7-0.6,1.3-1.3,1.3C7,5.2,6.5,4.6,6.5,3.9C6.5,3.2,7,2.6,7.8,2.6L7.8,2.6z M3.9,2.6
		c0.7,0,1.3,0.6,1.3,1.3c0,0.7-0.6,1.3-1.3,1.3c-0.7,0-1.3-0.6-1.3-1.3C2.6,3.2,3.2,2.6,3.9,2.6L3.9,2.6z M72.4,15.5V53
		c0,0.7-0.6,1.3-1.3,1.3H3.9c-0.7,0-1.3-0.6-1.3-1.3v-44c0-0.7,0.6-1.3,1.3-1.3h67.2c0.7,0,1.3,0.6,1.3,1.3V15.5z M71.1,5.2h-1.3
		c-0.7,0-1.3-0.6-1.3-1.3c0-0.7,0.6-1.3,1.3-1.3h1.3c0.7,0,1.3,0.6,1.3,1.3C72.4,4.6,71.8,5.2,71.1,5.2L71.1,5.2z M71.1,5.2"/>
	<path class="st1" d="M37.5,54.3h33.6c0.7,0,1.3-0.6,1.3-1.3V15.5H37.5V54.3z M56.9,22v-1.3c0-0.7,0.6-1.3,1.3-1.3h9.1
		c0.7,0,1.3,0.6,1.3,1.3v11.6c0,0.7-0.6,1.3-1.3,1.3h-9.1c-0.7,0-1.3-0.6-1.3-1.3V22z M41.4,22v-1.3c0-0.7,0.6-1.3,1.3-1.3h9.1
		c0.7,0,1.3,0.6,1.3,1.3v11.6c0,0.7-0.6,1.3-1.3,1.3h-9.1c-0.7,0-1.3-0.6-1.3-1.3L41.4,22L41.4,22z M42.7,37.5h24.6
		c0.7,0,1.3,0.6,1.3,1.3v10.3c0,0.7-0.6,1.3-1.3,1.3H42.7c-0.7,0-1.3-0.6-1.3-1.3V38.8C41.4,38.1,42,37.5,42.7,37.5L42.7,37.5z
		 M42.7,37.5"/>
	<path class="st2" d="M5.2,3.9c0,0.7-0.6,1.3-1.3,1.3c-0.7,0-1.3-0.6-1.3-1.3c0-0.7,0.6-1.3,1.3-1.3C4.6,2.6,5.2,3.2,5.2,3.9
		L5.2,3.9z M5.2,3.9"/>
	<path class="st3" d="M9.1,3.9c0,0.7-0.6,1.3-1.3,1.3C7,5.2,6.5,4.6,6.5,3.9c0-0.7,0.6-1.3,1.3-1.3C8.5,2.6,9.1,3.2,9.1,3.9L9.1,3.9
		z M9.1,3.9"/>
	<path class="st4" d="M12.9,3.9c0,0.7-0.6,1.3-1.3,1.3c-0.7,0-1.3-0.6-1.3-1.3c0-0.7,0.6-1.3,1.3-1.3C12.4,2.6,12.9,3.2,12.9,3.9
		L12.9,3.9z M12.9,3.9"/>
	<path class="st5" d="M16.8,5.2h1.3c0.7,0,1.3-0.6,1.3-1.3c0-0.7-0.6-1.3-1.3-1.3h-1.3c-0.7,0-1.3,0.6-1.3,1.3
		C15.5,4.6,16.1,5.2,16.8,5.2L16.8,5.2z M16.8,5.2"/>
	<path class="st5" d="M22,5.2h1.3c0.7,0,1.3-0.6,1.3-1.3c0-0.7-0.6-1.3-1.3-1.3H22c-0.7,0-1.3,0.6-1.3,1.3C20.7,4.6,21.3,5.2,22,5.2
		L22,5.2z M22,5.2"/>
	<path class="st5" d="M64.7,5.2h1.3c0.7,0,1.3-0.6,1.3-1.3c0-0.7-0.6-1.3-1.3-1.3h-1.3c-0.7,0-1.3,0.6-1.3,1.3
		C63.4,4.6,63.9,5.2,64.7,5.2L64.7,5.2z M64.7,5.2"/>
	<path class="st5" d="M71.1,2.6h-1.3c-0.7,0-1.3,0.6-1.3,1.3c0,0.7,0.6,1.3,1.3,1.3h1.3c0.7,0,1.3-0.6,1.3-1.3
		C72.4,3.2,71.8,2.6,71.1,2.6L71.1,2.6z M71.1,2.6"/>
	<path class="st5" d="M28.4,5.2h31c0.7,0,1.3-0.6,1.3-1.3c0-0.7-0.6-1.3-1.3-1.3h-31c-0.7,0-1.3,0.6-1.3,1.3
		C27.2,4.6,27.7,5.2,28.4,5.2L28.4,5.2z M28.4,5.2"/>
	<path class="st2" d="M71.1,7.8H37.5v7.8h34.9V9.1C72.4,8.3,71.8,7.8,71.1,7.8L71.1,7.8z M46.6,12.9h-5.2c-0.7,0-1.3-0.6-1.3-1.3
		c0-0.7,0.6-1.3,1.3-1.3h5.2c0.7,0,1.3,0.6,1.3,1.3C47.8,12.4,47.3,12.9,46.6,12.9L46.6,12.9z M56.9,12.9h-5.2
		c-0.7,0-1.3-0.6-1.3-1.3c0-0.7,0.6-1.3,1.3-1.3h5.2c0.7,0,1.3,0.6,1.3,1.3C58.2,12.4,57.6,12.9,56.9,12.9L56.9,12.9z M67.2,12.9
		h-5.2c-0.7,0-1.3-0.6-1.3-1.3c0-0.7,0.6-1.3,1.3-1.3h5.2c0.7,0,1.3,0.6,1.3,1.3C68.5,12.4,68,12.9,67.2,12.9L67.2,12.9z M67.2,12.9
		"/>
	<path class="st6" d="M46.6,10.3h-5.2c-0.7,0-1.3,0.6-1.3,1.3c0,0.7,0.6,1.3,1.3,1.3h5.2c0.7,0,1.3-0.6,1.3-1.3
		C47.8,10.9,47.3,10.3,46.6,10.3L46.6,10.3z M46.6,10.3"/>
	<path class="st6" d="M56.9,10.3h-5.2c-0.7,0-1.3,0.6-1.3,1.3c0,0.7,0.6,1.3,1.3,1.3h5.2c0.7,0,1.3-0.6,1.3-1.3
		C58.2,10.9,57.6,10.3,56.9,10.3L56.9,10.3z M56.9,10.3"/>
	<path class="st6" d="M67.2,10.3h-5.2c-0.7,0-1.3,0.6-1.3,1.3c0,0.7,0.6,1.3,1.3,1.3h5.2c0.7,0,1.3-0.6,1.3-1.3
		C68.5,10.9,68,10.3,67.2,10.3L67.2,10.3z M67.2,10.3"/>
	<path class="st7" d="M42.7,33.6h9.1c0.7,0,1.3-0.6,1.3-1.3V22c0,0.7-0.6,1.3-1.3,1.3h-9.1c-0.7,0-1.3-0.6-1.3-1.3v10.3
		C41.4,33,42,33.6,42.7,33.6L42.7,33.6z M42.7,33.6"/>
	<path class="st7" d="M58.2,33.6h9.1c0.7,0,1.3-0.6,1.3-1.3V22c0,0.7-0.6,1.3-1.3,1.3h-9.1c-0.7,0-1.3-0.6-1.3-1.3v10.3
		C56.9,33,57.5,33.6,58.2,33.6L58.2,33.6z M58.2,33.6"/>
	<path class="st8" d="M42.7,23.3h9.1c0.7,0,1.3-0.6,1.3-1.3v-1.3c0-0.7-0.6-1.3-1.3-1.3h-9.1c-0.7,0-1.3,0.6-1.3,1.3V22
		C41.4,22.7,42,23.3,42.7,23.3L42.7,23.3z M42.7,23.3"/>
	<path class="st9" d="M58.2,23.3h9.1c0.7,0,1.3-0.6,1.3-1.3v-1.3c0-0.7-0.6-1.3-1.3-1.3h-9.1c-0.7,0-1.3,0.6-1.3,1.3V22
		C56.9,22.7,57.5,23.3,58.2,23.3L58.2,23.3z M58.2,23.3"/>
	<path class="st7" d="M45.3,38.8v10.3c0,0.7-0.6,1.3-1.3,1.3h23.3c0.7,0,1.3-0.6,1.3-1.3V38.8c0-0.7-0.6-1.3-1.3-1.3H44
		C44.7,37.5,45.3,38.1,45.3,38.8L45.3,38.8z M45.3,38.8"/>
	<path class="st10" d="M42.7,50.4H44c0.7,0,1.3-0.6,1.3-1.3V38.8c0-0.7-0.6-1.3-1.3-1.3h-1.3c-0.7,0-1.3,0.6-1.3,1.3v10.3
		C41.4,49.9,42,50.4,42.7,50.4L42.7,50.4z M42.7,50.4"/>
	<path class="st11" d="M37.5,7.8H3.9c-0.7,0-1.3,0.6-1.3,1.3v44c0,0.7,0.6,1.3,1.3,1.3h33.6V7.8z M12.9,11.6h20.7
		c0.7,0,1.3,0.6,1.3,1.3c0,0.7-0.6,1.3-1.3,1.3H12.9c-0.7,0-1.3-0.6-1.3-1.3C11.6,12.2,12.2,11.6,12.9,11.6L12.9,11.6z M6.5,11.6
		h1.3c0.7,0,1.3,0.6,1.3,1.3c0,0.7-0.6,1.3-1.3,1.3H6.5c-0.7,0-1.3-0.6-1.3-1.3C5.2,12.2,5.8,11.6,6.5,11.6L6.5,11.6z M19.4,19.4
		h-3.9c-0.7,0-1.3-0.6-1.3-1.3c0-0.7,0.6-1.3,1.3-1.3h3.9c0.7,0,1.3,0.6,1.3,1.3C20.7,18.8,20.1,19.4,19.4,19.4L19.4,19.4z
		 M20.7,23.3c0,0.7-0.6,1.3-1.3,1.3h-3.9c-0.7,0-1.3-0.6-1.3-1.3c0-0.7,0.6-1.3,1.3-1.3h3.9C20.1,22,20.7,22.6,20.7,23.3L20.7,23.3z
		 M6.5,32.3h1.3c0.7,0,1.3,0.6,1.3,1.3c0,0.7-0.6,1.3-1.3,1.3H6.5c-0.7,0-1.3-0.6-1.3-1.3C5.2,32.9,5.8,32.3,6.5,32.3L6.5,32.3z
		 M5.2,28.4c0-0.7,0.6-1.3,1.3-1.3h1.3c0.7,0,1.3,0.6,1.3,1.3c0,0.7-0.6,1.3-1.3,1.3H6.5C5.8,29.7,5.2,29.2,5.2,28.4L5.2,28.4z
		 M9.1,37.5h1.3c0.7,0,1.3,0.6,1.3,1.3c0,0.7-0.6,1.3-1.3,1.3H9.1c-0.7,0-1.3-0.6-1.3-1.3C7.8,38.1,8.3,37.5,9.1,37.5L9.1,37.5z
		 M10.3,24.6H9.1c-0.7,0-1.3-0.6-1.3-1.3S8.3,22,9.1,22h1.3c0.7,0,1.3,0.6,1.3,1.3S11.1,24.6,10.3,24.6L10.3,24.6z M10.3,19.4H9.1
		c-0.7,0-1.3-0.6-1.3-1.3c0-0.7,0.6-1.3,1.3-1.3h1.3c0.7,0,1.3,0.6,1.3,1.3C11.6,18.8,11.1,19.4,10.3,19.4L10.3,19.4z M7.8,50.4H6.5
		c-0.7,0-1.3-0.6-1.3-1.3c0-0.7,0.6-1.3,1.3-1.3h1.3c0.7,0,1.3,0.6,1.3,1.3C9.1,49.9,8.5,50.4,7.8,50.4L7.8,50.4z M10.3,45.3H9.1
		c-0.7,0-1.3-0.6-1.3-1.3c0-0.7,0.6-1.3,1.3-1.3h1.3c0.7,0,1.3,0.6,1.3,1.3C11.6,44.7,11.1,45.3,10.3,45.3L10.3,45.3z M33.6,50.4
		H12.9c-0.7,0-1.3-0.6-1.3-1.3c0-0.7,0.6-1.3,1.3-1.3h20.7c0.7,0,1.3,0.6,1.3,1.3C34.9,49.9,34.3,50.4,33.6,50.4L33.6,50.4z
		 M15.5,42.7h3.9c0.7,0,1.3,0.6,1.3,1.3c0,0.7-0.6,1.3-1.3,1.3h-3.9c-0.7,0-1.3-0.6-1.3-1.3C14.2,43.3,14.8,42.7,15.5,42.7
		L15.5,42.7z M14.2,38.8c0-0.7,0.6-1.3,1.3-1.3h3.9c0.7,0,1.3,0.6,1.3,1.3c0,0.7-0.6,1.3-1.3,1.3h-3.9
		C14.8,40.1,14.2,39.5,14.2,38.8L14.2,38.8z M33.6,45.3h-9.1c-0.7,0-1.3-0.6-1.3-1.3c0-0.7,0.6-1.3,1.3-1.3h9.1
		c0.7,0,1.3,0.6,1.3,1.3C34.9,44.7,34.3,45.3,33.6,45.3L33.6,45.3z M33.6,40.1h-9.1c-0.7,0-1.3-0.6-1.3-1.3c0-0.7,0.6-1.3,1.3-1.3
		h9.1c0.7,0,1.3,0.6,1.3,1.3C34.9,39.5,34.3,40.1,33.6,40.1L33.6,40.1z M33.6,34.9H12.9c-0.7,0-1.3-0.6-1.3-1.3
		c0-0.7,0.6-1.3,1.3-1.3h20.7c0.7,0,1.3,0.6,1.3,1.3C34.9,34.3,34.3,34.9,33.6,34.9L33.6,34.9z M33.6,29.7H12.9
		c-0.7,0-1.3-0.6-1.3-1.3c0-0.7,0.6-1.3,1.3-1.3h20.7c0.7,0,1.3,0.6,1.3,1.3C34.9,29.2,34.3,29.7,33.6,29.7L33.6,29.7z M33.6,24.6
		h-9.1c-0.7,0-1.3-0.6-1.3-1.3s0.6-1.3,1.3-1.3h9.1c0.7,0,1.3,0.6,1.3,1.3S34.3,24.6,33.6,24.6L33.6,24.6z M33.6,19.4h-9.1
		c-0.7,0-1.3-0.6-1.3-1.3c0-0.7,0.6-1.3,1.3-1.3h9.1c0.7,0,1.3,0.6,1.3,1.3C34.9,18.8,34.3,19.4,33.6,19.4L33.6,19.4z M33.6,19.4"/>
	<path class="st3" d="M12.9,14.2h20.7c0.7,0,1.3-0.6,1.3-1.3c0-0.7-0.6-1.3-1.3-1.3H12.9c-0.7,0-1.3,0.6-1.3,1.3
		C11.6,13.6,12.2,14.2,12.9,14.2L12.9,14.2z M12.9,14.2"/>
	<path class="st10" d="M19.4,16.8h-3.9c-0.7,0-1.3,0.6-1.3,1.3c0,0.7,0.6,1.3,1.3,1.3h3.9c0.7,0,1.3-0.6,1.3-1.3
		C20.7,17.4,20.1,16.8,19.4,16.8L19.4,16.8z M19.4,16.8"/>
	<path class="st10" d="M19.4,22h-3.9c-0.7,0-1.3,0.6-1.3,1.3c0,0.7,0.6,1.3,1.3,1.3h3.9c0.7,0,1.3-0.6,1.3-1.3
		C20.7,22.6,20.1,22,19.4,22L19.4,22z M19.4,22"/>
	<path class="st3" d="M33.6,27.2H12.9c-0.7,0-1.3,0.6-1.3,1.3c0,0.7,0.6,1.3,1.3,1.3h20.7c0.7,0,1.3-0.6,1.3-1.3
		C34.9,27.7,34.3,27.2,33.6,27.2L33.6,27.2z M33.6,27.2"/>
	<path class="st1" d="M33.6,32.3H12.9c-0.7,0-1.3,0.6-1.3,1.3c0,0.7,0.6,1.3,1.3,1.3h20.7c0.7,0,1.3-0.6,1.3-1.3
		C34.9,32.9,34.3,32.3,33.6,32.3L33.6,32.3z M33.6,32.3"/>
	<path class="st1" d="M33.6,16.8h-9.1c-0.7,0-1.3,0.6-1.3,1.3c0,0.7,0.6,1.3,1.3,1.3h9.1c0.7,0,1.3-0.6,1.3-1.3
		C34.9,17.4,34.3,16.8,33.6,16.8L33.6,16.8z M33.6,16.8"/>
	<path class="st1" d="M33.6,22h-9.1c-0.7,0-1.3,0.6-1.3,1.3c0,0.7,0.6,1.3,1.3,1.3h9.1c0.7,0,1.3-0.6,1.3-1.3
		C34.9,22.6,34.3,22,33.6,22L33.6,22z M33.6,22"/>
	<path class="st1" d="M33.6,37.5h-9.1c-0.7,0-1.3,0.6-1.3,1.3c0,0.7,0.6,1.3,1.3,1.3h9.1c0.7,0,1.3-0.6,1.3-1.3
		C34.9,38.1,34.3,37.5,33.6,37.5L33.6,37.5z M33.6,37.5"/>
	<path class="st1" d="M33.6,42.7h-9.1c-0.7,0-1.3,0.6-1.3,1.3c0,0.7,0.6,1.3,1.3,1.3h9.1c0.7,0,1.3-0.6,1.3-1.3
		C34.9,43.3,34.3,42.7,33.6,42.7L33.6,42.7z M33.6,42.7"/>
	<path class="st10" d="M15.5,40.1h3.9c0.7,0,1.3-0.6,1.3-1.3c0-0.7-0.6-1.3-1.3-1.3h-3.9c-0.7,0-1.3,0.6-1.3,1.3
		C14.2,39.5,14.8,40.1,15.5,40.1L15.5,40.1z M15.5,40.1"/>
	<path class="st10" d="M15.5,45.3h3.9c0.7,0,1.3-0.6,1.3-1.3c0-0.7-0.6-1.3-1.3-1.3h-3.9c-0.7,0-1.3,0.6-1.3,1.3
		C14.2,44.7,14.8,45.3,15.5,45.3L15.5,45.3z M15.5,45.3"/>
	<path class="st3" d="M33.6,47.8H12.9c-0.7,0-1.3,0.6-1.3,1.3c0,0.7,0.6,1.3,1.3,1.3h20.7c0.7,0,1.3-0.6,1.3-1.3
		C34.9,48.4,34.3,47.8,33.6,47.8L33.6,47.8z M33.6,47.8"/>
	<path class="st2" d="M6.5,14.2h1.3c0.7,0,1.3-0.6,1.3-1.3c0-0.7-0.6-1.3-1.3-1.3H6.5c-0.7,0-1.3,0.6-1.3,1.3
		C5.2,13.6,5.8,14.2,6.5,14.2L6.5,14.2z M6.5,14.2"/>
	<path class="st2" d="M10.3,16.8H9.1c-0.7,0-1.3,0.6-1.3,1.3c0,0.7,0.6,1.3,1.3,1.3h1.3c0.7,0,1.3-0.6,1.3-1.3
		C11.6,17.4,11.1,16.8,10.3,16.8L10.3,16.8z M10.3,16.8"/>
	<path class="st2" d="M10.3,22H9.1c-0.7,0-1.3,0.6-1.3,1.3c0,0.7,0.6,1.3,1.3,1.3h1.3c0.7,0,1.3-0.6,1.3-1.3
		C11.6,22.6,11.1,22,10.3,22L10.3,22z M10.3,22"/>
	<path class="st2" d="M6.5,29.7h1.3c0.7,0,1.3-0.6,1.3-1.3c0-0.7-0.6-1.3-1.3-1.3H6.5c-0.7,0-1.3,0.6-1.3,1.3
		C5.2,29.2,5.8,29.7,6.5,29.7L6.5,29.7z M6.5,29.7"/>
	<path class="st2" d="M6.5,34.9h1.3c0.7,0,1.3-0.6,1.3-1.3c0-0.7-0.6-1.3-1.3-1.3H6.5c-0.7,0-1.3,0.6-1.3,1.3
		C5.2,34.3,5.8,34.9,6.5,34.9L6.5,34.9z M6.5,34.9"/>
	<path class="st2" d="M9.1,40.1h1.3c0.7,0,1.3-0.6,1.3-1.3c0-0.7-0.6-1.3-1.3-1.3H9.1c-0.7,0-1.3,0.6-1.3,1.3
		C7.8,39.5,8.3,40.1,9.1,40.1L9.1,40.1z M9.1,40.1"/>
	<path class="st2" d="M10.3,42.7H9.1c-0.7,0-1.3,0.6-1.3,1.3c0,0.7,0.6,1.3,1.3,1.3h1.3c0.7,0,1.3-0.6,1.3-1.3
		C11.6,43.3,11.1,42.7,10.3,42.7L10.3,42.7z M10.3,42.7"/>
	<path class="st2" d="M7.8,47.8H6.5c-0.7,0-1.3,0.6-1.3,1.3c0,0.7,0.6,1.3,1.3,1.3h1.3c0.7,0,1.3-0.6,1.3-1.3
		C9.1,48.4,8.5,47.8,7.8,47.8L7.8,47.8z M7.8,47.8"/>
</g>
</svg>
