<?xml version="1.0" encoding="utf-8"?>
<!-- Generator: Adobe Illustrator 21.1.0, SVG Export Plug-In . SVG Version: 6.00 Build 0)  -->
<svg version="1.1" id="Layer_1" xmlns="http://www.w3.org/2000/svg" xmlns:xlink="http://www.w3.org/1999/xlink" x="0px" y="0px"
	 viewBox="0 0 35 49.4" style="enable-background:new 0 0 35 49.4;" xml:space="preserve">
<style type="text/css">
	.st0{fill:#0071BC;}
	.st1{fill:#29ABE2;}
	.st2{fill:#B3B3B3;}
	.st3{fill:#E6E6E6;}
	.st4{fill:#FFFFFF;}
</style>
<g>
	<g>
		<polygon points="12.4,2.3 12.4,0 7,0 7,6.7 12.4,6.7 12.4,4.4 9.3,4.4 9.3,2.3 		"/>
		<polygon points="20.1,0 14.7,0 14.7,2.3 17,4.4 14.7,4.4 14.7,6.7 20.1,6.7 20.1,4.4 18.1,2.3 20.1,2.3 		"/>
		<polygon points="28,0 22.6,0 22.6,2.3 24.8,4.4 22.6,4.4 22.6,6.7 28,6.7 28,4.4 25.9,2.3 28,2.3 		"/>
	</g>
	<polygon class="st0" points="3.2,45.4 0,9.7 35,9.7 31.8,45.4 17.5,49.4 	"/>
	<polygon class="st1" points="17.5,46.3 29.1,43.2 31.8,12.7 17.5,12.7 	"/>
	<polygon class="st2" points="7.3,25.8 7.7,30.2 17.5,25.8 17.5,21.4 	"/>
	<polygon class="st3" points="28.4,16.7 17.5,21.4 17.5,25.8 28.1,21.1 	"/>
	<polygon class="st3" points="17.5,37.2 17.5,37.2 12.6,35.9 12.3,32.4 7.9,32.4 8.5,39.3 17.5,41.8 17.5,41.8 	"/>
	<polygon class="st4" points="17.5,25.8 17.5,30.2 22.9,30.2 22.4,35.9 17.5,37.2 17.5,41.8 26.5,39.3 27.7,25.8 	"/>
	<polygon class="st3" points="17.5,25.8 7.3,25.8 7.7,30.2 17.5,30.2 	"/>
	<polygon class="st3" points="17.5,21.1 17.5,16.7 17.5,16.7 6.5,16.7 6.9,21.1 	"/>
	<polygon class="st4" points="17.5,16.7 17.5,21 17.5,21.1 28.1,21.1 28.4,16.7 	"/>
</g>
</svg>
