<?xml version="1.0" encoding="utf-8"?>
<!-- Generator: Adobe Illustrator 21.1.0, SVG Export Plug-In . SVG Version: 6.00 Build 0)  -->
<svg version="1.1" id="Logo" xmlns="http://www.w3.org/2000/svg" xmlns:xlink="http://www.w3.org/1999/xlink" x="0px" y="0px"
	 viewBox="0 0 100 108.7" style="enable-background:new 0 0 100 108.7;" xml:space="preserve">
<style type="text/css">
	.st0{opacity:0.35;clip-path:url(#SVGID_2_);}
	.st1{fill:#FF6911;}
</style>
<g>
	<g>
		<defs>
			<rect id="SVGID_1_" y="8.7" width="100" height="100"/>
		</defs>
		<clipPath id="SVGID_2_">
			<use xlink:href="#SVGID_1_"  style="overflow:visible;"/>
		</clipPath>
		<g class="st0">
			<g>
				
					<rect x="-439.8" y="121.7" transform="matrix(0.7071 -0.7071 0.7071 0.7071 -53.2309 116.1836)" class="st1" width="1106.9" height="1.3"/>
			</g>
			<g>
				
					<rect x="-443.4" y="118.2" transform="matrix(0.7071 -0.7071 0.7071 0.7071 -51.7664 112.6481)" class="st1" width="1106.9" height="1.3"/>
			</g>
			<g>
				
					<rect x="-447" y="114.7" transform="matrix(0.7071 -0.7071 0.7071 0.7071 -50.3727 109.0833)" class="st1" width="1106.9" height="1.3"/>
			</g>
			<g>
				
					<rect x="-450.4" y="111.2" transform="matrix(0.7071 -0.7071 0.7071 0.7071 -48.8668 105.6477)" class="st1" width="1106.9" height="1.3"/>
			</g>
			<g>
				
					<rect x="-454" y="107.6" transform="matrix(0.7071 -0.7071 0.7071 0.7071 -47.373 102.0415)" class="st1" width="1106.9" height="1.3"/>
			</g>
			<g>
				
					<rect x="-457.5" y="104" transform="matrix(0.7071 -0.7071 0.7071 0.7071 -45.9086 98.506)" class="st1" width="1106.9" height="1.3"/>
			</g>
			<g>
				
					<rect x="-461" y="100.6" transform="matrix(0.7071 -0.7071 0.7071 0.7071 -44.4734 95.0411)" class="st1" width="1106.9" height="1.3"/>
			</g>
			<g>
				
					<rect x="-464.7" y="96.9" transform="matrix(0.7071 -0.7071 0.7071 0.7071 -43.0211 91.3349)" class="st1" width="1106.9" height="1.3"/>
			</g>
			<g>
				
					<rect x="-468" y="93.5" transform="matrix(0.7071 -0.7071 0.7071 0.7071 -41.5445 87.9701)" class="st1" width="1106.9" height="1.3"/>
			</g>
			<g>
				
					<rect x="-471.6" y="89.9" transform="matrix(0.7071 -0.7071 0.7071 0.7071 -40.08 84.4345)" class="st1" width="1106.9" height="1.3"/>
			</g>
			<g>
				
					<rect x="-475.2" y="86.3" transform="matrix(0.7071 -0.7071 0.7071 0.7071 -38.5862 80.8283)" class="st1" width="1106.9" height="1.3"/>
			</g>
			<g>
				
					<rect x="-478.8" y="82.7" transform="matrix(0.7071 -0.7071 0.7071 0.7071 -37.0925 77.222)" class="st1" width="1106.9" height="1.3"/>
			</g>
			<g>
				
					<rect x="-482.2" y="79.3" transform="matrix(0.7071 -0.7071 0.7071 0.7071 -35.6573 73.7572)" class="st1" width="1106.9" height="1.3"/>
			</g>
			<g>
				
					<rect x="-485.7" y="75.8" transform="matrix(0.7071 -0.7071 0.7071 0.7071 -34.2221 70.2924)" class="st1" width="1106.9" height="1.3"/>
			</g>
			<g>
				
					<rect x="-489.2" y="72.3" transform="matrix(0.7071 -0.7071 0.7071 0.7071 -32.7577 66.7569)" class="st1" width="1106.9" height="1.3"/>
			</g>
			<g>
				
					<rect x="-492.9" y="68.5" transform="matrix(0.7071 -0.7071 0.7071 0.7071 -31.1639 63.1092)" class="st1" width="1106.9" height="1.3"/>
			</g>
			<g>
				
					<rect x="-496.4" y="65.1" transform="matrix(0.7071 -0.7071 0.7071 0.7071 -29.7994 59.6151)" class="st1" width="1106.9" height="1.3"/>
			</g>
			<g>
				
					<rect x="-499.9" y="61.7" transform="matrix(0.7071 -0.7071 0.7071 0.7071 -28.3643 56.1503)" class="st1" width="1106.9" height="1.3"/>
			</g>
			<g>
				
					<rect x="-503.5" y="58.1" transform="matrix(0.7071 -0.7071 0.7071 0.7071 -26.8705 52.544)" class="st1" width="1106.9" height="1.3"/>
			</g>
			<g>
				
					<rect x="-506.9" y="54.6" transform="matrix(0.7071 -0.7071 0.7071 0.7071 -25.4353 49.0792)" class="st1" width="1106.9" height="1.3"/>
			</g>
			<g>
				
					<rect x="-510.5" y="51" transform="matrix(0.7071 -0.7071 0.7071 0.7071 -23.9416 45.4729)" class="st1" width="1106.9" height="1.3"/>
			</g>
			<g>
				
					<rect x="-514.1" y="47.3" transform="matrix(0.7071 -0.7071 0.7071 0.7071 -22.3771 41.896)" class="st1" width="1106.9" height="1.3"/>
			</g>
			<g>
				
					<rect x="-517.7" y="44" transform="matrix(0.7071 -0.7071 0.7071 0.7071 -21.0834 38.3726)" class="st1" width="1106.9" height="1.3"/>
			</g>
			<g>
				
					<rect x="-521.1" y="40.4" transform="matrix(0.7071 -0.7071 0.7071 0.7071 -19.5482 34.8663)" class="st1" width="1106.9" height="1.3"/>
			</g>
			<g>
				
					<rect x="-524.7" y="36.8" transform="matrix(0.7071 -0.7071 0.7071 0.7071 -18.0837 31.3308)" class="st1" width="1106.9" height="1.3"/>
			</g>
			<g>
				
					<rect x="-528.3" y="33.2" transform="matrix(0.7071 -0.7071 0.7071 0.7071 -16.5899 27.7246)" class="st1" width="1106.9" height="1.3"/>
			</g>
			<g>
				
					<rect x="-531.7" y="29.6" transform="matrix(0.7071 -0.7071 0.7071 0.7071 -15.0548 24.2183)" class="st1" width="1106.9" height="1.3"/>
			</g>
			<g>
				
					<rect x="-535.3" y="26.3" transform="matrix(0.7071 -0.7071 0.7071 0.7071 -13.761 20.6949)" class="st1" width="1106.9" height="1.3"/>
			</g>
			<g>
				
					<rect x="-538.8" y="22.7" transform="matrix(0.7071 -0.7071 0.7071 0.7071 -12.2258 17.1887)" class="st1" width="1106.9" height="1.3"/>
			</g>
			<g>
				
					<rect x="-542.3" y="19.2" transform="matrix(0.7071 -0.7071 0.7071 0.7071 -10.7907 13.7238)" class="st1" width="1106.9" height="1.3"/>
			</g>
			<g>
				
					<rect x="-546" y="15.7" transform="matrix(0.7071 -0.7071 0.7071 0.7071 -9.3676 10.0883)" class="st1" width="1106.9" height="1.3"/>
			</g>
			<g>
				
					<rect x="-549.4" y="12.1" transform="matrix(0.7071 -0.7071 0.7071 0.7071 -7.8324 6.5821)" class="st1" width="1106.9" height="1.3"/>
			</g>
			<g>
				
					<rect x="-553" y="8.6" transform="matrix(0.7071 -0.7071 0.7071 0.7071 -6.368 3.0465)" class="st1" width="1106.9" height="1.3"/>
			</g>
			<g>
				
					<rect x="-556.6" y="5.1" transform="matrix(0.7071 -0.7071 0.7071 0.7071 -4.9742 -0.5183)" class="st1" width="1106.9" height="1.3"/>
			</g>
			<g>
				
					<rect x="-560" y="1.6" transform="matrix(0.7071 -0.7071 0.7071 0.7071 -3.4683 -3.9538)" class="st1" width="1106.9" height="1.3"/>
			</g>
			<g>
				
					<rect x="-563.6" y="-2" transform="matrix(0.7071 -0.7071 0.7071 0.7071 -1.9746 -7.5601)" class="st1" width="1106.9" height="1.3"/>
			</g>
			<g>
				
					<rect x="-567.1" y="-5.6" transform="matrix(0.7071 -0.7071 0.7071 0.7071 -0.5101 -11.0956)" class="st1" width="1106.9" height="1.3"/>
			</g>
			<g>
				
					<rect x="-570.7" y="-9.2" transform="matrix(0.7071 -0.7071 0.7071 0.7071 0.9836 -14.7018)" class="st1" width="1106.9" height="1.3"/>
			</g>
		</g>
	</g>
	<g>
		<path class="st1" d="M15.5,0h8.6l-2.9,21.2H9.7L15.5,0z M29.9,0h8.6l-2.9,21.2H24.1L29.9,0z"/>
	</g>
</g>
</svg>
