<?xml version="1.0" encoding="utf-8"?>
<!-- Generator: Adobe Illustrator 21.1.0, SVG Export Plug-In . SVG Version: 6.00 Build 0)  -->
<svg version="1.1" id="Layer_1" xmlns="http://www.w3.org/2000/svg" xmlns:xlink="http://www.w3.org/1999/xlink" x="0px" y="0px"
	 viewBox="0 0 80 22.4" style="enable-background:new 0 0 80 22.4;" xml:space="preserve">
<style type="text/css">
	.st0{fill:#430098;}
</style>
<g id="Page-1" sketch:type="MSPage">
	<g id="main" transform="translate(-25.000000, -23.000000)" sketch:type="MSArtboardGroup">
		<g id="nav" transform="translate(25.000000, 23.000000)" sketch:type="MSLayerGroup">
			<path id="logo" sketch:type="MSShapeGroup" class="st0" d="M18.1,0H2C0.9,0,0,0.9,0,2v18.4c0,1.1,0.9,2,2,2h16.1c1.1,0,2-0.9,2-2
				V2C20.1,0.9,19.2,0,18.1,0z M19,20.4c0,0.5-0.4,0.9-0.9,0.9H2c-0.5,0-0.9-0.4-0.9-0.9V2c0-0.5,0.4-0.9,0.9-0.9h16.1
				C18.6,1.1,19,1.5,19,2V20.4z M5,19l2.5-2.2L5,14.6V19z M14.1,10c-0.4-0.4-1.3-1-2.7-1C9.9,9,8.3,9.4,7.2,9.7V3.4H5v9.7l1.6-0.7
				c0,0,2.6-1.2,4.8-1.2c1.1,0,1.4,0.6,1.4,1.2V19H15v-6.7C15.1,12.2,15.1,10.9,14.1,10z M11.1,7h2.2c1-1.2,1.5-2.4,1.7-3.6h-2.2
				C12.6,4.6,12,5.8,11.1,7z M73.1,12.3V7.3h2.2v4.9c0,1.1,0.4,1.7,1.3,1.7c0.9,0,1.2-0.5,1.2-1.7V7.3H80v5c0,2.2-1.1,3.5-3.5,3.5
				C74.1,15.7,73.1,14.5,73.1,12.3z M63.6,7.3h2.2v3l2.3-3h2.6L68,10.6l3,5h-2.5l-2-3.3l-0.6,0.7v2.6h-2.2V7.3z M53,11.4
				c0-3,2.1-4.3,4.1-4.3s4.1,1.3,4.1,4.3s-2.1,4.3-4.1,4.3C55.1,15.7,53,14.5,53,11.4z M58.9,11.4C58.9,9.9,58.2,9,57,9
				s-1.8,1-1.8,2.5s0.7,2.5,1.8,2.5C58.2,13.9,58.9,13,58.9,11.4z M44,7.3h3.2c2.1,0,3.4,0.7,3.4,2.7c0,1.3-0.6,2.1-1.6,2.4l1.7,3.2
				h-2.4l-1.6-2.9h-0.6v2.9H44L44,7.3L44,7.3z M47.2,11c0.9,0,1.3-0.3,1.3-1s-0.4-1-1.3-1h-1V11L47.2,11z M35.4,7.3h5.9v1.8h-3.7
				v1.3h2.6v1.7h-2.6v1.5h3.9v1.8h-6.1L35.4,7.3z M25.3,7.3h2.2v3.1h2.7V7.3h2.2v8.3h-2.2v-3.4h-2.7v3.4h-2.2V7.3z"/>
		</g>
	</g>
</g>
</svg>
