<?xml version="1.0" encoding="utf-8"?>
<!-- Generator: Adobe Illustrator 21.1.0, SVG Export Plug-In . SVG Version: 6.00 Build 0)  -->
<svg version="1.1" id="Layer_1" xmlns="http://www.w3.org/2000/svg" xmlns:xlink="http://www.w3.org/1999/xlink" x="0px" y="0px"
	 viewBox="0 0 60 55.1" style="enable-background:new 0 0 60 55.1;" xml:space="preserve">
<style type="text/css">
	.st0{fill:#5A676D;}
	.st1{fill:#BCAE79;}
</style>
<g>
	<polygon class="st0" points="26.2,13.3 18.5,26.6 18.5,26.6 10.8,13.3 18.5,0 	"/>
	<polygon class="st1" points="33.8,0 18.5,0 26.2,13.3 41.5,13.3 	"/>
	<polygon class="st0" points="33.8,26.6 41.5,13.3 41.5,13.3 49.2,26.6 41.5,39.9 	"/>
	<polygon class="st1" points="26.2,39.9 41.5,39.9 33.8,26.6 18.5,26.6 	"/>
</g>
<g>
	<polygon class="st0" points="6.5,55.1 6.5,47 5.2,47 5.2,50.3 1.3,50.3 1.3,47 0,47 0,55.1 1.3,55.1 1.3,51.4 5.2,51.4 5.2,55.1 	
		"/>
	<polygon class="st0" points="10.2,55.1 10.2,47 8.9,47 8.9,55.1 	"/>
	<path class="st0" d="M18.1,52.6c0-0.8-0.5-1.7-1.6-1.9v0c0.8-0.3,1.4-1,1.4-1.9c0-1.3-0.9-2-2.7-2c-1,0-1.9,0-2.6,0v8.1
		c0.9,0,1.7,0,2.2,0C17.4,55.1,18.1,53.7,18.1,52.6L18.1,52.6z M16.6,49.1c0,0.8-0.6,1.3-1.9,1.3c-0.3,0-0.5,0-0.7,0V48
		c0.3,0,0.7,0,1,0C16.2,48,16.6,48.4,16.6,49.1L16.6,49.1z M16.7,52.7c0,0.8-0.6,1.4-1.8,1.4c-0.4,0-0.7,0-1-0.1v-2.6
		c0.2,0,0.6,0,0.7,0C15.9,51.4,16.7,51.7,16.7,52.7L16.7,52.7z"/>
	<polygon class="st0" points="24.3,55.1 24.3,54 21.4,54 21.4,51.4 24.2,51.4 24.2,50.4 21.4,50.4 21.4,48 24.3,48 24.3,47 20,47 
		20,55.1 	"/>
	<path class="st0" d="M31.9,55.1l-2.1-2.8c-0.2-0.3-0.5-0.6-0.7-0.9c1.3-0.1,2.3-1,2.3-2.3c0-1.6-1.2-2.2-2.8-2.2
		c-0.9,0-1.6,0-2.2,0v8.1h1.3v-3.5h0.1l2.5,3.5H31.9L31.9,55.1z M30,49.3c0,0.8-0.6,1.4-1.7,1.4c-0.3,0-0.5,0-0.6,0V48
		c0.2,0,0.4,0,0.7,0C29.5,48,30,48.4,30,49.3L30,49.3z"/>
	<path class="st1" d="M40.2,55.1V47h-1.3v2.4c0,1.2,0,2.9,0.1,3.9c-0.3-0.6-0.6-1.2-1-1.8L35.3,47h-1.7v8.1h1.3v-2.7
		c0-1.2,0-2.8-0.1-3.6c0.3,0.5,0.5,1.1,0.9,1.7l2.8,4.6L40.2,55.1L40.2,55.1z"/>
	<path class="st1" d="M48.8,55.1l-3-8.1h-1.5l-2.9,8.1h1.3l0.6-1.8h3.3l0.6,1.8H48.8L48.8,55.1z M46.4,52.2h-2.6l0.9-2.5
		c0.2-0.4,0.3-0.9,0.4-1.3h0c0.1,0.4,0.2,0.8,0.4,1.3L46.4,52.2L46.4,52.2z"/>
	<polygon class="st1" points="54.3,48.1 54.3,47 48.6,47 48.6,48.1 50.8,48.1 50.8,55.1 52.1,55.1 52.1,48.1 	"/>
	<polygon class="st1" points="60,55.1 60,54 57,54 57,51.4 59.9,51.4 59.9,50.4 57,50.4 57,48 60,48 60,47 55.7,47 55.7,55.1 	"/>
</g>
</svg>
