<?xml version="1.0" encoding="utf-8"?>
<!-- Generator: Adobe Illustrator 21.1.0, SVG Export Plug-In . SVG Version: 6.00 Build 0)  -->
<svg version="1.1" id="Layer_1" xmlns="http://www.w3.org/2000/svg" xmlns:xlink="http://www.w3.org/1999/xlink" x="0px" y="0px"
	 viewBox="295.5 276.5 35 49.4" style="enable-background:new 295.5 276.5 35 49.4;" xml:space="preserve">
<style type="text/css">
	.st0{fill:#E44D26;}
	.st1{fill:#F16529;}
	.st2{fill:#EBEBEB;}
	.st3{fill:#FFFFFF;}
</style>
<g>
	<polygon class="st0" points="298.7,321.9 295.5,286.2 330.5,286.2 327.3,321.9 313,325.9 	"/>
	<polygon class="st1" points="313,322.9 324.6,319.7 327.3,289.1 313,289.1 	"/>
	<polygon class="st2" points="313,302.4 307.2,302.4 306.8,297.9 313,297.9 313,293.5 313,293.5 302,293.5 302.1,294.7 303.2,306.8 
		313,306.8 	"/>
	<polygon class="st2" points="313,313.8 313,313.8 308.1,312.4 307.8,309 305.4,309 303.4,309 304,315.8 313,318.3 313,318.3 	"/>
	<path d="M298.8,276.5h2.2v2.2h2v-2.2h2.2v6.7H303v-2.2h-2v2.2h-2.2L298.8,276.5L298.8,276.5z"/>
	<path d="M308.2,278.7h-2v-2.2h6.1v2.2h-2v4.5h-2.2L308.2,278.7L308.2,278.7z"/>
	<path d="M313.3,276.5h2.3l1.4,2.3l1.4-2.3h2.3v6.7h-2.2v-3.3l-1.5,2.4h0l-1.5-2.4v3.3h-2.2V276.5z"/>
	<path d="M321.9,276.5h2.2v4.5h3.1v2.2h-5.4V276.5z"/>
	<polygon class="st3" points="313,302.4 313,306.8 318.4,306.8 317.9,312.4 313,313.8 313,318.3 322,315.8 322,315.1 323.1,303.6 
		323.2,302.4 322,302.4 	"/>
	<polygon class="st3" points="313,293.5 313,296.2 313,297.9 313,297.9 323.6,297.9 323.6,297.9 323.6,297.9 323.7,296.9 
		323.9,294.7 324,293.5 	"/>
</g>
</svg>
