<?xml version="1.0" encoding="utf-8"?>
<!-- Generator: Adobe Illustrator 21.1.0, SVG Export Plug-In . SVG Version: 6.00 Build 0)  -->
<svg version="1.1" id="Layer_1" xmlns="http://www.w3.org/2000/svg" xmlns:xlink="http://www.w3.org/1999/xlink" x="0px" y="0px"
	 viewBox="172 362 70 69.9" style="enable-background:new 172 362 70 69.9;" xml:space="preserve">
<style type="text/css">
	.st0{fill:#59D8FF;}
	.st1{fill:#00C3F0;}
	.st2{fill:#F2464F;}
	.st3{fill:#797ABD;}
	.st4{fill:#573D98;}
	.st5{fill:#EFE7E4;}
	.st6{fill:#D8D1D0;}
	.st7{fill:#D3333C;}
	.st8{fill:#AF273B;}
	.st9{fill:#353535;}
	.st10{fill:#232323;}
	.st11{fill:#F0C087;}
	.st12{fill:#E6AF78;}
	.st13{fill:#694B4B;}
	.st14{fill:#5A4146;}
</style>
<path class="st0" d="M207,376.3C207,376.3,207,376.3,207,376.3c-6.2,0.1-11.5,5.2-11.5,11.1v3.3c0,0.6,0.5,1,1,1h20.9
	c0.6,0,1-0.5,1-1v-3.3C218.4,381.4,213.2,376.4,207,376.3z"/>
<path class="st1" d="M207,376.3C207,376.3,207,376.3,207,376.3c-0.7,0-1.3,0.1-1.9,0.2c5.4,0.9,9.6,5.6,9.6,10.9v3.3
	c0,0.6-0.5,1-1,1h3.7c0.6,0,1-0.5,1-1v-3.3C218.4,381.4,213.2,376.4,207,376.3z"/>
<path class="st2" d="M210.6,386l-1.4-5.6c-0.1-0.5-0.5-0.8-1-0.8h-2.4c-0.5,0-0.9,0.3-1,0.8l-1.4,5.6c-0.1,0.4,0,0.8,0.3,1l2.6,2.4
	c0.2,0.2,0.5,0.3,0.7,0.3c0.3,0,0.5-0.1,0.7-0.3l2.6-2.4C210.6,386.8,210.7,386.4,210.6,386z"/>
<path class="st3" d="M241.7,411l-17.5-20.9c-0.2-0.2-0.5-0.4-0.8-0.4h-32.9c-0.3,0-0.6,0.1-0.8,0.4L172.2,411
	c-0.3,0.3-0.3,0.7-0.1,1.1c0.2,0.4,0.5,0.6,0.9,0.6h28.6c0.3,0,0.6-0.1,0.8-0.3c0.2-0.2,0.3-0.5,0.3-0.8c0-0.2,0-0.3,0-0.5v-4.6
	c0-2.4,2-4.4,4.4-4.4c2.4,0,4.4,2,4.4,4.4v4.6c0,0.2,0,0.3,0,0.5c0,0.3,0.1,0.6,0.3,0.8c0.2,0.2,0.5,0.3,0.8,0.3h28.5
	c0.4,0,0.8-0.2,0.9-0.6C242,411.7,242,411.3,241.7,411z"/>
<path class="st4" d="M241,410.6h-28.6c-0.5,0-1,0.4-1,0.9c-0.3,2.1-2.1,3.8-4.2,3.9c0,0-0.1,0-0.1,0c0,0-0.1,0-0.1,0
	c-2.2-0.1-4-1.7-4.2-3.9c-0.1-0.5-0.5-0.9-1-0.9H173c-0.6,0-1,0.5-1,1v6.2c0,0.6,0.5,1,1,1h28.6c0.2,0,0.3,0,0.5-0.1
	c1.5-0.8,3.1-1.2,4.8-1.3c0,0,0.1,0,0.1,0c0,0,0.1,0,0.1,0c1.6,0,3.3,0.5,4.8,1.3c0.2,0.1,0.3,0.1,0.5,0.1H241c0.6,0,1-0.5,1-1v-6.2
	C242,411.1,241.5,410.6,241,410.6z"/>
<path class="st0" d="M207,415.4C207,415.4,207,415.4,207,415.4c-6.7,0.1-12.4,5.6-12.4,12v3.6c0,0.6,0.5,1,1,1h22.6c0.6,0,1-0.5,1-1
	v-3.6C219.4,420.9,213.7,415.5,207,415.4z"/>
<path class="st1" d="M207,415.4C207,415.4,207,415.4,207,415.4c-0.6,0-1.2,0.1-1.8,0.2c5.9,0.9,10.5,6,10.5,11.8v3.6
	c0,0.6-0.5,1-1,1h3.7c0.6,0,1-0.5,1-1v-3.6C219.4,420.9,213.7,415.5,207,415.4z"/>
<path class="st5" d="M220.5,402.8l-6-9.5c-0.2-0.3-0.5-0.5-0.9-0.5h-13.3c-0.4,0-0.7,0.2-0.9,0.5l-6,9.5c-0.2,0.3-0.2,0.7,0,1
	c0.2,0.3,0.5,0.5,0.9,0.5h8.2c0.3,0,0.7-0.2,0.9-0.5c0.8-1.2,2.2-2,3.6-2c1.5,0,2.8,0.7,3.6,2c0.2,0.3,0.5,0.5,0.9,0.5h8.1
	c0.4,0,0.7-0.2,0.9-0.5C220.7,403.5,220.7,403.1,220.5,402.8z"/>
<path class="st6" d="M217.5,404.4h2.1c0.4,0,0.7-0.2,0.9-0.5c0.2-0.3,0.2-0.7,0-1l-6-9.5c-0.2-0.3-0.5-0.5-0.9-0.5h-3.4L217.5,404.4
	z"/>
<path class="st7" d="M210.5,377.8c0-0.1,0.2-0.4,0.3-0.9c-1.2-0.4-2.5-0.7-3.8-0.7c0,0,0,0,0,0c-1.3,0-2.6,0.3-3.8,0.7
	c0.1,0.4,0.3,0.7,0.3,0.8l1.2,3h4.6L210.5,377.8z"/>
<path class="st8" d="M208.8,376.4c-0.7,1.8-1.6,4.4-1.6,4.4l0,0h2l1.2-3c0-0.1,0.2-0.4,0.3-0.9C210.1,376.7,209.5,376.6,208.8,376.4
	z"/>
<path class="st9" d="M207.1,399.9h-0.1c-3.5,0-6.4,2.9-6.4,6.4v4.8c0,3.5,2.9,6.4,6.4,6.4h0.1c3.5,0,6.4-2.9,6.4-6.4v-4.8
	C213.5,402.8,210.6,399.9,207.1,399.9z"/>
<path class="st10" d="M207.1,399.9h-0.1c-0.6,0-1.3,0.1-1.9,0.3c2.6,0.8,4.5,3.2,4.5,6.1v4.8c0,2.9-1.9,5.3-4.5,6.1
	c0.6,0.2,1.2,0.3,1.9,0.3h0.1c3.5,0,6.4-2.9,6.4-6.4v-4.8C213.5,402.8,210.6,399.9,207.1,399.9z"/>
<path class="st7" d="M209.3,380.8L209.3,380.8l-2,0l1.3,5.2c0.1,0.4,0,0.8-0.3,1l-2.3,2.1l0.3,0.3c0.2,0.2,0.5,0.3,0.7,0.3
	s0.5-0.1,0.7-0.3l2.6-2.4c0.3-0.3,0.4-0.7,0.3-1L209.3,380.8z"/>
<g>
	<path class="st11" d="M212.1,372.1L212.1,372.1l-0.3-4.4h-10v4.4h-0.4c-0.5,0-0.9,0.4-0.9,0.9v1.3c0,0.5,0.4,0.9,0.9,0.9h0.6
		l0.1,0.6c0.1,0.5,0.3,0.9,0.7,1.2l2,1.7c0.3,0.2,0.6,0.4,1,0.4h1.9c0.4,0,0.7-0.1,1-0.4l2-1.7c0.4-0.3,0.6-0.8,0.7-1.2l0.1-0.6h0.6
		c0.5,0,0.9-0.4,0.9-0.9v-1.3C213,372.6,212.6,372.1,212.1,372.1z"/>
	<path class="st12" d="M211.8,367.7h-6.3h-3.7v4.4h-0.4c-0.5,0-0.9,0.4-0.9,0.9v1.3c0,0.5,0.4,0.9,0.9,0.9h0.6l0.1,0.6
		c0.1,0.5,0.3,0.9,0.7,1.2l2,1.7c0.3,0.2,0.6,0.4,1,0.4h0.8l-0.9-2.7c-0.1-0.4-0.2-0.8-0.2-1.2v-3.8c0-0.3,0.3-0.6,0.6-0.6l0,0
		c0,0,0.6,0,0.9-0.3c0.4,0.2,0.8,0.3,1.3,0.3c0.4,0,0.9-0.1,1.3-0.3c0.4,0.2,0.8,0.3,1.3,0.3c0.1,0,0.1,0,0.2,0l1,0L211.8,367.7z"/>
	<path class="st13" d="M214.3,367.6c0-0.7-0.5-1.3-1.1-1.5c0.1-0.2,0.1-0.4,0.1-0.6c0-0.8-0.7-1.5-1.5-1.5c0,0-0.1,0-0.1,0
		c-0.2-0.6-0.8-1-1.4-1c-0.2,0-0.3,0-0.5,0.1c-0.3-0.4-0.8-0.6-1.3-0.6c-0.1,0-0.3,0-0.4,0c-0.4-0.3-0.8-0.6-1.4-0.6s-1,0.2-1.4,0.6
		c-0.1,0-0.3,0-0.4,0c-0.5,0-0.9,0.2-1.2,0.5c0,0,0,0,0,0c-0.7,0-1.2,0.4-1.4,1c0,0-0.1,0-0.1,0c-0.8,0-1.5,0.7-1.5,1.5
		c0,0.2,0,0.4,0.1,0.6c-0.6,0.2-1.1,0.8-1.1,1.5c0,0.4,0.2,0.7,0.4,1c-0.2,0.3-0.4,0.6-0.4,1c0,0.6,0.3,1,0.8,1.3
		c0,0.7,0.6,1.2,1.3,1.2h0.6c0.2,0,0.5-0.2,0.5-0.4l0.4-2.1c0,0,0.1,0,0.1,0c0.5,0,1-0.3,1.3-0.7c0.3,0.4,0.7,0.7,1.3,0.7
		s1-0.3,1.3-0.7c0.3,0.4,0.7,0.7,1.3,0.7s1-0.3,1.3-0.7c0.3,0.4,0.7,0.7,1.3,0.7c0,0,0.1,0,0.1,0l0.4,2.1c0,0.2,0.3,0.4,0.5,0.4h0.7
		c0.7,0,1.3-0.6,1.3-1.3c0,0,0,0,0,0c0.4-0.3,0.6-0.7,0.6-1.2c0-0.4-0.2-0.7-0.4-1C214.2,368.3,214.3,368,214.3,367.6z"/>
	<path class="st14" d="M206.4,368.5c-0.6-0.2-1-0.8-1-1.4c0-0.4,0.2-0.7,0.4-1c-0.2-0.3-0.4-0.6-0.4-1c0-0.7,0.5-1.3,1.1-1.5
		c-0.1-0.2-0.1-0.4-0.1-0.6c0-0.4,0.2-0.7,0.4-1c0,0,0,0,0,0c-0.5,0-1,0.2-1.4,0.6c-0.1,0-0.3,0-0.4,0c-0.5,0-0.9,0.2-1.2,0.5
		c0,0,0,0,0,0c-0.7,0-1.2,0.4-1.4,1c0,0-0.1,0-0.1,0c-0.8,0-1.5,0.7-1.5,1.5c0,0.2,0,0.4,0.1,0.6c-0.6,0.2-1.1,0.8-1.1,1.5
		c0,0.4,0.2,0.7,0.4,1c-0.2,0.3-0.4,0.6-0.4,1c0,0.6,0.3,1,0.8,1.3c0,0.7,0.6,1.2,1.3,1.2h0.6c0.2,0,0.5-0.2,0.5-0.4l0.4-2.1
		c0,0,0.1,0,0.1,0c0.5,0,1-0.3,1.3-0.7c0.3,0.4,0.7,0.7,1.3,0.7c0.3,0,0.7-0.1,0.9-0.3C206.5,369.1,206.3,368.9,206.4,368.5
		C206.3,368.6,206.3,368.5,206.4,368.5z"/>
</g>
</svg>
