<?xml version="1.0" encoding="utf-8"?>
<!-- Generator: Adobe Illustrator 21.1.0, SVG Export Plug-In . SVG Version: 6.00 Build 0)  -->
<svg version="1.1" id="Layer_1" xmlns="http://www.w3.org/2000/svg" xmlns:xlink="http://www.w3.org/1999/xlink" x="0px" y="0px"
	 viewBox="0 0 30 55.8" style="enable-background:new 0 0 30 55.8;" xml:space="preserve">
<style type="text/css">
	.st0{fill:#E76F00;}
	.st1{fill:#5382A1;}
</style>
<g>
	<path class="st0" d="M28.7,44h-0.2v-0.1h0.6V44h-0.2v0.6h-0.1V44z M29.9,44L29.9,44l-0.2,0.6h-0.1L29.4,44h0v0.6h-0.1v-0.7h0.2
		l0.2,0.5l0.2-0.5H30v0.7h-0.1L29.9,44L29.9,44z"/>
	<path class="st1" d="M9.9,29.6c0,0-1.5,0.9,1,1.1c3,0.3,4.6,0.3,7.9-0.3c0,0,0.9,0.6,2.1,1C13.5,34.6,4,31.2,9.9,29.6"/>
	<path class="st1" d="M9,25.4c0,0-1.6,1.2,0.9,1.5c3.2,0.3,5.8,0.4,10.2-0.5c0,0,0.6,0.6,1.6,1C12.6,30,2.5,27.6,9,25.4"/>
	<path class="st0" d="M16.7,18.3c1.8,2.1-0.5,4-0.5,4s4.7-2.4,2.5-5.4c-2-2.8-3.6-4.2,4.8-9.1C23.6,7.8,10.5,11.1,16.7,18.3"/>
	<path class="st1" d="M26.6,32.7c0,0,1.1,0.9-1.2,1.6c-4.3,1.3-18,1.7-21.8,0.1c-1.4-0.6,1.2-1.4,2-1.6C6.5,32.6,7,32.6,7,32.6
		c-1.5-1.1-9.8,2.1-4.2,3C18,38.1,30.6,34.5,26.6,32.7"/>
	<path class="st1" d="M10.6,21.1c0,0-7,1.7-2.5,2.3c1.9,0.3,5.7,0.2,9.2-0.1c2.9-0.2,5.8-0.8,5.8-0.8s-1,0.4-1.7,0.9
		c-7.1,1.9-20.7,1-16.8-0.9C7.9,20.9,10.6,21.1,10.6,21.1"/>
	<path class="st1" d="M23.1,28c7.2-3.7,3.9-7.3,1.5-6.8c-0.6,0.1-0.8,0.2-0.8,0.2s0.2-0.3,0.6-0.5c4.6-1.6,8.1,4.8-1.5,7.3
		C23,28.2,23.1,28.1,23.1,28"/>
	<path class="st0" d="M18.8,0c0,0,4,4-3.8,10.1C8.8,15,13.6,17.8,15,21c-3.6-3.3-6.3-6.2-4.5-8.8C13.1,8.2,20.4,6.3,18.8,0"/>
	<path class="st1" d="M11.3,38.2c6.9,0.4,17.5-0.2,17.7-3.5c0,0-0.5,1.2-5.7,2.2c-5.9,1.1-13.1,1-17.4,0.3
		C5.9,37.1,6.8,37.9,11.3,38.2"/>
	<path class="st0" d="M10.2,50.6c-0.7,0.6-1.3,0.9-2,0.9c-0.9,0-1.4-0.5-1.4-1.4c0-0.9,0.5-1.6,2.6-1.6h0.8V50.6 M12,52.6v-6.3
		c0-1.6-0.9-2.7-3.1-2.7c-1.3,0-2.4,0.3-3.3,0.7l0.3,1.1C6.5,45.3,7.5,45,8.4,45c1.3,0,1.8,0.5,1.8,1.6v0.8H9.6
		c-3.1,0-4.5,1.2-4.5,3c0,1.5,0.9,2.4,2.6,2.4c1.1,0,1.9-0.5,2.7-1.1l0.1,1L12,52.6L12,52.6z"/>
	<path class="st0" d="M18,52.6h-2.2L13,43.9h2l1.7,5.4l0.4,1.6c0.8-2.3,1.4-4.7,1.7-7h1.9C20.2,46.8,19.3,49.9,18,52.6"/>
	<path class="st0" d="M26.6,50.6c-0.7,0.6-1.3,0.9-2,0.9c-0.9,0-1.4-0.5-1.4-1.4c0-0.9,0.5-1.6,2.6-1.6h0.8V50.6 M28.4,52.6v-6.3
		c0-1.6-0.9-2.7-3.1-2.7c-1.3,0-2.4,0.3-3.3,0.7l0.3,1.1c0.7-0.3,1.7-0.5,2.6-0.5c1.3,0,1.8,0.5,1.8,1.6v0.8h-0.6
		c-3.1,0-4.5,1.2-4.5,3c0,1.5,0.9,2.4,2.6,2.4c1.1,0,1.9-0.5,2.7-1.1l0.1,1L28.4,52.6L28.4,52.6z"/>
	<path class="st0" d="M3.1,54.1c-0.5,0.7-1.3,1.3-2.2,1.7l-0.9-1c0.7-0.4,1.3-0.9,1.6-1.5c0.2-0.5,0.3-1.1,0.3-2.5v-10h1.9v9.9
		C3.8,52.6,3.6,53.4,3.1,54.1"/>
</g>
</svg>
