<?xml version="1.0" encoding="utf-8"?>
<!-- Generator: Adobe Illustrator 21.1.0, SVG Export Plug-In . SVG Version: 6.00 Build 0)  -->
<svg version="1.1" id="Layer_1" xmlns="http://www.w3.org/2000/svg" xmlns:xlink="http://www.w3.org/1999/xlink" x="0px" y="0px"
	 viewBox="198.8 271.3 47 49.8" style="enable-background:new 198.8 271.3 47 49.8;" xml:space="preserve">
<style type="text/css">
	.st0{fill:#F4F6F7;}
	.st1{fill:#D7DEE0;}
	.st2{fill:#C2CACC;}
	.st3{fill:#FF5B62;}
	.st4{fill:#21D0C3;}
	.st5{fill:#405366;}
	.st6{fill:#FFFFFF;}
</style>
<g>
	<ellipse class="st0" cx="219.5" cy="303.6" rx="20.7" ry="6.3"/>
	<path class="st1" d="M240.2,303.6v7.9c0,3.4-9.3,6.2-20.7,6.2c-11.4,0-20.7-2.8-20.7-6.2v-7.9c0,3.4,9.3,6.2,20.7,6.2
		C230.9,309.8,240.2,307,240.2,303.6z"/>
	<ellipse class="st0" cx="219.5" cy="290.6" rx="20.7" ry="6.3"/>
	<path class="st1" d="M240.2,290.6v7.9c0,3.4-9.3,6.2-20.7,6.2c-11.4,0-20.7-2.8-20.7-6.2v-7.9c0,3.4,9.3,6.2,20.7,6.2
		C230.9,296.8,240.2,294,240.2,290.6z"/>
	<ellipse class="st0" cx="219.5" cy="277.6" rx="20.7" ry="6.3"/>
	<path class="st1" d="M240.2,277.5v7.9c0,3.4-9.3,6.2-20.7,6.2c-11.4,0-20.7-2.8-20.7-6.2v-7.9c0,3.4,9.3,6.2,20.7,6.2
		C230.9,283.7,240.2,280.9,240.2,277.5z"/>
	<g>
		<path class="st2" d="M239.5,287v2c-2.3,2.7-10.4,4.6-20,4.6s-17.7-2-20-4.6v-2c2.3,2.7,10.4,4.6,20,4.6S237.2,289.7,239.5,287z"/>
		<path class="st2" d="M239.5,300.1v2c-2.3,2.7-10.4,4.6-20,4.6s-17.7-2-20-4.6v-2c2.3,2.7,10.4,4.6,20,4.6S237.2,302.7,239.5,300.1
			z"/>
	</g>
</g>
<circle class="st3" cx="232.1" cy="287.2" r="1.1"/>
<circle class="st4" cx="228.9" cy="287.5" r="1.1"/>
<circle class="st3" cx="232.1" cy="299.5" r="1.1"/>
<circle class="st4" cx="228.9" cy="299.9" r="1.1"/>
<circle class="st3" cx="232.1" cy="312.8" r="1.1"/>
<circle class="st4" cx="228.9" cy="313.1" r="1.1"/>
<g>
	<path class="st5" d="M239.2,321.1h-21.4c-3.6,0-6.6-3-6.6-6.6v0c0-3.6,3-6.6,6.6-6.6h21.4c3.6,0,6.6,3,6.6,6.6v0
		C245.8,318.2,242.8,321.1,239.2,321.1z"/>
	<g>
		<path class="st6" d="M217.4,316.4c0.1,0.1,0.2,0.1,0.4,0.2c0.2,0.1,0.4,0.1,0.7,0.1c0.2,0,0.4,0,0.6-0.1c0.1-0.1,0.3-0.2,0.3-0.4
			c0.1-0.2,0.1-0.4,0.2-0.7c0-0.3,0-0.6,0-0.9v-3.2h1.2v3.2c0,0.5,0,0.9-0.1,1.3c-0.1,0.4-0.2,0.7-0.3,1c-0.2,0.3-0.4,0.5-0.7,0.7
			c-0.3,0.2-0.7,0.2-1.3,0.2c-0.5,0-1-0.1-1.4-0.4L217.4,316.4z"/>
		<path class="st6" d="M222.1,317.6v-6.3h2.3c0.5,0,1,0.1,1.4,0.2c0.4,0.2,0.7,0.4,1,0.7c0.3,0.3,0.5,0.6,0.6,1
			c0.1,0.4,0.2,0.8,0.2,1.2c0,0.5-0.1,0.9-0.2,1.3c-0.1,0.4-0.4,0.7-0.6,1c-0.3,0.3-0.6,0.5-1,0.6c-0.4,0.2-0.8,0.2-1.3,0.2H222.1z
			 M226.3,314.5c0-0.3,0-0.6-0.1-0.8c-0.1-0.3-0.2-0.5-0.4-0.7c-0.2-0.2-0.4-0.3-0.6-0.4c-0.2-0.1-0.5-0.2-0.8-0.2h-1.1v4.2h1.1
			c0.3,0,0.6-0.1,0.8-0.2c0.2-0.1,0.4-0.3,0.6-0.4c0.2-0.2,0.3-0.4,0.4-0.7C226.3,315,226.3,314.8,226.3,314.5z"/>
		<path class="st6" d="M233.6,316c0,0.3-0.1,0.5-0.2,0.7c-0.1,0.2-0.3,0.4-0.4,0.5c-0.2,0.1-0.4,0.2-0.7,0.3
			c-0.2,0.1-0.5,0.1-0.8,0.1h-3.1v-6.3h3.4c0.2,0,0.4,0,0.6,0.1c0.2,0.1,0.3,0.2,0.5,0.4c0.1,0.2,0.2,0.3,0.3,0.5
			c0.1,0.2,0.1,0.4,0.1,0.6c0,0.3-0.1,0.6-0.2,0.9c-0.2,0.3-0.4,0.5-0.7,0.6c0.4,0.1,0.7,0.3,0.9,0.6
			C233.5,315.3,233.6,315.6,233.6,316z M229.7,312.4v1.6h1.6c0.2,0,0.4-0.1,0.5-0.2c0.1-0.1,0.2-0.3,0.2-0.6c0-0.2-0.1-0.4-0.2-0.6
			s-0.3-0.2-0.5-0.2H229.7z M232.4,315.8c0-0.1,0-0.2-0.1-0.3c0-0.1-0.1-0.2-0.2-0.3c-0.1-0.1-0.1-0.1-0.2-0.2
			c-0.1,0-0.2-0.1-0.3-0.1h-1.9v1.7h1.8c0.1,0,0.2,0,0.3-0.1c0.1,0,0.2-0.1,0.3-0.2c0.1-0.1,0.1-0.2,0.2-0.3
			C232.3,316,232.4,315.9,232.4,315.8z"/>
		<path class="st6" d="M234.2,314.4c0-0.4,0.1-0.8,0.2-1.1c0.1-0.4,0.3-0.7,0.6-1c0.3-0.3,0.6-0.5,1-0.7c0.4-0.2,0.8-0.3,1.3-0.3
			c0.6,0,1.1,0.1,1.5,0.4c0.4,0.3,0.7,0.6,1,1l-0.9,0.7c-0.1-0.2-0.2-0.3-0.3-0.5c-0.1-0.1-0.2-0.2-0.4-0.3
			c-0.1-0.1-0.3-0.1-0.4-0.2c-0.1,0-0.3,0-0.4,0c-0.3,0-0.6,0.1-0.8,0.2c-0.2,0.1-0.4,0.3-0.6,0.5c-0.2,0.2-0.3,0.4-0.3,0.7
			c-0.1,0.3-0.1,0.5-0.1,0.8c0,0.3,0,0.5,0.1,0.8c0.1,0.3,0.2,0.5,0.4,0.7c0.2,0.2,0.4,0.4,0.6,0.5c0.2,0.1,0.5,0.2,0.8,0.2
			c0.1,0,0.3,0,0.4-0.1c0.2,0,0.3-0.1,0.4-0.2c0.1-0.1,0.3-0.2,0.4-0.3c0.1-0.1,0.2-0.3,0.3-0.4l1,0.6c-0.1,0.2-0.2,0.4-0.4,0.6
			c-0.2,0.2-0.4,0.3-0.6,0.5c-0.2,0.1-0.5,0.2-0.8,0.3c-0.3,0.1-0.5,0.1-0.8,0.1c-0.5,0-0.9-0.1-1.2-0.3c-0.4-0.2-0.7-0.4-1-0.7
			c-0.3-0.3-0.5-0.7-0.6-1C234.3,315.2,234.2,314.8,234.2,314.4z"/>
	</g>
</g>
</svg>
