<?xml version="1.0" encoding="utf-8"?>
<!-- Generator: Adobe Illustrator 21.1.0, SVG Export Plug-In . SVG Version: 6.00 Build 0)  -->
<svg version="1.1" id="Layer_1" xmlns="http://www.w3.org/2000/svg" xmlns:xlink="http://www.w3.org/1999/xlink" x="0px" y="0px"
	 viewBox="231.5 362 56 70.1" style="enable-background:new 231.5 362 56 70.1;" xml:space="preserve">
<style type="text/css">
	.st0{fill:#353535;}
	.st1{fill:#262626;}
	.st2{fill:#E6AF78;}
	.st3{fill:#D29B6E;}
	.st4{fill:#F0C087;}
	.st5{fill:#EFE7E4;}
	.st6{fill:#D8D1D0;}
	.st7{fill:#546F7A;}
	.st8{fill:#465A65;}
	.st9{fill:#F2464F;}
	.st10{fill:#D3333C;}
</style>
<path class="st0" d="M262.6,422.4h-3.9c-0.6,0-1,0.5-1,1v7.5c0,0.6,0.5,1,1,1h3.9c0.6,0,1-0.5,1-1v-7.5
	C263.6,422.9,263.1,422.4,262.6,422.4z"/>
<path class="st1" d="M262.6,422.4h-2.8c0.6,0,1,0.5,1,1v7.5c0,0.6-0.5,1-1,1h2.8c0.6,0,1-0.5,1-1v-7.5
	C263.6,422.9,263.1,422.4,262.6,422.4z"/>
<path class="st2" d="M266.7,398.4h-15c-2,0-3.9,0.8-5.2,2.3l-1.2,1.3h-2.4c-0.6,0-1,0.5-1,1v8.2c0,0.6,0.5,1,1,1l0,0v6.4l0,0
	c-0.6,0-1,0.5-1,1c0,0.6,0.5,1,1,1h2.5l2,1.6c1.7,1.4,3.8,2.1,6,2.1h5.6c0.6,0,1-0.5,1-1c0-0.6-0.5-1-1-1l0,0v-17.4h3.2
	c3.1,0,5.6-2.5,5.6-5.6C267.7,398.9,267.3,398.4,266.7,398.4z"/>
<path class="st3" d="M256.9,421.8c0-1.5,1.2-2.7,2.7-2.7c-1.5,0-2.7-1.2-2.7-2.7s1.2-2.7,2.7-2.7c-1.5,0-2.7-1.2-2.7-2.7
	s1.2-2.7,2.7-2.7c-1.5,0-2.7-1.2-2.7-2.7s1.2-2.7,2.7-2.7h-3c-1.5,0-2.7,1.2-2.7,2.7c0,1.5,1.2,2.7,2.7,2.7c-1.5,0-2.7,1.2-2.7,2.7
	c0,1.5,1.2,2.7,2.7,2.7c-1.5,0-2.7,1.2-2.7,2.7c0,1.5,1.2,2.7,2.7,2.7c-1.5,0-2.7,1.2-2.7,2.7c0,1.5,1.2,2.7,2.7,2.7h3
	C258.1,424.5,256.9,423.3,256.9,421.8z"/>
<path class="st4" d="M268.4,403h-9.1c-1.9,0-3.5,1.6-3.5,3.5c0,1.9,1.6,3.5,3.5,3.5h9.1c1.9,0,3.5-1.6,3.5-3.5
	C271.9,404.6,270.3,403,268.4,403z"/>
<path class="st2" d="M268.4,406.9h-9.1c-1.4,0-2.5-0.8-3.1-1.9c-0.2,0.5-0.4,1-0.4,1.5c0,1.9,1.6,3.5,3.5,3.5h9.1
	c1.9,0,3.5-1.6,3.5-3.5c0-0.6-0.1-1.1-0.4-1.5C271,406.1,269.8,406.9,268.4,406.9z"/>
<path class="st4" d="M269.6,407.9h-10.2c-1.9,0-3.5,1.6-3.5,3.5c0,1.9,1.6,3.5,3.5,3.5h10.2c1.9,0,3.5-1.6,3.5-3.5
	C273,409.4,271.5,407.9,269.6,407.9z"/>
<path class="st2" d="M269.6,411.7h-10.2c-1.3,0-2.5-0.8-3.1-1.9c-0.2,0.5-0.4,1-0.4,1.6c0,1.9,1.6,3.5,3.5,3.5h10.2
	c1.9,0,3.5-1.6,3.5-3.5c0-0.6-0.1-1.1-0.4-1.6C272.1,410.9,270.9,411.7,269.6,411.7z"/>
<path class="st4" d="M268.4,412.7h-9.1c-1.9,0-3.5,1.6-3.5,3.5c0,1.9,1.6,3.5,3.5,3.5h9.1c1.9,0,3.5-1.6,3.5-3.5
	C271.9,414.3,270.3,412.7,268.4,412.7z"/>
<path class="st2" d="M268.4,416.6h-9.1c-1.4,0-2.5-0.8-3.1-1.9c-0.2,0.5-0.4,1-0.4,1.5c0,1.9,1.6,3.5,3.5,3.5h9.1
	c1.9,0,3.5-1.6,3.5-3.5c0-0.6-0.1-1.1-0.4-1.5C271,415.8,269.8,416.6,268.4,416.6z"/>
<path class="st5" d="M242.9,400.4h-7.2c-0.6,0-1,0.5-1,1v19.7c0,0.6,0.5,1,1,1h7.2c0.6,0,1-0.5,1-1v-19.7
	C243.9,400.8,243.5,400.4,242.9,400.4z"/>
<path class="st6" d="M234.7,418.4v2.8c0,0.6,0.5,1,1,1h7.2c0.6,0,1-0.5,1-1v-2.8H234.7z"/>
<path class="st7" d="M239.9,398.4h-7.3c-0.6,0-1,0.5-1,1V423c0,0.6,0.5,1,1,1h7.3c0.6,0,1-0.5,1-1v-23.6
	C240.9,398.9,240.4,398.4,239.9,398.4z"/>
<path class="st8" d="M231.5,420.3v2.8c0,0.6,0.5,1,1,1h7.3c0.6,0,1-0.5,1-1v-2.8H231.5z"/>
<circle class="st0" cx="236.2" cy="418.3" r="1.5"/>
<path class="st4" d="M265.9,417.6h-6.6c-1.9,0-3.5,1.6-3.5,3.5c0,1.9,1.6,3.5,3.5,3.5h6.6c1.9,0,3.5-1.6,3.5-3.5
	C269.4,419.2,267.8,417.6,265.9,417.6z"/>
<path class="st2" d="M265.9,421.4h-6.6c-1.4,0-2.5-0.8-3.1-1.9c-0.2,0.5-0.4,1-0.4,1.5c0,1.9,1.6,3.5,3.5,3.5h6.6
	c1.9,0,3.5-1.6,3.5-3.5c0-0.6-0.1-1.1-0.4-1.5C268.5,420.6,267.3,421.4,265.9,421.4z"/>
<path class="st9" d="M286.9,376.4l-23.8-11.6c-0.3-0.2-0.7-0.1-1,0.1c-0.3,0.2-0.5,0.5-0.5,0.9l-0.1,11.6c0,0,0,0,0,0l0.1,11.6
	c0,0.4,0.2,0.7,0.5,0.9c0.2,0.1,0.4,0.2,0.5,0.2c0.2,0,0.3,0,0.5-0.1l23.8-11.6c0.4-0.2,0.6-0.5,0.6-0.9
	C287.5,376.9,287.3,376.6,286.9,376.4z"/>
<path class="st10" d="M286.9,378.3c0.4-0.2,0.6-0.5,0.6-0.9s-0.2-0.8-0.6-0.9l-2.1-1l-23.2,11.3l0,2.3c0,0.4,0.2,0.7,0.5,0.9
	c0.2,0.1,0.4,0.2,0.5,0.2c0.2,0,0.3,0,0.5-0.1L286.9,378.3z"/>
<path class="st0" d="M262.6,362h-3.9c-0.6,0-1,0.5-1,1v40h6v-40C263.6,362.4,263.1,362,262.6,362z"/>
<path class="st1" d="M262.6,362h-2.8c0.6,0,1,0.5,1,1v40h2.8v-40C263.6,362.4,263.1,362,262.6,362z"/>
</svg>
