<?xml version="1.0" encoding="utf-8"?>
<!-- Generator: Adobe Illustrator 21.1.0, SVG Export Plug-In . SVG Version: 6.00 Build 0)  -->
<svg version="1.1" id="Layer_1" xmlns="http://www.w3.org/2000/svg" xmlns:xlink="http://www.w3.org/1999/xlink" x="0px" y="0px"
	 viewBox="0 0 80 20.3" style="enable-background:new 0 0 80 20.3;" xml:space="preserve">
<style type="text/css">
	.st0{fill:#0C61A7;}
	.st1{fill:#3C3835;}
</style>
<g>
	<g>
		<path class="st0" d="M30.8,18.1c0,0.2,0,0.4,0,0.5l0.7-1.3l-0.1-0.4l0.7-0.1l0.3,1.8l0.3-1.1c0-0.1,0-0.2,0-0.3c0-0.1,0-0.2,0-0.3
			l0.8-0.1c0,0.2,0,0.3,0,0.4c0,0.2-0.1,0.4-0.2,0.7l-0.6,1.6h-0.9l-0.2-1.2L31,19.5h-0.9c0-1.1,0-1.8-0.1-2.6l0.7-0.1
			C30.8,17.2,30.8,17.6,30.8,18.1z"/>
		<path class="st0" d="M35.5,17.5c-0.3,0.2-0.5,0.3-0.8,0.5l-0.3,1.6h-0.8l0.5-2.6l0.7-0.1l0,0.4c0.3-0.2,0.5-0.3,0.7-0.4L35.5,17.5
			z"/>
		<path class="st0" d="M35.9,16.9l0.8-0.1l-0.6,2.7h-0.8L35.9,16.9z M36.2,15.7l0.8-0.1l-0.2,0.8L36,16.5L36.2,15.7z"/>
		<path class="st0" d="M38.2,17.5l-0.3,1.3c0,0,0,0.1,0,0.1c0,0,0,0.1,0.1,0.1c0.1,0,0.3-0.1,0.4-0.1l0.1,0.5
			c-0.2,0.1-0.5,0.2-0.9,0.2c-0.4,0-0.6-0.2-0.6-0.5c0,0,0-0.1,0-0.1l0.3-1.5H37l0.1-0.6h0.4l0.1-0.6l0.8-0.1l-0.2,0.8h0.6l-0.2,0.6
			H38.2z"/>
		<path class="st0" d="M39.1,17.8c0.1-0.6,0.4-1,1.3-1c0.5,0,0.9,0.2,0.9,0.7c0,0.5-0.3,0.8-1,1c-0.3,0.1-0.3,0.1-0.6,0.2l0,0.2
			c0,0.1,0,0.2,0.1,0.2c0.3,0,0.7-0.1,1.1-0.3l0.1,0.5c-0.3,0.2-0.8,0.4-1.3,0.4c-0.6,0-0.8-0.2-0.8-0.7c0-0.1,0-0.2,0-0.3
			L39.1,17.8z M40.5,17.5c0-0.1-0.1-0.2-0.2-0.2c-0.3,0-0.4,0.2-0.4,0.4l0,0.2c0.1,0,0.2,0,0.4-0.1C40.4,17.8,40.5,17.7,40.5,17.5z"
			/>
		<path class="st0" d="M43.2,15.7l0.8-0.1l-0.8,3.9h-0.8L43.2,15.7z"/>
		<path class="st0" d="M44.1,17.8c0.1-0.6,0.4-1,1.3-1c0.5,0,0.9,0.2,0.9,0.7c0,0.5-0.3,0.8-1,1c-0.3,0.1-0.3,0.1-0.6,0.2l0,0.2
			c0,0.1,0,0.2,0.1,0.2c0.3,0,0.7-0.1,1.1-0.3l0.1,0.5c-0.3,0.2-0.8,0.4-1.3,0.4c-0.6,0-0.8-0.2-0.8-0.7c0-0.1,0-0.2,0-0.3
			L44.1,17.8z M45.5,17.5c0-0.1-0.1-0.2-0.2-0.2c-0.3,0-0.4,0.2-0.4,0.4l0,0.2c0.1,0,0.2,0,0.4-0.1C45.4,17.8,45.5,17.7,45.5,17.5z"
			/>
		<path class="st0" d="M46.3,19.4l0.2-0.6c0.2,0.1,0.4,0.1,0.7,0.1c0.3,0,0.3-0.1,0.3-0.2c0-0.1,0-0.2-0.3-0.3
			c-0.5-0.3-0.6-0.5-0.5-0.9c0.1-0.6,0.3-0.7,1-0.7c0.3,0,0.6,0.1,0.8,0.1l-0.1,0.6c-0.2-0.1-0.5-0.1-0.7-0.1c-0.2,0-0.3,0-0.3,0.2
			c0,0.1,0,0.2,0.3,0.3c0.6,0.3,0.7,0.4,0.6,0.9c-0.1,0.6-0.3,0.8-1.1,0.8C46.9,19.6,46.5,19.5,46.3,19.4z"/>
		<path class="st0" d="M48.5,19.4l0.2-0.6c0.2,0.1,0.4,0.1,0.7,0.1c0.3,0,0.3-0.1,0.3-0.2c0-0.1,0-0.2-0.3-0.3
			c-0.5-0.3-0.6-0.5-0.5-0.9c0.1-0.6,0.3-0.7,1-0.7c0.3,0,0.6,0.1,0.8,0.1l-0.1,0.6c-0.2-0.1-0.5-0.1-0.7-0.1c-0.2,0-0.3,0-0.3,0.2
			c0,0.1,0,0.2,0.3,0.3c0.6,0.3,0.7,0.4,0.6,0.9c-0.1,0.6-0.3,0.8-1.1,0.8C49.1,19.6,48.8,19.5,48.5,19.4z"/>
		<path class="st0" d="M50.7,20.1l0.4-0.6h-0.3l0.2-0.9h0.8l-0.2,1l-0.6,0.8L50.7,20.1z"/>
		<path class="st0" d="M54.9,19.5l0-0.2c-0.2,0.2-0.5,0.3-0.9,0.3c-0.6,0-0.7-0.4-0.6-1l0.2-0.7c0.1-0.6,0.3-1.1,1.4-1.1
			c0.1,0,0.3,0,0.3,0l0.2-1.1l0.8-0.1l-0.8,3.9H54.9z M54.2,18.7c0,0.1,0,0.2,0.1,0.2c0.3,0,0.5-0.1,0.6-0.3l0.3-1.2
			c-0.1,0-0.2,0-0.3,0c-0.4,0-0.5,0.2-0.5,0.5L54.2,18.7z"/>
		<path class="st0" d="M56.3,18.7c0-0.1,0-0.1,0-0.2l0.1-0.6c0.1-0.7,0.5-1.1,1.4-1.1c0.7,0,1,0.4,1,0.9c0,0.1,0,0.1,0,0.2l-0.1,0.6
			c-0.1,0.6-0.5,1.1-1.4,1.1C56.6,19.6,56.3,19.2,56.3,18.7z M58.1,17.7c0-0.2-0.1-0.3-0.4-0.3c-0.3,0-0.5,0.1-0.5,0.4l-0.1,0.7
			c0,0,0,0.1,0,0.1c0,0.2,0.1,0.3,0.4,0.3c0.3,0,0.5-0.1,0.5-0.4l0.1-0.7C58.1,17.8,58.1,17.8,58.1,17.7z"/>
		<path class="st0" d="M63.6,17.7C63.6,17.7,63.6,17.6,63.6,17.7c0-0.1,0-0.2-0.1-0.2c-0.1,0-0.5,0.1-0.7,0.3l-0.4,1.7h-0.8l0.4-1.8
			c0,0,0-0.1,0-0.1c0-0.1,0-0.1-0.1-0.1c-0.1,0-0.5,0.1-0.7,0.3l-0.4,1.7h-0.8l0.5-2.6l0.7-0.1l0,0.3c0.4-0.2,0.8-0.3,1.1-0.3
			c0.3,0,0.4,0.1,0.5,0.3c0.4-0.2,0.8-0.3,1.1-0.3c0.4,0,0.5,0.2,0.5,0.5c0,0.1,0,0.2,0,0.3L64,19.5h-0.8L63.6,17.7z"/>
		<path class="st0" d="M64.7,18.7c0-0.1,0-0.1,0-0.2l0.1-0.6c0.1-0.7,0.5-1.1,1.4-1.1c0.7,0,1,0.4,1,0.9c0,0.1,0,0.1,0,0.2l-0.1,0.6
			c-0.1,0.6-0.5,1.1-1.4,1.1C65,19.6,64.7,19.2,64.7,18.7z M66.5,17.7c0-0.2-0.1-0.3-0.4-0.3c-0.3,0-0.5,0.1-0.5,0.4l-0.1,0.7
			c0,0,0,0.1,0,0.1c0,0.2,0.1,0.3,0.4,0.3c0.3,0,0.5-0.1,0.5-0.4l0.1-0.7C66.5,17.8,66.5,17.8,66.5,17.7z"/>
		<path class="st0" d="M69.3,17.5c-0.3,0.2-0.5,0.3-0.8,0.5l-0.3,1.6h-0.8l0.5-2.6l0.7-0.1l0,0.4c0.3-0.2,0.5-0.3,0.7-0.4L69.3,17.5
			z"/>
		<path class="st0" d="M69.5,17.8c0.1-0.6,0.4-1,1.3-1c0.5,0,0.9,0.2,0.9,0.7c0,0.5-0.3,0.8-1,1c-0.3,0.1-0.3,0.1-0.6,0.2l0,0.2
			c0,0.1,0,0.2,0.1,0.2c0.3,0,0.7-0.1,1.1-0.3l0.1,0.5c-0.3,0.2-0.8,0.4-1.3,0.4c-0.6,0-0.8-0.2-0.8-0.7c0-0.1,0-0.2,0-0.3
			L69.5,17.8z M70.9,17.5c0-0.1-0.1-0.2-0.2-0.2c-0.3,0-0.4,0.2-0.4,0.4l0,0.2c0.1,0,0.2,0,0.4-0.1C70.8,17.8,70.9,17.7,70.9,17.5z"
			/>
		<path class="st0" d="M72,18.6h0.8l-0.2,0.9h-0.8L72,18.6z"/>
	</g>
</g>
<path class="st0" d="M0.9,3.9c-1.3,1.9-1.1,4.3-0.1,6.3c0,0,0,0.1,0.1,0.1c0,0,0,0.1,0,0.1c0,0,0,0,0,0.1c0,0,0,0.1,0.1,0.1
	c0,0.1,0.1,0.1,0.1,0.2c0,0,0,0.1,0.1,0.1c0,0.1,0.1,0.1,0.1,0.2c0,0,0,0,0,0.1c0.1,0.1,0.1,0.2,0.2,0.2c0,0,0,0,0,0c0,0,0,0,0,0
	c0,0.1,0.1,0.1,0.1,0.2c0,0,0,0,0.1,0.1c0,0.1,0.1,0.1,0.1,0.2c0,0,0,0,0.1,0.1C1.9,11.9,2,12,2.1,12.1c0,0,0,0,0,0c0,0,0,0,0,0
	c0.1,0.1,0.1,0.1,0.2,0.2c0,0,0,0,0.1,0.1c0,0,0.1,0.1,0.2,0.1c0,0,0,0,0.1,0.1c0.1,0.1,0.1,0.1,0.2,0.2c0,0,0,0,0,0c0,0,0,0,0,0
	c0.1,0.1,0.1,0.1,0.2,0.2c0,0,0.1,0,0.1,0.1c0.1,0,0.1,0.1,0.2,0.1c0,0,0.1,0,0.1,0.1c0.1,0,0.1,0.1,0.2,0.1c0,0,0,0,0.1,0
	c0,0,0,0,0,0c0.1,0,0.1,0.1,0.2,0.1c0,0,0.1,0,0.1,0c0.1,0.1,0.2,0.1,0.3,0.2c0,0,0.1,0,0.1,0c0.1,0,0.1,0.1,0.2,0.1
	c0,0,0.1,0,0.1,0.1c0,0,0.1,0.1,0.1,0.1c0,0,0,0,0,0c0,0,0,0,0.1,0c0.1,0,0.2,0.1,0.2,0.1c0,0,0,0,0,0c0.1,0,0.2,0.1,0.3,0.1
	c0,0,0,0,0.1,0c0.1,0,0.2,0.1,0.3,0.1c0,0,0,0,0,0c0.1,0,0.2,0.1,0.3,0.1c0,0,0,0,0.1,0c0.1,0,0.2,0.1,0.3,0.1
	c6.3,1.2,8.2-3.8,8.2-3.8c-1.5,2-4.3,2.5-6.9,2c-0.1,0-0.2-0.1-0.3-0.1c0,0,0,0-0.1,0c-0.1,0-0.2-0.1-0.3-0.1c0,0,0,0,0,0
	c-0.1,0-0.2-0.1-0.2-0.1c0,0,0,0-0.1,0c-0.1,0-0.2-0.1-0.3-0.1c0,0,0,0-0.1,0c-0.1,0-0.1-0.1-0.2-0.1c0,0,0,0-0.1,0
	c-0.1,0-0.1-0.1-0.2-0.1c0,0-0.1,0-0.1-0.1c-0.1,0-0.1-0.1-0.2-0.1c0,0,0,0-0.1,0c-0.1-0.1-0.2-0.1-0.3-0.2c0,0,0,0-0.1,0
	c-0.1,0-0.1-0.1-0.2-0.1c0,0,0,0-0.1,0c-0.1,0-0.1-0.1-0.2-0.1c0,0-0.1,0-0.1-0.1c-0.1,0-0.1-0.1-0.2-0.1c0,0,0,0-0.1-0.1
	C4.2,11,4.1,11,4.1,10.9c0,0,0,0,0,0c-0.1-0.1-0.1-0.1-0.2-0.2c0,0,0,0-0.1-0.1c-0.1-0.1-0.1-0.1-0.2-0.2c0,0,0,0-0.1-0.1
	c-0.1-0.1-0.1-0.1-0.2-0.2c0,0,0,0,0,0c-0.1-0.1-0.1-0.1-0.2-0.2c0,0,0,0-0.1-0.1C3.1,9.9,3,9.8,3,9.8c0,0,0,0,0-0.1
	C2.9,9.6,2.8,9.5,2.8,9.5c-1.4-2-2-4.7-0.8-6.9"/>
<path class="st0" d="M5,2.3C4.1,3.6,4.1,5.5,4.8,6.9C5,7.1,5.1,7.4,5.3,7.6C5.4,7.8,5.6,8,5.8,8.2C5.8,8.3,5.9,8.4,6,8.4
	c0,0,0,0,0.1,0.1c0.1,0.1,0.1,0.1,0.2,0.2c0,0,0,0,0,0c0,0,0,0,0,0c0.1,0.1,0.2,0.1,0.3,0.2c0,0,0,0,0.1,0C6.6,9,6.7,9.1,6.8,9.1
	c0,0,0,0,0,0c0,0,0.1,0.1,0.1,0.1c0,0,0,0,0.1,0c0.1,0,0.1,0.1,0.2,0.1c0,0,0,0,0,0c0.1,0,0.1,0.1,0.2,0.1c0,0,0,0,0.1,0
	c0,0,0.1,0,0.1,0.1c0,0,0,0,0,0c0.1,0,0.2,0.1,0.3,0.1c0,0,0,0,0.1,0c0.1,0,0.1,0.1,0.2,0.1c0,0,0.1,0,0.1,0c0.1,0,0.1,0,0.2,0.1
	c0,0,0.1,0,0.1,0C8.6,10,8.7,10,8.8,10c4.9,0.8,6-3,6-3c-1,1.5-3,2.2-5.1,1.6c-0.1,0-0.2-0.1-0.3-0.1c0,0-0.1,0-0.1,0
	c-0.1,0-0.1,0-0.2-0.1c0,0-0.1,0-0.1,0C9,8.5,8.9,8.4,8.9,8.4c0,0,0,0-0.1,0c-0.1,0-0.2-0.1-0.3-0.1c0,0-0.1,0-0.1-0.1
	c0,0-0.1,0-0.1,0c-0.1,0-0.1-0.1-0.2-0.1c0,0,0,0,0,0C8.1,8,8,8,7.9,7.9c0,0,0,0-0.1,0c0,0-0.1-0.1-0.1-0.1C7.7,7.8,7.6,7.7,7.5,7.6
	c0,0,0,0-0.1,0c-0.9-0.7-1.7-1.7-2-2.8C5.1,3.6,5.1,2.2,5.8,1.2"/>
<path class="st0" d="M8.4,1.1C7.9,1.9,7.8,2.9,8.2,3.8c0.4,1,1.2,1.7,2.2,2.1c0,0,0.1,0,0.1,0c0,0,0,0,0.1,0c0.1,0,0.1,0,0.2,0.1
	c2.7,0.5,3.4-1.4,3.6-1.7c-0.6,0.9-1.7,1.1-3,0.8c-0.1,0-0.2-0.1-0.3-0.1c-0.1,0-0.3-0.1-0.4-0.2c-0.2-0.1-0.5-0.2-0.7-0.4
	c-1.2-0.9-1.9-2.6-1.1-4"/>
<path class="st1" d="M71,4.9l0.1,0.4c0,0.1-0.1,0.2-0.2,0.2"/>
<path class="st1" d="M62.5,4.2c0,0.1-0.1,0.3-0.1,0.4l-0.9,4.4l1-4.6L62.5,4.2z"/>
<polygon class="st1" points="34.5,7.1 34,8.9 34.5,7.1 "/>
<path class="st1" d="M71.1,5.4l-0.3-1.1C70.6,3.4,70,3,68.7,3H63c-0.1,0-0.3,0.1-0.3,0.2l-2.2,10.2c0,0.1,0,0.2,0,0.3
	c0,0.1,0.3,0.1,0.4,0.1h2c0.1,0,0.4,0,0.4,0c0.1,0,0.1-0.2,0.1-0.4l0.7-3.6l0.9-4c0-0.1,0.2-0.2,0.3-0.2l5.6,0
	C71,5.6,71.1,5.5,71.1,5.4"/>
<path class="st1" d="M79.1,1.2c-0.1,0-2.5,0-2.5,0c-0.1,0-0.3,0.1-0.4,0.2l-4.4,6.5c-0.1,0.1-0.2,0.1-0.2,0l-0.3-1.4
	c0-0.1-0.2-0.2-0.3-0.2h-2.8c-0.1,0-0.2,0.1-0.2,0.2l1.3,4.4c0,0.1,0,0.3,0,0.5l-0.6,2.2c0,0.1,0,0.2,0.2,0.2h2.8
	c0.1,0,0.3,0,0.3-0.2l0.6-2.3c0-0.1,0.1-0.3,0.2-0.4l7.2-9.5C80,1.4,80,1.2,79.9,1.2L79.1,1.2z"/>
<path class="st1" d="M49.8,3h-2.5c-0.1,0-0.3,0-0.3,0.2l-0.8,3.9l-0.8,3.8c0,0.1-0.2,0.1-0.3,0.1h-1.7c-1.7,0-1.5-1-1.1-2.6
	c0,0,1.1-5.2,1.1-5.2C43.2,3.1,43.2,3,43,3h-2.4c-0.1,0-0.3,0-0.3,0.2l-1,5.2c-0.5,2.8-0.5,5.3,2.8,5.4c0.1,0,5.2,0,5.2,0
	c0.1,0,0.3,0,0.3-0.2l1.1-5.2l1.1-5.2C49.8,3.2,49.8,3,49.8,3z"/>
<path class="st1" d="M24.4,3h-2.7c-0.1,0-0.3,0-0.3,0.2l-0.5,2.1c0,0.1,0.1,0.2,0.2,0.2h2.6c0.1,0,0.3-0.1,0.3-0.2l0.5-2.1
	C24.5,3.2,24.5,3,24.4,3z"/>
<path class="st1" d="M20.9,6.3c-0.1,0-0.3,0.1-0.3,0.2l-0.4,1.6l-0.8,3.8c0,0-0.4,2-0.5,2.1c0,0-0.4,1.4-1.2,1.4
	c-0.4,0-0.9-0.1-0.9-0.1h0c-0.2-0.1-0.3,0.2-0.3,0.3L16,17.9c0,0.1,0.1,0.2,0.2,0.2c0,0,1.2,0.2,2,0.2h0.1c2,0,3.1-1.2,3.8-4.5
	l0.8-3.8l0.8-3.5c0-0.1,0-0.2-0.2-0.2"/>
<path class="st1" d="M56.2,3c-4.6,0-5.7,2.8-6.3,5.6c-0.6,2.9-0.6,5.1,4.2,5.1h0.2c1.9,0,4.2,0,4.2,0c0.1,0,0.3-0.1,0.3-0.2l0.5-1.8
	c0-0.1-0.1-0.2-0.2-0.2h-4.3c-1.5,0-2.1-0.5-2-1.5c0-0.1,0.1-0.4,0.3-0.4h6.6c0.3,0,0.3-0.2,0.3-0.2C60.5,6.4,60.5,3,56.2,3
	 M57.4,7.5c0,0.1-0.4,0.1-0.4,0.1l-3.6,0c-0.1,0-0.2-0.2-0.2-0.3c0,0,0-0.1,0-0.2c0.3-1,1.1-1.5,2.4-1.5c1.5,0,1.8,0.7,1.8,1.5"/>
<path class="st1" d="M36.4,10.8c0,0,1.3-3.1,1.6-4.9C38.3,3.5,37.1,0,32.5,0c-4.6,0-6.7,3.3-7.4,7c-0.8,3.7,0.2,6.8,4.9,6.8l7,0
	c0.1,0,0.3-0.1,0.3-0.2l0.6-2.3c0-0.1,0-0.2-0.2-0.2l-0.6,0l-0.6,0C36.4,11.1,36.3,11,36.4,10.8C36.4,10.9,36.4,10.9,36.4,10.8
	 M33.9,8.9l-0.5,1.8c0,0.1-0.2,0.2-0.3,0.2h-2.7c-2.1,0-2.6-1.6-2.1-4c0.5-2.4,1.5-4,3.5-4.1c2.8-0.2,3.4,1.8,2.7,4L33.9,8.9z"/>
</svg>
