<?xml version="1.0" encoding="utf-8"?>
<!-- Generator: Adobe Illustrator 21.1.0, SVG Export Plug-In . SVG Version: 6.00 Build 0)  -->
<svg version="1.1" id="Layer_1" xmlns="http://www.w3.org/2000/svg" xmlns:xlink="http://www.w3.org/1999/xlink" x="0px" y="0px"
	 viewBox="0 0 36 36" style="enable-background:new 0 0 36 36;" xml:space="preserve">
<style type="text/css">
	.st0{fill:#F7DF1E;}
</style>
<g>
	<rect class="st0" width="36" height="36"/>
	<path d="M9.5,30.1l2.8-1.7c0.5,0.9,1,1.7,2.2,1.7c1.1,0,1.8-0.4,1.8-2.1V16.5h3.4v11.6c0,3.5-2.1,5.1-5.1,5.1
		C11.8,33.2,10.3,31.8,9.5,30.1"/>
	<path d="M21.4,29.7l2.8-1.6c0.7,1.2,1.7,2.1,3.3,2.1c1.4,0,2.3-0.7,2.3-1.7c0-1.2-0.9-1.6-2.5-2.2l-0.8-0.4c-2.4-1-4.1-2.3-4.1-5.1
		c0-2.5,1.9-4.5,5-4.5c2.2,0,3.7,0.7,4.8,2.7l-2.6,1.7c-0.6-1-1.2-1.4-2.2-1.4c-1,0-1.6,0.6-1.6,1.4c0,1,0.6,1.4,2.1,2.1l0.8,0.4
		c2.9,1.2,4.5,2.5,4.5,5.3c0,3-2.4,4.7-5.6,4.7C24.4,33.2,22.4,31.7,21.4,29.7"/>
</g>
</svg>
