<?xml version="1.0" encoding="utf-8"?>
<!-- Generator: Adobe Illustrator 21.1.0, SVG Export Plug-In . SVG Version: 6.00 Build 0)  -->
<svg version="1.1" id="svg-001" xmlns="http://www.w3.org/2000/svg" xmlns:xlink="http://www.w3.org/1999/xlink" x="0px" y="0px"
	 viewBox="0 0 40 40" style="enable-background:new 0 0 40 40;" xml:space="preserve">
<style type="text/css">
	.st0{fill:url(#path7508_1_);}
	.st1{fill:url(#path7510_1_);}
</style>
<linearGradient id="path7508_1_" gradientUnits="userSpaceOnUse" x1="-684.2476" y1="-355.6292" x2="-656.0359" y2="-383.8448" gradientTransform="matrix(0.9988 0 0 -0.9987 689.0101 -348.8893)">
	<stop  offset="0" style="stop-color:#000000"/>
	<stop  offset="1" style="stop-color:#FFFFFF"/>
</linearGradient>
<path id="path7508" class="st0" d="M20,29.8c8.8,12.1,17.5-3.4,17.5-12.6C37.4,6.2,26.3,0,20,0C9.7,0,0,8.5,0,20
	c0,12.8,11.2,20,20,20c-2-0.3-8.6-1.7-8.7-17c-0.1-10.3,3.4-14.5,8.7-12.6c0.1,0,5.9,2.3,5.9,9.7C25.8,27.5,20,29.8,20,29.8z"/>
<linearGradient id="path7510_1_" gradientUnits="userSpaceOnUse" x1="-654.7586" y1="-382.5675" x2="-682.9703" y2="-354.3519" gradientTransform="matrix(0.9988 0 0 -0.9987 689.0101 -348.8893)">
	<stop  offset="0" style="stop-color:#000000"/>
	<stop  offset="1" style="stop-color:#FFFFFF"/>
</linearGradient>
<path id="path7510" class="st1" d="M20,10.4c-5.8-2-13,2.8-13,12.5C6.9,38.6,18.6,40,20,40c10.2,0,20-8.4,20-20C40,7.1,28.8,0,20,0
	c2.4-0.3,13.1,2.6,13.1,17.3c0,9.5-8,14.7-13.2,12.5c-0.1,0-5.9-2.3-5.9-9.7C14.1,12.7,20,10.4,20,10.4z"/>
</svg>
