<?xml version="1.0" encoding="utf-8"?>
<!-- Generator: Adobe Illustrator 21.1.0, SVG Export Plug-In . SVG Version: 6.00 Build 0)  -->
<svg version="1.1" id="Layer_1" xmlns="http://www.w3.org/2000/svg" xmlns:xlink="http://www.w3.org/1999/xlink" x="0px" y="0px"
	 viewBox="485.5 271.4 46 50.5" style="enable-background:new 485.5 271.4 46 50.5;" xml:space="preserve">
<style type="text/css">
	.st0{fill:#557AFF;}
	.st1{fill:#94B0FF;}
	.st2{fill:#FFFFFF;}
	.st3{fill:#405366;}
</style>
<polygon class="st0" points="525.6,318.4 485.5,318.4 485.5,271.4 514.3,271.4 525.6,282.7 "/>
<polygon class="st1" points="525.6,282.7 514.3,282.7 514.3,271.4 "/>
<g>
	<path class="st2" d="M493.9,293l5.9-3.6v2l-3.2,2l3.2,1.9v2.1l-5.9-3.5V293z"/>
	<path class="st2" d="M510,288.5l-6.9,9.9H501l6.9-9.9H510z"/>
	<path class="st2" d="M517.2,293.9l-5.9,3.5v-2.1l3.2-1.9l-3.2-2v-2l5.9,3.6V293.9z"/>
</g>
<path class="st3" d="M524.8,321.9h-21.7c-3.7,0-6.7-3-6.7-6.7l0,0c0-3.7,3-6.7,6.7-6.7h21.7c3.7,0,6.7,3,6.7,6.7l0,0
	C531.5,318.8,528.5,321.9,524.8,321.9z"/>
<g>
	<path class="st2" d="M506.5,317c0.1,0.1,0.2,0.1,0.4,0.2c0.2,0.1,0.4,0.1,0.7,0.1c0.3,0,0.5,0,0.6-0.1c0.2-0.1,0.3-0.2,0.3-0.4
		c0.1-0.2,0.1-0.4,0.2-0.7c0-0.3,0-0.6,0-0.9v-3.3h1.2v3.3c0,0.5,0,0.9-0.1,1.3c-0.1,0.4-0.2,0.7-0.3,1c-0.2,0.3-0.4,0.5-0.7,0.7
		c-0.3,0.2-0.7,0.2-1.3,0.2c-0.5,0-1-0.1-1.4-0.4L506.5,317z"/>
	<path class="st2" d="M515.1,313.6c0,0-0.1-0.1-0.2-0.2c-0.1-0.1-0.2-0.1-0.4-0.2c-0.2-0.1-0.3-0.1-0.5-0.2c-0.2,0-0.4-0.1-0.6-0.1
		c-0.3,0-0.6,0.1-0.8,0.2c-0.2,0.1-0.3,0.3-0.3,0.5c0,0.1,0,0.2,0.1,0.3c0.1,0.1,0.2,0.2,0.3,0.2s0.3,0.1,0.5,0.2
		c0.2,0.1,0.4,0.1,0.6,0.2c0.3,0.1,0.6,0.2,0.9,0.3c0.3,0.1,0.5,0.2,0.7,0.4c0.2,0.1,0.3,0.3,0.4,0.5c0.1,0.2,0.1,0.5,0.1,0.7
		c0,0.3-0.1,0.6-0.2,0.9c-0.1,0.2-0.3,0.4-0.5,0.6c-0.2,0.2-0.5,0.3-0.8,0.3c-0.3,0.1-0.6,0.1-0.9,0.1c-0.5,0-1-0.1-1.4-0.2
		c-0.5-0.1-0.9-0.4-1.3-0.6l0.6-1.1c0.1,0.1,0.2,0.1,0.3,0.2c0.1,0.1,0.3,0.2,0.5,0.3c0.2,0.1,0.4,0.2,0.6,0.2
		c0.2,0.1,0.5,0.1,0.7,0.1c0.7,0,1-0.2,1-0.7c0-0.1,0-0.3-0.1-0.4c-0.1-0.1-0.2-0.2-0.3-0.3c-0.1-0.1-0.3-0.1-0.5-0.2
		c-0.2-0.1-0.4-0.1-0.7-0.2c-0.3-0.1-0.6-0.2-0.8-0.3c-0.2-0.1-0.4-0.2-0.6-0.4c-0.2-0.1-0.3-0.3-0.3-0.5c-0.1-0.2-0.1-0.4-0.1-0.6
		c0-0.3,0.1-0.6,0.2-0.9c0.1-0.3,0.3-0.5,0.5-0.6c0.2-0.2,0.5-0.3,0.7-0.4c0.3-0.1,0.6-0.1,0.9-0.1c0.5,0,0.9,0.1,1.2,0.2
		c0.4,0.1,0.7,0.3,1,0.5L515.1,313.6z"/>
	<path class="st2" d="M516.9,318.3v-6.4h2.7c0.3,0,0.6,0.1,0.8,0.2c0.3,0.1,0.5,0.3,0.6,0.5c0.2,0.2,0.3,0.4,0.4,0.7
		c0.1,0.3,0.2,0.5,0.2,0.8c0,0.3,0,0.5-0.1,0.8c-0.1,0.3-0.2,0.5-0.4,0.7c-0.2,0.2-0.4,0.4-0.6,0.5c-0.2,0.1-0.5,0.2-0.8,0.2h-1.5
		v2.2H516.9z M518.1,315.1h1.4c0.2,0,0.4-0.1,0.6-0.3c0.2-0.2,0.2-0.4,0.2-0.8c0-0.2,0-0.3-0.1-0.4c0-0.1-0.1-0.2-0.2-0.3
		c-0.1-0.1-0.2-0.2-0.3-0.2c-0.1,0-0.2-0.1-0.3-0.1h-1.4V315.1z"/>
</g>
</svg>
