<?xml version="1.0" encoding="utf-8"?>
<!-- Generator: Adobe Illustrator 21.1.0, SVG Export Plug-In . SVG Version: 6.00 Build 0)  -->
<svg version="1.1" id="Logo" xmlns="http://www.w3.org/2000/svg" xmlns:xlink="http://www.w3.org/1999/xlink" x="0px" y="0px"
	 viewBox="0 0 150 33" style="enable-background:new 0 0 150 33;" xml:space="preserve">
<style type="text/css">
	.st0{fill:#FFFFFF;}
	.st1{fill:url(#SVGID_1_);}
	.st2{fill:url(#SVGID_2_);}
	.st3{fill:url(#SVGID_3_);}
	.st4{fill:url(#SVGID_4_);}
	.st5{fill:url(#SVGID_5_);}
</style>
<g>
	<path class="st0" d="M48.5,7.7L43,25.5h5.2l0.5-2.1h5.4l0.6,2.1h5.2L54.3,7.7H48.5z M50.4,18.4l1-4.1l1,4.1H50.4z"/>
	<path class="st0" d="M65.8,16.5l-2.3-8.8h-5.7l4.8,17.7H69l4.8-17.7h-5.7L65.8,16.5z"/>
	<path class="st0" d="M77.2,7.7l-5.5,17.9h5.2l0.5-2.1h5.4l0.6,2.1h5.2L83,7.7H77.2z M79.1,18.4l1-4.1l1,4.1H79.1z"/>
	<path class="st0" d="M36.1,7.7v4.6h1.6v5.9c0,0.3-0.1,0.6-0.2,0.8c-0.1,0.3-0.3,0.5-0.5,0.7c-0.2,0.2-0.4,0.4-0.7,0.5
		c-0.3,0.1-1.8,0.2-2.1,0.2h-1.2v1.3c0,1.3-0.3,2.7-0.9,3.8h3.5c1,0,1.9-0.2,2.8-0.6c0.9-0.4,1.6-0.9,2.3-1.5
		c0.6-0.6,1.1-1.4,1.5-2.3c0.4-0.9,0.6-1.8,0.6-2.8V7.7H36.1z"/>
	<linearGradient id="SVGID_1_" gradientUnits="userSpaceOnUse" x1="99.4418" y1="7.4247" x2="99.4418" y2="25.8361">
		<stop  offset="0" style="stop-color:#F48F41"/>
		<stop  offset="1" style="stop-color:#F05E2D"/>
	</linearGradient>
	<path class="st1" d="M107.9,24.8c-0.8-0.7-1.4-1.6-1.8-2.6c-0.2-0.3-0.3-0.7-0.4-1c-0.3,0.2-0.8,0.5-1,0.6
		c-0.3,0.1-0.5,0.2-0.8,0.3c-0.3,0.1-0.6,0.1-0.8,0.1c-0.3,0-0.5,0-0.7-0.1c-0.5-0.2-0.8-0.4-1.1-0.7c-0.3-0.2-0.5-0.5-0.7-0.7
		c0.8-0.5,1.4-1.2,2-2c0.5-0.8,0.9-1.7,1-2.7c0.1-1,0.1-1.9-0.1-2.8c-0.2-0.9-0.6-1.7-1.2-2.5c-0.5-0.7-1.2-1.4-2-1.9
		c-0.8-0.5-1.7-0.8-2.6-1c-0.3,0-0.6,0-1.1,0c-0.4,0-0.8,0-1.1,0h-5.1v17.9h5.2v-3.7c0.3,0.3,0.5,0.6,0.8,0.9
		c0.3,0.3,0.6,0.7,0.9,1.1c0.3,0.4,0.7,0.7,1.2,1.1c0.4,0.4,1,0.7,1.5,1.1c0.4,0.2,0.9,0.4,1.4,0.5c0.6,0.1,1.1,0.2,1.8,0.2
		c0.5,0,1,0,1.5-0.1c0.5,0,1-0.1,1.5-0.3c0.5-0.1,1-0.3,1.4-0.5c0.4-0.2,0.7-0.4,0.9-0.6C108.3,25.1,108.1,25,107.9,24.8z M97.9,16
		c-0.3,0.3-0.7,0.5-1.2,0.5h-1.2v-3.4h1.2c0.5,0,0.9,0.2,1.2,0.5c0.3,0.3,0.5,0.7,0.5,1.2C98.4,15.3,98.2,15.7,97.9,16z"/>
	<linearGradient id="SVGID_2_" gradientUnits="userSpaceOnUse" x1="143.3186" y1="7.4247" x2="143.3186" y2="25.8361">
		<stop  offset="0" style="stop-color:#F48F41"/>
		<stop  offset="1" style="stop-color:#F05E2D"/>
	</linearGradient>
	<path class="st2" d="M144.8,7.7V14h-3V7.7h-5.2v17.9h5.2v-6.4h3v6.4h5.2V7.7H144.8z"/>
	<linearGradient id="SVGID_3_" gradientUnits="userSpaceOnUse" x1="127.8628" y1="7.4247" x2="127.8628" y2="25.8361">
		<stop  offset="0" style="stop-color:#F48F41"/>
		<stop  offset="1" style="stop-color:#F05E2D"/>
	</linearGradient>
	<path class="st3" d="M134.7,17.9c-0.2-0.5-0.5-1-0.8-1.4c-0.4-0.4-0.8-0.8-1.3-1.1c-0.5-0.3-1-0.6-1.6-0.8l-2.8-0.9
		c-0.2-0.1-0.3-0.3-0.5-0.5c-0.1-0.2-0.1-0.4,0.1-0.6c0.2-0.2,0.5-0.3,0.8-0.3c0.3,0,0.6-0.1,0.9,0c0.6,0.1,1.2,0.2,1.9,0.4
		c0.7,0.2,1.3,0.4,1.8,0.6c0.1-1.1,0.1-1.9,0.1-2.5c0-0.5,0-1,0-1.2c0-0.3,0-0.5,0-0.6c0-0.1,0-0.3,0-0.6c-0.9-0.3-1.8-0.5-2.6-0.6
		c-0.9-0.1-1.7-0.1-2.6-0.1c-0.7,0-1.4,0.1-2.1,0.3c-0.7,0.2-1.3,0.4-1.7,0.7c-0.5,0.3-0.9,0.7-1.2,1.1c-0.3,0.4-0.6,0.9-0.7,1.4
		c-0.1,0.5-0.2,1-0.2,1.5c0,0.3-0.4,2.7,2.8,4.7c1.1,0.7,2.7,1.4,3.1,1.5c0.2,0.1,0.4,0.2,0.5,0.3c0.2,0.1,0.3,0.2,0.4,0.4
		c0.1,0.2,0.2,0.3,0.2,0.5c0,0.3-0.1,0.5-0.3,0.6c-0.2,0.1-0.4,0.2-0.7,0.2c-0.4,0-1.8-0.3-2.1-0.4c-0.9-0.3-3.1-1.3-3.9-1.7v0.2
		c0,1.1-0.2,2.3-0.7,3.3c-0.3,0.6-0.6,1.1-0.9,1.6c3.4,1.7,6.1,2,8,2c2.4-0.1,3.8-1,4.8-1.9c0.5-0.5,0.9-1.1,1.2-1.8
		c0.3-0.7,0.4-1.5,0.4-2.4C135.1,19,135,18.4,134.7,17.9z"/>
	<linearGradient id="SVGID_4_" gradientUnits="userSpaceOnUse" x1="113.8365" y1="7.4247" x2="113.8365" y2="25.8361">
		<stop  offset="0" style="stop-color:#F48F41"/>
		<stop  offset="1" style="stop-color:#F05E2D"/>
	</linearGradient>
	<path class="st4" d="M115.4,18.6c0,0.4-0.2,0.8-0.5,1.1c-0.3,0.3-0.7,0.5-1.1,0.5c-0.4,0-0.8-0.2-1.1-0.5c-0.3-0.3-0.5-0.7-0.5-1.1
		v-11h-5.2v11.2c0,0.9,0.2,1.8,0.5,2.6c0.4,0.8,0.8,1.5,1.5,2.1c0.6,0.6,1.3,1.1,2.1,1.4c0.8,0.4,1.7,0.5,2.6,0.5
		c0.9,0,1.8-0.2,2.6-0.5c0.8-0.4,1.5-0.8,2.2-1.4c0.6-0.6,1.1-1.3,1.5-2.1c0.4-0.8,0.5-1.7,0.5-2.6V7.6h-5.2V18.6z"/>
	<g>
		<linearGradient id="SVGID_5_" gradientUnits="userSpaceOnUse" x1="15.1173" y1="0.4019" x2="15.1173" y2="33.1647">
			<stop  offset="0" style="stop-color:#F48F41"/>
			<stop  offset="1" style="stop-color:#F05E2D"/>
		</linearGradient>
		<path class="st5" d="M27.2,27l-9,5.2c-1.9,1.1-4.2,1.1-6.1,0l-9-5.2C1.2,25.9,0,23.9,0,21.7V11.3C0,9.1,1.2,7.1,3.1,6l9-5.2
			c1.9-1.1,4.2-1.1,6.1,0l9,5.2c1.9,1.1,3.1,3.1,3.1,5.3v10.4C30.2,23.9,29.1,25.9,27.2,27z"/>
	</g>
	<g id="_x7B_">
		
			<image style="overflow:visible;opacity:0.17;" width="33" height="95" xlink:href="B83F2C3C.png"  transform="matrix(0.24 0 0 0.24 10.1126 4.9855)">
		</image>
		<g>
			<path class="st0" d="M11.3,18c0.2,0.1,0.4,0.3,0.5,0.4c0.1,0.2,0.2,0.4,0.3,0.7c0.1,0.3,0.1,0.6,0.1,0.9v2.3
				c0,0.6,0.1,1.2,0.2,1.7c0.2,0.5,0.4,1,0.8,1.5c0.4,0.5,0.9,0.9,1.5,1.2c0.6,0.4,1.4,0.6,2.3,0.9l0.8-2c-0.3-0.1-0.6-0.3-0.8-0.5
				c-0.2-0.2-0.4-0.5-0.5-0.7c-0.1-0.3-0.2-0.6-0.3-0.9c-0.1-0.3-0.1-0.7-0.1-1.1V20c0-0.7-0.2-1.4-0.6-2c-0.4-0.6-1-1.1-1.9-1.5
				c0.9-0.4,1.5-0.8,1.9-1.5c0.4-0.6,0.6-1.3,0.6-2v-2.3c0-0.4,0-0.7,0.1-1.1c0.1-0.3,0.1-0.7,0.3-0.9c0.1-0.3,0.3-0.5,0.5-0.7
				c0.2-0.2,0.5-0.4,0.8-0.5l-0.8-2c-0.9,0.2-1.6,0.5-2.3,0.9c-0.6,0.3-1.1,0.8-1.5,1.2c-0.4,0.5-0.7,1-0.8,1.5
				c-0.2,0.5-0.2,1.1-0.2,1.7V13c0,0.7-0.1,1.2-0.4,1.6c-0.3,0.4-0.7,0.6-1.3,0.6v2.6C10.8,17.8,11.1,17.8,11.3,18z"/>
		</g>
	</g>
</g>
</svg>
