<?xml version="1.0" encoding="utf-8"?>
<!-- Generator: Adobe Illustrator 21.1.0, SVG Export Plug-In . SVG Version: 6.00 Build 0)  -->
<svg version="1.1" id="Слой_1" xmlns="http://www.w3.org/2000/svg" xmlns:xlink="http://www.w3.org/1999/xlink" x="0px" y="0px"
	 viewBox="0 0 22 44" style="enable-background:new 0 0 22 44;" xml:space="preserve">
<style type="text/css">
	.st0{fill:#FFFFFF;}
</style>
<g>
	<g>
		<path class="st0" d="M13.9,30H8.1C3.6,30,0,26.6,0,22.2V11C0,4.9,4.9,0,11,0s11,4.9,11,11v11.2C22,26.6,18.4,30,13.9,30z M11,1
			C5.5,1,1,5.5,1,11v11.2C1,26,4.1,29,8.1,29h5.7c4,0,7.2-3,7.2-6.8V11C21,5.5,16.5,1,11,1z"/>
	</g>
	<g>
		<path class="st0" d="M11,13.9c-0.5,0-1-0.4-1-1V7c0-0.5,0.4-1,1-1s1,0.4,1,1v6C12,13.5,11.5,13.9,11,13.9z"/>
	</g>
	<g>
		<path class="st0" d="M11,44c-0.1,0-0.3-0.1-0.4-0.2l-5.5-6c-0.2-0.2-0.2-0.5,0-0.7c0.2-0.2,0.5-0.2,0.7,0l5.2,5.6l5.2-5.6
			c0.2-0.2,0.5-0.2,0.7,0c0.2,0.2,0.2,0.5,0,0.7l-5.5,6C11.3,43.9,11.1,44,11,44z"/>
	</g>
</g>
</svg>
