<?xml version="1.0" encoding="utf-8"?>
<!-- Generator: Adobe Illustrator 21.1.0, SVG Export Plug-In . SVG Version: 6.00 Build 0)  -->
<svg version="1.1" id="Слой_1" xmlns="http://www.w3.org/2000/svg" xmlns:xlink="http://www.w3.org/1999/xlink" x="0px" y="0px"
	 viewBox="0 0 13 13" style="enable-background:new 0 0 13 13;" xml:space="preserve">
<style type="text/css">
	.st0{fill:#FF5050;}
	.st1{fill:#FFFFFF;}
</style>
<path class="st0" d="M13,6.5c0,3.6-2.9,6.5-6.5,6.5S0,10.1,0,6.5S2.9,0,6.5,0S13,2.9,13,6.5L13,6.5z M13,6.5"/>
<path class="st1" d="M7.6,6.5L9.2,5c0.3-0.3,0.3-0.8,0-1.1C8.9,3.5,8.4,3.5,8,3.8L6.5,5.4L5,3.8c-0.3-0.3-0.8-0.3-1.1,0
	C3.5,4.1,3.5,4.6,3.8,5l1.5,1.5L3.8,8c-0.3,0.3-0.3,0.8,0,1.1C4,9.3,4.2,9.4,4.4,9.4S4.8,9.3,5,9.2l1.5-1.5L8,9.2
	c0.2,0.2,0.4,0.2,0.6,0.2S9,9.3,9.2,9.2c0.3-0.3,0.3-0.8,0-1.1L7.6,6.5z"/>
</svg>
