<?xml version="1.0" encoding="utf-8"?>
<!-- Generator: Adobe Illustrator 21.1.0, SVG Export Plug-In . SVG Version: 6.00 Build 0)  -->
<svg version="1.1" id="Logo" xmlns="http://www.w3.org/2000/svg" xmlns:xlink="http://www.w3.org/1999/xlink" x="0px" y="0px"
	 viewBox="0 0 520 300" style="enable-background:new 0 0 520 300;" xml:space="preserve">
<style type="text/css">
	.st0{opacity:0.35;enable-background:new    ;}
	.st1{clip-path:url(#SVGID_2_);}
	.st2{fill:#2AD797;}
</style>
<g class="st0">
	<g>
		<defs>
			<rect id="SVGID_1_" width="520" height="300"/>
		</defs>
		<clipPath id="SVGID_2_">
			<use xlink:href="#SVGID_1_"  style="overflow:visible;"/>
		</clipPath>
		<g class="st1">
			<g>
				
					<rect x="-811.5" y="-368.7" transform="matrix(0.7067 -0.7075 0.7075 0.7067 184.7028 -290.487)" class="st2" width="1106.9" height="1.3"/>
			</g>
			<g>
				
					<rect x="-807.9" y="-365.1" transform="matrix(0.7067 -0.7075 0.7075 0.7067 183.1944 -286.9132)" class="st2" width="1106.9" height="1.3"/>
			</g>
			<g>
				
					<rect x="-804.3" y="-361.5" transform="matrix(0.7075 -0.7067 0.7067 0.7075 181.6265 -282.8293)" class="st2" width="1106.9" height="1.3"/>
			</g>
			<g>
				
					<rect x="-800.8" y="-358" transform="matrix(0.7071 -0.7071 0.7071 0.7071 180.2266 -279.606)" class="st2" width="1106.9" height="1.3"/>
			</g>
			<g>
				
					<rect x="-797.3" y="-354.4" transform="matrix(0.7071 -0.7071 0.7071 0.7071 178.7182 -276.0353)" class="st2" width="1106.9" height="1.3"/>
			</g>
			<g>
				
					<rect x="-793.8" y="-351" transform="matrix(0.7067 -0.7075 0.7075 0.7067 177.3898 -272.7733)" class="st2" width="1106.9" height="1.3"/>
			</g>
			<g>
				
					<rect x="-790.3" y="-347.5" transform="matrix(0.7067 -0.7075 0.7075 0.7067 175.9106 -269.2701)" class="st2" width="1106.9" height="1.3"/>
			</g>
			<g>
				
					<rect x="-786.7" y="-343.7" transform="matrix(0.7075 -0.7067 0.7067 0.7075 174.2423 -265.173)" class="st2" width="1106.9" height="1.3"/>
			</g>
			<g>
				
					<rect x="-783.1" y="-340.3" transform="matrix(0.7075 -0.7067 0.7067 0.7075 172.8337 -261.6468)" class="st2" width="1106.9" height="1.3"/>
			</g>
			<g>
				
					<rect x="-779.7" y="-336.8" transform="matrix(0.7071 -0.7071 0.7071 0.7071 171.4342 -258.4062)" class="st2" width="1106.9" height="1.3"/>
			</g>
			<g>
				
					<rect x="-776.1" y="-333.2" transform="matrix(0.7067 -0.7075 0.7075 0.7067 170.0061 -255.0885)" class="st2" width="1106.9" height="1.3"/>
			</g>
			<g>
				
					<rect x="-772.6" y="-329.8" transform="matrix(0.7067 -0.7075 0.7075 0.7067 168.5978 -251.5562)" class="st2" width="1106.9" height="1.3"/>
			</g>
			<g>
				
					<rect x="-769" y="-326.1" transform="matrix(0.7075 -0.7067 0.7067 0.7075 166.9582 -247.5577)" class="st2" width="1106.9" height="1.3"/>
			</g>
			<g>
				
					<rect x="-765.5" y="-322.5" transform="matrix(0.7075 -0.7067 0.7067 0.7075 165.4498 -243.9903)" class="st2" width="1106.9" height="1.3"/>
			</g>
			<g>
				
					<rect x="-761.9" y="-319.1" transform="matrix(0.7071 -0.7071 0.7071 0.7071 164.1212 -240.7065)" class="st2" width="1106.9" height="1.3"/>
			</g>
			<g>
				
					<rect x="-758.4" y="-315.5" transform="matrix(0.7071 -0.7071 0.7071 0.7071 162.6128 -237.1357)" class="st2" width="1106.9" height="1.3"/>
			</g>
			<g>
				
					<rect x="-754.8" y="-312.1" transform="matrix(0.7067 -0.7075 0.7075 0.7067 161.2849 -233.8422)" class="st2" width="1106.9" height="1.3"/>
			</g>
			<g>
				
					<rect x="-751.3" y="-308.4" transform="matrix(0.7075 -0.7067 0.7067 0.7075 159.6449 -229.8719)" class="st2" width="1106.9" height="1.3"/>
			</g>
			<g>
				
					<rect x="-747.8" y="-304.8" transform="matrix(0.7075 -0.7067 0.7067 0.7075 158.1362 -226.3044)" class="st2" width="1106.9" height="1.3"/>
			</g>
			<g>
				
					<rect x="-744.2" y="-301.4" transform="matrix(0.7071 -0.7071 0.7071 0.7071 156.8078 -223.0066)" class="st2" width="1106.9" height="1.3"/>
			</g>
			<g>
				
					<rect x="-740.7" y="-297.9" transform="matrix(0.7071 -0.7071 0.7071 0.7071 155.3288 -219.5066)" class="st2" width="1106.9" height="1.3"/>
			</g>
			<g>
				
					<rect x="-737.2" y="-294.4" transform="matrix(0.7067 -0.7075 0.7075 0.7067 153.9014 -216.158)" class="st2" width="1106.9" height="1.3"/>
			</g>
			<g>
				
					<rect x="-733.6" y="-290.8" transform="matrix(0.7075 -0.7067 0.7067 0.7075 152.3314 -212.1863)" class="st2" width="1106.9" height="1.3"/>
			</g>
			<g>
				
					<rect x="-730.1" y="-287.2" transform="matrix(0.7075 -0.7067 0.7067 0.7075 150.8521 -208.6894)" class="st2" width="1106.9" height="1.3"/>
			</g>
			<g>
				
					<rect x="-726.6" y="-283.7" transform="matrix(0.7071 -0.7071 0.7071 0.7071 149.424 -205.336)" class="st2" width="1106.9" height="1.3"/>
			</g>
			<g>
				
					<rect x="-723" y="-280.2" transform="matrix(0.7071 -0.7071 0.7071 0.7071 148.0157 -201.8067)" class="st2" width="1106.9" height="1.3"/>
			</g>
			<g>
				
					<rect x="-719.6" y="-276.7" transform="matrix(0.7067 -0.7075 0.7075 0.7067 146.6177 -198.5148)" class="st2" width="1106.9" height="1.3"/>
			</g>
			<g>
				
					<rect x="-716" y="-273.1" transform="matrix(0.7067 -0.7075 0.7075 0.7067 145.1094 -194.9411)" class="st2" width="1106.9" height="1.3"/>
			</g>
			<g>
				
					<rect x="-712.4" y="-269.6" transform="matrix(0.7075 -0.7067 0.7067 0.7075 143.5386 -191.0036)" class="st2" width="1106.9" height="1.3"/>
			</g>
			<g>
				
					<rect x="-709" y="-266.1" transform="matrix(0.7071 -0.7071 0.7071 0.7071 142.1402 -187.707)" class="st2" width="1106.9" height="1.3"/>
			</g>
			<g>
				
					<rect x="-705.3" y="-262.5" transform="matrix(0.7071 -0.7071 0.7071 0.7071 140.7026 -184.1069)" class="st2" width="1106.9" height="1.3"/>
			</g>
			<g>
				
					<rect x="-701.9" y="-259.1" transform="matrix(0.7067 -0.7075 0.7075 0.7067 139.3049 -180.8009)" class="st2" width="1106.9" height="1.3"/>
			</g>
			<g>
				
					<rect x="-698.3" y="-255.5" transform="matrix(0.7067 -0.7075 0.7075 0.7067 137.7964 -177.227)" class="st2" width="1106.9" height="1.3"/>
			</g>
			<g>
				
					<rect x="-694.7" y="-251.9" transform="matrix(0.7075 -0.7067 0.7067 0.7075 136.2254 -173.3174)" class="st2" width="1106.9" height="1.3"/>
			</g>
			<g>
				
					<rect x="-691.2" y="-248.3" transform="matrix(0.7075 -0.7067 0.7067 0.7075 134.7461 -169.8205)" class="st2" width="1106.9" height="1.3"/>
			</g>
			<g>
				
					<rect x="-687.7" y="-244.8" transform="matrix(0.7071 -0.7071 0.7071 0.7071 133.3185 -166.4364)" class="st2" width="1106.9" height="1.3"/>
			</g>
			<g>
				
					<rect x="-684.2" y="-241.4" transform="matrix(0.7067 -0.7075 0.7075 0.7067 131.9918 -163.0871)" class="st2" width="1106.9" height="1.3"/>
			</g>
			<g>
				
					<rect x="-680.7" y="-237.9" transform="matrix(0.7067 -0.7075 0.7075 0.7067 130.5127 -159.5841)" class="st2" width="1106.9" height="1.3"/>
			</g>
			<g>
				
					<rect x="-677.1" y="-234.1" transform="matrix(0.7075 -0.7067 0.7067 0.7075 128.8413 -155.661)" class="st2" width="1106.9" height="1.3"/>
			</g>
			<g>
				
					<rect x="-673.5" y="-230.7" transform="matrix(0.7075 -0.7067 0.7067 0.7075 127.4329 -152.1348)" class="st2" width="1106.9" height="1.3"/>
			</g>
			<g>
				
					<rect x="-670.1" y="-227.2" transform="matrix(0.7071 -0.7071 0.7071 0.7071 126.0347 -148.8071)" class="st2" width="1106.9" height="1.3"/>
			</g>
			<g>
				
					<rect x="-666.5" y="-223.6" transform="matrix(0.7067 -0.7075 0.7075 0.7067 124.6083 -145.4025)" class="st2" width="1106.9" height="1.3"/>
			</g>
			<g>
				
					<rect x="-663" y="-220.2" transform="matrix(0.7067 -0.7075 0.7075 0.7067 123.1998 -141.8702)" class="st2" width="1106.9" height="1.3"/>
			</g>
			<g>
				
					<rect x="-659.4" y="-216.5" transform="matrix(0.7075 -0.7067 0.7067 0.7075 121.5573 -138.0459)" class="st2" width="1106.9" height="1.3"/>
			</g>
			<g>
				
					<rect x="-655.9" y="-212.9" transform="matrix(0.7075 -0.7067 0.7067 0.7075 120.0487 -134.4783)" class="st2" width="1106.9" height="1.3"/>
			</g>
			<g>
				
					<rect x="-652.3" y="-209.5" transform="matrix(0.7071 -0.7071 0.7071 0.7071 118.7218 -131.1074)" class="st2" width="1106.9" height="1.3"/>
			</g>
			<g>
				
					<rect x="-648.8" y="-205.9" transform="matrix(0.7071 -0.7071 0.7071 0.7071 117.2133 -127.5367)" class="st2" width="1106.9" height="1.3"/>
			</g>
			<g>
				
					<rect x="-645.3" y="-202.5" transform="matrix(0.7067 -0.7075 0.7075 0.7067 115.8867 -124.1563)" class="st2" width="1106.9" height="1.3"/>
			</g>
			<g>
				
					<rect x="-641.7" y="-198.8" transform="matrix(0.7075 -0.7067 0.7067 0.7075 114.2437 -120.3601)" class="st2" width="1106.9" height="1.3"/>
			</g>
			<g>
				
					<rect x="-638.2" y="-195.2" transform="matrix(0.7075 -0.7067 0.7067 0.7075 112.7352 -116.7927)" class="st2" width="1106.9" height="1.3"/>
			</g>
			<g>
				
					<rect x="-634.6" y="-191.8" transform="matrix(0.7071 -0.7071 0.7071 0.7071 111.4084 -113.4077)" class="st2" width="1106.9" height="1.3"/>
			</g>
			<g>
				
					<rect x="-631.2" y="-188.3" transform="matrix(0.7071 -0.7071 0.7071 0.7071 109.9293 -109.9077)" class="st2" width="1106.9" height="1.3"/>
			</g>
			<g>
				
					<rect x="-627.6" y="-184.8" transform="matrix(0.7067 -0.7075 0.7075 0.7067 108.5033 -106.4719)" class="st2" width="1106.9" height="1.3"/>
			</g>
			<g>
				
					<rect x="-624" y="-181.2" transform="matrix(0.7071 -0.7071 0.7071 0.7071 107.0122 -102.8072)" class="st2" width="1106.9" height="1.3"/>
			</g>
			<g>
				
					<rect x="-620.5" y="-177.6" transform="matrix(0.7075 -0.7067 0.7067 0.7075 105.4512 -99.1775)" class="st2" width="1106.9" height="1.3"/>
			</g>
			<g>
				
					<rect x="-617" y="-174.1" transform="matrix(0.7071 -0.7071 0.7071 0.7071 104.0246 -95.7371)" class="st2" width="1106.9" height="1.3"/>
			</g>
			<g>
				
					<rect x="-613.4" y="-170.6" transform="matrix(0.7071 -0.7071 0.7071 0.7071 102.6162 -92.2079)" class="st2" width="1106.9" height="1.3"/>
			</g>
			<g>
				
					<rect x="-610" y="-167.1" transform="matrix(0.7067 -0.7075 0.7075 0.7067 101.2198 -88.8289)" class="st2" width="1106.9" height="1.3"/>
			</g>
			<g>
				
					<rect x="-606.4" y="-163.5" transform="matrix(0.7067 -0.7075 0.7075 0.7067 99.7112 -85.255)" class="st2" width="1106.9" height="1.3"/>
			</g>
			<g>
				
					<rect x="-602.8" y="-160" transform="matrix(0.7075 -0.7067 0.7067 0.7075 98.1378 -81.4916)" class="st2" width="1106.9" height="1.3"/>
			</g>
			<g>
				
					<rect x="-599.3" y="-156.4" transform="matrix(0.7071 -0.7071 0.7071 0.7071 96.7114 -78.0371)" class="st2" width="1106.9" height="1.3"/>
			</g>
			<g>
				
					<rect x="-595.7" y="-152.9" transform="matrix(0.7071 -0.7071 0.7071 0.7071 95.3028 -74.5079)" class="st2" width="1106.9" height="1.3"/>
			</g>
			<g>
				
					<rect x="-592.3" y="-149.5" transform="matrix(0.7067 -0.7075 0.7075 0.7067 93.9066 -71.1149)" class="st2" width="1106.9" height="1.3"/>
			</g>
			<g>
				
					<rect x="-588.7" y="-145.9" transform="matrix(0.7067 -0.7075 0.7075 0.7067 92.3983 -67.5412)" class="st2" width="1106.9" height="1.3"/>
			</g>
			<g>
				
					<rect x="-585.1" y="-142.3" transform="matrix(0.7075 -0.7067 0.7067 0.7075 90.8244 -63.8056)" class="st2" width="1106.9" height="1.3"/>
			</g>
			<g>
				
					<rect x="-581.6" y="-138.7" transform="matrix(0.7075 -0.7067 0.7067 0.7075 89.3453 -60.3088)" class="st2" width="1106.9" height="1.3"/>
			</g>
			<g>
				
					<rect x="-578.1" y="-135.2" transform="matrix(0.7071 -0.7071 0.7071 0.7071 87.919 -56.8374)" class="st2" width="1106.9" height="1.3"/>
			</g>
			<g>
				
					<rect x="-574.6" y="-131.8" transform="matrix(0.7067 -0.7075 0.7075 0.7067 86.5939 -53.401)" class="st2" width="1106.9" height="1.3"/>
			</g>
			<g>
				
					<rect x="-571.1" y="-128.3" transform="matrix(0.7067 -0.7075 0.7075 0.7067 85.1146 -49.8979)" class="st2" width="1106.9" height="1.3"/>
			</g>
			<g>
				
					<rect x="-567.5" y="-124.5" transform="matrix(0.7075 -0.7067 0.7067 0.7075 83.4405 -46.1492)" class="st2" width="1106.9" height="1.3"/>
			</g>
			<g>
				
					<rect x="-563.9" y="-121.1" transform="matrix(0.7075 -0.7067 0.7067 0.7075 82.0318 -42.6229)" class="st2" width="1106.9" height="1.3"/>
			</g>
			<g>
				
					<rect x="-560.5" y="-117.6" transform="matrix(0.7071 -0.7071 0.7071 0.7071 80.6352 -39.2083)" class="st2" width="1106.9" height="1.3"/>
			</g>
			<g>
				
					<rect x="-556.9" y="-114" transform="matrix(0.7067 -0.7075 0.7075 0.7067 79.2101 -35.7165)" class="st2" width="1106.9" height="1.3"/>
			</g>
			<g>
				
					<rect x="-553.4" y="-110.6" transform="matrix(0.7067 -0.7075 0.7075 0.7067 77.8018 -32.1841)" class="st2" width="1106.9" height="1.3"/>
			</g>
			<g>
				
					<rect x="-549.8" y="-106.9" transform="matrix(0.7075 -0.7067 0.7067 0.7075 76.1565 -28.5339)" class="st2" width="1106.9" height="1.3"/>
			</g>
			<g>
				
					<rect x="-546.2" y="-103.4" transform="matrix(0.7075 -0.7067 0.7067 0.7075 74.7183 -24.9371)" class="st2" width="1106.9" height="1.3"/>
			</g>
			<g>
				
					<rect x="-542.7" y="-99.9" transform="matrix(0.7071 -0.7071 0.7071 0.7071 73.322 -21.5085)" class="st2" width="1106.9" height="1.3"/>
			</g>
			<g>
				
					<rect x="-539.2" y="-96.3" transform="matrix(0.7071 -0.7071 0.7071 0.7071 71.8137 -17.9379)" class="st2" width="1106.9" height="1.3"/>
			</g>
			<g>
				
					<rect x="-535.7" y="-92.9" transform="matrix(0.7067 -0.7075 0.7075 0.7067 70.4887 -14.4703)" class="st2" width="1106.9" height="1.3"/>
			</g>
			<g>
				
					<rect x="-532.1" y="-89.2" transform="matrix(0.7075 -0.7067 0.7067 0.7075 68.8428 -10.8482)" class="st2" width="1106.9" height="1.3"/>
			</g>
			<g>
				
					<rect x="-528.6" y="-85.6" transform="matrix(0.7075 -0.7067 0.7067 0.7075 67.3343 -7.2807)" class="st2" width="1106.9" height="1.3"/>
			</g>
			<g>
				
					<rect x="-525" y="-82.2" transform="matrix(0.7071 -0.7071 0.7071 0.7071 66.0089 -3.8086)" class="st2" width="1106.9" height="1.3"/>
			</g>
			<g>
				
					<rect x="-521.6" y="-78.7" transform="matrix(0.7071 -0.7071 0.7071 0.7071 64.5298 -0.3087)" class="st2" width="1106.9" height="1.3"/>
			</g>
			<g>
				
					<rect x="-518" y="-75.2" transform="matrix(0.7067 -0.7075 0.7075 0.7067 63.1055 3.214)" class="st2" width="1106.9" height="1.3"/>
			</g>
			<g>
				
					<rect x="-514.4" y="-71.6" transform="matrix(0.7071 -0.7071 0.7071 0.7071 61.6127 6.7917)" class="st2" width="1106.9" height="1.3"/>
			</g>
			<g>
				
					<rect x="-510.9" y="-68" transform="matrix(0.7075 -0.7067 0.7067 0.7075 60.0502 10.3344)" class="st2" width="1106.9" height="1.3"/>
			</g>
			<g>
				
					<rect x="-507.4" y="-64.5" transform="matrix(0.7071 -0.7071 0.7071 0.7071 58.625 13.8619)" class="st2" width="1106.9" height="1.3"/>
			</g>
			<g>
				
					<rect x="-503.8" y="-61" transform="matrix(0.7071 -0.7071 0.7071 0.7071 57.2167 17.3912)" class="st2" width="1106.9" height="1.3"/>
			</g>
			<g>
				
					<rect x="-500.4" y="-57.6" transform="matrix(0.7067 -0.7075 0.7075 0.7067 55.8217 20.8573)" class="st2" width="1106.9" height="1.3"/>
			</g>
			<g>
				
					<rect x="-496.8" y="-53.9" transform="matrix(0.7067 -0.7075 0.7075 0.7067 54.3134 24.4311)" class="st2" width="1106.9" height="1.3"/>
			</g>
			<g>
				
					<rect x="-493.2" y="-50.3" transform="matrix(0.7075 -0.7067 0.7067 0.7075 52.7366 28.0203)" class="st2" width="1106.9" height="1.3"/>
			</g>
			<g>
				
					<rect x="-489.7" y="-46.8" transform="matrix(0.7071 -0.7071 0.7071 0.7071 51.3117 31.5616)" class="st2" width="1106.9" height="1.3"/>
			</g>
			<g>
				
					<rect x="-486.1" y="-43.3" transform="matrix(0.7071 -0.7071 0.7071 0.7071 49.9034 35.0909)" class="st2" width="1106.9" height="1.3"/>
			</g>
			<g>
				
					<rect x="-482.7" y="-39.9" transform="matrix(0.7067 -0.7075 0.7075 0.7067 48.5088 38.571)" class="st2" width="1106.9" height="1.3"/>
			</g>
			<g>
				
					<rect x="-479.1" y="-36.3" transform="matrix(0.7067 -0.7075 0.7075 0.7067 47.0002 42.145)" class="st2" width="1106.9" height="1.3"/>
			</g>
			<g>
				
					<rect x="-475.5" y="-32.7" transform="matrix(0.7075 -0.7067 0.7067 0.7075 45.4235 45.7064)" class="st2" width="1106.9" height="1.3"/>
			</g>
			<g>
				
					<rect x="-472" y="-29.1" transform="matrix(0.7075 -0.7067 0.7067 0.7075 43.9443 49.2033)" class="st2" width="1106.9" height="1.3"/>
			</g>
			<g>
				
					<rect x="-468.5" y="-25.6" transform="matrix(0.7071 -0.7071 0.7071 0.7071 42.5196 52.7615)" class="st2" width="1106.9" height="1.3"/>
			</g>
			<g>
				
					<rect x="-465" y="-22.2" transform="matrix(0.7067 -0.7075 0.7075 0.7067 41.1958 56.2849)" class="st2" width="1106.9" height="1.3"/>
			</g>
			<g>
				
					<rect x="-461.5" y="-18.7" transform="matrix(0.7067 -0.7075 0.7075 0.7067 39.7167 59.7879)" class="st2" width="1106.9" height="1.3"/>
			</g>
			<g>
				
					<rect x="-457.9" y="-14.9" transform="matrix(0.7075 -0.7067 0.7067 0.7075 38.0395 63.3628)" class="st2" width="1106.9" height="1.3"/>
			</g>
			<g>
				
					<rect x="-454.3" y="-11.5" transform="matrix(0.7075 -0.7067 0.7067 0.7075 36.631 66.889)" class="st2" width="1106.9" height="1.3"/>
			</g>
			<g>
				
					<rect x="-450.9" y="-8" transform="matrix(0.7071 -0.7071 0.7071 0.7071 35.2359 70.3906)" class="st2" width="1106.9" height="1.3"/>
			</g>
			<g>
				
					<rect x="-447.3" y="-4.4" transform="matrix(0.7067 -0.7075 0.7075 0.7067 33.8122 73.9697)" class="st2" width="1106.9" height="1.3"/>
			</g>
			<g>
				
					<rect x="-443.8" y="-1" transform="matrix(0.7067 -0.7075 0.7075 0.7067 32.4035 77.5019)" class="st2" width="1106.9" height="1.3"/>
			</g>
			<g>
				
					<rect x="-440.2" y="2.7" transform="matrix(0.7075 -0.7067 0.7067 0.7075 30.7552 80.978)" class="st2" width="1106.9" height="1.3"/>
			</g>
			<g>
				
					<rect x="-436.6" y="6.2" transform="matrix(0.7075 -0.7067 0.7067 0.7075 29.3175 84.5747)" class="st2" width="1106.9" height="1.3"/>
			</g>
			<g>
				
					<rect x="-433.1" y="9.7" transform="matrix(0.7071 -0.7071 0.7071 0.7071 27.9226 88.0904)" class="st2" width="1106.9" height="1.3"/>
			</g>
			<g>
				
					<rect x="-429.6" y="13.3" transform="matrix(0.7071 -0.7071 0.7071 0.7071 26.4141 91.6611)" class="st2" width="1106.9" height="1.3"/>
			</g>
			<g>
				
					<rect x="-426.1" y="16.7" transform="matrix(0.7067 -0.7075 0.7075 0.7067 25.0911 95.2155)" class="st2" width="1106.9" height="1.3"/>
			</g>
			<g>
				
					<rect x="-422.5" y="20.4" transform="matrix(0.7075 -0.7067 0.7067 0.7075 23.4419 98.6638)" class="st2" width="1106.9" height="1.3"/>
			</g>
			<g>
				
					<rect x="-419" y="24" transform="matrix(0.7075 -0.7067 0.7067 0.7075 21.9334 102.2312)" class="st2" width="1106.9" height="1.3"/>
			</g>
			<g>
				
					<rect x="-415.4" y="27.4" transform="matrix(0.7071 -0.7071 0.7071 0.7071 20.6094 105.7902)" class="st2" width="1106.9" height="1.3"/>
			</g>
			<g>
				
					<rect x="-412" y="30.9" transform="matrix(0.7071 -0.7071 0.7071 0.7071 19.1303 109.2902)" class="st2" width="1106.9" height="1.3"/>
			</g>
			<g>
				
					<rect x="-408.4" y="34.4" transform="matrix(0.7067 -0.7075 0.7075 0.7067 17.7073 112.9001)" class="st2" width="1106.9" height="1.3"/>
			</g>
			<g>
				
					<rect x="-404.8" y="38" transform="matrix(0.7071 -0.7071 0.7071 0.7071 16.2132 116.3907)" class="st2" width="1106.9" height="1.3"/>
			</g>
			<g>
				
					<rect x="-401.3" y="41.6" transform="matrix(0.7075 -0.7067 0.7067 0.7075 14.6493 119.8464)" class="st2" width="1106.9" height="1.3"/>
			</g>
			<g>
				
					<rect x="-397.8" y="45.1" transform="matrix(0.7071 -0.7071 0.7071 0.7071 13.2255 123.4609)" class="st2" width="1106.9" height="1.3"/>
			</g>
			<g>
				
					<rect x="-394.2" y="48.6" transform="matrix(0.7071 -0.7071 0.7071 0.7071 11.8169 126.9901)" class="st2" width="1106.9" height="1.3"/>
			</g>
			<g>
				
					<rect x="-390.8" y="52" transform="matrix(0.7067 -0.7075 0.7075 0.7067 10.4236 130.5432)" class="st2" width="1106.9" height="1.3"/>
			</g>
			<g>
				
					<rect x="-387.2" y="55.7" transform="matrix(0.7067 -0.7075 0.7075 0.7067 8.9151 134.117)" class="st2" width="1106.9" height="1.3"/>
			</g>
			<g>
				
					<rect x="-383.6" y="59.3" transform="matrix(0.7075 -0.7067 0.7067 0.7075 7.336 137.5324)" class="st2" width="1106.9" height="1.3"/>
			</g>
			<g>
				
					<rect x="-380.1" y="62.8" transform="matrix(0.7071 -0.7071 0.7071 0.7071 5.9122 141.1607)" class="st2" width="1106.9" height="1.3"/>
			</g>
			<g>
				
					<rect x="-376.5" y="66.3" transform="matrix(0.7071 -0.7071 0.7071 0.7071 4.5039 144.69)" class="st2" width="1106.9" height="1.3"/>
			</g>
			<g>
				
					<rect x="-373.1" y="69.7" transform="matrix(0.7067 -0.7075 0.7075 0.7067 3.1107 148.2572)" class="st2" width="1106.9" height="1.3"/>
			</g>
			<g>
				
					<rect x="-369.5" y="73.3" transform="matrix(0.7067 -0.7075 0.7075 0.7067 1.6024 151.8309)" class="st2" width="1106.9" height="1.3"/>
			</g>
			<g>
				
					<rect x="-365.9" y="76.9" transform="matrix(0.7075 -0.7067 0.7067 0.7075 2.267561e-02 155.2181)" class="st2" width="1106.9" height="1.3"/>
			</g>
			<g>
				
					<rect x="-362.4" y="80.5" transform="matrix(0.7075 -0.7067 0.7067 0.7075 -1.4566 158.7151)" class="st2" width="1106.9" height="1.3"/>
			</g>
			<g>
				
					<rect x="-358.9" y="84" transform="matrix(0.7071 -0.7071 0.7071 0.7071 -2.88 162.3606)" class="st2" width="1106.9" height="1.3"/>
			</g>
			<g>
				
					<rect x="-355.4" y="87.4" transform="matrix(0.7067 -0.7075 0.7075 0.7067 -4.2021 165.971)" class="st2" width="1106.9" height="1.3"/>
			</g>
			<g>
				
					<rect x="-351.9" y="90.9" transform="matrix(0.7067 -0.7075 0.7075 0.7067 -5.6814 169.4741)" class="st2" width="1106.9" height="1.3"/>
			</g>
			<g>
				
					<rect x="-348.3" y="94.7" transform="matrix(0.7075 -0.7067 0.7067 0.7075 -7.3615 172.8748)" class="st2" width="1106.9" height="1.3"/>
			</g>
			<g>
				
					<rect x="-344.7" y="98.1" transform="matrix(0.7075 -0.7067 0.7067 0.7075 -8.7702 176.4009)" class="st2" width="1106.9" height="1.3"/>
			</g>
			<g>
				
					<rect x="-341.3" y="101.6" transform="matrix(0.7071 -0.7071 0.7071 0.7071 -10.1639 179.9895)" class="st2" width="1106.9" height="1.3"/>
			</g>
			<g>
				
					<rect x="-337.7" y="105.2" transform="matrix(0.7067 -0.7075 0.7075 0.7067 -11.586 183.6555)" class="st2" width="1106.9" height="1.3"/>
			</g>
			<g>
				
					<rect x="-334.2" y="108.6" transform="matrix(0.7067 -0.7075 0.7075 0.7067 -12.9943 187.1879)" class="st2" width="1106.9" height="1.3"/>
			</g>
			<g>
				
					<rect x="-330.6" y="112.4" transform="matrix(0.7075 -0.7067 0.7067 0.7075 -14.675 190.5605)" class="st2" width="1106.9" height="1.3"/>
			</g>
			<g>
				
					<rect x="-327" y="115.8" transform="matrix(0.7075 -0.7067 0.7067 0.7075 -16.0835 194.0867)" class="st2" width="1106.9" height="1.3"/>
			</g>
			<g>
				
					<rect x="-323.6" y="119.3" transform="matrix(0.7071 -0.7071 0.7071 0.7071 -17.4769 197.6894)" class="st2" width="1106.9" height="1.3"/>
			</g>
			<g>
				
					<rect x="-320" y="122.9" transform="matrix(0.7071 -0.7071 0.7071 0.7071 -18.9853 201.26)" class="st2" width="1106.9" height="1.3"/>
			</g>
			<g>
				
					<rect x="-316.5" y="126.3" transform="matrix(0.7067 -0.7075 0.7075 0.7067 -20.307 204.9014)" class="st2" width="1106.9" height="1.3"/>
			</g>
			<g>
				
					<rect x="-312.9" y="130" transform="matrix(0.7075 -0.7067 0.7067 0.7075 -21.9591 208.1755)" class="st2" width="1106.9" height="1.3"/>
			</g>
			<g>
				
					<rect x="-309.4" y="133.6" transform="matrix(0.7075 -0.7067 0.7067 0.7075 -23.4676 211.7431)" class="st2" width="1106.9" height="1.3"/>
			</g>
			<g>
				
					<rect x="-305.8" y="137" transform="matrix(0.7071 -0.7071 0.7071 0.7071 -24.7901 215.3892)" class="st2" width="1106.9" height="1.3"/>
			</g>
			<g>
				
					<rect x="-302.4" y="140.5" transform="matrix(0.7071 -0.7071 0.7071 0.7071 -26.2692 218.8892)" class="st2" width="1106.9" height="1.3"/>
			</g>
			<g>
				
					<rect x="-298.8" y="144" transform="matrix(0.7067 -0.7075 0.7075 0.7067 -27.6906 222.5862)" class="st2" width="1106.9" height="1.3"/>
			</g>
			<g>
				
					<rect x="-295.2" y="147.6" transform="matrix(0.7071 -0.7071 0.7071 0.7071 -29.1865 225.9897)" class="st2" width="1106.9" height="1.3"/>
			</g>
			<g>
				
					<rect x="-291.7" y="151.2" transform="matrix(0.7075 -0.7067 0.7067 0.7075 -30.752 229.3583)" class="st2" width="1106.9" height="1.3"/>
			</g>
			<g>
				
					<rect x="-288.2" y="154.7" transform="matrix(0.7071 -0.7071 0.7071 0.7071 -32.1742 233.0597)" class="st2" width="1106.9" height="1.3"/>
			</g>
			<g>
				
					<rect x="-284.6" y="158.2" transform="matrix(0.7071 -0.7071 0.7071 0.7071 -33.5825 236.589)" class="st2" width="1106.9" height="1.3"/>
			</g>
			<g>
				
					<rect x="-281.2" y="161.6" transform="matrix(0.7067 -0.7075 0.7075 0.7067 -34.9744 240.2292)" class="st2" width="1106.9" height="1.3"/>
			</g>
			<g>
				
					<rect x="-277.6" y="165.2" transform="matrix(0.7067 -0.7075 0.7075 0.7067 -36.4119 243.8324)" class="st2" width="1106.9" height="1.3"/>
			</g>
			<g>
				
					<rect x="-274" y="168.9" transform="matrix(0.7075 -0.7067 0.7067 0.7075 -38.0649 247.0444)" class="st2" width="1106.9" height="1.3"/>
			</g>
			<g>
				
					<rect x="-270.5" y="172.4" transform="matrix(0.7071 -0.7071 0.7071 0.7071 -39.4872 250.7595)" class="st2" width="1106.9" height="1.3"/>
			</g>
			<g>
				
					<rect x="-266.9" y="175.9" transform="matrix(0.7071 -0.7071 0.7071 0.7071 -40.8955 254.2888)" class="st2" width="1106.9" height="1.3"/>
			</g>
			<g>
				
					<rect x="-263.5" y="179.3" transform="matrix(0.7067 -0.7075 0.7075 0.7067 -42.2871 257.943)" class="st2" width="1106.9" height="1.3"/>
			</g>
			<g>
				
					<rect x="-259.9" y="182.9" transform="matrix(0.7067 -0.7075 0.7075 0.7067 -43.7956 261.5171)" class="st2" width="1106.9" height="1.3"/>
			</g>
			<g>
				
					<rect x="-256.3" y="186.5" transform="matrix(0.7075 -0.7067 0.7067 0.7075 -45.3786 264.7301)" class="st2" width="1106.9" height="1.3"/>
			</g>
			<g>
				
					<rect x="-252.8" y="190.1" transform="matrix(0.7075 -0.7067 0.7067 0.7075 -46.8577 268.2269)" class="st2" width="1106.9" height="1.3"/>
			</g>
			<g>
				
					<rect x="-249.3" y="193.6" transform="matrix(0.7071 -0.7071 0.7071 0.7071 -48.2797 271.9595)" class="st2" width="1106.9" height="1.3"/>
			</g>
			<g>
				
					<rect x="-245.8" y="197" transform="matrix(0.7067 -0.7075 0.7075 0.7067 -49.6004 275.657)" class="st2" width="1106.9" height="1.3"/>
			</g>
			<g>
				
					<rect x="-242.3" y="200.5" transform="matrix(0.7067 -0.7075 0.7075 0.7067 -51.0795 279.1601)" class="st2" width="1106.9" height="1.3"/>
			</g>
			<g>
				
					<rect x="-238.7" y="204.3" transform="matrix(0.7075 -0.7067 0.7067 0.7075 -52.7626 282.3865)" class="st2" width="1106.9" height="1.3"/>
			</g>
			<g>
				
					<rect x="-235.1" y="207.7" transform="matrix(0.7075 -0.7067 0.7067 0.7075 -54.1711 285.9128)" class="st2" width="1106.9" height="1.3"/>
			</g>
			<g>
				
					<rect x="-231.7" y="211.2" transform="matrix(0.7071 -0.7071 0.7071 0.7071 -55.5633 289.5885)" class="st2" width="1106.9" height="1.3"/>
			</g>
			<g>
				
					<rect x="-228.1" y="214.8" transform="matrix(0.7067 -0.7075 0.7075 0.7067 -56.9839 293.3416)" class="st2" width="1106.9" height="1.3"/>
			</g>
			<g>
				
					<rect x="-224.6" y="218.2" transform="matrix(0.7067 -0.7075 0.7075 0.7067 -58.3923 296.8741)" class="st2" width="1106.9" height="1.3"/>
			</g>
			<g>
				
					<rect x="-221" y="222" transform="matrix(0.7075 -0.7067 0.7067 0.7075 -60.076 300.0723)" class="st2" width="1106.9" height="1.3"/>
			</g>
			<g>
				
					<rect x="-217.4" y="225.4" transform="matrix(0.7075 -0.7067 0.7067 0.7075 -61.4844 303.5985)" class="st2" width="1106.9" height="1.3"/>
			</g>
			<g>
				
					<rect x="-214" y="228.9" transform="matrix(0.7071 -0.7071 0.7071 0.7071 -62.8764 307.2884)" class="st2" width="1106.9" height="1.3"/>
			</g>
			<g>
				
					<rect x="-210.4" y="232.5" transform="matrix(0.7071 -0.7071 0.7071 0.7071 -64.3848 310.859)" class="st2" width="1106.9" height="1.3"/>
			</g>
			<g>
				
					<rect x="-206.9" y="235.9" transform="matrix(0.7067 -0.7075 0.7075 0.7067 -65.7051 314.5875)" class="st2" width="1106.9" height="1.3"/>
			</g>
			<g>
				
					<rect x="-203.3" y="239.6" transform="matrix(0.7075 -0.7067 0.7067 0.7075 -67.3604 317.6875)" class="st2" width="1106.9" height="1.3"/>
			</g>
			<g>
				
					<rect x="-199.8" y="243.2" transform="matrix(0.7075 -0.7067 0.7067 0.7075 -68.8687 321.255)" class="st2" width="1106.9" height="1.3"/>
			</g>
			<g>
				
					<rect x="-196.2" y="246.6" transform="matrix(0.7071 -0.7071 0.7071 0.7071 -70.19 324.9883)" class="st2" width="1106.9" height="1.3"/>
			</g>
			<g>
				
					<rect x="-192.8" y="250.1" transform="matrix(0.7071 -0.7071 0.7071 0.7071 -71.6689 328.4882)" class="st2" width="1106.9" height="1.3"/>
			</g>
			<g>
				
					<rect x="-189.2" y="253.6" transform="matrix(0.7067 -0.7075 0.7075 0.7067 -73.0887 332.272)" class="st2" width="1106.9" height="1.3"/>
			</g>
			<g>
				
					<rect x="-185.7" y="257.1" transform="matrix(0.7067 -0.7075 0.7075 0.7067 -74.4971 335.8044)" class="st2" width="1106.9" height="1.3"/>
			</g>
			<g>
				
					<rect x="-182.1" y="260.8" transform="matrix(0.7075 -0.7067 0.7067 0.7075 -76.1528 338.8701)" class="st2" width="1106.9" height="1.3"/>
			</g>
			<g>
				
					<rect x="-178.6" y="264.3" transform="matrix(0.7071 -0.7071 0.7071 0.7071 -77.5738 342.6588)" class="st2" width="1106.9" height="1.3"/>
			</g>
			<g>
				
					<rect x="-175" y="267.8" transform="matrix(0.7071 -0.7071 0.7071 0.7071 -78.982 346.188)" class="st2" width="1106.9" height="1.3"/>
			</g>
			<g>
				
					<rect x="-171.5" y="271.3" transform="matrix(0.7067 -0.7075 0.7075 0.7067 -80.4017 349.9861)" class="st2" width="1106.9" height="1.3"/>
			</g>
			<g>
				
					<rect x="-168" y="274.8" transform="matrix(0.7067 -0.7075 0.7075 0.7067 -81.8098 353.5183)" class="st2" width="1106.9" height="1.3"/>
			</g>
			<g>
				
					<rect x="-164.4" y="278.5" transform="matrix(0.7075 -0.7067 0.7067 0.7075 -83.4657 356.5562)" class="st2" width="1106.9" height="1.3"/>
			</g>
			<g>
				
					<rect x="-160.9" y="282" transform="matrix(0.7071 -0.7071 0.7071 0.7071 -84.8869 360.3587)" class="st2" width="1106.9" height="1.3"/>
			</g>
			<g>
				
					<rect x="-157.3" y="285.5" transform="matrix(0.7071 -0.7071 0.7071 0.7071 -86.2954 363.8878)" class="st2" width="1106.9" height="1.3"/>
			</g>
			<g>
				
					<rect x="-153.9" y="288.9" transform="matrix(0.7067 -0.7075 0.7075 0.7067 -87.6855 367.6291)" class="st2" width="1106.9" height="1.3"/>
			</g>
			<g>
				
					<rect x="-150.3" y="292.5" transform="matrix(0.7067 -0.7075 0.7075 0.7067 -89.1941 371.203)" class="st2" width="1106.9" height="1.3"/>
			</g>
			<g>
				
					<rect x="-146.7" y="296.1" transform="matrix(0.7075 -0.7067 0.7067 0.7075 -90.7795 374.242)" class="st2" width="1106.9" height="1.3"/>
			</g>
			<g>
				
					<rect x="-143.2" y="299.7" transform="matrix(0.7075 -0.7067 0.7067 0.7075 -92.2588 377.739)" class="st2" width="1106.9" height="1.3"/>
			</g>
			<g>
				
					<rect x="-139.7" y="303.2" transform="matrix(0.7071 -0.7071 0.7071 0.7071 -93.6791 381.5584)" class="st2" width="1106.9" height="1.3"/>
			</g>
			<g>
				
					<rect x="-136.2" y="306.6" transform="matrix(0.7067 -0.7075 0.7075 0.7067 -94.9982 385.343)" class="st2" width="1106.9" height="1.3"/>
			</g>
			<g>
				
					<rect x="-132.7" y="310.1" transform="matrix(0.7067 -0.7075 0.7075 0.7067 -96.4775 388.8461)" class="st2" width="1106.9" height="1.3"/>
			</g>
			<g>
				
					<rect x="-129.1" y="313.9" transform="matrix(0.7075 -0.7067 0.7067 0.7075 -98.1636 391.8985)" class="st2" width="1106.9" height="1.3"/>
			</g>
			<g>
				
					<rect x="-125.5" y="317.4" transform="matrix(0.7075 -0.7067 0.7067 0.7075 -99.5722 395.4247)" class="st2" width="1106.9" height="1.3"/>
			</g>
			<g>
				
					<rect x="-122.1" y="320.8" transform="matrix(0.7071 -0.7071 0.7071 0.7071 -100.963 399.1875)" class="st2" width="1106.9" height="1.3"/>
			</g>
			<g>
				
					<rect x="-118.5" y="324.4" transform="matrix(0.7071 -0.7071 0.7071 0.7071 -102.4711 402.7581)" class="st2" width="1106.9" height="1.3"/>
			</g>
			<g>
				
					<rect x="-115" y="327.8" transform="matrix(0.7067 -0.7075 0.7075 0.7067 -103.7902 406.5599)" class="st2" width="1106.9" height="1.3"/>
			</g>
			<g>
				
					<rect x="-111.4" y="331.6" transform="matrix(0.7075 -0.7067 0.7067 0.7075 -105.477 409.5844)" class="st2" width="1106.9" height="1.3"/>
			</g>
			<g>
				
					<rect x="-107.8" y="335" transform="matrix(0.7075 -0.7067 0.7067 0.7075 -106.8856 413.1104)" class="st2" width="1106.9" height="1.3"/>
			</g>
			<g>
				
					<rect x="-104.4" y="338.5" transform="matrix(0.7071 -0.7071 0.7071 0.7071 -108.2764 416.8873)" class="st2" width="1106.9" height="1.3"/>
			</g>
			<g>
				
					<rect x="-100.8" y="342.1" transform="matrix(0.7071 -0.7071 0.7071 0.7071 -109.7846 420.458)" class="st2" width="1106.9" height="1.3"/>
			</g>
			<g>
				
					<rect x="-97.3" y="345.5" transform="matrix(0.7067 -0.7075 0.7075 0.7067 -111.103 424.2735)" class="st2" width="1106.9" height="1.3"/>
			</g>
			<g>
				
					<rect x="-93.8" y="349.1" transform="matrix(0.7071 -0.7071 0.7071 0.7071 -112.6726 427.4878)" class="st2" width="1106.9" height="1.3"/>
			</g>
			<g>
				
					<rect x="-90.2" y="352.8" transform="matrix(0.7075 -0.7067 0.7067 0.7075 -114.2697 430.7668)" class="st2" width="1106.9" height="1.3"/>
			</g>
			<g>
				
					<rect x="-86.6" y="356.2" transform="matrix(0.7071 -0.7071 0.7071 0.7071 -115.5894 434.5871)" class="st2" width="1106.9" height="1.3"/>
			</g>
			<g>
				
					<rect x="-83.2" y="359.7" transform="matrix(0.7071 -0.7071 0.7071 0.7071 -117.0684 438.087)" class="st2" width="1106.9" height="1.3"/>
			</g>
			<g>
				
					<rect x="-79.6" y="363.2" transform="matrix(0.7067 -0.7075 0.7075 0.7067 -118.4869 441.9583)" class="st2" width="1106.9" height="1.3"/>
			</g>
			<g>
				
					<rect x="-76.1" y="366.7" transform="matrix(0.7067 -0.7075 0.7075 0.7067 -119.895 445.4905)" class="st2" width="1106.9" height="1.3"/>
			</g>
			<g>
				
					<rect x="-72.5" y="370.4" transform="matrix(0.7075 -0.7067 0.7067 0.7075 -121.5538 448.3821)" class="st2" width="1106.9" height="1.3"/>
			</g>
			<g>
				
					<rect x="-69" y="373.9" transform="matrix(0.7071 -0.7071 0.7071 0.7071 -122.9733 452.2577)" class="st2" width="1106.9" height="1.3"/>
			</g>
			<g>
				
					<rect x="-65.5" y="377.4" transform="matrix(0.7071 -0.7071 0.7071 0.7071 -124.3814 455.7869)" class="st2" width="1106.9" height="1.3"/>
			</g>
			<g>
				
					<rect x="-61.9" y="380.9" transform="matrix(0.7067 -0.7075 0.7075 0.7067 -125.7996 459.6721)" class="st2" width="1106.9" height="1.3"/>
			</g>
			<g>
				
					<rect x="-58.4" y="384.4" transform="matrix(0.7067 -0.7075 0.7075 0.7067 -127.2083 463.2044)" class="st2" width="1106.9" height="1.3"/>
			</g>
			<g>
				
					<rect x="-54.8" y="388.1" transform="matrix(0.7075 -0.7067 0.7067 0.7075 -128.867 466.0681)" class="st2" width="1106.9" height="1.3"/>
			</g>
			<g>
				
					<rect x="-51.3" y="391.7" transform="matrix(0.7075 -0.7067 0.7067 0.7075 -130.3757 469.6357)" class="st2" width="1106.9" height="1.3"/>
			</g>
			<g>
				
					<rect x="-47.7" y="395.1" transform="matrix(0.7071 -0.7071 0.7071 0.7071 -131.6949 473.4868)" class="st2" width="1106.9" height="1.3"/>
			</g>
			<g>
				
					<rect x="-44.3" y="398.5" transform="matrix(0.7067 -0.7075 0.7075 0.7067 -133.0834 477.3152)" class="st2" width="1106.9" height="1.3"/>
			</g>
			<g>
				
					<rect x="-40.7" y="402.1" transform="matrix(0.7067 -0.7075 0.7075 0.7067 -134.5919 480.8889)" class="st2" width="1106.9" height="1.3"/>
			</g>
			<g>
				
					<rect x="-37.1" y="405.7" transform="matrix(0.7075 -0.7067 0.7067 0.7075 -136.1805 483.7539)" class="st2" width="1106.9" height="1.3"/>
			</g>
			<g>
				
					<rect x="-33.6" y="409.3" transform="matrix(0.7075 -0.7067 0.7067 0.7075 -137.6597 487.2508)" class="st2" width="1106.9" height="1.3"/>
			</g>
			<g>
				
					<rect x="-30.1" y="412.8" transform="matrix(0.7071 -0.7071 0.7071 0.7071 -139.0787 491.1574)" class="st2" width="1106.9" height="1.3"/>
			</g>
			<g>
				
					<rect x="-26.6" y="416.2" transform="matrix(0.7067 -0.7075 0.7075 0.7067 -140.3964 495.0292)" class="st2" width="1106.9" height="1.3"/>
			</g>
			<g>
				
					<rect x="-23.1" y="419.7" transform="matrix(0.7067 -0.7075 0.7075 0.7067 -141.8754 498.5322)" class="st2" width="1106.9" height="1.3"/>
			</g>
			<g>
				
					<rect x="-19.5" y="423.5" transform="matrix(0.7075 -0.7067 0.7067 0.7075 -143.5645 501.4104)" class="st2" width="1106.9" height="1.3"/>
			</g>
			<g>
				
					<rect x="-15.9" y="427" transform="matrix(0.7075 -0.7067 0.7067 0.7075 -144.9728 504.9365)" class="st2" width="1106.9" height="1.3"/>
			</g>
			<g>
				
					<rect x="-12.5" y="430.4" transform="matrix(0.7071 -0.7071 0.7071 0.7071 -146.3624 508.7865)" class="st2" width="1106.9" height="1.3"/>
			</g>
			<g>
				
					<rect x="-8.8" y="434" transform="matrix(0.7071 -0.7071 0.7071 0.7071 -147.8002 512.3863)" class="st2" width="1106.9" height="1.3"/>
			</g>
			<g>
				
					<rect x="-5.4" y="437.4" transform="matrix(0.7067 -0.7075 0.7075 0.7067 -149.1888 516.246)" class="st2" width="1106.9" height="1.3"/>
			</g>
			<g>
				
					<rect x="-1.8" y="441.2" transform="matrix(0.7075 -0.7067 0.7067 0.7075 -150.878 519.0961)" class="st2" width="1106.9" height="1.3"/>
			</g>
			<g>
				
					<rect x="1.8" y="444.6" transform="matrix(0.7075 -0.7067 0.7067 0.7075 -152.2866 522.6224)" class="st2" width="1106.9" height="1.3"/>
			</g>
			<g>
				
					<rect x="5.2" y="448.1" transform="matrix(0.7071 -0.7071 0.7071 0.7071 -153.6759 526.4863)" class="st2" width="1106.9" height="1.3"/>
			</g>
			<g>
				
					<rect x="8.8" y="451.7" transform="matrix(0.7071 -0.7071 0.7071 0.7071 -155.1841 530.0568)" class="st2" width="1106.9" height="1.3"/>
			</g>
			<g>
				
					<rect x="12.3" y="455.1" transform="matrix(0.7067 -0.7075 0.7075 0.7067 -156.5012 533.9596)" class="st2" width="1106.9" height="1.3"/>
			</g>
			<g>
				
					<rect x="15.8" y="458.7" transform="matrix(0.7071 -0.7071 0.7071 0.7071 -158.072 537.0867)" class="st2" width="1106.9" height="1.3"/>
			</g>
			<g>
				
					<rect x="19.4" y="462.4" transform="matrix(0.7075 -0.7067 0.7067 0.7075 -159.6707 540.2789)" class="st2" width="1106.9" height="1.3"/>
			</g>
			<g>
				
					<rect x="23" y="465.8" transform="matrix(0.7071 -0.7071 0.7071 0.7071 -160.9889 544.1862)" class="st2" width="1106.9" height="1.3"/>
			</g>
			<g>
				
					<rect x="26.4" y="469.3" transform="matrix(0.7071 -0.7071 0.7071 0.7071 -162.4678 547.6861)" class="st2" width="1106.9" height="1.3"/>
			</g>
			<g>
				
					<rect x="30" y="472.8" transform="matrix(0.7067 -0.7075 0.7075 0.7067 -163.8847 551.6442)" class="st2" width="1106.9" height="1.3"/>
			</g>
			<g>
				
					<rect x="33.5" y="476.3" transform="matrix(0.7067 -0.7075 0.7075 0.7067 -165.2931 555.1766)" class="st2" width="1106.9" height="1.3"/>
			</g>
			<g>
				
					<rect x="37.1" y="480" transform="matrix(0.7075 -0.7067 0.7067 0.7075 -166.9547 557.894)" class="st2" width="1106.9" height="1.3"/>
			</g>
			<g>
				
					<rect x="40.6" y="483.5" transform="matrix(0.7071 -0.7071 0.7071 0.7071 -168.3728 561.8567)" class="st2" width="1106.9" height="1.3"/>
			</g>
			<g>
				
					<rect x="44.1" y="487" transform="matrix(0.7071 -0.7071 0.7071 0.7071 -169.7813 565.3857)" class="st2" width="1106.9" height="1.3"/>
			</g>
			<g>
				
					<rect x="47.7" y="490.5" transform="matrix(0.7067 -0.7075 0.7075 0.7067 -171.1978 569.358)" class="st2" width="1106.9" height="1.3"/>
			</g>
			<g>
				
					<rect x="51.2" y="494" transform="matrix(0.7067 -0.7075 0.7075 0.7067 -172.6062 572.8904)" class="st2" width="1106.9" height="1.3"/>
			</g>
			<g>
				
					<rect x="54.8" y="497.7" transform="matrix(0.7075 -0.7067 0.7067 0.7075 -174.2681 575.5801)" class="st2" width="1106.9" height="1.3"/>
			</g>
			<g>
				
					<rect x="58.3" y="501.3" transform="matrix(0.7075 -0.7067 0.7067 0.7075 -175.7766 579.1475)" class="st2" width="1106.9" height="1.3"/>
			</g>
			<g>
				
					<rect x="61.9" y="504.7" transform="matrix(0.7071 -0.7071 0.7071 0.7071 -177.0943 583.0857)" class="st2" width="1106.9" height="1.3"/>
			</g>
			<g>
				
					<rect x="65.3" y="508.1" transform="matrix(0.7067 -0.7075 0.7075 0.7067 -178.4816 587.0013)" class="st2" width="1106.9" height="1.3"/>
			</g>
			<g>
				
					<rect x="68.9" y="511.7" transform="matrix(0.7067 -0.7075 0.7075 0.7067 -179.9898 590.5751)" class="st2" width="1106.9" height="1.3"/>
			</g>
			<g>
				
					<rect x="72.5" y="515.3" transform="matrix(0.7075 -0.7067 0.7067 0.7075 -181.5815 593.2659)" class="st2" width="1106.9" height="1.3"/>
			</g>
			<g>
				
					<rect x="76" y="518.9" transform="matrix(0.7075 -0.7067 0.7067 0.7075 -183.0604 596.7628)" class="st2" width="1106.9" height="1.3"/>
			</g>
			<g>
				
					<rect x="79.5" y="522.4" transform="matrix(0.7071 -0.7071 0.7071 0.7071 -184.4781 600.7563)" class="st2" width="1106.9" height="1.3"/>
			</g>
			<g>
				
					<rect x="83" y="525.8" transform="matrix(0.7067 -0.7075 0.7075 0.7067 -185.7943 604.7151)" class="st2" width="1106.9" height="1.3"/>
			</g>
			<g>
				
					<rect x="86.5" y="529.3" transform="matrix(0.7067 -0.7075 0.7075 0.7067 -187.2735 608.2182)" class="st2" width="1106.9" height="1.3"/>
			</g>
			<g>
				
					<rect x="90.1" y="533.1" transform="matrix(0.7075 -0.7067 0.7067 0.7075 -188.9652 610.9223)" class="st2" width="1106.9" height="1.3"/>
			</g>
			<g>
				
					<rect x="93.7" y="536.6" transform="matrix(0.7075 -0.7067 0.7067 0.7075 -190.3741 614.4484)" class="st2" width="1106.9" height="1.3"/>
			</g>
			<g>
				
					<rect x="97.2" y="540.1" transform="matrix(0.7071 -0.7071 0.7071 0.7071 -191.7915 618.4562)" class="st2" width="1106.9" height="1.3"/>
			</g>
			<g>
				
					<rect x="100.8" y="543.6" transform="matrix(0.7071 -0.7071 0.7071 0.7071 -193.1997 621.9854)" class="st2" width="1106.9" height="1.3"/>
			</g>
			<g>
				
					<rect x="104.2" y="547" transform="matrix(0.7067 -0.7075 0.7075 0.7067 -194.5867 625.9321)" class="st2" width="1106.9" height="1.3"/>
			</g>
			<g>
				
					<rect x="107.8" y="550.8" transform="matrix(0.7075 -0.7067 0.7067 0.7075 -196.279 628.608)" class="st2" width="1106.9" height="1.3"/>
			</g>
			<g>
				
					<rect x="111.4" y="554.2" transform="matrix(0.7075 -0.7067 0.7067 0.7075 -197.6876 632.1342)" class="st2" width="1106.9" height="1.3"/>
			</g>
			<g>
				
					<rect x="114.8" y="557.7" transform="matrix(0.7071 -0.7071 0.7071 0.7071 -199.0753 636.0852)" class="st2" width="1106.9" height="1.3"/>
			</g>
			<g>
				
					<rect x="118.4" y="561.3" transform="matrix(0.7071 -0.7071 0.7071 0.7071 -200.5835 639.6559)" class="st2" width="1106.9" height="1.3"/>
			</g>
			<g>
				
					<rect x="121.9" y="564.7" transform="matrix(0.7067 -0.7075 0.7075 0.7067 -201.899 643.6457)" class="st2" width="1106.9" height="1.3"/>
			</g>
			<g>
				
					<rect x="125.4" y="568.3" transform="matrix(0.7071 -0.7071 0.7071 0.7071 -203.4715 646.6857)" class="st2" width="1106.9" height="1.3"/>
			</g>
			<g>
				
					<rect x="129" y="572" transform="matrix(0.7075 -0.7067 0.7067 0.7075 -205.0717 649.7908)" class="st2" width="1106.9" height="1.3"/>
			</g>
			<g>
				
					<rect x="132.5" y="575.4" transform="matrix(0.7071 -0.7071 0.7071 0.7071 -206.3883 653.7851)" class="st2" width="1106.9" height="1.3"/>
			</g>
			<g>
				
					<rect x="136" y="578.9" transform="matrix(0.7071 -0.7071 0.7071 0.7071 -207.8673 657.2849)" class="st2" width="1106.9" height="1.3"/>
			</g>
			<g>
				
					<rect x="139.6" y="582.4" transform="matrix(0.7067 -0.7075 0.7075 0.7067 -209.2826 661.3302)" class="st2" width="1106.9" height="1.3"/>
			</g>
			<g>
				
					<rect x="143.1" y="585.9" transform="matrix(0.7067 -0.7075 0.7075 0.7067 -210.6914 664.8624)" class="st2" width="1106.9" height="1.3"/>
			</g>
			<g>
				
					<rect x="146.7" y="589.6" transform="matrix(0.7075 -0.7067 0.7067 0.7075 -212.3557 667.4061)" class="st2" width="1106.9" height="1.3"/>
			</g>
			<g>
				
					<rect x="150.3" y="593.1" transform="matrix(0.7071 -0.7071 0.7071 0.7071 -213.7018 671.485)" class="st2" width="1106.9" height="1.3"/>
			</g>
			<g>
				
					<rect x="153.7" y="596.6" transform="matrix(0.7071 -0.7071 0.7071 0.7071 -215.1807 674.9849)" class="st2" width="1106.9" height="1.3"/>
			</g>
			<g>
				
					<rect x="157.3" y="600.1" transform="matrix(0.7067 -0.7075 0.7075 0.7067 -216.596 679.0441)" class="st2" width="1106.9" height="1.3"/>
			</g>
			<g>
				
					<rect x="160.8" y="603.6" transform="matrix(0.7067 -0.7075 0.7075 0.7067 -218.004 682.5764)" class="st2" width="1106.9" height="1.3"/>
			</g>
			<g>
				
					<rect x="164.4" y="607.3" transform="matrix(0.7075 -0.7067 0.7067 0.7075 -219.669 685.092)" class="st2" width="1106.9" height="1.3"/>
			</g>
			<g>
				
					<rect x="167.9" y="610.9" transform="matrix(0.7075 -0.7067 0.7067 0.7075 -221.1774 688.6594)" class="st2" width="1106.9" height="1.3"/>
			</g>
			<g>
				
					<rect x="171.5" y="614.3" transform="matrix(0.7071 -0.7071 0.7071 0.7071 -222.4938 692.6847)" class="st2" width="1106.9" height="1.3"/>
			</g>
			<g>
				
					<rect x="174.9" y="617.7" transform="matrix(0.7067 -0.7075 0.7075 0.7067 -223.8795 696.6873)" class="st2" width="1106.9" height="1.3"/>
			</g>
			<g>
				
					<rect x="178.5" y="621.3" transform="matrix(0.7067 -0.7075 0.7075 0.7067 -225.388 700.2611)" class="st2" width="1106.9" height="1.3"/>
			</g>
			<g>
				
					<rect x="182.1" y="624.9" transform="matrix(0.7075 -0.7067 0.7067 0.7075 -226.9821 702.7777)" class="st2" width="1106.9" height="1.3"/>
			</g>
			<g>
				
					<rect x="185.6" y="628.5" transform="matrix(0.7075 -0.7067 0.7067 0.7075 -228.4614 706.2746)" class="st2" width="1106.9" height="1.3"/>
			</g>
			<g>
				
					<rect x="189.1" y="632" transform="matrix(0.7071 -0.7071 0.7071 0.7071 -229.8776 710.3553)" class="st2" width="1106.9" height="1.3"/>
			</g>
			<g>
				
					<rect x="192.6" y="635.4" transform="matrix(0.7067 -0.7075 0.7075 0.7067 -231.1925 714.4011)" class="st2" width="1106.9" height="1.3"/>
			</g>
			<g>
				
					<rect x="196.1" y="638.9" transform="matrix(0.7067 -0.7075 0.7075 0.7067 -232.6718 717.9042)" class="st2" width="1106.9" height="1.3"/>
			</g>
			<g>
				
					<rect x="199.7" y="642.7" transform="matrix(0.7075 -0.7067 0.7067 0.7075 -234.3666 720.4342)" class="st2" width="1106.9" height="1.3"/>
			</g>
			<g>
				
					<rect x="203.3" y="646.2" transform="matrix(0.7075 -0.7067 0.7067 0.7075 -235.7752 723.9604)" class="st2" width="1106.9" height="1.3"/>
			</g>
			<g>
				
					<rect x="206.8" y="649.7" transform="matrix(0.7071 -0.7071 0.7071 0.7071 -237.191 728.055)" class="st2" width="1106.9" height="1.3"/>
			</g>
			<g>
				
					<rect x="210.4" y="653.2" transform="matrix(0.7071 -0.7071 0.7071 0.7071 -238.5991 731.5842)" class="st2" width="1106.9" height="1.3"/>
			</g>
			<g>
				
					<rect x="213.8" y="656.6" transform="matrix(0.7067 -0.7075 0.7075 0.7067 -239.9842 735.6177)" class="st2" width="1106.9" height="1.3"/>
			</g>
			<g>
				
					<rect x="217.4" y="660.4" transform="matrix(0.7075 -0.7067 0.7067 0.7075 -241.68 738.12)" class="st2" width="1106.9" height="1.3"/>
			</g>
			<g>
				
					<rect x="221" y="663.8" transform="matrix(0.7075 -0.7067 0.7067 0.7075 -243.0886 741.6463)" class="st2" width="1106.9" height="1.3"/>
			</g>
			<g>
				
					<rect x="224.4" y="667.3" transform="matrix(0.7071 -0.7071 0.7071 0.7071 -244.4748 745.6842)" class="st2" width="1106.9" height="1.3"/>
			</g>
		</g>
	</g>
</g>
</svg>
