<?xml version="1.0" encoding="utf-8"?>
<!-- Generator: Adobe Illustrator 21.1.0, SVG Export Plug-In . SVG Version: 6.00 Build 0)  -->
<svg version="1.1" id="Logo" xmlns="http://www.w3.org/2000/svg" xmlns:xlink="http://www.w3.org/1999/xlink" x="0px" y="0px"
	 viewBox="0 0 123 123" style="enable-background:new 0 0 123 123;" xml:space="preserve">
<style type="text/css">
	.st0{opacity:0.35;enable-background:new    ;}
	.st1{clip-path:url(#SVGID_2_);}
	.st2{fill:#FF8C11;}
</style>
<g class="st0">
	<g>
		<defs>
			<circle id="SVGID_1_" cx="61.5" cy="61.5" r="61.5"/>
		</defs>
		<clipPath id="SVGID_2_">
			<use xlink:href="#SVGID_1_"  style="overflow:visible;"/>
		</clipPath>
		<g class="st1">
			<g>
				
					<rect x="-557.2" y="-4.7" transform="matrix(0.7075 -0.7067 0.7067 0.7075 1.7716 -3.8581)" class="st2" width="1106.9" height="1.3"/>
			</g>
			<g>
				
					<rect x="-553.8" y="-1.1" transform="matrix(0.7071 -0.7071 0.7071 0.7071 0.2152 -0.3451)" class="st2" width="1106.9" height="1.3"/>
			</g>
			<g>
				
					<rect x="-550.1" y="2.3" transform="matrix(0.7071 -0.7071 0.7071 0.7071 -1.0931 3.2063)" class="st2" width="1106.9" height="1.3"/>
			</g>
			<g>
				
					<rect x="-546.7" y="5.9" transform="matrix(0.7067 -0.7075 0.7075 0.7067 -2.6331 6.7106)" class="st2" width="1106.9" height="1.3"/>
			</g>
			<g>
				
					<rect x="-543.1" y="9.4" transform="matrix(0.7067 -0.7075 0.7075 0.7067 -4.0757 10.2476)" class="st2" width="1106.9" height="1.3"/>
			</g>
			<g>
				
					<rect x="-539.6" y="12.9" transform="matrix(0.7075 -0.7067 0.7067 0.7075 -5.5502 13.7351)" class="st2" width="1106.9" height="1.3"/>
			</g>
			<g>
				
					<rect x="-536.1" y="16.5" transform="matrix(0.7071 -0.7071 0.7071 0.7071 -7.0188 17.2745)" class="st2" width="1106.9" height="1.3"/>
			</g>
			<g>
				
					<rect x="-532.4" y="20" transform="matrix(0.7071 -0.7071 0.7071 0.7071 -8.4323 20.9138)" class="st2" width="1106.9" height="1.3"/>
			</g>
			<g>
				
					<rect x="-529.1" y="23.5" transform="matrix(0.7067 -0.7075 0.7075 0.7067 -9.9551 24.3323)" class="st2" width="1106.9" height="1.3"/>
			</g>
			<g>
				
					<rect x="-525.5" y="27.1" transform="matrix(0.7067 -0.7075 0.7075 0.7067 -11.4271 27.94)" class="st2" width="1106.9" height="1.3"/>
			</g>
			<g>
				
					<rect x="-521.9" y="30.7" transform="matrix(0.7075 -0.7067 0.7067 0.7075 -12.9189 31.4988)" class="st2" width="1106.9" height="1.3"/>
			</g>
			<g>
				
					<rect x="-518.3" y="34.2" transform="matrix(0.7075 -0.7067 0.7067 0.7075 -14.3441 35.0131)" class="st2" width="1106.9" height="1.3"/>
			</g>
			<g>
				
					<rect x="-514.8" y="37.8" transform="matrix(0.7071 -0.7071 0.7071 0.7071 -15.8298 38.5868)" class="st2" width="1106.9" height="1.3"/>
			</g>
			<g>
				
					<rect x="-511.3" y="41.2" transform="matrix(0.7067 -0.7075 0.7075 0.7067 -17.2235 42.0832)" class="st2" width="1106.9" height="1.3"/>
			</g>
			<g>
				
					<rect x="-507.9" y="44.7" transform="matrix(0.7067 -0.7075 0.7075 0.7067 -18.7319 45.5444)" class="st2" width="1106.9" height="1.3"/>
			</g>
			<g>
				
					<rect x="-504.2" y="48.5" transform="matrix(0.7075 -0.7067 0.7067 0.7075 -20.3043 49.1868)" class="st2" width="1106.9" height="1.3"/>
			</g>
			<g>
				
					<rect x="-500.7" y="51.8" transform="matrix(0.7075 -0.7067 0.7067 0.7075 -21.666 52.6064)" class="st2" width="1106.9" height="1.3"/>
			</g>
			<g>
				
					<rect x="-497.2" y="55.4" transform="matrix(0.7071 -0.7071 0.7071 0.7071 -23.1348 56.1771)" class="st2" width="1106.9" height="1.3"/>
			</g>
			<g>
				
					<rect x="-493.6" y="58.9" transform="matrix(0.7067 -0.7075 0.7075 0.7067 -24.5798 59.7879)" class="st2" width="1106.9" height="1.3"/>
			</g>
			<g>
				
					<rect x="-490.1" y="62.4" transform="matrix(0.7067 -0.7075 0.7075 0.7067 -26.0002 63.2955)" class="st2" width="1106.9" height="1.3"/>
			</g>
			<g>
				
					<rect x="-486.5" y="66" transform="matrix(0.7075 -0.7067 0.7067 0.7075 -27.5091 66.7802)" class="st2" width="1106.9" height="1.3"/>
			</g>
			<g>
				
					<rect x="-483" y="69.7" transform="matrix(0.7075 -0.7067 0.7067 0.7075 -29.0808 70.365)" class="st2" width="1106.9" height="1.3"/>
			</g>
			<g>
				
					<rect x="-479.5" y="73" transform="matrix(0.7071 -0.7071 0.7071 0.7071 -30.4446 73.8725)" class="st2" width="1106.9" height="1.3"/>
			</g>
			<g>
				
					<rect x="-475.9" y="76.7" transform="matrix(0.7071 -0.7071 0.7071 0.7071 -31.9457 77.4895)" class="st2" width="1106.9" height="1.3"/>
			</g>
			<g>
				
					<rect x="-472.4" y="80.1" transform="matrix(0.7067 -0.7075 0.7075 0.7067 -33.3394 81.0171)" class="st2" width="1106.9" height="1.3"/>
			</g>
			<g>
				
					<rect x="-468.8" y="83.7" transform="matrix(0.7075 -0.7067 0.7067 0.7075 -34.848 84.4732)" class="st2" width="1106.9" height="1.3"/>
			</g>
			<g>
				
					<rect x="-465.3" y="87.4" transform="matrix(0.7075 -0.7067 0.7067 0.7075 -36.4197 88.0583)" class="st2" width="1106.9" height="1.3"/>
			</g>
			<g>
				
					<rect x="-461.7" y="90.7" transform="matrix(0.7071 -0.7071 0.7071 0.7071 -37.7129 91.6092)" class="st2" width="1106.9" height="1.3"/>
			</g>
			<g>
				
					<rect x="-458.3" y="94.3" transform="matrix(0.7071 -0.7071 0.7071 0.7071 -39.2504 95.0798)" class="st2" width="1106.9" height="1.3"/>
			</g>
			<g>
				
					<rect x="-454.8" y="97.8" transform="matrix(0.7067 -0.7075 0.7075 0.7067 -40.7078 98.6926)" class="st2" width="1106.9" height="1.3"/>
			</g>
			<g>
				
					<rect x="-451.1" y="101.3" transform="matrix(0.7071 -0.7071 0.7071 0.7071 -42.1014 102.2065)" class="st2" width="1106.9" height="1.3"/>
			</g>
			<g>
				
					<rect x="-447.6" y="104.9" transform="matrix(0.7075 -0.7067 0.7067 0.7075 -43.6246 105.6515)" class="st2" width="1106.9" height="1.3"/>
			</g>
			<g>
				
					<rect x="-444.2" y="108.5" transform="matrix(0.7071 -0.7071 0.7071 0.7071 -45.1813 109.253)" class="st2" width="1106.9" height="1.3"/>
			</g>
			<g>
				
					<rect x="-440.5" y="111.9" transform="matrix(0.7071 -0.7071 0.7071 0.7071 -46.4896 112.8044)" class="st2" width="1106.9" height="1.3"/>
			</g>
			<g>
				
					<rect x="-437.1" y="115.5" transform="matrix(0.7067 -0.7075 0.7075 0.7067 -48.0298 116.3973)" class="st2" width="1106.9" height="1.3"/>
			</g>
			<g>
				
					<rect x="-433.5" y="119" transform="matrix(0.7067 -0.7075 0.7075 0.7067 -49.4725 119.9341)" class="st2" width="1106.9" height="1.3"/>
			</g>
			<g>
				
					<rect x="-430" y="122.5" transform="matrix(0.7075 -0.7067 0.7067 0.7075 -50.9465 123.2447)" class="st2" width="1106.9" height="1.3"/>
			</g>
			<g>
				
					<rect x="-426.4" y="126.2" transform="matrix(0.7071 -0.7071 0.7071 0.7071 -52.4498 126.9896)" class="st2" width="1106.9" height="1.3"/>
			</g>
		</g>
	</g>
</g>
</svg>
