<?xml version="1.0" encoding="utf-8"?>
<!-- Generator: Adobe Illustrator 21.1.0, SVG Export Plug-In . SVG Version: 6.00 Build 0)  -->
<svg version="1.1" id="Logo" xmlns="http://www.w3.org/2000/svg" xmlns:xlink="http://www.w3.org/1999/xlink" x="0px" y="0px"
	 viewBox="0 0 123 123" style="enable-background:new 0 0 123 123;" xml:space="preserve">
<style type="text/css">
	.st0{opacity:0.35;}
	.st1{clip-path:url(#SVGID_2_);}
	.st2{fill:#2AD797;}
</style>
<g class="st0">
	<g>
		<defs>
			
				<ellipse id="SVGID_1_" transform="matrix(0.7071 -0.7071 0.7071 0.7071 -25.4744 61.4994)" cx="61.5" cy="61.5" rx="61.5" ry="61.5"/>
		</defs>
		<clipPath id="SVGID_2_">
			<use xlink:href="#SVGID_1_"  style="overflow:visible;"/>
		</clipPath>
		<g class="st1">
			<g>
				<rect x="-492.1" y="150.4" class="st2" width="1106.9" height="1.3"/>
			</g>
			<g>
				<rect x="-492.1" y="145.4" class="st2" width="1106.9" height="1.3"/>
			</g>
			<g>
				<rect x="-492.2" y="140.4" class="st2" width="1106.9" height="1.3"/>
			</g>
			<g>
				<rect x="-492.1" y="135.5" class="st2" width="1106.9" height="1.3"/>
			</g>
			<g>
				<rect x="-492.1" y="130.4" class="st2" width="1106.9" height="1.3"/>
			</g>
			<g>
				<rect x="-492.1" y="125.4" class="st2" width="1106.9" height="1.3"/>
			</g>
			<g>
				<rect x="-492.1" y="120.5" class="st2" width="1106.9" height="1.3"/>
			</g>
			<g>
				<rect x="-492.2" y="115.3" class="st2" width="1106.9" height="1.3"/>
			</g>
			<g>
				<rect x="-492.1" y="110.5" class="st2" width="1106.9" height="1.3"/>
			</g>
			<g>
				<rect x="-492.1" y="105.5" class="st2" width="1106.9" height="1.3"/>
			</g>
			<g>
				<rect x="-492.1" y="100.4" class="st2" width="1106.9" height="1.3"/>
			</g>
			<g>
				<rect x="-492.1" y="95.3" class="st2" width="1106.9" height="1.3"/>
			</g>
			<g>
				<rect x="-492.1" y="90.4" class="st2" width="1106.9" height="1.3"/>
			</g>
			<g>
				<rect x="-492.1" y="85.5" class="st2" width="1106.9" height="1.3"/>
			</g>
			<g>
				<rect x="-492.1" y="80.5" class="st2" width="1106.9" height="1.3"/>
			</g>
			<g>
				<rect x="-492" y="75.3" class="st2" width="1106.9" height="1.3"/>
			</g>
			<g>
				<rect x="-492.1" y="70.4" class="st2" width="1106.9" height="1.3"/>
			</g>
			<g>
				<rect x="-492.1" y="65.5" class="st2" width="1106.9" height="1.3"/>
			</g>
			<g>
				<rect x="-492.1" y="60.4" class="st2" width="1106.9" height="1.3"/>
			</g>
			<g>
				<rect x="-492.1" y="55.5" class="st2" width="1106.9" height="1.3"/>
			</g>
			<g>
				<rect x="-492.1" y="50.4" class="st2" width="1106.9" height="1.3"/>
			</g>
			<g>
				<rect x="-492" y="45.3" class="st2" width="1106.9" height="1.3"/>
			</g>
			<g>
				<rect x="-492.2" y="40.4" class="st2" width="1106.9" height="1.3"/>
			</g>
			<g>
				<rect x="-492.1" y="35.4" class="st2" width="1106.9" height="1.3"/>
			</g>
			<g>
				<rect x="-492.1" y="30.4" class="st2" width="1106.9" height="1.3"/>
			</g>
			<g>
				<rect x="-492.1" y="25.3" class="st2" width="1106.9" height="1.3"/>
			</g>
			<g>
				<rect x="-492" y="20.3" class="st2" width="1106.9" height="1.3"/>
			</g>
			<g>
				<rect x="-492.2" y="15.4" class="st2" width="1106.9" height="1.3"/>
			</g>
			<g>
				<rect x="-492.1" y="10.4" class="st2" width="1106.9" height="1.3"/>
			</g>
			<g>
				<rect x="-492.1" y="5.5" class="st2" width="1106.9" height="1.3"/>
			</g>
			<g>
				<rect x="-492.2" y="0.4" class="st2" width="1106.9" height="1.3"/>
			</g>
			<g>
				<rect x="-492.1" y="-4.6" class="st2" width="1106.9" height="1.3"/>
			</g>
			<g>
				<rect x="-492.1" y="-9.6" class="st2" width="1106.9" height="1.3"/>
			</g>
			<g>
				<rect x="-492.2" y="-14.6" class="st2" width="1106.9" height="1.3"/>
			</g>
			<g>
				<rect x="-492.1" y="-19.5" class="st2" width="1106.9" height="1.3"/>
			</g>
			<g>
				<rect x="-492.1" y="-24.6" class="st2" width="1106.9" height="1.3"/>
			</g>
			<g>
				<rect x="-492.1" y="-29.6" class="st2" width="1106.9" height="1.3"/>
			</g>
			<g>
				<rect x="-492.1" y="-34.7" class="st2" width="1106.9" height="1.3"/>
			</g>
		</g>
	</g>
</g>
</svg>
