<?xml version="1.0" encoding="utf-8"?>
<!-- Generator: Adobe Illustrator 21.1.0, SVG Export Plug-In . SVG Version: 6.00 Build 0)  -->
<svg version="1.1" id="Logo" xmlns="http://www.w3.org/2000/svg" xmlns:xlink="http://www.w3.org/1999/xlink" x="0px" y="0px"
	 viewBox="0 0 123 123" style="enable-background:new 0 0 123 123;" xml:space="preserve">
<style type="text/css">
	.st0{opacity:0.35;clip-path:url(#SVGID_2_);}
	.st1{fill:#2AD797;}
</style>
<g>
	<defs>
		<circle id="SVGID_1_" cx="61.5" cy="61.5" r="61.5"/>
	</defs>
	<clipPath id="SVGID_2_">
		<use xlink:href="#SVGID_1_"  style="overflow:visible;"/>
	</clipPath>
	<g class="st0">
		<g>
			<polygon class="st1" points="304.5,-289.1 304.4,-289 270.9,-275.3 257.1,-241.6 256.9,-241.5 223.4,-227.8 209.6,-194.1 
				209.4,-194 175.9,-180.3 162.1,-146.5 161.9,-146.5 128.4,-132.8 114.6,-99.1 114.4,-99 80.9,-85.3 67.1,-51.6 66.9,-51.5 
				33.4,-37.8 19.6,-4.1 -14.1,9.7 -27.9,43.4 -28.1,43.5 -61.6,57.2 -75.4,90.9 -75.6,91 -109.1,104.7 -122.9,138.4 -156.6,152.2 
				-170.4,185.9 -170.6,186 -204.1,199.7 -217.9,233.4 -218.1,233.5 -251.6,247.2 -265.3,280.9 -265.6,281 -299.1,294.7 
				-312.9,328.4 -313.1,328.5 -346.9,342.3 -347.2,341.2 -313.7,327.6 -299.9,293.9 -266.2,280.1 -252.4,246.4 -252.3,246.3 
				-218.7,232.6 -204.9,198.9 -204.7,198.8 -171.2,185 -157.5,151.3 -157.2,151.2 -123.8,137.6 -109.9,103.9 -109.8,103.8 
				-76.2,90.1 -62.4,56.4 -62.2,56.3 -28.7,42.6 -15,8.9 -14.7,8.8 18.7,-5 32.5,-38.7 32.8,-38.7 66.2,-52.4 80.1,-86.1 
				80.2,-86.2 113.8,-99.9 127.6,-133.6 127.7,-133.7 161.3,-147.4 175.1,-181.1 175.3,-181.2 208.8,-194.9 222.5,-228.7 
				222.8,-228.7 256.2,-242.5 270,-276.2 270.3,-276.3 303.7,-289.9 317.6,-323.6 317.7,-323.7 351.5,-337.5 351.9,-336.5 
				318.4,-322.8 			"/>
		</g>
		<g>
			<polygon class="st1" points="307.6,-285.9 307.5,-285.9 274,-272.2 260.2,-238.5 260,-238.4 226.5,-224.7 212.8,-191 
				212.5,-190.9 179.1,-177.2 165.2,-143.5 165,-143.4 131.5,-129.7 117.7,-95.9 117.5,-95.9 84,-82.2 70.2,-48.4 70,-48.4 
				36.5,-34.7 22.7,-1 -11,12.8 -24.8,46.5 -25,46.6 -58.5,60.3 -72.3,94 -72.5,94.1 -106,107.8 -119.8,141.5 -153.5,155.3 
				-167.2,189 -167.5,189.1 -201,202.8 -214.7,236.5 -215,236.6 -248.5,250.3 -262.3,284 -262.4,284.1 -296,297.8 -309.8,331.5 
				-310,331.6 -343.7,345.4 -344.1,344.4 -310.6,330.7 -296.9,297 -263.1,283.2 -249.3,249.5 -249.1,249.4 -215.6,235.6 
				-201.8,201.9 -201.6,201.8 -168.1,188.2 -154.3,154.5 -154.1,154.4 -120.6,140.7 -106.9,107 -106.6,106.9 -73.2,93.2 -59.3,59.5 
				-59.1,59.4 -25.6,45.6 -11.8,11.9 -11.6,11.9 21.9,-1.8 35.7,-35.5 35.9,-35.6 69.4,-49.3 83.1,-83 83.4,-83.1 116.8,-96.8 
				130.7,-130.5 130.9,-130.6 164.4,-144.3 178.2,-178.1 178.3,-178.1 211.9,-191.8 225.7,-225.5 225.9,-225.6 259.4,-239.3 
				273.2,-273 273.4,-273.1 306.9,-286.8 320.6,-320.5 320.8,-320.6 354.6,-334.4 355.1,-333.4 321.5,-319.7 			"/>
		</g>
		<g>
			<polygon class="st1" points="310.9,-282.9 310.6,-282.8 277.1,-269 263.4,-235.3 263.1,-235.3 229.7,-221.6 215.8,-187.8 
				215.6,-187.7 182.1,-174.1 168.3,-140.4 168.1,-140.3 134.6,-126.6 120.8,-92.9 120.6,-92.8 87.1,-79.1 73.4,-45.3 73.1,-45.3 
				39.7,-31.5 25.8,2.2 -7.9,15.9 -21.7,49.6 -21.9,49.7 -55.4,63.4 -69.2,97.1 -69.4,97.2 -102.9,110.9 -116.6,144.6 -150.3,158.5 
				-164.1,192.2 -164.4,192.3 -197.9,205.9 -211.7,239.6 -211.8,239.7 -245.4,253.4 -259.2,287.1 -259.4,287.2 -292.9,300.9 
				-306.6,334.6 -306.9,334.7 -340.6,348.5 -341,347.5 -307.5,333.8 -293.7,300.1 -260,286.2 -246.2,252.5 -246,252.4 -212.5,238.8 
				-198.7,205.1 -198.5,205 -165,191.3 -151.2,157.6 -151,157.5 -117.5,143.8 -103.7,110.1 -103.5,110 -70,96.3 -56.3,62.6 
				-56,62.5 -22.6,48.8 -8.7,15.1 -8.5,15 25,1.3 38.8,-32.4 39,-32.5 72.5,-46.2 86.3,-79.9 86.5,-80 120,-93.7 133.7,-127.5 
				134,-127.5 167.5,-141.2 181.3,-174.9 181.5,-175 215,-188.7 228.8,-222.4 228.9,-222.5 262.5,-236.2 276.3,-269.9 276.5,-270 
				310,-283.7 323.8,-317.4 323.9,-317.5 357.7,-331.3 358.1,-330.3 324.6,-316.6 			"/>
		</g>
		<g>
			<polygon class="st1" points="314,-279.8 313.7,-279.7 280.3,-266 266.4,-232.3 266.3,-232.2 232.7,-218.4 218.9,-184.7 
				218.7,-184.7 185.2,-170.9 171.4,-137.2 171.2,-137.1 137.7,-123.5 124,-89.8 123.7,-89.7 90.3,-76 76.4,-42.3 76.2,-42.2 
				42.7,-28.5 28.9,5.3 -4.8,19.1 -18.6,52.8 -18.8,52.9 -52.3,66.5 -66,100.2 -66.3,100.3 -99.7,114 -113.5,147.7 -147.3,161.5 
				-161.1,195.2 -161.2,195.3 -194.8,209.1 -208.6,242.8 -208.8,242.9 -242.3,256.5 -256,290.2 -256.3,290.3 -289.7,304 
				-303.5,337.7 -303.8,337.8 -337.4,351.6 -337.9,350.6 -304.4,336.9 -290.6,303.2 -256.9,289.4 -243.1,255.7 -242.9,255.6 
				-209.4,241.9 -195.6,208.2 -195.4,208.1 -161.9,194.4 -148.1,160.7 -147.9,160.6 -114.4,146.9 -100.6,113.2 -100.3,113.1 
				-66.9,99.4 -53.1,65.7 -52.9,65.6 -19.4,51.9 -5.6,18.2 -5.4,18.1 28.1,4.4 41.9,-29.3 42.1,-29.4 75.6,-43.1 89.4,-76.8 
				89.6,-76.9 123.1,-90.6 136.9,-124.3 137.1,-124.4 170.6,-138.1 184.4,-171.8 184.6,-171.9 218.1,-185.6 231.9,-219.3 
				232.1,-219.4 265.6,-233.1 279.4,-266.8 279.6,-266.9 313.1,-280.6 326.9,-314.4 327.2,-314.4 360.9,-328.2 361.2,-327.2 
				327.8,-313.5 			"/>
		</g>
		<g>
			<polygon class="st1" points="317,-276.6 316.9,-276.5 283.3,-262.9 269.5,-229.2 269.3,-229.1 235.8,-215.4 222.1,-181.7 
				221.8,-181.6 188.4,-167.8 174.6,-134.1 174.3,-134.1 140.9,-120.3 127,-86.6 126.9,-86.5 93.3,-72.8 79.5,-39.1 79.3,-39 
				45.8,-25.4 32,8.3 -1.7,22.1 -15.4,55.9 -15.7,55.9 -49.1,69.7 -62.9,103.4 -63.1,103.5 -96.7,117.2 -110.5,150.9 -144.2,164.6 
				-157.9,198.3 -158.2,198.4 -191.6,212.1 -205.4,245.8 -205.7,245.9 -239.1,259.7 -252.9,293.4 -253.2,293.5 -286.6,307.2 
				-300.5,340.9 -300.7,341 -334.3,354.7 -334.8,353.7 -301.3,340 -287.5,306.3 -253.8,292.5 -240,258.8 -239.7,258.7 -206.3,245 
				-192.5,211.3 -192.3,211.2 -158.8,197.5 -145,163.8 -144.8,163.7 -111.3,150 -97.5,116.3 -97.3,116.2 -63.8,102.5 -50,68.8 
				-49.7,68.7 -16.3,55.1 -2.5,21.3 -2.3,21.2 31.2,7.5 45,-26.2 45.2,-26.3 78.7,-40 92.5,-73.7 92.7,-73.8 126.2,-87.5 
				140,-121.2 140.2,-121.3 173.7,-135 187.5,-168.7 187.7,-168.8 221.2,-182.5 235,-216.2 235.2,-216.2 268.7,-230 282.5,-263.8 
				282.7,-263.8 316.2,-277.5 330,-311.3 330.2,-311.3 363.9,-325.1 364.4,-324 330.9,-310.4 			"/>
		</g>
		<g>
			<polygon class="st1" points="320.2,-273.5 319.9,-273.4 286.5,-259.8 272.7,-226 272.4,-225.9 239,-212.2 225.2,-178.5 
				225,-178.4 191.5,-164.8 177.6,-131.1 177.5,-131 143.9,-117.2 130.1,-83.5 129.9,-83.5 96.4,-69.7 82.7,-36 82.4,-35.9 
				49,-22.2 35.2,11.5 1.5,25.2 -12.3,58.9 -12.5,59 -46.1,72.7 -59.9,106.5 -60,106.5 -93.6,120.3 -107.3,154 -141,167.8 
				-154.8,201.5 -155,201.6 -188.5,215.2 -202.3,248.9 -202.5,249 -236,262.7 -249.9,296.4 -250.1,296.5 -283.6,310.3 -297.3,344 
				-297.6,344.1 -331.3,357.9 -331.7,356.8 -298.2,343.1 -284.4,309.4 -250.7,295.7 -236.9,261.9 -236.7,261.9 -203.1,248.1 
				-189.4,214.4 -189.1,214.3 -155.7,200.6 -141.9,166.9 -141.6,166.8 -108.2,153.1 -94.4,119.4 -94.2,119.3 -60.7,105.7 -46.8,72 
				-46.7,71.9 -13.1,58.1 0.6,24.4 0.9,24.3 34.3,10.6 48.1,-23.1 48.3,-23.2 81.8,-36.9 95.6,-70.6 95.8,-70.7 129.3,-84.3 
				143.1,-118 143.3,-118.1 176.9,-131.9 190.6,-165.6 190.8,-165.6 224.3,-179.4 238.1,-213.1 238.4,-213.2 271.8,-226.9 
				285.6,-260.7 285.8,-260.7 319.3,-274.4 333.1,-308.2 333.3,-308.2 367,-321.9 367.5,-321 333.9,-307.3 			"/>
		</g>
		<g>
			<polygon class="st1" points="323.3,-270.5 323,-270.4 289.6,-256.7 275.8,-222.9 275.6,-222.8 242.1,-209.1 228.2,-175.4 
				228.1,-175.3 194.5,-161.6 180.8,-127.9 180.5,-127.8 147,-114.2 133.3,-80.4 133,-80.3 99.6,-66.6 85.8,-32.9 85.6,-32.9 
				52.1,-19.1 38.3,14.6 4.5,28.4 -9.3,62.1 -9.4,62.2 -43,75.9 -56.7,109.6 -57,109.7 -90.4,123.3 -104.2,157.1 -137.9,170.9 
				-151.7,204.6 -151.9,204.7 -185.4,218.4 -199.2,252.1 -199.4,252.2 -233,265.8 -246.7,299.5 -247,299.6 -280.5,313.3 -294.2,347 
				-294.4,347.1 -328.1,360.9 -328.5,359.9 -295.1,346.3 -281.4,312.5 -247.6,298.7 -233.8,265 -233.6,264.9 -200.1,251.2 
				-186.2,217.5 -186.1,217.4 -152.5,203.7 -138.8,170 -138.5,169.9 -105.1,156.3 -91.3,122.6 -91,122.5 -57.6,108.7 -43.8,75 
				-43.6,74.9 -10.1,61.2 3.8,27.5 3.9,27.4 37.5,13.7 51.2,-20 51.5,-20.1 84.9,-33.7 98.7,-67.4 99,-67.5 132.4,-81.3 146.2,-115 
				146.4,-115 179.9,-128.8 193.7,-162.5 193.9,-162.6 227.5,-176.3 241.2,-210 241.4,-210.1 275,-223.7 288.7,-257.4 289,-257.6 
				322.4,-271.2 336.2,-304.9 336.5,-305.1 370.1,-318.9 370.5,-317.9 337.1,-304.2 			"/>
		</g>
		<g>
			<polygon class="st1" points="326.4,-267.3 326.1,-267.3 292.7,-253.6 278.8,-219.8 278.7,-219.8 245.1,-206 231.4,-172.3 
				231.1,-172.2 197.7,-158.5 183.9,-124.8 183.6,-124.7 150.2,-111 136.4,-77.3 136.2,-77.2 102.7,-63.5 88.9,-29.8 88.7,-29.7 
				55.1,-16 41.4,17.7 7.7,31.5 -6.1,65.2 -6.4,65.3 -39.8,79 -53.6,112.7 -53.8,112.8 -87.3,126.5 -101.1,160.2 -134.8,173.9 
				-148.6,207.7 -148.8,207.7 -182.3,221.5 -196.1,255.2 -196.4,255.3 -229.9,269 -243.6,302.7 -243.8,302.8 -277.4,316.5 
				-291.1,350.2 -291.3,350.3 -325,364 -325.5,363.1 -291.9,349.3 -278.1,315.6 -244.4,301.8 -230.8,268.1 -230.4,268 -197,254.4 
				-183.2,220.6 -183,220.5 -149.5,206.9 -135.6,173.2 -135.5,173.1 -101.9,159.3 -88.1,125.6 -87.9,125.5 -54.5,111.8 -40.7,78.1 
				-40.4,78 -7,64.4 6.8,30.7 7,30.6 40.5,16.9 54.4,-16.8 54.5,-16.9 88.1,-30.7 101.8,-64.4 102.1,-64.4 135.6,-78.2 
				149.3,-111.9 149.6,-112 183,-125.7 196.8,-159.4 197,-159.5 230.5,-173.1 244.3,-206.8 244.5,-206.9 278.1,-220.6 291.9,-254.3 
				292,-254.5 325.6,-268.2 339.3,-301.9 339.6,-302 373.2,-315.8 373.6,-314.8 340.2,-301 			"/>
		</g>
		<g>
			<polygon class="st1" points="329.5,-264.2 329.2,-264.2 295.8,-250.4 282,-216.7 281.7,-216.6 248.3,-202.9 234.5,-169.2 
				234.3,-169.1 200.8,-155.4 187,-121.7 186.8,-121.6 153.3,-107.9 139.5,-74.2 139.3,-74.1 105.7,-60.4 92,-26.7 91.8,-26.6 
				58.3,-12.9 44.5,20.8 10.8,34.6 -3,68.3 -3.2,68.4 -36.7,82.1 -50.5,115.8 -50.7,115.9 -84.2,129.6 -98,163.3 -131.7,177.1 
				-145.5,210.8 -145.7,210.9 -179.2,224.5 -193,258.3 -193.2,258.3 -226.8,272.1 -240.5,305.8 -240.7,305.9 -274.3,319.6 
				-288,353.3 -288.2,353.4 -321.9,367.2 -322.3,366.1 -288.8,352.4 -275,318.7 -241.3,305 -227.5,271.3 -227.3,271.2 -193.8,257.5 
				-180.1,223.8 -179.8,223.7 -146.4,209.9 -132.6,176.2 -132.3,176.1 -98.9,162.4 -85,128.7 -84.9,128.6 -51.3,115 -37.5,81.3 
				-37.3,81.2 -3.8,67.5 9.9,33.8 10.2,33.7 43.6,19.9 57.4,-13.8 57.7,-13.8 91.1,-27.6 105,-61.3 105.1,-61.4 138.7,-75 
				152.5,-108.7 152.7,-108.8 186.2,-122.5 199.9,-156.2 200.2,-156.3 233.6,-170 247.4,-203.7 247.7,-203.8 281.1,-217.6 
				294.9,-251.3 295.1,-251.4 328.7,-265.1 342.4,-298.8 342.6,-299 376.3,-312.6 376.7,-311.7 343.3,-297.9 			"/>
		</g>
		<g>
			<polygon class="st1" points="332.6,-261.1 332.4,-261.1 298.9,-247.3 285.1,-213.6 284.9,-213.5 251.4,-199.8 237.6,-166.1 
				237.4,-166 203.9,-152.3 190.1,-118.6 189.9,-118.5 156.4,-104.7 142.6,-71 142.4,-71 108.9,-57.3 95.1,-23.6 94.9,-23.5 
				61.4,-9.8 47.6,23.9 13.9,37.7 0.1,71.4 -0.1,71.5 -33.6,85.2 -47.4,118.9 -47.6,119 -81.1,132.7 -94.9,166.4 -128.6,180.2 
				-142.4,213.9 -142.6,214 -176.1,227.7 -189.8,261.4 -190.1,261.5 -223.5,275.2 -237.4,308.9 -237.6,309 -271.1,322.7 
				-284.9,356.4 -285.1,356.5 -318.8,370.3 -319.2,369.2 -285.8,355.6 -271.9,321.9 -238.2,308.1 -224.4,274.4 -224.3,274.3 
				-190.7,260.5 -176.9,226.8 -176.7,226.7 -143.2,213 -129.4,179.3 -129.2,179.2 -95.7,165.6 -82,131.9 -81.7,131.8 -48.3,118.1 
				-34.4,84.4 -34.3,84.3 -0.7,70.5 13.1,36.8 13.3,36.8 46.8,23.1 60.5,-10.6 60.8,-10.7 94.2,-24.4 108,-58.1 108.3,-58.2 
				141.7,-71.9 155.6,-105.6 155.7,-105.7 189.3,-119.4 203.1,-153.1 203.3,-153.2 236.8,-167 250.6,-200.7 250.8,-200.8 
				284.3,-214.4 298,-248.1 298.3,-248.2 331.7,-262 345.5,-295.6 345.8,-295.7 379.5,-309.5 379.8,-308.6 346.3,-294.8 			"/>
		</g>
		<g>
			<polygon class="st1" points="335.7,-258 335.5,-257.9 301.9,-244.1 288.3,-210.4 288,-210.3 254.5,-196.7 240.7,-163 
				240.5,-162.9 207,-149.2 193.2,-115.5 193,-115.4 159.5,-101.7 145.7,-68 145.5,-67.9 112,-54.1 98.2,-20.4 98,-20.4 64.5,-6.7 
				50.7,27 17,40.8 3.2,74.5 3,74.6 -30.5,88.3 -44.3,122 -44.5,122.1 -78,135.8 -91.8,169.5 -125.5,183.3 -139.2,217 -139.5,217.1 
				-172.9,230.8 -186.8,264.5 -186.9,264.6 -220.5,278.3 -234.3,312 -234.5,312.1 -268,325.8 -281.8,359.5 -282,359.6 -315.7,373.4 
				-316.1,372.4 -282.7,358.7 -268.8,325 -235.2,311.1 -221.3,277.4 -221.1,277.3 -187.6,263.7 -173.8,230 -173.6,229.9 
				-140.1,216.2 -126.3,182.5 -126.1,182.4 -92.6,168.7 -78.8,135 -78.6,134.9 -45.1,121.1 -31.4,87.4 -31.1,87.4 2.3,73.7 16.2,40 
				16.3,39.9 49.9,26.2 63.7,-7.5 63.9,-7.6 97.4,-21.3 111.2,-55 111.4,-55.1 144.9,-68.8 158.6,-102.5 158.9,-102.6 192.3,-116.3 
				206.2,-150 206.4,-150.1 239.9,-163.8 253.7,-197.5 253.9,-197.6 287.4,-211.3 301.2,-245 301.4,-245.1 334.9,-258.9 
				348.7,-292.5 348.9,-292.6 382.6,-306.4 383,-305.4 349.4,-291.7 			"/>
		</g>
		<g>
			<polygon class="st1" points="338.9,-255 338.6,-254.8 305.2,-241.1 291.3,-207.4 291.1,-207.3 257.6,-193.5 243.8,-159.8 
				243.6,-159.7 210.1,-146.1 196.3,-112.4 196.1,-112.3 162.6,-98.6 148.9,-64.9 148.6,-64.8 115.1,-51.1 101.3,-17.4 101.1,-17.3 
				67.6,-3.5 53.8,30.2 20.1,44 6.3,77.7 6.1,77.8 -27.4,91.4 -41.2,125.1 -41.4,125.2 -74.8,138.9 -88.6,172.6 -122.3,186.4 
				-136.2,220.1 -136.3,220.2 -169.9,233.9 -183.7,267.7 -183.9,267.7 -217.4,281.4 -231.2,315.1 -231.4,315.2 -264.8,328.9 
				-278.7,362.6 -278.9,362.7 -312.6,376.5 -313,375.4 -279.6,361.7 -265.7,328 -232.1,314.3 -218.2,280.6 -218,280.5 -184.5,266.8 
				-170.7,233.1 -170.5,233 -137,219.3 -123.2,185.6 -123,185.5 -89.5,171.7 -75.7,138 -75.5,138 -42,124.3 -28.2,90.6 -28,90.5 
				5.5,76.8 19.2,43.1 19.5,43 52.9,29.3 66.8,-4.4 67,-4.5 100.5,-18.2 114.3,-51.9 114.5,-52 148,-65.7 161.8,-99.4 162,-99.5 
				195.5,-113.2 209.2,-146.9 209.5,-147 242.9,-160.7 256.8,-194.4 257,-194.5 290.5,-208.2 304.3,-241.9 304.5,-242 338,-255.7 
				351.8,-289.5 352,-289.5 385.7,-303.4 386.1,-302.3 352.7,-288.6 			"/>
		</g>
		<g>
			<polygon class="st1" points="341.9,-251.9 341.8,-251.7 308.2,-238 294.4,-204.3 294.2,-204.2 260.7,-190.5 246.9,-156.8 
				246.7,-156.7 213.2,-142.9 199.5,-109.2 199.2,-109.1 165.8,-95.4 151.9,-61.7 151.7,-61.6 118.2,-48 104.4,-14.3 104.3,-14.2 
				70.7,-0.5 56.9,33.2 23.2,47.1 9.5,80.8 9.2,80.8 -24.2,94.6 -38,128.3 -38.3,128.4 -71.7,142 -85.6,175.7 -119.3,189.5 
				-133.1,223.2 -133.3,223.3 -166.8,237 -180.5,270.7 -180.8,270.8 -214.2,284.6 -228.1,318.3 -228.3,318.4 -261.7,332 
				-275.6,365.7 -275.7,365.8 -309.5,379.6 -310,378.6 -276.3,364.9 -262.6,331.2 -229,317.4 -215.1,283.7 -214.9,283.6 
				-181.4,269.9 -167.6,236.2 -167.4,236.1 -133.9,222.4 -120.1,188.7 -119.9,188.6 -86.4,174.9 -72.6,141.2 -72.4,141.1 
				-38.9,127.4 -25.1,93.7 -24.9,93.6 8.6,79.9 22.4,46.2 22.6,46.1 56.1,32.4 69.9,-1.3 70.1,-1.3 103.6,-15.1 117.4,-48.8 
				117.6,-48.9 151.1,-62.6 164.9,-96.3 165.1,-96.4 198.6,-110.1 212.4,-143.8 212.6,-143.9 246.1,-157.5 259.9,-191.3 
				260.1,-191.4 293.6,-205.1 307.4,-238.8 307.6,-238.9 341.1,-252.6 354.9,-286.3 355.1,-286.4 388.8,-300.3 389.3,-299.1 
				355.8,-285.5 			"/>
		</g>
		<g>
			<polygon class="st1" points="345,-248.6 344.8,-248.5 311.3,-234.8 297.6,-201.1 297.3,-201 263.9,-187.4 250.1,-153.7 
				249.8,-153.6 216.4,-139.9 202.5,-106.2 202.4,-106.1 168.8,-92.3 155,-58.6 154.9,-58.5 121.3,-44.8 107.5,-11.1 107.3,-11 
				73.8,2.7 60.1,36.4 26.4,50.1 12.6,83.8 12.4,83.9 -21.1,97.7 -35,131.4 -35.1,131.4 -68.7,145.2 -82.4,178.9 -116.1,192.6 
				-129.9,226.3 -130.2,226.4 -163.6,240.1 -177.4,273.8 -177.6,273.9 -211.1,287.6 -225,321.3 -225.1,321.4 -258.7,335.2 
				-272.4,368.9 -272.7,369 -306.4,382.7 -306.9,381.7 -273.3,368 -259.5,334.3 -225.7,320.5 -212,286.8 -211.8,286.7 -178.3,273 
				-164.5,239.3 -164.2,239.2 -130.8,225.5 -117,191.8 -116.8,191.7 -83.3,178 -69.5,144.3 -69.3,144.2 -35.8,130.5 -22,96.8 
				-21.8,96.7 11.7,83 25.5,49.3 25.8,49.3 59.2,35.5 73,1.8 73.2,1.7 106.7,-12 120.5,-45.7 120.7,-45.8 154.2,-59.5 168,-93.2 
				168.2,-93.3 201.7,-106.9 215.5,-140.7 215.7,-140.7 249.2,-154.5 263,-188.2 263.2,-188.3 296.7,-202 310.5,-235.7 
				310.7,-235.8 344.1,-249.5 358,-283.2 358.2,-283.3 391.9,-297.2 392.4,-296.1 358.8,-282.3 			"/>
		</g>
		<g>
			<polygon class="st1" points="348.1,-245.5 347.9,-245.5 314.5,-231.7 300.6,-198 300.5,-197.9 267,-184.2 253.1,-150.5 
				253,-150.4 219.4,-136.7 205.6,-103 205.5,-102.9 171.9,-89.3 158.2,-55.6 157.9,-55.5 124.5,-41.7 110.7,-8 110.4,-7.9 77,5.8 
				63.2,39.5 29.5,53.3 15.6,87 15.5,87.1 -18.1,100.7 -31.8,134.4 -32.1,134.5 -65.5,148.3 -79.3,182 -113,195.8 -126.8,229.5 
				-127,229.6 -160.5,243.3 -174.4,277 -174.5,277.1 -208.1,290.7 -221.8,324.4 -222.1,324.5 -255.5,338.2 -269.3,371.9 -269.6,372 
				-303.4,385.9 -303.6,384.8 -270.2,371.1 -256.4,337.4 -222.7,323.6 -208.9,289.9 -208.7,289.8 -175.1,276.1 -161.3,242.4 
				-161.2,242.3 -127.6,228.6 -113.9,194.9 -113.6,194.8 -80.2,181.1 -66.4,147.5 -66.2,147.4 -32.7,133.6 -18.9,99.9 -18.7,99.9 
				14.8,86.1 28.6,52.4 28.8,52.3 62.3,38.6 76.1,4.9 76.4,4.8 109.8,-8.8 123.6,-42.5 123.8,-42.6 157.3,-56.3 171.1,-90.1 
				171.3,-90.1 204.8,-103.9 218.7,-137.6 218.8,-137.7 252.4,-151.4 266.1,-185.1 266.3,-185.2 299.8,-198.9 313.6,-232.6 
				313.8,-232.7 347.2,-246.3 361.1,-280 361.3,-280.1 395.1,-293.9 395.4,-293 362,-279.3 			"/>
		</g>
		<g>
			<polygon class="st1" points="351.2,-242.4 351.1,-242.3 317.6,-228.7 303.7,-194.9 303.6,-194.9 270,-181.1 256.3,-147.4 
				256.1,-147.3 222.6,-133.6 208.8,-99.9 208.5,-99.8 175.1,-86.1 161.3,-52.4 161.1,-52.3 127.6,-38.7 113.8,-5 113.6,-4.9 
				80.1,8.9 66.2,42.6 32.5,56.4 18.8,90.1 18.5,90.2 -14.9,103.9 -28.7,137.6 -29,137.7 -62.4,151.3 -76.2,185 -109.9,198.9 
				-123.8,232.6 -123.9,232.6 -157.5,246.4 -171.2,280.1 -171.5,280.2 -204.9,293.9 -218.7,327.6 -218.9,327.7 -252.4,341.3 
				-266.2,374.9 -266.4,375.1 -300.1,388.9 -300.5,388 -267,374.2 -253.3,340.5 -219.6,326.7 -205.8,293 -205.5,292.9 -172.1,279.2 
				-158.3,245.5 -158.1,245.4 -124.5,231.8 -110.7,198.1 -110.6,198 -77,184.2 -63.3,150.5 -63,150.5 -29.6,136.7 -15.8,103 
				-15.6,102.9 17.9,89.2 31.7,55.5 31.9,55.4 65.4,41.8 79.3,8.1 79.4,8 113,-5.7 126.7,-39.5 127,-39.5 160.4,-53.3 174.2,-87 
				174.5,-87.1 207.9,-100.8 221.7,-134.5 221.9,-134.6 255.4,-148.2 269.3,-181.9 269.4,-182 303,-195.7 316.7,-229.4 
				316.9,-229.5 350.5,-243.3 364.2,-277 364.4,-277.1 398.2,-290.9 398.6,-289.8 365.1,-276.2 			"/>
		</g>
		<g>
			<polygon class="st1" points="354.3,-239.3 354.2,-239.2 320.6,-225.5 306.9,-191.8 306.7,-191.7 273.2,-178.1 259.4,-144.3 
				259.1,-144.3 225.7,-130.5 211.9,-96.8 211.7,-96.7 178.2,-83 164.4,-49.3 164.2,-49.2 130.7,-35.5 116.9,-1.8 116.7,-1.7 
				83.2,12 69.4,45.7 35.7,59.5 21.9,93.2 21.7,93.3 -11.8,107 -25.6,140.7 -25.8,140.8 -59.3,154.5 -73.1,188.2 -106.8,202 
				-120.6,235.7 -120.9,235.8 -154.3,249.5 -168.1,283.2 -168.3,283.2 -201.8,297 -215.6,330.7 -215.8,330.8 -249.3,344.5 
				-263.1,378.2 -263.3,378.3 -297,392.1 -297.5,391 -263.9,377.3 -250.1,343.6 -216.4,329.8 -202.7,296.1 -202.4,296 -169,282.4 
				-155.2,248.7 -154.9,248.6 -121.5,234.8 -107.7,201.1 -107.5,201.1 -73.9,187.3 -60.1,153.6 -60,153.5 -26.4,139.9 -12.7,106.2 
				-12.4,106.1 21,92.4 34.8,58.7 35.1,58.6 68.5,44.9 82.3,11.1 82.5,11.1 116,-2.7 129.9,-36.4 130,-36.5 163.6,-50.2 
				177.3,-83.9 177.6,-84 211.1,-97.6 224.8,-131.3 225.1,-131.4 258.5,-145.1 272.3,-178.8 272.5,-178.9 306,-192.7 319.9,-226.4 
				319.9,-226.5 353.6,-240.2 367.4,-273.9 367.5,-274 401.3,-287.8 401.7,-286.7 368.2,-273 			"/>
		</g>
		<g>
			<polygon class="st1" points="357.5,-236.2 357.3,-236.1 323.8,-222.4 310,-188.7 309.8,-188.6 276.3,-174.9 262.5,-141.2 
				262.3,-141.1 228.8,-127.4 215,-93.7 214.8,-93.6 181.3,-79.9 167.5,-46.2 167.3,-46.1 133.8,-32.4 120,1.3 119.7,1.4 86.3,15.1 
				72.5,48.8 38.8,62.6 25,96.3 24.8,96.4 -8.7,110.1 -22.5,143.8 -22.7,143.9 -56.2,157.6 -70,191.3 -103.7,205.1 -117.5,238.8 
				-117.7,238.9 -151.2,252.6 -165,286.3 -165.2,286.4 -198.7,300.1 -212.5,333.8 -212.7,333.8 -246.2,347.6 -260,381.3 
				-260.2,381.4 -293.9,395.2 -294.3,394.1 -260.9,380.5 -247,346.8 -213.3,333 -199.5,299.3 -199.3,299.2 -165.8,285.4 -152,251.7 
				-151.8,251.7 -118.3,237.9 -104.6,204.2 -104.3,204.1 -70.9,190.5 -57.1,156.8 -56.9,156.7 -23.3,143 -9.5,109.3 -9.4,109.2 
				24.2,95.5 38,61.7 38.2,61.7 71.7,47.9 85.4,14.2 85.7,14.1 119.1,0.5 132.9,-33.2 133.1,-33.3 166.6,-47 180.5,-80.7 
				180.6,-80.8 214.2,-94.5 228,-128.2 228.2,-128.3 261.7,-142.1 275.4,-175.8 275.7,-175.9 309.1,-189.6 322.9,-223.3 
				323.2,-223.4 356.6,-237 370.5,-270.8 370.5,-270.8 404.4,-284.6 404.8,-283.7 371.3,-269.9 			"/>
		</g>
		<g>
			<polygon class="st1" points="360.6,-233.1 360.4,-233 326.9,-219.3 313.1,-185.6 312.9,-185.5 279.4,-171.8 265.6,-138.1 
				265.4,-138 231.9,-124.3 218.1,-90.6 217.9,-90.5 184.4,-76.8 170.6,-43.1 170.4,-43 136.9,-29.2 123.1,4.5 122.9,4.5 89.4,18.2 
				75.6,51.9 41.9,65.7 28.1,99.4 27.9,99.5 -5.6,113.2 -19.4,146.9 -19.6,147 -53.1,160.7 -66.9,194.5 -100.6,208.2 -114.3,241.9 
				-114.6,242 -148,255.7 -161.9,289.4 -162.1,289.5 -195.6,303.2 -209.4,336.9 -209.6,337 -243.1,350.7 -256.9,384.4 -257.2,384.4 
				-290.8,398.3 -291.2,397.3 -257.7,383.6 -244,349.9 -210.3,336 -196.4,302.3 -196.2,302.3 -162.7,288.5 -148.9,254.8 
				-148.7,254.7 -115.2,241.1 -101.4,207.4 -101.2,207.3 -67.7,193.6 -54,159.9 -53.7,159.8 -20.3,146.1 -6.5,112.3 -6.2,112.3 
				27.3,98.5 41.1,64.8 41.2,64.7 74.8,51.1 88.6,17.4 88.8,17.3 122.3,3.6 136,-30.1 136.3,-30.2 169.7,-43.9 183.5,-77.6 
				183.8,-77.7 217.2,-91.5 231.1,-125.2 231.2,-125.3 264.8,-138.9 278.6,-172.6 278.8,-172.7 312.3,-186.4 326.1,-220.1 
				326.3,-220.2 359.8,-233.9 373.5,-267.7 373.8,-267.7 407.5,-281.5 407.9,-280.5 374.4,-266.8 			"/>
		</g>
		<g>
			<polygon class="st1" points="363.8,-230 363.5,-229.9 330.1,-216.2 316.2,-182.5 316,-182.4 282.5,-168.6 268.7,-134.9 
				268.5,-134.8 235,-121.2 221.2,-87.5 221,-87.4 187.5,-73.7 173.7,-40 173.5,-39.9 140,-26.2 126.3,7.5 126,7.6 92.5,21.4 
				78.7,55.1 45,68.8 31.2,102.5 31,102.6 -2.5,116.3 -16.3,150 -16.5,150.1 -50,163.8 -63.7,197.5 -97.4,211.3 -111.3,245.1 
				-111.5,245.1 -145,258.8 -158.8,292.5 -159,292.6 -192.5,306.3 -206.3,340 -206.5,340.1 -240,353.8 -253.7,387.5 -254.1,387.6 
				-287.7,401.3 -288.1,400.4 -254.6,386.6 -240.9,352.9 -207.1,339.2 -193.3,305.5 -193.1,305.4 -159.6,291.7 -145.8,258 
				-145.6,257.9 -112.1,244.2 -98.3,210.5 -98.1,210.4 -64.6,196.7 -50.8,162.9 -50.6,162.9 -17.1,149.2 -3.4,115.5 -3.1,115.4 
				30.3,101.7 44.1,68 44.4,67.9 77.9,54.2 91.7,20.5 91.8,20.4 125.4,6.7 139.2,-27 139.4,-27.1 172.9,-40.8 186.7,-74.5 
				186.9,-74.6 220.4,-88.3 234.1,-122 234.4,-122.1 267.8,-135.8 281.7,-169.5 281.9,-169.6 315.4,-183.3 329.2,-217 329.4,-217.1 
				362.9,-230.9 376.7,-264.6 376.9,-264.6 410.6,-278.5 411,-277.4 377.5,-263.8 			"/>
		</g>
		<g>
			<polygon class="st1" points="366.8,-226.9 366.6,-226.8 333.1,-213.1 319.3,-179.4 319.1,-179.3 285.6,-165.6 271.8,-131.9 
				271.6,-131.8 238.1,-118 224.4,-84.3 224.1,-84.2 190.6,-70.6 176.9,-36.9 176.6,-36.8 143.1,-23.1 129.3,10.6 129.2,10.7 
				95.6,24.4 81.8,58.1 48.1,72 34.3,105.7 34.1,105.7 0.6,119.5 -13.1,153.2 -13.4,153.3 -46.8,166.9 -60.7,200.6 -94.4,214.4 
				-108.2,248.1 -108.4,248.2 -141.9,261.9 -155.7,295.7 -155.9,295.7 -189.4,309.4 -203.1,343.1 -203.4,343.2 -236.9,356.9 
				-250.7,390.6 -250.8,390.7 -284.5,404.4 -285,403.5 -251.5,389.8 -237.8,356.1 -204,342.3 -190.2,308.6 -190,308.5 -156.5,294.8 
				-142.7,261.1 -142.5,261 -109,247.3 -95.2,213.5 -95,213.5 -61.5,199.8 -47.7,166.1 -47.5,166 -14,152.3 -0.2,118.6 0,118.5 
				33.5,104.8 47.3,71.1 47.5,71 81,57.3 94.7,23.6 95,23.5 128.5,9.8 142.3,-23.9 142.5,-24 176,-37.7 189.8,-71.4 190,-71.5 
				223.5,-85.2 237.3,-118.9 237.5,-119 271,-132.7 284.7,-166.4 285,-166.5 318.4,-180.2 332.3,-214 332.5,-214 366,-227.7 
				379.8,-261.4 380,-261.6 413.7,-275.3 414.1,-274.3 380.7,-260.7 			"/>
		</g>
		<g>
			<polygon class="st1" points="369.9,-223.7 369.7,-223.7 336.2,-210 322.4,-176.3 322.1,-176.2 288.7,-162.5 275,-128.8 
				274.7,-128.7 241.3,-115 227.5,-81.3 227.2,-81.2 193.7,-67.4 179.9,-33.7 179.8,-33.6 146.2,-19.9 132.4,13.8 132.2,13.9 
				98.7,27.5 85,61.2 51.3,75 37.5,108.7 37.2,108.8 3.8,122.6 -10.1,156.3 -10.2,156.3 -43.8,170.1 -57.6,203.8 -91.3,217.5 
				-105,251.2 -105.3,251.3 -138.7,265 -152.5,298.7 -152.8,298.8 -186.2,312.5 -200.1,346.3 -200.2,346.3 -233.8,360.1 
				-247.6,393.8 -247.7,393.9 -281.5,407.5 -281.9,406.6 -248.4,392.9 -234.5,359.2 -200.8,345.4 -187.1,311.7 -186.9,311.6 
				-153.4,297.9 -139.6,264.1 -139.4,264.1 -105.9,250.4 -92.1,216.7 -91.9,216.6 -58.4,202.9 -44.6,169.2 -44.4,169.1 -10.9,155.4 
				2.9,121.7 3.1,121.6 36.6,107.9 50.4,74.2 50.6,74.2 84.1,60.4 97.9,26.7 98.1,26.6 131.6,12.9 145.3,-20.8 145.6,-20.9 
				179.1,-34.6 192.9,-68.3 193.1,-68.4 226.6,-82.1 240.4,-115.8 240.6,-115.9 274.1,-129.6 287.9,-163.3 288.1,-163.4 
				321.6,-177.1 335.3,-210.8 335.6,-210.9 369.1,-224.6 382.9,-258.3 383.1,-258.5 416.7,-272.2 417.2,-271.2 383.7,-257.4 			"/>
		</g>
		<g>
			<polygon class="st1" points="373.1,-220.6 372.7,-220.6 339.3,-206.8 325.6,-173.1 325.2,-173 291.9,-159.3 278.1,-125.6 
				277.9,-125.5 244.3,-111.9 230.5,-78.2 230.4,-78.1 196.8,-64.4 183,-30.7 182.8,-30.6 149.3,-16.8 135.6,16.9 135.3,17 
				101.9,30.7 88.1,64.4 54.4,78.1 40.5,111.8 40.4,111.9 6.8,125.6 -7,159.3 -7.2,159.4 -40.7,173.2 -54.4,206.9 -88.1,220.7 
				-101.9,254.4 -102.1,254.5 -135.6,268.1 -149.5,301.8 -149.6,301.9 -183.2,315.6 -197,349.3 -197.1,349.4 -230.8,363.1 
				-244.4,396.9 -244.7,396.9 -278.4,410.8 -278.7,409.7 -245.3,396 -231.5,362.3 -197.8,348.5 -183.9,314.8 -183.8,314.7 
				-150.2,301 -136.5,267.3 -136.3,267.2 -102.8,253.5 -89,219.8 -88.7,219.7 -55.3,206 -41.5,172.3 -41.3,172.2 -7.8,158.5 
				6,124.8 6.2,124.8 39.7,111 53.5,77.3 53.7,77.2 87.2,63.5 101,29.8 101.2,29.7 134.7,16 148.5,-17.7 148.7,-17.8 182.2,-31.4 
				196,-65.1 196.2,-65.2 229.7,-79 243.5,-112.7 243.7,-112.8 277.2,-126.5 291,-160.2 291.3,-160.3 324.7,-174 338.4,-207.7 
				338.7,-207.8 372.2,-221.5 385.9,-255.2 386.2,-255.4 419.8,-269 420.3,-268.2 386.8,-254.3 			"/>
		</g>
		<g>
			<polygon class="st1" points="376.2,-217.6 376,-217.5 342.4,-203.7 328.7,-170 328.5,-170 294.9,-156.2 281.1,-122.5 281,-122.4 
				247.4,-108.7 233.7,-75 233.4,-74.9 200,-61.2 186.2,-27.5 185.9,-27.4 152.5,-13.8 138.7,19.9 138.5,20 105,33.8 91.1,67.5 
				57.4,81.3 43.6,115 43.4,115.1 9.9,128.8 -3.8,162.5 -4.1,162.6 -37.5,176.2 -51.3,209.9 -85,223.8 -98.9,257.5 -99,257.5 
				-132.6,271.3 -146.3,305 -146.5,305.1 -180,318.8 -193.8,352.5 -194.1,352.6 -227.5,366.2 -241.3,399.9 -241.5,400 -275.2,413.8 
				-275.6,412.8 -242.2,399.1 -228.4,365.4 -194.7,351.6 -180.9,317.9 -180.7,317.8 -147.2,304.1 -133.3,270.4 -133.2,270.3 
				-99.6,256.6 -85.9,222.9 -85.7,222.8 -52.2,209.1 -38.4,175.4 -38.1,175.4 -4.7,161.6 9.1,127.9 9.3,127.8 42.8,114.1 56.6,80.4 
				56.8,80.3 90.3,66.7 104.1,32.9 104.3,32.8 137.8,19.2 151.6,-14.5 151.9,-14.6 185.3,-28.4 199.1,-62.1 199.3,-62.2 
				232.8,-75.9 246.6,-109.6 246.8,-109.7 280.3,-123.4 294.2,-157.1 294.3,-157.2 327.9,-170.8 341.5,-204.5 341.9,-204.6 
				375.3,-218.4 389,-252.1 389.4,-252.1 423.1,-266 423.3,-265.1 389.9,-251.3 			"/>
		</g>
		<g>
			<polygon class="st1" points="379.3,-214.4 379.1,-214.3 345.5,-200.7 331.8,-166.9 331.6,-166.8 298,-153.1 284.3,-119.4 
				284,-119.4 250.6,-105.6 236.8,-71.9 236.6,-71.8 203.1,-58.1 189.3,-24.4 189.1,-24.3 155.6,-10.6 141.7,23.1 141.6,23.2 
				108,36.8 94.3,70.5 60.6,84.4 46.8,118.1 46.5,118.2 13.1,131.9 -0.7,165.6 -0.9,165.7 -34.4,179.4 -48.3,213.1 -82,226.8 
				-95.7,260.5 -95.9,260.6 -129.4,274.4 -143.2,308.1 -143.5,308.1 -176.9,321.9 -190.7,355.6 -190.9,355.7 -224.4,369.4 
				-238.2,403.1 -238.4,403.1 -272.1,416.9 -272.6,415.9 -239.1,402.2 -225.2,368.5 -191.5,354.7 -177.8,321 -177.5,320.9 
				-144.1,307.3 -130.3,273.6 -130,273.5 -96.6,259.7 -82.7,226 -82.6,226 -49,212.2 -35.2,178.5 -35.1,178.4 -1.5,164.7 12.2,131 
				12.5,130.9 45.9,117.3 59.7,83.6 59.9,83.5 93.4,69.8 107.2,36.1 107.4,36 140.9,22.2 154.8,-11.5 154.9,-11.6 188.5,-25.3 
				202.2,-59 202.5,-59.1 235.9,-72.7 249.7,-106.5 250,-106.5 283.4,-120.2 297.2,-153.9 297.4,-154 330.9,-167.8 344.8,-201.5 
				344.9,-201.5 378.5,-215.3 392.3,-249 392.5,-249.1 426.2,-262.9 426.6,-261.8 393,-248.1 			"/>
		</g>
		<g>
			<polygon class="st1" points="382.4,-211.3 382.2,-211.2 348.7,-197.5 334.9,-163.8 334.6,-163.7 301.2,-150 287.4,-116.3 
				287.2,-116.2 253.7,-102.5 239.9,-68.8 239.7,-68.8 206.2,-55 192.3,-21.3 192.2,-21.2 158.6,-7.5 144.9,26.2 144.6,26.3 
				111.2,40 97.4,73.7 63.7,87.5 49.9,121.2 49.7,121.3 16.2,135 2.3,168.7 2.2,168.8 -31.4,182.5 -45.1,216.2 -78.8,230 
				-92.6,263.7 -92.8,263.8 -126.3,277.4 -140.1,311.1 -140.3,311.2 -173.8,325 -187.6,358.7 -187.8,358.7 -221.3,372.5 
				-235.2,406.2 -235.3,406.2 -269,420.1 -269.5,418.9 -236,405.3 -222.1,371.6 -188.4,357.9 -174.6,324.2 -174.4,324.1 
				-140.9,310.3 -127.2,276.6 -126.9,276.6 -93.5,262.8 -79.7,229.1 -79.4,229 -46,215.3 -32.1,181.6 -32,181.5 1.6,167.9 
				15.4,134.2 15.5,134.1 49.1,120.4 62.8,86.7 63.1,86.6 96.5,72.8 110.3,39.1 110.6,39 144,25.3 157.8,-8.4 158,-8.5 191.5,-22.1 
				205.4,-55.8 205.5,-55.9 239.1,-69.6 252.8,-103.3 253.1,-103.4 286.5,-117.2 300.3,-150.9 300.6,-150.9 334,-164.7 
				347.8,-198.4 348,-198.5 381.5,-212.2 395.4,-245.9 395.5,-246 429.2,-259.8 429.7,-258.7 396.1,-245 			"/>
		</g>
		<g>
			<polygon class="st1" points="385.5,-208.2 385.3,-208.1 351.8,-194.4 338,-160.7 337.8,-160.6 304.3,-146.9 290.5,-113.2 
				290.3,-113.1 256.8,-99.4 243,-65.7 242.8,-65.6 209.3,-51.9 195.5,-18.2 195.2,-18.1 161.8,-4.4 148,29.3 147.8,29.4 
				114.3,43.1 100.5,76.8 66.8,90.6 53,124.3 52.8,124.4 19.3,138.1 5.5,171.8 5.3,171.9 -28.2,185.6 -42,219.3 -75.7,233.1 
				-89.5,266.8 -89.7,266.9 -123.2,280.6 -137,314.3 -137.2,314.4 -170.7,328.1 -184.5,361.8 -184.7,361.9 -218.2,375.6 
				-232.1,409.3 -232.2,409.3 -266,423.2 -266.4,422.2 -232.8,408.4 -219.1,374.8 -185.4,360.9 -171.5,327.2 -171.4,327.2 
				-137.8,313.4 -124,279.7 -123.8,279.6 -90.3,265.9 -76.5,232.2 -76.3,232.1 -42.8,218.5 -29.1,184.8 -28.8,184.7 4.6,171 
				18.5,137.3 18.6,137.2 52.2,123.4 66,89.7 66.1,89.6 99.7,76 113.4,42.3 113.7,42.2 147.1,28.5 160.9,-5.2 161.2,-5.3 194.6,-19 
				208.4,-52.7 208.6,-52.8 242.1,-66.6 256,-100.3 256.1,-100.3 289.7,-114.1 303.5,-147.8 303.7,-147.9 337.1,-161.5 
				350.9,-195.2 351.2,-195.3 384.6,-209 398.4,-242.7 398.7,-242.8 432.4,-256.7 432.8,-255.6 399.3,-241.9 			"/>
		</g>
		<g>
			<polygon class="st1" points="388.6,-205.1 388.4,-205 354.9,-191.3 341.1,-157.5 340.9,-157.5 307.4,-143.8 293.6,-110.1 
				293.4,-110 259.9,-96.3 246.1,-62.6 245.9,-62.5 212.4,-48.8 198.6,-15.1 198.4,-15 164.9,-1.3 151.1,32.4 150.9,32.5 
				117.4,46.2 103.6,80 69.9,93.7 56.1,127.4 55.9,127.5 22.4,141.2 8.6,174.9 8.4,175 -25.1,188.7 -38.9,222.4 -72.6,236.2 
				-86.4,269.9 -86.6,270 -120.1,283.7 -133.9,317.4 -134.1,317.5 -167.6,331.2 -181.4,364.9 -181.6,365 -215.1,378.7 -229,412.3 
				-229.1,412.5 -262.9,426.2 -263.3,425.3 -229.7,411.5 -215.9,377.8 -182.2,364 -168.5,330.3 -168.2,330.2 -134.8,316.6 
				-120.9,282.9 -120.7,282.8 -87.2,269.1 -73.4,235.4 -73.2,235.3 -39.7,221.6 -25.9,187.9 -25.7,187.8 7.8,174 21.5,140.3 
				21.8,140.2 55.2,126.6 69.1,92.9 69.3,92.8 102.8,79.1 116.6,45.4 116.7,45.3 150.3,31.6 164.1,-2.1 164.3,-2.2 197.8,-16 
				211.5,-49.7 211.8,-49.7 245.2,-63.4 259,-97.1 259.3,-97.2 292.7,-110.9 306.6,-144.6 306.7,-144.7 340.2,-158.4 354.1,-192.1 
				354.3,-192.2 387.7,-205.9 401.6,-239.7 401.8,-239.7 435.5,-253.6 435.9,-252.5 402.4,-238.8 			"/>
		</g>
		<g>
			<polygon class="st1" points="391.7,-202 391.5,-201.9 358,-188.2 344.1,-154.5 344.1,-154.4 310.5,-140.7 296.7,-106.9 
				296.5,-106.9 263,-93.2 249.2,-59.4 249,-59.3 215.5,-45.7 201.8,-12 201.5,-11.9 168.1,1.8 154.2,35.5 154,35.6 120.5,49.3 
				106.7,83 73,96.9 59.2,130.6 59,130.7 25.5,144.3 11.8,178 11.5,178.1 -21.9,191.8 -35.8,225.5 -69.5,239.3 -83.3,273 
				-83.5,273.1 -117,286.9 -130.8,320.6 -131,320.6 -164.5,334.3 -178.2,368 -178.5,368.1 -211.9,381.8 -225.7,415.4 -226,415.6 
				-259.8,429.4 -260.1,428.4 -226.6,414.5 -212.8,380.9 -179.1,367.2 -165.3,333.5 -165.1,333.4 -131.6,319.7 -117.8,286 
				-117.6,285.9 -84.1,272.2 -70.3,238.5 -70.1,238.4 -36.6,224.6 -22.8,190.9 -22.6,190.8 10.9,177.2 24.7,143.5 24.9,143.4 
				58.4,129.7 72.1,96 72.4,95.9 105.8,82.2 119.7,48.5 119.9,48.4 153.4,34.7 167.2,1 167.3,0.9 200.9,-12.8 214.7,-46.5 
				214.9,-46.6 248.4,-60.3 262.2,-94 262.4,-94.1 295.9,-107.8 309.6,-141.5 309.8,-141.6 343.3,-155.3 357.2,-189.1 357.3,-189.1 
				390.8,-202.8 404.7,-236.6 404.9,-236.7 438.6,-250.4 439,-249.4 405.6,-235.7 			"/>
		</g>
		<g>
			<polygon class="st1" points="394.7,-198.9 394.7,-198.8 361.1,-185.1 347.2,-151.4 347.1,-151.3 313.6,-137.6 299.8,-103.9 
				299.6,-103.8 266.1,-90.1 252.4,-56.3 252.1,-56.3 218.7,-42.5 204.8,-8.8 204.6,-8.7 171.1,4.9 157.3,38.6 157.1,38.7 
				123.6,52.4 109.8,86.1 76.1,99.9 62.4,133.6 62.1,133.7 28.7,147.5 14.8,181.2 14.6,181.3 -18.9,194.9 -32.7,228.6 -66.4,242.4 
				-80.2,276.1 -80.4,276.2 -113.9,289.9 -127.6,323.6 -127.9,323.7 -161.3,337.5 -175.1,371.2 -175.3,371.2 -208.9,384.9 
				-222.7,418.5 -222.8,418.7 -256.5,432.5 -257,431.5 -223.5,417.8 -209.7,384.1 -176,370.3 -162.2,336.6 -161.9,336.5 
				-128.5,322.8 -114.7,289.1 -114.5,289 -81,275.3 -67.2,241.6 -67,241.5 -33.5,227.8 -19.7,194.1 -19.5,194 14,180.3 27.8,146.6 
				28,146.5 61.5,132.8 75.3,99.1 75.5,99 109,85.3 122.8,51.6 123,51.5 156.5,37.8 170.3,4.1 170.5,4 204,-9.7 217.8,-43.4 
				218,-43.5 251.5,-57.2 265.3,-90.9 265.5,-91 299,-104.7 312.8,-138.4 312.9,-138.5 346.5,-152.2 360.2,-185.9 360.4,-186 
				394,-199.7 407.8,-233.4 407.9,-233.5 441.7,-247.3 442.2,-246.3 408.6,-232.6 			"/>
		</g>
		<g>
			<polygon class="st1" points="397.8,-195.7 397.7,-195.7 364.2,-181.9 350.5,-148.2 350.2,-148.1 316.8,-134.5 303,-100.8 
				302.7,-100.7 269.3,-87 255.4,-53.3 255.3,-53.2 221.7,-39.5 207.9,-5.7 207.7,-5.7 174.2,8.1 160.5,41.8 160.2,41.9 126.7,55.6 
				113,89.3 79.3,103 65.4,136.7 65.3,136.8 31.7,150.5 17.9,184.2 17.7,184.3 -15.8,198.1 -29.5,231.8 -63.2,245.5 -77,279.2 
				-77.3,279.3 -110.7,293 -124.5,326.7 -124.7,326.8 -158.3,340.5 -172.1,374.2 -172.2,374.3 -205.8,388.1 -219.5,421.8 
				-219.8,421.8 -253.5,435.6 -253.9,434.6 -220.4,420.9 -206.6,387.2 -172.9,373.4 -159.1,339.7 -158.9,339.6 -125.4,325.9 
				-111.6,292.2 -111.3,292.1 -77.9,278.4 -64.1,244.7 -63.9,244.6 -30.4,230.9 -16.6,197.2 -16.4,197.1 17.1,183.4 30.9,149.7 
				31.1,149.6 64.6,135.9 78.4,102.2 78.6,102.1 112.1,88.4 125.9,54.7 126.1,54.6 159.6,40.9 173.4,7.2 173.6,7.1 207.1,-6.6 
				220.9,-40.3 221.1,-40.4 254.6,-54.1 268.4,-87.8 268.6,-87.9 302.1,-101.6 315.9,-135.3 316,-135.4 349.6,-149.1 363.4,-182.8 
				363.5,-182.9 397.1,-196.6 410.9,-230.3 411,-230.4 444.8,-244.2 445.3,-243.2 411.7,-229.4 			"/>
		</g>
		<g>
			<polygon class="st1" points="401.1,-192.7 400.8,-192.6 367.4,-178.8 353.6,-145.1 353.4,-145.1 319.9,-131.3 306,-97.6 
				305.9,-97.5 272.3,-83.8 258.5,-50.1 258.3,-50 224.8,-36.4 211.1,-2.7 210.8,-2.6 177.4,11.1 163.6,44.9 163.3,44.9 129.9,58.7 
				116,92.4 82.3,106.2 68.5,139.9 68.3,140 34.8,153.6 21.1,187.3 20.8,187.4 -12.6,201.1 -26.4,234.8 -60.1,248.7 -73.9,282.4 
				-74.1,282.5 -107.7,296.2 -121.5,329.9 -121.6,330 -155.2,343.6 -168.9,377.3 -169.2,377.4 -202.6,391.1 -216.4,424.8 
				-216.7,424.9 -250.4,438.7 -250.7,437.7 -217.3,424 -203.5,390.3 -169.8,376.5 -156,342.8 -155.8,342.7 -122.3,329 -108.4,295.3 
				-108.3,295.2 -74.7,281.5 -61,247.8 -60.7,247.7 -27.3,234.1 -13.5,200.3 -13.3,200.3 20.2,186.5 34,152.8 34.2,152.7 67.7,139 
				81.5,105.3 81.7,105.2 115.3,91.5 129,57.8 129.2,57.7 162.7,44.1 176.5,10.4 176.7,10.3 210.2,-3.5 224,-37.2 224.2,-37.3 
				257.7,-51 271.5,-84.7 271.7,-84.8 305.2,-98.5 319,-132.2 319.2,-132.3 352.7,-146 366.5,-179.7 366.8,-179.8 400.2,-193.5 
				414,-227.2 414.1,-227.2 448,-241.1 448.3,-240.1 414.9,-226.4 			"/>
		</g>
		<g>
			<polygon class="st1" points="404.2,-189.5 404,-189.4 370.5,-175.8 356.6,-142.1 356.5,-142 322.9,-128.2 309.2,-94.5 
				308.9,-94.5 275.5,-80.7 261.7,-47 261.4,-46.9 228,-33.2 214.2,0.5 214,0.6 180.5,14.3 166.6,48 166.5,48.1 132.9,61.7 
				119.1,95.5 85.4,109.3 71.7,143 71.4,143.1 38,156.8 24.2,190.5 24,190.6 -9.5,204.2 -23.3,237.9 -57.1,251.7 -70.8,285.4 
				-71,285.5 -104.5,299.3 -118.3,333 -118.6,333.1 -152,346.8 -165.8,380.5 -166,380.6 -199.5,394.2 -213.3,427.9 -213.5,428 
				-247.2,441.8 -247.7,440.9 -214.1,427.1 -200.4,393.4 -166.7,379.6 -152.9,345.9 -152.6,345.8 -119.2,332.1 -105.4,298.4 
				-105.2,298.3 -71.7,284.7 -57.8,250.9 -57.7,250.9 -24.1,237.1 -10.4,203.4 -10.1,203.3 23.3,189.6 37.1,155.9 37.4,155.8 
				70.8,142.1 84.6,108.4 84.8,108.3 118.3,94.7 132.1,61 132.3,60.9 165.9,47.1 179.6,13.4 179.8,13.3 213.3,-0.4 227.1,-34.1 
				227.4,-34.2 260.8,-47.9 274.6,-81.6 274.8,-81.7 308.3,-95.3 322.1,-129 322.3,-129.1 355.8,-142.9 369.7,-176.6 369.8,-176.6 
				403.4,-190.4 417.1,-224.2 417.4,-224.2 451.1,-238 451.5,-236.9 418,-223.3 			"/>
		</g>
		<g>
			<polygon class="st1" points="407.3,-186.4 407.1,-186.3 373.5,-172.6 359.8,-138.9 359.5,-138.8 326.1,-125.1 312.3,-91.4 
				312,-91.3 278.6,-77.6 264.8,-43.9 264.6,-43.9 231.1,-30.1 217.2,3.6 217.1,3.7 183.5,17.4 169.8,51.1 169.5,51.2 136.1,64.9 
				122.3,98.6 88.6,112.3 74.8,146.1 74.6,146.1 41.1,159.9 27.3,193.6 27.1,193.7 -6.5,207.4 -20.2,241.1 -53.9,254.9 -67.7,288.6 
				-68,288.7 -101.4,302.3 -115.2,336 -115.4,336.1 -148.9,349.9 -162.7,383.6 -162.9,383.7 -196.4,397.4 -210.2,431.1 
				-210.4,431.2 -244.1,444.9 -244.6,443.9 -211.1,430.2 -197.2,396.5 -163.5,382.7 -149.7,349 -149.5,348.9 -116,335.3 
				-102.3,301.5 -102,301.5 -68.6,287.7 -54.8,254 -54.6,253.9 -21.1,240.2 -7.2,206.5 -7.1,206.4 26.5,192.8 40.2,159.1 40.5,159 
				73.9,145.3 87.7,111.6 88,111.5 121.4,97.7 135.2,64 135.4,63.9 168.9,50.2 182.7,16.5 182.9,16.4 216.5,2.8 230.3,-31 
				230.4,-31 264,-44.7 277.7,-78.4 278,-78.5 311.4,-92.3 325.2,-126 325.5,-126 358.9,-139.8 372.7,-173.5 372.9,-173.6 
				406.4,-187.3 420.3,-221.1 420.4,-221.1 454.1,-234.9 454.6,-233.8 421.1,-220.1 			"/>
		</g>
		<g>
			<polygon class="st1" points="410.4,-183.3 410.1,-183.2 376.7,-169.5 362.9,-135.8 362.6,-135.7 329.2,-122 315.4,-88.3 
				315.1,-88.2 281.7,-74.5 267.8,-40.8 267.7,-40.7 234.1,-27 220.4,6.7 220.1,6.7 186.7,20.5 172.9,54.2 172.7,54.3 139.2,68 
				125.4,101.7 91.7,115.5 77.9,149.2 77.7,149.3 44.1,162.9 30.4,196.7 30.2,196.7 -3.3,210.5 -17.1,244.2 -50.8,258 -64.6,291.7 
				-64.8,291.8 -98.3,305.5 -112.1,339.2 -112.3,339.3 -145.8,352.9 -159.6,386.6 -159.8,386.7 -193.3,400.5 -207.1,434.2 
				-207.3,434.3 -241,448 -241.4,447 -208,433.4 -194.2,399.6 -160.5,385.9 -146.6,352.1 -146.5,352.1 -112.9,338.3 -99.1,304.6 
				-98.9,304.5 -65.4,290.8 -51.7,257.1 -51.4,257 -18,243.4 -4.2,209.7 -3.9,209.6 29.5,195.9 43.4,162.2 43.5,162.1 77.1,148.3 
				90.9,114.6 91.1,114.5 124.6,100.8 138.3,67.1 138.6,67 172,53.4 185.8,19.7 186.1,19.6 219.5,5.9 233.3,-27.8 233.5,-27.9 
				267.1,-41.7 280.9,-75.4 281,-75.4 314.6,-89.2 328.3,-122.9 328.6,-123 362,-136.6 375.8,-170.4 376.1,-170.5 409.5,-184.1 
				423.3,-217.8 423.6,-217.9 457.2,-231.7 457.7,-230.8 424.2,-217 			"/>
		</g>
		<g>
			<polygon class="st1" points="413.5,-180.2 413.2,-180.1 379.8,-166.4 366,-132.7 365.7,-132.6 332.3,-118.9 318.5,-85.2 
				318.2,-85.1 284.8,-71.4 271,-37.7 270.7,-37.6 237.3,-23.9 223.5,9.8 223.3,9.9 189.8,23.6 176,57.3 175.8,57.4 142.3,71.1 
				128.5,104.8 94.8,118.6 81,152.3 80.8,152.4 47.3,166.1 33.5,199.8 33.3,199.9 -0.2,213.6 -14,247.3 -47.7,261.1 -61.5,294.8 
				-61.7,294.9 -95.2,308.6 -109,342.3 -109.2,342.4 -142.7,356.1 -156.5,389.8 -156.7,389.9 -190.2,403.5 -204,437.3 -204.2,437.4 
				-237.9,451.1 -238.3,450.2 -204.8,436.5 -191.1,402.7 -157.3,388.9 -143.6,355.2 -143.3,355.1 -109.9,341.4 -96,307.7 
				-95.9,307.6 -62.3,294 -48.5,260.3 -48.3,260.2 -14.8,246.5 -1.1,212.8 -0.8,212.7 32.6,198.9 46.4,165.2 46.7,165.1 80.1,151.5 
				94,117.7 94.1,117.7 127.7,104 141.5,70.3 141.7,70.2 175.2,56.5 188.9,22.8 189.2,22.7 222.6,8.9 236.4,-24.8 236.7,-24.8 
				270.1,-38.6 283.9,-72.3 284.1,-72.4 317.7,-86 331.4,-119.7 331.6,-119.8 365.2,-133.5 378.9,-167.2 379.2,-167.3 412.7,-181 
				426.4,-214.7 426.7,-214.8 460.3,-228.7 460.7,-227.7 427.3,-213.9 			"/>
		</g>
		<g>
			<polygon class="st1" points="416.7,-177.1 416.3,-177 382.9,-163.3 369.1,-129.6 368.8,-129.5 335.3,-115.7 321.6,-82 321.4,-82 
				287.9,-68.3 274.1,-34.6 273.9,-34.5 240.4,-20.8 226.6,12.9 226.4,13 192.9,26.7 179.1,60.4 178.9,60.5 145.4,74.2 131.6,107.9 
				97.9,121.7 84.1,155.4 83.9,155.5 50.4,169.2 36.6,202.9 36.4,203 2.9,216.7 -10.9,250.4 -44.6,264.2 -58.4,297.9 -58.5,298 
				-92.1,311.7 -105.9,345.4 -106.1,345.5 -139.6,359.2 -153.4,392.9 -153.6,393 -187.1,406.6 -200.8,440.4 -201.1,440.5 
				-234.8,454.3 -235.2,453.3 -201.7,439.5 -187.9,405.7 -154.2,392.1 -140.4,358.4 -140.2,358.3 -106.7,344.6 -93,310.9 
				-92.7,310.8 -59.3,297.1 -45.4,263.4 -45.2,263.3 -11.7,249.5 2.1,215.8 2.3,215.7 35.8,202.1 49.6,168.4 49.8,168.3 83.3,154.6 
				97,120.9 97.3,120.8 130.7,107.1 144.6,73.4 144.7,73.3 178.3,59.5 192.1,25.8 192.3,25.8 225.8,12.1 239.6,-21.6 239.8,-21.7 
				273.3,-35.4 287,-69.1 287.3,-69.2 320.7,-82.9 334.5,-116.6 334.8,-116.7 368.3,-130.4 382,-164.1 382.2,-164.2 415.8,-178 
				429.5,-211.7 429.8,-211.8 463.4,-225.5 463.8,-224.6 430.4,-210.8 			"/>
		</g>
		<g>
			<polygon class="st1" points="419.7,-174 419.6,-173.9 385.9,-160.2 372.2,-126.5 372,-126.4 338.4,-112.7 324.7,-79 324.5,-78.9 
				291,-65.1 277.3,-31.4 277,-31.4 243.6,-17.7 229.7,16.1 229.5,16.2 196,29.8 182.2,63.5 182,63.6 148.5,77.3 134.7,111 
				101,124.8 87.2,158.5 87,158.6 53.5,172.4 39.7,206.1 39.5,206.2 6,219.8 -7.8,253.5 -41.5,267.3 -55.3,301 -55.5,301.1 
				-89,314.8 -102.7,348.5 -103,348.6 -136.4,362.3 -150.2,396 -150.5,396.1 -183.9,409.7 -197.8,443.5 -197.9,443.6 -231.6,457.4 
				-232.1,456.3 -198.6,442.7 -184.8,409 -151.1,395.2 -137.3,361.5 -137.1,361.4 -103.6,347.7 -89.8,314 -89.6,313.9 -56.1,300.1 
				-42.4,266.4 -42.1,266.3 -8.7,252.7 5.2,219 5.4,218.9 38.9,205.2 52.7,171.5 52.9,171.4 86.4,157.7 100.2,124 100.4,123.9 
				133.9,110.1 147.6,76.4 147.9,76.4 181.3,62.7 195.2,29 195.4,28.9 228.9,15.2 242.7,-18.5 242.9,-18.6 276.4,-32.3 290.2,-66 
				290.4,-66.1 323.9,-79.8 337.5,-113.5 337.9,-113.6 371.4,-127.3 385.1,-161 385.4,-161.1 418.9,-174.8 432.6,-208.5 
				432.9,-208.6 466.6,-222.4 466.9,-221.5 433.5,-207.7 			"/>
		</g>
		<g>
			<polygon class="st1" points="422.8,-170.8 422.6,-170.7 389,-157.1 375.3,-123.3 375.1,-123.2 341.5,-109.6 327.9,-75.9 
				327.6,-75.8 294.2,-62.1 280.3,-28.4 280.1,-28.3 246.6,-14.5 232.8,19.2 232.6,19.2 199.1,33 185.3,66.7 185.1,66.8 151.6,80.4 
				137.9,114.1 104.2,127.9 90.3,161.6 90.1,161.7 56.6,175.4 42.8,209.1 42.7,209.2 9.1,223 -4.7,256.7 -38.4,270.4 -52.1,304.1 
				-52.4,304.2 -85.8,317.9 -99.6,351.6 -99.9,351.7 -133.3,365.4 -147.2,399.1 -147.3,399.1 -180.9,413 -194.7,446.7 -194.9,446.7 
				-228.6,460.5 -229,459.4 -195.5,445.8 -181.7,412.1 -148,398.3 -134.2,364.6 -134,364.5 -100.5,350.8 -86.7,317 -86.5,317 
				-53,303.3 -39.2,269.6 -39,269.5 -5.5,255.8 8.3,222.1 8.5,222 42,208.3 55.8,174.6 56,174.5 89.5,160.8 103.3,127.1 103.5,127 
				137,113.3 150.8,79.6 151,79.5 184.5,65.8 198.3,32.1 198.5,32 232,18.3 245.8,-15.4 246,-15.5 279.5,-29.2 293.3,-62.9 
				293.5,-63 327,-76.7 340.8,-110.4 341,-110.5 374.5,-124.2 388.3,-157.9 388.5,-158 422,-171.7 435.8,-205.4 436,-205.5 
				469.7,-219.3 470.2,-218.3 436.5,-204.5 			"/>
		</g>
	</g>
</g>
</svg>
