<?xml version="1.0" encoding="utf-8"?>
<!-- Generator: Adobe Illustrator 21.1.0, SVG Export Plug-In . SVG Version: 6.00 Build 0)  -->
<svg version="1.1" id="Logo" xmlns="http://www.w3.org/2000/svg" xmlns:xlink="http://www.w3.org/1999/xlink" x="0px" y="0px"
	 viewBox="0 0 110 110" style="enable-background:new 0 0 110 110;" xml:space="preserve">
<style type="text/css">
	.st0{opacity:0.35;clip-path:url(#SVGID_2_);}
	.st1{fill:#FF8C11;}
</style>
<g>
	<defs>
		<rect id="SVGID_1_" width="110" height="110"/>
	</defs>
	<clipPath id="SVGID_2_">
		<use xlink:href="#SVGID_1_"  style="overflow:visible;"/>
	</clipPath>
	<g class="st0">
		<g>
			
				<rect x="-489.5" y="-3.3" transform="matrix(0.7075 -0.7067 0.7067 0.7075 1.1886 -2.5335)" class="st1" width="974.1" height="1.1"/>
		</g>
		<g>
			
				<rect x="-486.5" y="-0.1" transform="matrix(0.7071 -0.7071 0.7071 0.7071 -0.2126 0.5185)" class="st1" width="974.1" height="1.1"/>
		</g>
		<g>
			
				<rect x="-483.2" y="2.9" transform="matrix(0.7071 -0.7071 0.7071 0.7071 -1.3337 3.6891)" class="st1" width="974.1" height="1.1"/>
		</g>
		<g>
			
				<rect x="-480.2" y="6.1" transform="matrix(0.7067 -0.7075 0.7075 0.7067 -2.7201 6.7544)" class="st1" width="974.1" height="1.1"/>
		</g>
		<g>
			
				<rect x="-477.1" y="9.1" transform="matrix(0.7067 -0.7075 0.7075 0.7067 -3.953 9.8759)" class="st1" width="974.1" height="1.1"/>
		</g>
		<g>
			
				<rect x="-474" y="12.2" transform="matrix(0.7075 -0.7067 0.7067 0.7075 -5.2394 12.9241)" class="st1" width="974.1" height="1.1"/>
		</g>
		<g>
			
				<rect x="-470.9" y="15.4" transform="matrix(0.7071 -0.7071 0.7071 0.7071 -6.5635 16.0722)" class="st1" width="974.1" height="1.1"/>
		</g>
		<g>
			
				<rect x="-467.7" y="18.5" transform="matrix(0.7071 -0.7071 0.7071 0.7071 -7.7922 19.2621)" class="st1" width="974.1" height="1.1"/>
		</g>
		<g>
			
				<rect x="-464.8" y="21.6" transform="matrix(0.7067 -0.7075 0.7075 0.7067 -9.1484 22.2368)" class="st1" width="974.1" height="1.1"/>
		</g>
		<g>
			
				<rect x="-461.6" y="24.8" transform="matrix(0.7067 -0.7075 0.7075 0.7067 -10.4587 25.4205)" class="st1" width="974.1" height="1.1"/>
		</g>
		<g>
			
				<rect x="-458.4" y="27.9" transform="matrix(0.7075 -0.7067 0.7067 0.7075 -11.7751 28.5466)" class="st1" width="974.1" height="1.1"/>
		</g>
		<g>
			
				<rect x="-455.3" y="31" transform="matrix(0.7075 -0.7067 0.7067 0.7075 -12.993 31.6696)" class="st1" width="974.1" height="1.1"/>
		</g>
		<g>
			
				<rect x="-452.2" y="34.1" transform="matrix(0.7071 -0.7071 0.7071 0.7071 -14.3322 34.8265)" class="st1" width="974.1" height="1.1"/>
		</g>
		<g>
			
				<rect x="-449.1" y="37.1" transform="matrix(0.7067 -0.7075 0.7075 0.7067 -15.5445 37.8997)" class="st1" width="974.1" height="1.1"/>
		</g>
		<g>
			
				<rect x="-446.1" y="40.2" transform="matrix(0.7067 -0.7075 0.7075 0.7067 -16.8719 40.9091)" class="st1" width="974.1" height="1.1"/>
		</g>
		<g>
			
				<rect x="-442.8" y="43.6" transform="matrix(0.7075 -0.7067 0.7067 0.7075 -18.2679 44.1393)" class="st1" width="974.1" height="1.1"/>
		</g>
		<g>
			
				<rect x="-439.8" y="46.5" transform="matrix(0.7075 -0.7067 0.7067 0.7075 -19.4212 47.1272)" class="st1" width="974.1" height="1.1"/>
		</g>
		<g>
			
				<rect x="-436.7" y="49.6" transform="matrix(0.7071 -0.7071 0.7071 0.7071 -20.7454 50.3026)" class="st1" width="974.1" height="1.1"/>
		</g>
		<g>
			
				<rect x="-433.5" y="52.7" transform="matrix(0.7067 -0.7075 0.7075 0.7067 -21.9969 53.4701)" class="st1" width="974.1" height="1.1"/>
		</g>
		<g>
			
				<rect x="-430.4" y="55.8" transform="matrix(0.7067 -0.7075 0.7075 0.7067 -23.2681 56.5721)" class="st1" width="974.1" height="1.1"/>
		</g>
		<g>
			
				<rect x="-427.3" y="58.9" transform="matrix(0.7075 -0.7067 0.7067 0.7075 -24.578 59.6334)" class="st1" width="974.1" height="1.1"/>
		</g>
		<g>
			
				<rect x="-424.2" y="62.2" transform="matrix(0.7075 -0.7067 0.7067 0.7075 -25.9913 62.7819)" class="st1" width="974.1" height="1.1"/>
		</g>
		<g>
			
				<rect x="-421.2" y="65.1" transform="matrix(0.7071 -0.7071 0.7071 0.7071 -27.163 65.8286)" class="st1" width="974.1" height="1.1"/>
		</g>
		<g>
			
				<rect x="-417.9" y="68.4" transform="matrix(0.7071 -0.7071 0.7071 0.7071 -28.5142 69.057)" class="st1" width="974.1" height="1.1"/>
		</g>
		<g>
			
				<rect x="-414.9" y="71.4" transform="matrix(0.7067 -0.7075 0.7075 0.7067 -29.7265 72.1576)" class="st1" width="974.1" height="1.1"/>
		</g>
		<g>
			
				<rect x="-411.7" y="74.5" transform="matrix(0.7075 -0.7067 0.7067 0.7075 -31.0362 75.1941)" class="st1" width="974.1" height="1.1"/>
		</g>
		<g>
			
				<rect x="-408.6" y="77.8" transform="matrix(0.7075 -0.7067 0.7067 0.7075 -32.4496 78.3427)" class="st1" width="974.1" height="1.1"/>
		</g>
		<g>
			
				<rect x="-405.5" y="80.7" transform="matrix(0.7071 -0.7071 0.7071 0.7071 -33.5592 81.479)" class="st1" width="974.1" height="1.1"/>
		</g>
		<g>
			
				<rect x="-402.5" y="83.9" transform="matrix(0.7071 -0.7071 0.7071 0.7071 -34.9273 84.5333)" class="st1" width="974.1" height="1.1"/>
		</g>
		<g>
			
				<rect x="-399.4" y="87" transform="matrix(0.7067 -0.7075 0.7075 0.7067 -36.2261 87.6872)" class="st1" width="974.1" height="1.1"/>
		</g>
		<g>
			
				<rect x="-396.1" y="90" transform="matrix(0.7071 -0.7071 0.7071 0.7071 -37.4207 90.8076)" class="st1" width="974.1" height="1.1"/>
		</g>
		<g>
			
				<rect x="-393" y="93.2" transform="matrix(0.7075 -0.7067 0.7067 0.7075 -38.7597 93.8367)" class="st1" width="974.1" height="1.1"/>
		</g>
		<g>
			
				<rect x="-390.1" y="96.4" transform="matrix(0.7071 -0.7071 0.7071 0.7071 -40.1615 96.9659)" class="st1" width="974.1" height="1.1"/>
		</g>
		<g>
			
				<rect x="-386.8" y="99.3" transform="matrix(0.7071 -0.7071 0.7071 0.7071 -41.2826 100.1365)" class="st1" width="974.1" height="1.1"/>
		</g>
		<g>
			
				<rect x="-383.8" y="102.5" transform="matrix(0.7067 -0.7075 0.7075 0.7067 -42.6696 103.2791)" class="st1" width="974.1" height="1.1"/>
		</g>
		<g>
			
				<rect x="-380.6" y="105.6" transform="matrix(0.7067 -0.7075 0.7075 0.7067 -43.9025 106.4004)" class="st1" width="974.1" height="1.1"/>
		</g>
		<g>
			
				<rect x="-377.6" y="108.7" transform="matrix(0.7075 -0.7067 0.7067 0.7075 -45.1878 109.2943)" class="st1" width="974.1" height="1.1"/>
		</g>
		<g>
			
				<rect x="-374.4" y="111.9" transform="matrix(0.7071 -0.7071 0.7071 0.7071 -46.5577 112.6162)" class="st1" width="974.1" height="1.1"/>
		</g>
	</g>
</g>
</svg>
