<?xml version="1.0" encoding="utf-8"?>
<!-- Generator: Adobe Illustrator 21.1.0, SVG Export Plug-In . SVG Version: 6.00 Build 0)  -->
<svg version="1.1" id="Layer_3" xmlns="http://www.w3.org/2000/svg" xmlns:xlink="http://www.w3.org/1999/xlink" x="0px" y="0px"
	 viewBox="0 0 50 26.3" style="enable-background:new 0 0 50 26.3;" xml:space="preserve">
<style type="text/css">
	.st0{fill:url(#SVGID_1_);}
	.st1{fill:#6682B9;}
	.st2{fill:#FFFFFF;}
	.st3{fill:#00000E;}
</style>
<radialGradient id="SVGID_1_" cx="-11.5097" cy="13.9306" r="32.8284" gradientTransform="matrix(1 0 0 1 26.5198 -9.3071)" gradientUnits="userSpaceOnUse">
	<stop  offset="0" style="stop-color:#FFFFFF"/>
	<stop  offset="0.5" style="stop-color:#4D6997"/>
	<stop  offset="1" style="stop-color:#1D1D1B"/>
</radialGradient>
<ellipse class="st0" cx="25" cy="13.2" rx="25" ry="13.2"/>
<ellipse class="st1" cx="25" cy="13.2" rx="24" ry="12.2"/>
<g>
	<path class="st2" d="M29.9,17.1c0,0,1.2-6.1,1.2-6.1c0.3-1.4,0-2.4-0.7-3.1c-0.7-0.6-1.9-0.9-3.6-0.9h-2.1l0.6-3
		c0-0.1,0-0.2-0.1-0.3c-0.1-0.1-0.2-0.1-0.3-0.1h-2.8c-0.2,0-0.3,0.1-0.4,0.3l-1.3,6.5c-0.1-0.7-0.4-1.4-0.9-1.9
		c-0.8-1-2.2-1.4-3.9-1.4h-5.5c-0.2,0-0.3,0.1-0.4,0.3L7.2,20.4c0,0.1,0,0.2,0.1,0.3c0.1,0.1,0.2,0.1,0.3,0.1h2.9
		c0.2,0,0.3-0.1,0.4-0.3l0.6-3.2h2.1c1.1,0,2.1-0.1,2.8-0.4c0.8-0.2,1.4-0.7,2.1-1.2c0.5-0.5,0.9-1,1.2-1.5l-0.5,2.6
		c0,0.1,0,0.2,0.1,0.3s0.2,0.1,0.3,0.1h2.8c0.2,0,0.3-0.1,0.4-0.3l1.4-7.2h2c0.8,0,1.1,0.2,1.1,0.2c0.1,0.1,0.2,0.3,0,1l-1.1,5.8
		c0,0.1,0,0.2,0.1,0.3c0.1,0.1,0.2,0.1,0.3,0.1h2.9C29.7,17.4,29.8,17.3,29.9,17.1z M16.7,12c-0.2,0.9-0.5,1.6-1,1.9
		c-0.5,0.4-1.3,0.6-2.3,0.6H12L13,9.8h1.6c1.2,0,1.7,0.3,1.9,0.5C16.8,10.6,16.8,11.2,16.7,12z"/>
	<path class="st2" d="M42,8.4c-0.8-1-2.2-1.4-3.9-1.4h-5.5c-0.2,0-0.3,0.1-0.4,0.3l-2.6,13.2c0,0.1,0,0.2,0.1,0.3s0.2,0.1,0.3,0.1
		h2.9c0.2,0,0.3-0.1,0.4-0.3l0.6-3.2H36c1.1,0,2.1-0.1,2.8-0.4c0.8-0.2,1.4-0.7,2.1-1.2c0.5-0.5,0.9-1,1.2-1.6
		c0.3-0.6,0.5-1.2,0.7-1.9C43.1,10.7,42.9,9.4,42,8.4z M39.1,12c-0.2,0.9-0.5,1.6-1,1.9c-0.5,0.4-1.3,0.6-2.3,0.6h-1.3l0.9-4.7H37
		c1.2,0,1.7,0.3,1.9,0.5C39.2,10.6,39.2,11.2,39.1,12z"/>
</g>
<g>
	<path class="st3" d="M14.6,9.4c1.1,0,1.8,0.2,2.2,0.6c0.4,0.4,0.4,1.1,0.3,2.1c-0.2,1-0.6,1.7-1.1,2.2c-0.6,0.4-1.4,0.7-2.6,0.7
		h-1.7l1.1-5.5H14.6z M7.6,20.5h2.9l0.7-3.5h2.5c1.1,0,2-0.1,2.7-0.3c0.7-0.2,1.3-0.6,1.9-1.1c0.5-0.4,0.9-0.9,1.2-1.5
		c0.3-0.5,0.5-1.1,0.6-1.8c0.3-1.6,0.1-2.8-0.7-3.7c-0.8-0.9-2-1.3-3.6-1.3h-5.5L7.6,20.5z"/>
	<path class="st3" d="M22.1,3.8H25l-0.7,3.5h2.5c1.6,0,2.7,0.3,3.3,0.8c0.6,0.6,0.8,1.5,0.5,2.7L29.5,17h-2.9l1.1-5.8
		c0.1-0.7,0.1-1.1-0.1-1.4c-0.2-0.2-0.7-0.4-1.4-0.4h-2.3L22.4,17h-2.8L22.1,3.8z"/>
	<path class="st3" d="M37,9.4c1.1,0,1.8,0.2,2.2,0.6c0.4,0.4,0.4,1.1,0.3,2.1c-0.2,1-0.6,1.7-1.1,2.2c-0.6,0.4-1.4,0.7-2.6,0.7H34
		L35,9.4H37z M30,20.5h2.9l0.7-3.5H36c1.1,0,2-0.1,2.7-0.3c0.7-0.2,1.3-0.6,1.9-1.1c0.5-0.4,0.9-0.9,1.2-1.5
		c0.3-0.5,0.5-1.1,0.6-1.8c0.3-1.6,0.1-2.8-0.7-3.7c-0.8-0.9-2-1.3-3.6-1.3h-5.5L30,20.5z"/>
</g>
</svg>
