<?xml version="1.0" encoding="utf-8"?>
<!-- Generator: Adobe Illustrator 21.1.0, SVG Export Plug-In . SVG Version: 6.00 Build 0)  -->
<svg version="1.1" id="Слой_1" xmlns="http://www.w3.org/2000/svg" xmlns:xlink="http://www.w3.org/1999/xlink" x="0px" y="0px"
	 viewBox="0 0 121 121" style="enable-background:new 0 0 121 121;" xml:space="preserve">
<style type="text/css">
	.st0{fill:#135E91;}
	.st1{fill:#80D1F8;}
	.st2{opacity:0.5;}
	.st3{fill:#10265E;}
</style>
<g>
	<path class="st0" d="M60.5,119.4C28,119.4,1.6,93,1.6,60.5S28,1.6,60.5,1.6s58.9,26.4,58.9,58.9S93,119.4,60.5,119.4z"/>
	<path class="st1" d="M60.5,3.2c31.7,0,57.3,25.7,57.3,57.3s-25.7,57.3-57.3,57.3S3.2,92.2,3.2,60.5S28.8,3.2,60.5,3.2 M60.5,0
		C27.1,0,0,27.1,0,60.5S27.1,121,60.5,121S121,93.9,121,60.5S93.9,0,60.5,0L60.5,0z"/>
</g>
<g class="st2">
	<path class="st3" d="M82.4,102c-28,0-50.7-22.7-50.7-50.7c0-22.2,14.2-41,34.1-47.9c-1.7-0.2-3.4-0.3-5.2-0.3
		C28.8,3.2,3.2,28.8,3.2,60.5s25.7,57.3,57.3,57.3c18,0,34-8.3,44.5-21.2C98.2,100.1,90.5,102,82.4,102z"/>
</g>
<g>
	<circle class="st3" cx="77.9" cy="32.8" r="3"/>
	<circle class="st3" cx="94.4" cy="57.5" r="3"/>
	<circle class="st3" cx="72.8" cy="68.8" r="2.1"/>
	<circle class="st3" cx="103.5" cy="74.8" r="2.1"/>
</g>
<g>
	<circle class="st1" cx="64.6" cy="21.6" r="4.1"/>
	<circle class="st1" cx="44.2" cy="64.6" r="4.1"/>
	<circle class="st1" cx="18.5" cy="55.5" r="2.9"/>
	<circle class="st1" cx="61.5" cy="104.6" r="2.9"/>
	<circle class="st1" cx="21.8" cy="76.9" r="2.1"/>
	<circle class="st1" cx="33.9" cy="83.1" r="2.1"/>
	<path class="st1" d="M56.2,42h3.7c0.3,0,0.6-0.3,0.6-0.6v-2.8c0-0.3-0.3-0.6-0.6-0.6h-3.7c-0.6-1.8-2.1-3.2-3.9-3.8v-3.8
		c0-0.3-0.3-0.6-0.6-0.6h-2.8c-0.3,0-0.6,0.3-0.6,0.6v3.9c-1.7,0.6-3.1,2-3.7,3.7h-3.9c-0.3,0-0.6,0.3-0.6,0.6v2.8
		c0,0.3,0.3,0.6,0.6,0.6h3.9c0.6,1.8,2,3.2,3.8,3.9v3.8c0,0.3,0.3,0.6,0.6,0.6h2.8c0.3,0,0.6-0.3,0.6-0.6V46
		C54.1,45.4,55.6,43.9,56.2,42z"/>
	<path class="st1" d="M94.8,78.9H91c-0.6-1.8-2.1-3.2-3.9-3.8v-3.8c0-0.3-0.3-0.6-0.6-0.6h-2.8c-0.3,0-0.6,0.3-0.6,0.6v3.9
		c-1.7,0.6-3.1,2-3.7,3.7h-3.9c-0.3,0-0.6,0.3-0.6,0.6v2.8c0,0.3,0.3,0.6,0.6,0.6h3.9c0.6,1.8,2,3.2,3.8,3.9v3.8
		c0,0.3,0.3,0.6,0.6,0.6h2.8c0.3,0,0.6-0.3,0.6-0.6v-3.7c1.9-0.6,3.4-2.1,4-4h3.7c0.3,0,0.6-0.3,0.6-0.6v-2.8
		C95.4,79.2,95.1,78.9,94.8,78.9z"/>
	<circle class="st1" cx="31.9" cy="25.7" r="2.1"/>
</g>
</svg>
