<?xml version="1.0" encoding="utf-8"?>
<!-- Generator: Adobe Illustrator 21.1.0, SVG Export Plug-In . SVG Version: 6.00 Build 0)  -->
<svg version="1.1" id="Слой_1" xmlns="http://www.w3.org/2000/svg" xmlns:xlink="http://www.w3.org/1999/xlink" x="0px" y="0px"
	 viewBox="0 0 50 50" style="enable-background:new 0 0 50 50;" xml:space="preserve">
<style type="text/css">
	.st0{opacity:0.15;fill:#FFFFFF;}
	.st1{fill:#FFFFFF;}
</style>
<path class="st0" d="M25,47.9C12.4,47.9,2.1,37.6,2.1,25S12.4,2.1,25,2.1S47.9,12.4,47.9,25S37.6,47.9,25,47.9L25,47.9z"/>
<g>
	<path class="st1" d="M35,24.1l-13.8-9.4c-0.4-0.3-1.6-0.3-1.7,0.9v18.9c0.1,1.2,1.3,1.2,1.7,0.9L35,25.9
		C35.4,25.7,35.9,24.8,35,24.1L35,24.1z M21.7,32.4V17.6L32.5,25L21.7,32.4z M21.7,32.4"/>
	<path class="st1" d="M25,0C11.2,0,0,11.2,0,25s11.2,25,25,25s25-11.2,25-25S38.8,0,25,0L25,0z M25,47.9C12.4,47.9,2.1,37.6,2.1,25
		S12.4,2.1,25,2.1S47.9,12.4,47.9,25S37.6,47.9,25,47.9L25,47.9z M25,47.9"/>
</g>
</svg>
