<?xml version="1.0" encoding="utf-8"?>
<!-- Generator: Adobe Illustrator 21.1.0, SVG Export Plug-In . SVG Version: 6.00 Build 0)  -->
<svg version="1.1" id="Layer_1" xmlns="http://www.w3.org/2000/svg" xmlns:xlink="http://www.w3.org/1999/xlink" x="0px" y="0px"
	 viewBox="0 0 48 49.5" style="enable-background:new 0 0 48 49.5;" xml:space="preserve">
<style type="text/css">
	.st0{fill:#336791;}
	.st1{fill:#FFFFFF;}
</style>
<g id="XMLID_1_">
	<path id="XMLID_3_" d="M47.9,29.6c-0.3-0.9-1-1.5-2-1.6c-0.5-0.1-1,0-1.6,0.1c-1.1,0.2-1.9,0.3-2.5,0.3c2.2-3.8,4-8,5.1-12.1
		c1.7-6.5,0.8-9.5-0.3-10.8C43.8,2,39.7,0.1,34.8,0c-2.6,0-4.9,0.5-6.1,0.9c-1.1-0.2-2.3-0.3-3.6-0.3c-2.4,0-4.4,0.5-6.2,1.5
		c-1-0.3-2.6-0.8-4.4-1.1C10.2,0.3,6.8,0.8,4.3,2.6C1.2,4.8-0.2,8.5,0,13.8c0.1,1.7,1,6.7,2.5,11.6c0.8,2.8,1.7,5.1,2.7,6.8
		c1.3,2.5,2.7,4,4.3,4.5c0.9,0.3,2.5,0.5,4.2-0.9c0.2,0.3,0.5,0.5,0.9,0.8c0.5,0.3,1.1,0.6,1.7,0.7c2.1,0.5,4.1,0.4,5.8-0.3
		c0,0.3,0,0.6,0,0.8c0,0.4,0,0.8,0,1.2c0.1,2.5,0.3,4.5,0.8,5.8c0,0.1,0.1,0.2,0.1,0.3c0.3,0.8,0.7,2.1,1.8,3.1
		c1.1,1.1,2.5,1.4,3.7,1.4c0.6,0,1.2-0.1,1.7-0.2c1.8-0.4,3.9-1,5.5-3.2c1.4-2,2.1-5.1,2.3-10c0-0.1,0-0.3,0-0.4c0-0.1,0-0.2,0-0.3
		l0.3,0l0.1,0c1.9,0.1,4.2-0.3,5.6-1C45.1,34.1,48.7,32.2,47.9,29.6"/>
	<path id="XMLID_4_" class="st0" d="M44.7,30.1c-5.6,1.2-6-0.7-6-0.7c5.9-8.8,8.4-19.9,6.2-22.6c-5.8-7.4-15.9-3.9-16-3.8l-0.1,0
		c-1.1-0.2-2.3-0.4-3.7-0.4c-2.5,0-4.4,0.7-5.9,1.8c0,0-17.9-7.4-17.1,9.3C2.3,17.2,7.2,40.5,13,33.5c2.1-2.6,4.2-4.8,4.2-4.8
		c1,0.7,2.3,1,3.5,0.9l0.1-0.1c0,0.3,0,0.6,0,1c-1.5,1.7-1.1,2-4.1,2.6c-3.1,0.6-1.3,1.7-0.1,2c1.4,0.4,4.7,0.9,6.9-2.2l-0.1,0.4
		c0.6,0.5,1,3.1,0.9,5.4c-0.1,2.4-0.1,4,0.3,5.3c0.5,1.3,0.9,4.1,4.9,3.3c3.3-0.7,5-2.5,5.3-5.6c0.2-2.2,0.6-1.9,0.6-3.8l0.3-0.9
		c0.4-3,0.1-3.9,2.1-3.5l0.5,0c1.5,0.1,3.5-0.2,4.6-0.8C45.6,31.6,47.1,29.6,44.7,30.1L44.7,30.1"/>
	<path id="XMLID_5_" class="st1" d="M20.3,15.3c-0.5-0.1-1,0-1.2,0.2c-0.1,0.1-0.2,0.2-0.2,0.3c0,0.2,0.1,0.4,0.2,0.6
		c0.3,0.3,0.6,0.6,1,0.6c0.1,0,0.1,0,0.2,0c0.6,0,1.2-0.5,1.2-0.8C21.5,15.6,20.9,15.3,20.3,15.3"/>
	<path id="XMLID_6_" class="st1" d="M36.9,15.3L36.9,15.3c0-0.3-0.7-0.4-1.2-0.4c-0.6,0.1-1.1,0.3-1.1,0.7c0,0.3,0.5,0.7,1.1,0.7
		c0,0,0.1,0,0.1,0c0.4-0.1,0.7-0.3,0.8-0.4C36.8,15.7,37,15.4,36.9,15.3"/>
	<path id="XMLID_15_" class="st1" d="M46.5,30c-0.2-0.6-0.9-0.9-2-0.6c-3.4,0.7-4.6,0.2-5-0.1c2.6-4,4.8-8.9,6-13.4
		c0.6-2.1,0.9-4.1,0.9-5.7c0-1.8-0.3-3.1-0.9-3.9c-2.5-3.2-6.2-4.9-10.7-5c-3.1,0-5.7,0.8-6.2,1c-1.1-0.3-2.2-0.4-3.5-0.4
		c-2.3,0-4.3,0.5-6,1.6c-0.7-0.3-2.6-0.9-4.8-1.3c-3.9-0.6-7-0.2-9.3,1.4c-2.7,1.9-3.9,5.2-3.6,10c0.1,1.6,1,6.5,2.4,11.2
		c1.9,6.2,3.9,9.7,6.1,10.4c0.3,0.1,0.5,0.1,0.9,0.1c0.8,0,1.8-0.4,2.8-1.6c1.7-2,3.2-3.7,3.8-4.3c0.9,0.5,1.8,0.7,2.7,0.7
		c0,0,0,0.1,0,0.1c-0.2,0.2-0.3,0.4-0.5,0.6c-0.7,0.8-0.8,1-2.9,1.5c-0.6,0.1-2.2,0.5-2.2,1.6c0,1.2,1.9,1.8,2.1,1.8
		c0.8,0.2,1.5,0.3,2.2,0.3c1.7,0,3.2-0.6,4.4-1.7c0,4.4,0.1,8.7,0.7,10c0.4,1.1,1.5,3.7,4.8,3.7c0.5,0,1-0.1,1.6-0.2
		c3.5-0.7,5-2.3,5.6-5.7c0.3-1.8,0.8-6.1,1.1-8.5c0.5,0.2,1.2,0.2,2,0.2c1.5,0,3.3-0.3,4.5-0.8C44.7,32.7,46.9,31.3,46.5,30z
		 M38.2,14.3c0,0.7-0.1,1.3-0.2,2c-0.1,0.7-0.2,1.4-0.2,2.3c0,0.9,0.1,1.7,0.2,2.6c0.2,1.7,0.4,3.5-0.4,5.3
		c-0.1-0.2-0.3-0.5-0.4-0.8c-0.1-0.2-0.3-0.6-0.6-1.2c-1.2-2.2-4-7.2-2.6-9.3C34.4,14.6,35.5,14,38.2,14.3z M34.9,2.7
		c4,0.1,7.2,1.6,9.4,4.5c1.7,2.2-0.2,12.2-5.7,20.9c-0.1-0.1-0.1-0.1-0.2-0.2c0,0,0-0.1-0.1-0.1c1.4-2.3,1.1-4.7,0.9-6.7
		c-0.1-0.8-0.2-1.6-0.2-2.4c0-0.8,0.1-1.5,0.2-2.1c0.1-0.8,0.3-1.6,0.2-2.6c0-0.1,0-0.2,0-0.4c-0.1-0.9-1.2-3.8-3.4-6.4
		c-1.2-1.4-3-3-5.4-4C31.9,2.9,33.3,2.7,34.9,2.7z M12.5,33c-1.1,1.3-1.9,1.1-2.1,1c-1.6-0.5-3.5-4-5.2-9.5
		c-1.5-4.8-2.3-9.5-2.4-10.9C2.5,9.3,3.6,6.4,5.8,4.8c3.6-2.6,9.6-1,12.1-0.3c0,0-0.1,0.1-0.1,0.1c-4,4-3.9,10.8-3.9,11.2
		c0,0.2,0,0.4,0,0.7c0.1,1.1,0.2,3.3-0.1,5.7c-0.3,2.2,0.4,4.4,1.9,6c0.2,0.2,0.3,0.3,0.5,0.5C15.5,29.5,14,31.1,12.5,33z
		 M16.7,27.3c-1.2-1.3-1.8-3.1-1.5-4.9c0.4-2.6,0.2-4.8,0.2-6c0-0.2,0-0.3,0-0.4c0.6-0.5,3.3-1.9,5.2-1.5c0.9,0.2,1.4,0.8,1.6,1.8
		c1.1,5.3,0.2,7.5-0.6,9.3c-0.2,0.4-0.3,0.7-0.5,1.1l-0.1,0.3c-0.3,0.7-0.5,1.3-0.7,2C18.9,28.9,17.7,28.3,16.7,27.3z M16.9,34.5
		c-0.4-0.1-0.7-0.3-0.9-0.4c0.2-0.1,0.5-0.2,1-0.3c2.5-0.5,2.9-0.9,3.7-2c0.2-0.2,0.4-0.5,0.7-0.9l0,0c0.5-0.5,0.7-0.4,1-0.3
		c0.3,0.1,0.6,0.5,0.7,0.9c0.1,0.2,0.1,0.6-0.1,0.9C21.3,34.9,18.7,34.9,16.9,34.5z M30,46.7c-3.1,0.7-4.2-0.9-4.9-2.7
		c-0.5-1.2-0.7-6.4-0.5-12.1c0-0.1,0-0.2,0-0.2c0-0.1,0-0.3-0.1-0.4c-0.2-0.8-0.8-1.5-1.5-1.8c-0.3-0.1-0.8-0.3-1.4-0.2
		c0.1-0.5,0.4-1.1,0.6-1.8l0.1-0.3c0.1-0.3,0.3-0.6,0.4-1c0.8-1.9,2-4.4,0.7-10.1c-0.5-2.1-2-3.2-4.4-2.9c-1.4,0.1-2.7,0.7-3.3,1
		c-0.1,0.1-0.3,0.1-0.4,0.2c0.2-2.2,0.9-6.2,3.4-8.8c1.6-1.6,3.7-2.4,6.3-2.4c5.1,0.1,8.4,2.7,10.2,4.9c1.6,1.9,2.5,3.8,2.8,4.8
		c-2.6-0.3-4.3,0.2-5.2,1.5c-1.9,2.8,1.1,8.2,2.5,10.7c0.3,0.5,0.5,0.9,0.6,1.1c0.5,1.1,1.1,1.9,1.5,2.5c0.1,0.2,0.3,0.3,0.4,0.5
		c-0.8,0.2-2.2,0.7-2.1,3.4c-0.1,1.3-0.8,7.4-1.2,9.6C34,45,33,46,30,46.7z M42.8,32c-0.8,0.4-2.1,0.7-3.4,0.7
		c-1.4,0.1-2.1-0.2-2.3-0.3c-0.1-1.6,0.5-1.8,1.2-2c0.1,0,0.2-0.1,0.3-0.1c0.1,0,0.1,0.1,0.2,0.1c1.1,0.7,3.1,0.8,6,0.2l0,0
		C44.4,31.1,43.8,31.6,42.8,32z"/>
</g>
</svg>
