<?xml version="1.0" encoding="utf-8"?>
<!-- Generator: Adobe Illustrator 21.1.0, SVG Export Plug-In . SVG Version: 6.00 Build 0)  -->
<svg version="1.1" id="Layer_1" xmlns="http://www.w3.org/2000/svg" xmlns:xlink="http://www.w3.org/1999/xlink" x="0px" y="0px"
	 viewBox="159.5 347.4 95 99.1" style="enable-background:new 159.5 347.4 95 99.1;" xml:space="preserve">
<style type="text/css">
	.st0{fill:#C74146;}
	.st1{fill:#24AD87;}
	.st2{fill:#2998D6;}
	.st3{fill:#D3C76C;}
	.st4{fill:#6BDDA6;}
	.st5{fill:#00C3FF;}
	.st6{fill:#FFF082;}
	.st7{fill:#FF5050;}
</style>
<path class="st0" d="M198.7,393.5c-0.6,0.2-1.3,0.4-2.1,0.4c-3.4,0-6.2-2.8-6.2-6.2c0-3.4,2.8-6.2,6.2-6.2c0.7,0,1.4,0.1,2.1,0.4
	v-13.8h-14.8c0.2,0.6,0.4,1.3,0.4,2.1c0,3.4-2.8,6.2-6.2,6.2s-6.2-2.8-6.2-6.2c0-0.7,0.1-1.4,0.4-2.1h-12.7v39.2h13.8
	c-0.2,0.6-0.4,1.3-0.4,2.1c0,3.4,2.8,6.2,6.2,6.2s6.2-2.8,6.2-6.2c0-0.7-0.1-1.4-0.4-2.1h13.8L198.7,393.5L198.7,393.5z"/>
<path class="st1" d="M235.9,433.1c-3.4,0-6.2-2.8-6.2-6.2c0-3.4,2.8-6.2,6.2-6.2c0.7,0,1.4,0.1,2.1,0.4v-13.8h-39.2v39.2H238v-13.8
	C237.3,433,236.6,433.1,235.9,433.1z"/>
<path class="st2" d="M200.8,420.8c-0.7,0-1.4,0.1-2.1,0.4v-13.8h-39.2v13.8c0.6-0.2,1.3-0.4,2.1-0.4c3.4,0,6.2,2.8,6.2,6.2
	s-2.8,6.2-6.2,6.2c-0.7,0-1.4-0.1-2.1-0.4v13.8h39.2v-13.8c0.6,0.2,1.3,0.4,2.1,0.4c3.4,0,6.2-2.8,6.2-6.2
	C207,423.5,204.2,420.8,200.8,420.8z"/>
<path class="st3" d="M254.5,377c-0.6,0.2-1.3,0.4-2.1,0.4c-3.4,0-6.2-2.8-6.2-6.2c0-3.4,2.8-6.2,6.2-6.2c0.7,0,1.4,0.1,2.1,0.4
	v-13.8h-39.2v13.8c-0.6-0.2-1.3-0.4-2.1-0.4c-3.4,0-6.2,2.8-6.2,6.2c0,3.4,2.8,6.2,6.2,6.2c0.7,0,1.4-0.1,2.1-0.4v13.8H229
	c-0.2,0.6-0.4,1.3-0.4,2.1c0,3.4,2.8,6.2,6.2,6.2c3.4,0,6.2-2.8,6.2-6.2c0-0.7-0.1-1.4-0.4-2.1h13.8L254.5,377L254.5,377z"/>
<path class="st4" d="M235.9,429c-3.4,0-6.2-2.8-6.2-6.2c0-3.4,2.8-6.2,6.2-6.2c0.7,0,1.4,0.1,2.1,0.4v-13.8h-39.2v39.2H238v-13.8
	C237.3,428.9,236.6,429,235.9,429z"/>
<path class="st5" d="M200.8,416.6c-0.7,0-1.4,0.1-2.1,0.4v-13.8h-39.2V417c0.6-0.2,1.3-0.4,2.1-0.4c3.4,0,6.2,2.8,6.2,6.2
	s-2.8,6.2-6.2,6.2c-0.7,0-1.4-0.1-2.1-0.4v13.8h39.2v-13.8c0.6,0.2,1.3,0.4,2.1,0.4c3.4,0,6.2-2.8,6.2-6.2
	C207,419.4,204.2,416.6,200.8,416.6z"/>
<path class="st6" d="M254.5,372.9c-0.6,0.2-1.3,0.4-2.1,0.4c-3.4,0-6.2-2.8-6.2-6.2c0-3.4,2.8-6.2,6.2-6.2c0.7,0,1.4,0.1,2.1,0.4
	v-13.8h-39.2v13.8c-0.6-0.2-1.3-0.4-2.1-0.4c-3.4,0-6.2,2.8-6.2,6.2s2.8,6.2,6.2,6.2c0.7,0,1.4-0.1,2.1-0.4v13.8H229
	c-0.2,0.6-0.4,1.3-0.4,2.1c0,3.4,2.8,6.2,6.2,6.2c3.4,0,6.2-2.8,6.2-6.2c0-0.7-0.1-1.4-0.4-2.1h13.8L254.5,372.9L254.5,372.9z"/>
<path class="st7" d="M198.7,389.4c-0.6,0.2-1.3,0.4-2.1,0.4c-3.4,0-6.2-2.8-6.2-6.2s2.8-6.2,6.2-6.2c0.7,0,1.4,0.1,2.1,0.4V364
	h-14.8c0.2,0.6,0.4,1.3,0.4,2.1c0,3.4-2.8,6.2-6.2,6.2s-6.2-2.8-6.2-6.2c0-0.7,0.1-1.4,0.4-2.1h-12.7v39.2h13.8
	c-0.2,0.6-0.4,1.3-0.4,2.1c0,3.4,2.8,6.2,6.2,6.2s6.2-2.8,6.2-6.2c0-0.7-0.1-1.4-0.4-2.1h13.8L198.7,389.4L198.7,389.4z"/>
</svg>
