<?xml version="1.0" encoding="utf-8"?>
<!-- Generator: Adobe Illustrator 21.1.0, SVG Export Plug-In . SVG Version: 6.00 Build 0)  -->
<svg version="1.1" id="svg2" xmlns="http://www.w3.org/2000/svg" xmlns:xlink="http://www.w3.org/1999/xlink" x="0px" y="0px"
	 viewBox="0 0 80 23.2" style="enable-background:new 0 0 80 23.2;" xml:space="preserve">
<style type="text/css">
	.st0{fill:#646464;}
	.st1{fill:url(#path1948_1_);}
	.st2{fill:url(#path1950_1_);}
	.st3{opacity:0.4438;fill:url(#path1894_1_);enable-background:new    ;}
</style>
<path id="path46" class="st0" d="M30.2,9.9c0-2.5-0.7-3.7-2.1-3.8c-0.6,0-1.1,0.1-1.6,0.3c-0.4,0.2-0.7,0.3-0.9,0.5v5.9
	c0.9,0.6,1.7,0.8,2.4,0.8C29.4,13.4,30.2,12.2,30.2,9.9z M31.9,10c0,1.2-0.3,2.3-0.9,3.1c-0.7,0.9-1.6,1.4-2.7,1.4
	c-0.9,0-1.8-0.2-2.7-0.8V19l-1.5-0.5V6.7c0.2-0.3,0.6-0.6,0.9-0.8c0.9-0.5,2-0.8,3.3-0.8l0,0c1.2,0,2.1,0.5,2.7,1.4
	C31.6,7.4,31.9,8.6,31.9,10z"/>
<path id="path48" class="st0" d="M41.1,13.5c0,1.7-0.2,2.8-0.5,3.5c-0.3,0.6-1,1.2-1.9,1.5C37.9,18.8,37,19,36.2,19L35.9,18
	c0.9-0.1,1.5-0.2,1.9-0.4c0.7-0.2,1.2-0.6,1.5-1.1c0.2-0.4,0.3-1.2,0.3-2.4v-0.4c-1,0.5-2.1,0.7-3.2,0.7c-0.7,0-1.4-0.2-2-0.7
	c-0.6-0.5-0.9-1.2-0.9-1.9V5.6L35,5.1v6.3c0,0.7,0.2,1.2,0.7,1.6c0.4,0.4,1,0.5,1.7,0.5c0.7,0,1.4-0.3,2.2-0.8V5.3h1.5V13.5z"/>
<path id="path50" class="st0" d="M46.9,14.4c-0.2,0-0.3,0-0.5,0c-0.8,0-1.5-0.2-2-0.6c-0.5-0.4-0.7-1-0.7-1.7V6.3h-1V5.3h1V2.8
	l1.5-0.5v3h1.7v0.9h-1.7v5.9c0,0.6,0.2,1,0.5,1.2c0.3,0.2,0.7,0.3,1.2,0.3V14.4z"/>
<path id="path52" class="st0" d="M56,14.3h-1.5V8.5c0-0.6-0.1-1.1-0.4-1.5c-0.3-0.5-0.8-0.7-1.3-0.7c-0.7,0-1.5,0.4-2.6,1.1v6.9
	h-1.5V0.5L50.2,0v6.3c1-0.7,2-1,3.1-1c0.8,0,1.4,0.3,1.9,0.8c0.5,0.5,0.7,1.2,0.7,2V14.3L56,14.3z"/>
<path id="path54" class="st0" d="M64,9.6c0-0.9-0.2-1.7-0.5-2.3c-0.4-0.8-1.1-1.1-2-1.2C59.8,6.2,59,7.4,59,9.7c0,1,0.2,1.9,0.5,2.6
	c0.4,0.9,1.1,1.3,2,1.3C63.2,13.5,64,12.2,64,9.6z M65.6,9.7c0,1.3-0.3,2.5-1,3.4c-0.8,1-1.8,1.5-3.1,1.5c-1.3,0-2.3-0.5-3.1-1.5
	c-0.7-0.9-1-2-1-3.4c0-1.3,0.4-2.3,1.1-3.2c0.8-0.9,1.8-1.4,3-1.4c1.2,0,2.3,0.5,3,1.4C65.3,7.3,65.6,8.4,65.6,9.7z"/>
<path id="path56" class="st0" d="M74.2,14.3h-1.5V8.2c0-0.7-0.2-1.2-0.6-1.6c-0.4-0.4-0.9-0.6-1.6-0.5c-0.7,0-1.4,0.2-2,0.7v7.5H67
	V6.6c0.9-0.6,1.7-1,2.4-1.2c0.7-0.2,1.3-0.3,1.8-0.3c0.4,0,0.7,0,1,0.1c0.6,0.1,1.1,0.4,1.4,0.8c0.4,0.4,0.6,0.9,0.6,1.5V14.3z"/>
<linearGradient id="path1948_1_" gradientUnits="userSpaceOnUse" x1="36.8826" y1="-29.6808" x2="55.251" y2="-45.4843" gradientTransform="matrix(0.5625 0 0 -0.568 -21.2075 -15.7904)">
	<stop  offset="0" style="stop-color:#5A9FD4"/>
	<stop  offset="1" style="stop-color:#306998"/>
</linearGradient>
<path id="path1948" class="st1" d="M9.3,0.5c-0.8,0-1.5,0.1-2.2,0.2c-1.9,0.3-2.3,1-2.3,2.3v1.7h4.5v0.6H4.8H3.1
	c-1.3,0-2.5,0.8-2.8,2.3c-0.4,1.7-0.4,2.8,0,4.6c0.3,1.3,1.1,2.3,2.4,2.3h1.6v-2.1c0-1.5,1.3-2.8,2.8-2.8h4.5c1.3,0,2.3-1,2.3-2.3
	V3.1c0-1.2-1-2.1-2.3-2.3C10.8,0.6,10,0.5,9.3,0.5z M6.8,1.9c0.5,0,0.8,0.4,0.8,0.9c0,0.5-0.4,0.9-0.8,0.9C6.3,3.6,6,3.3,6,2.8
	C6,2.3,6.3,1.9,6.8,1.9z"/>
<linearGradient id="path1950_1_" gradientUnits="userSpaceOnUse" x1="62.3523" y1="-55.0492" x2="55.793" y2="-45.7689" gradientTransform="matrix(0.5625 0 0 -0.568 -21.2075 -15.7904)">
	<stop  offset="0" style="stop-color:#FFD43B"/>
	<stop  offset="1" style="stop-color:#FFE873"/>
</linearGradient>
<path id="path1950" class="st2" d="M14.4,5.4v2c0,1.6-1.3,2.9-2.8,2.9H7.1c-1.2,0-2.3,1.1-2.3,2.3v4.3c0,1.2,1.1,1.9,2.3,2.3
	c1.4,0.4,2.8,0.5,4.5,0c1.1-0.3,2.3-1,2.3-2.3v-1.7H9.4v-0.6h4.5h2.3c1.3,0,1.8-0.9,2.3-2.3c0.5-1.4,0.5-2.8,0-4.6
	c-0.3-1.3-0.9-2.3-2.3-2.3H14.4z M11.9,16.3c0.5,0,0.8,0.4,0.8,0.9c0,0.5-0.4,0.9-0.8,0.9c-0.5,0-0.8-0.4-0.8-0.9
	C11,16.6,11.4,16.3,11.9,16.3z"/>
<path id="text3004" sodipodi:nodetypes="ccccccccccccccccccccccc" class="st0" d="M77.2,4h0.3V2.3H78V2.1h-1.5v0.2h0.6V4 M78.3,4
	h0.2V2.5L79,4h0.3l0.5-1.5V4H80V2.1h-0.3l-0.6,1.6l-0.5-1.6h-0.4V4"/>
<radialGradient id="path1894_1_" cx="428.3601" cy="-96.1244" r="4.8925" gradientTransform="matrix(1.749057e-08 -0.2399 -1.0547 -3.791546e-07 -91.9747 124.8285)" gradientUnits="userSpaceOnUse">
	<stop  offset="0" style="stop-color:#B8B8B8;stop-opacity:0.498"/>
	<stop  offset="1" style="stop-color:#7F7F7F;stop-opacity:0"/>
</radialGradient>
<path id="path1894" sodipodi:cx="61.518883" sodipodi:cy="132.28575" sodipodi:rx="48.948284" sodipodi:ry="8.6066771" sodipodi:type="arc" class="st3" d="
	M15.5,22c0,0.6-2.7,1.2-6.1,1.2S3.4,22.7,3.4,22c0-0.6,2.7-1.2,6.1-1.2S15.5,21.4,15.5,22z"/>
</svg>
