<?xml version="1.0" encoding="utf-8"?>
<!-- Generator: Adobe Illustrator 21.1.0, SVG Export Plug-In . SVG Version: 6.00 Build 0)  -->
<svg version="1.1" id="Слой_1" xmlns="http://www.w3.org/2000/svg" xmlns:xlink="http://www.w3.org/1999/xlink" x="0px" y="0px"
	 viewBox="0 0 75 59.5" style="enable-background:new 0 0 75 59.5;" xml:space="preserve">
<style type="text/css">
	.st0{fill:#D7DEED;}
	.st1{fill:#FF6464;}
	.st2{fill:#FFE182;}
	.st3{fill:#A5D76E;}
	.st4{fill:#EFF2FA;}
	.st5{fill:#464655;}
	.st6{fill:#707384;}
	.st7{fill:#5B5D6E;}
	.st8{fill:#00D2FF;}
	.st9{fill:#18BDF6;}
	.st10{fill:#8CE6FF;}
</style>
<g>
	<path class="st0" d="M71.1,0H3.9C1.7,0,0,1.7,0,3.9v51.7c0,2.1,1.7,3.9,3.9,3.9h67.2c2.1,0,3.9-1.7,3.9-3.9V3.9
		C75,1.7,73.3,0,71.1,0L71.1,0z M72.4,55.6c0,0.7-0.6,1.3-1.3,1.3H3.9c-0.7,0-1.3-0.6-1.3-1.3V9.1c0-0.7,0.6-1.3,1.3-1.3h67.2
		c0.7,0,1.3,0.6,1.3,1.3V55.6z M72.4,55.6"/>
	<path class="st1" d="M5.2,3.9c0,0.7-0.6,1.3-1.3,1.3c-0.7,0-1.3-0.6-1.3-1.3c0-0.7,0.6-1.3,1.3-1.3C4.6,2.6,5.2,3.2,5.2,3.9
		L5.2,3.9z M5.2,3.9"/>
	<path class="st2" d="M9.1,3.9c0,0.7-0.6,1.3-1.3,1.3C7,5.2,6.5,4.6,6.5,3.9c0-0.7,0.6-1.3,1.3-1.3C8.5,2.6,9.1,3.2,9.1,3.9L9.1,3.9
		z M9.1,3.9"/>
	<path class="st3" d="M12.9,3.9c0,0.7-0.6,1.3-1.3,1.3c-0.7,0-1.3-0.6-1.3-1.3c0-0.7,0.6-1.3,1.3-1.3C12.4,2.6,12.9,3.2,12.9,3.9
		L12.9,3.9z M12.9,3.9"/>
	<path class="st4" d="M18.1,5.2h-1.3c-0.7,0-1.3-0.6-1.3-1.3c0-0.7,0.6-1.3,1.3-1.3h1.3c0.7,0,1.3,0.6,1.3,1.3
		C19.4,4.6,18.8,5.2,18.1,5.2L18.1,5.2z M18.1,5.2"/>
	<path class="st4" d="M23.3,5.2H22c-0.7,0-1.3-0.6-1.3-1.3c0-0.7,0.6-1.3,1.3-1.3h1.3c0.7,0,1.3,0.6,1.3,1.3
		C24.6,4.6,24,5.2,23.3,5.2L23.3,5.2z M23.3,5.2"/>
	<path class="st4" d="M65.9,5.2h-1.3c-0.7,0-1.3-0.6-1.3-1.3c0-0.7,0.6-1.3,1.3-1.3h1.3c0.7,0,1.3,0.6,1.3,1.3
		C67.2,4.6,66.7,5.2,65.9,5.2L65.9,5.2z M65.9,5.2"/>
	<path class="st4" d="M71.1,5.2h-1.3c-0.7,0-1.3-0.6-1.3-1.3c0-0.7,0.6-1.3,1.3-1.3h1.3c0.7,0,1.3,0.6,1.3,1.3
		C72.4,4.6,71.8,5.2,71.1,5.2L71.1,5.2z M71.1,5.2"/>
	<path class="st4" d="M59.5,5.2h-31c-0.7,0-1.3-0.6-1.3-1.3c0-0.7,0.6-1.3,1.3-1.3h31c0.7,0,1.3,0.6,1.3,1.3
		C60.8,4.6,60.2,5.2,59.5,5.2L59.5,5.2z M59.5,5.2"/>
	<path class="st5" d="M44.3,41l-3.9-3.9l1.8-1.8l3.9,3.9L44.3,41z M44.3,41"/>
	<path class="st6" d="M52.9,51.3l-9.2-9.2c-0.5-0.5-0.5-1.3,0-1.8l1.8-1.8c0.5-0.5,1.3-0.5,1.8,0l9.2,9.2c0.5,0.5,0.5,1.3,0,1.8
		l-1.8,1.8C54.2,51.8,53.4,51.8,52.9,51.3L52.9,51.3z M52.9,51.3"/>
	<path class="st7" d="M33,41.4c-7.5,0-13.6-6.1-13.6-13.6S25.5,14.2,33,14.2s13.6,6.1,13.6,13.6S40.5,41.4,33,41.4L33,41.4z
		 M33,16.8c-6.1,0-11,4.9-11,11c0,6.1,4.9,11,11,11s11-4.9,11-11C44,21.7,39,16.8,33,16.8L33,16.8z M33,16.8"/>
	<path class="st8" d="M44,27.8c0,6.1-4.9,11-11,11s-11-4.9-11-11c0-6.1,4.9-11,11-11S44,21.7,44,27.8L44,27.8z M44,27.8"/>
	<path class="st8" d="M41.4,27.8c0,4.6-3.8,8.4-8.4,8.4c-4.6,0-8.4-3.8-8.4-8.4c0-4.6,3.8-8.4,8.4-8.4
		C37.6,19.4,41.4,23.2,41.4,27.8L41.4,27.8z M41.4,27.8"/>
	<path class="st9" d="M33,16.8c-6.1,0-11,4.9-11,11c0,6.1,4.9,11,11,11s11-4.9,11-11C44,21.7,39,16.8,33,16.8L33,16.8z M33,36.2
		c-4.6,0-8.4-3.8-8.4-8.4c0-4.6,3.8-8.4,8.4-8.4c4.6,0,8.4,3.8,8.4,8.4C41.4,32.4,37.6,36.2,33,36.2L33,36.2z M33,36.2"/>
	<path class="st10" d="M40.7,23.3c0,1.8-1.4,3.2-3.2,3.2s-3.2-1.4-3.2-3.2c0-1.8,1.4-3.2,3.2-3.2S40.7,21.5,40.7,23.3L40.7,23.3z
		 M40.7,23.3"/>
	<path class="st7" d="M54.2,50L45,40.9c-0.5-0.5-0.5-1.3,0-1.8l-1.3,1.3c-0.5,0.5-0.5,1.3,0,1.8l9.2,9.2c0.5,0.5,1.3,0.5,1.8,0
		L56,50C55.5,50.6,54.7,50.6,54.2,50L54.2,50z M54.2,50"/>
</g>
</svg>
