<?xml version="1.0" encoding="utf-8"?>
<!-- Generator: Adobe Illustrator 21.1.0, SVG Export Plug-In . SVG Version: 6.00 Build 0)  -->
<svg version="1.1" id="Layer_1" xmlns="http://www.w3.org/2000/svg" xmlns:xlink="http://www.w3.org/1999/xlink" x="0px" y="0px"
	 viewBox="163.5 336.9 87 120.1" style="enable-background:new 163.5 336.9 87 120.1;" xml:space="preserve">
<style type="text/css">
	.st0{fill:#EFF2FA;}
	.st1{fill:#C3E678;}
	.st2{fill:#D29B6E;}
	.st3{fill:#B4E1FA;}
	.st4{fill:#A0D2F0;}
	.st5{fill:#5B5D6E;}
	.st6{fill:#694B4B;}
	.st7{fill:#F0C087;}
	.st8{fill:#FFD782;}
	.st9{fill:#D7DEED;}
	.st10{fill:#C7CFE2;}
</style>
<path class="st0" d="M246.4,457.1h-78.7c-2.3,0-4.1-1.9-4.1-4.1V341.1c0-2.3,1.9-4.1,4.1-4.1h78.7c2.3,0,4.1,1.9,4.1,4.1v111.9
	C250.5,455.2,248.6,457.1,246.4,457.1z"/>
<path class="st1" d="M198.7,382.5h-24.9c-1.1,0-2.1-0.9-2.1-2.1v-33.1c0-1.1,0.9-2.1,2.1-2.1h24.9c1.1,0,2.1,0.9,2.1,2.1v33.1
	C200.8,381.6,199.9,382.5,198.7,382.5z"/>
<polygon class="st2" points="191.4,374.4 191.4,369.9 181.2,369.9 181.2,374.4 186.3,379.5 "/>
<path class="st3" d="M199.1,375.2l-6.9-1.5c-0.1,0-0.2-0.1-0.3-0.1l-5.6,3.1l-5.4-3.3c-0.1,0.1-0.3,0.2-0.5,0.3l-6.9,1.5
	c-1,0.2-1.7,1.1-1.7,2.1v3.2c0,1.1,0.9,2.1,2.1,2.1h24.9c1.1,0,2.1-0.9,2.1-2.1v-3.2C200.8,376.3,200.1,375.4,199.1,375.2z"/>
<g>
	<path class="st4" d="M200.3,376l-3.6,3.1c-0.6,0.5-0.9,1.2-0.9,2v1.5h2.9c1.1,0,2.1-0.9,2.1-2.1v-3.2
		C200.8,376.8,200.6,376.3,200.3,376z"/>
	<path class="st4" d="M175.9,379.1l-3.6-3.1c-0.3,0.4-0.5,0.8-0.5,1.3v3.2c0,1.1,0.9,2.1,2.1,2.1h2.9V381
		C176.8,380.3,176.5,379.6,175.9,379.1z"/>
</g>
<polygon class="st5" points="187.7,382.5 184.9,382.5 185.2,376.6 187.3,376.6 "/>
<g>
	<path class="st4" d="M181.2,372.3l5.1,4.4c0,0-1.4,0.7-3.2,2.1c-0.4,0.3-0.9,0.2-1.1-0.2l-2.4-5l0.8-1.1
		C180.5,372.1,180.9,372.1,181.2,372.3z"/>
	<path class="st4" d="M191.4,372.3l-5.1,4.4c0,0,1.4,0.7,3.2,2.1c0.4,0.3,0.9,0.2,1.1-0.2l2.4-5l-0.8-1.1
		C192,372.1,191.6,372.1,191.4,372.3z"/>
</g>
<path class="st6" d="M188.4,351.4h-4.1c-3.4,0-6.2,2.8-6.2,6.2v4.5c0,1.1,0.4,2.2,1.2,2.9l0.9,0.9h12.4l0.9-0.9
	c0.8-0.8,1.2-1.8,1.2-2.9v-4.5C194.6,354.2,191.8,351.4,188.4,351.4z"/>
<path class="st7" d="M179.9,362.1l0.3,6c0,0.9,0.5,1.8,1.2,2.4l2.1,1.6c0.5,0.4,1.2,0.6,1.8,0.6h2c0.7,0,1.3-0.2,1.8-0.6l2.1-1.6
	c0.7-0.6,1.2-1.4,1.2-2.4l0.3-6c0.1-2.2-1.6-4-3.7-4h-5.4C181.5,358.1,179.8,359.9,179.9,362.1z"/>
<path class="st8" d="M240.1,349.4h-29c-1.1,0-2.1-0.9-2.1-2.1l0,0c0-1.1,0.9-2.1,2.1-2.1h29c1.1,0,2.1,0.9,2.1,2.1l0,0
	C242.2,348.4,241.3,349.4,240.1,349.4z"/>
<g>
	<path class="st9" d="M240.1,365.9h-29c-1.1,0-2.1-0.9-2.1-2.1l0,0c0-1.1,0.9-2.1,2.1-2.1h29c1.1,0,2.1,0.9,2.1,2.1l0,0
		C242.2,365,241.3,365.9,240.1,365.9z"/>
	<path class="st9" d="M240.1,382.5h-29c-1.1,0-2.1-0.9-2.1-2.1l0,0c0-1.1,0.9-2.1,2.1-2.1h29c1.1,0,2.1,0.9,2.1,2.1l0,0
		C242.2,381.6,241.3,382.5,240.1,382.5z"/>
	<path class="st9" d="M207,394.9h-16.6c-1.1,0-2.1-0.9-2.1-2.1l0,0c0-1.1,0.9-2.1,2.1-2.1H207c1.1,0,2.1,0.9,2.1,2.1l0,0
		C209.1,394,208.1,394.9,207,394.9z"/>
	<path class="st9" d="M198.7,403.2h-24.9c-1.1,0-2.1-0.9-2.1-2.1l0,0c0-1.1,0.9-2.1,2.1-2.1h24.9c1.1,0,2.1,0.9,2.1,2.1l0,0
		C200.8,402.3,199.9,403.2,198.7,403.2z"/>
	<path class="st9" d="M240.1,403.2H207c-1.1,0-2.1-0.9-2.1-2.1l0,0c0-1.1,0.9-2.1,2.1-2.1h33.1c1.1,0,2.1,0.9,2.1,2.1l0,0
		C242.2,402.3,241.3,403.2,240.1,403.2z"/>
	<path class="st9" d="M219.4,394.9h-4.1c-1.1,0-2.1-0.9-2.1-2.1l0,0c0-1.1,0.9-2.1,2.1-2.1h4.1c1.1,0,2.1,0.9,2.1,2.1l0,0
		C221.5,394,220.6,394.9,219.4,394.9z"/>
</g>
<path class="st10" d="M182.1,394.9h-8.3c-1.1,0-2.1-0.9-2.1-2.1l0,0c0-1.1,0.9-2.1,2.1-2.1h8.3c1.1,0,2.1,0.9,2.1,2.1l0,0
	C184.2,394,183.3,394.9,182.1,394.9z"/>
<g>
	<path class="st9" d="M207,415.6h-16.6c-1.1,0-2.1-0.9-2.1-2.1l0,0c0-1.1,0.9-2.1,2.1-2.1H207c1.1,0,2.1,0.9,2.1,2.1l0,0
		C209.1,414.7,208.1,415.6,207,415.6z"/>
	<path class="st9" d="M198.7,423.9h-24.9c-1.1,0-2.1-0.9-2.1-2.1l0,0c0-1.1,0.9-2.1,2.1-2.1h24.9c1.1,0,2.1,0.9,2.1,2.1l0,0
		C200.8,423,199.9,423.9,198.7,423.9z"/>
	<path class="st9" d="M240.1,423.9H207c-1.1,0-2.1-0.9-2.1-2.1l0,0c0-1.1,0.9-2.1,2.1-2.1h33.1c1.1,0,2.1,0.9,2.1,2.1l0,0
		C242.2,423,241.3,423.9,240.1,423.9z"/>
	<path class="st9" d="M219.4,415.6h-4.1c-1.1,0-2.1-0.9-2.1-2.1l0,0c0-1.1,0.9-2.1,2.1-2.1h4.1c1.1,0,2.1,0.9,2.1,2.1l0,0
		C221.5,414.7,220.6,415.6,219.4,415.6z"/>
</g>
<path class="st10" d="M182.1,415.6h-8.3c-1.1,0-2.1-0.9-2.1-2.1l0,0c0-1.1,0.9-2.1,2.1-2.1h8.3c1.1,0,2.1,0.9,2.1,2.1l0,0
	C184.2,414.7,183.3,415.6,182.1,415.6z"/>
<g>
	<path class="st9" d="M207,436.4h-16.6c-1.1,0-2.1-0.9-2.1-2.1l0,0c0-1.1,0.9-2.1,2.1-2.1H207c1.1,0,2.1,0.9,2.1,2.1l0,0
		C209.1,435.4,208.1,436.4,207,436.4z"/>
	<path class="st9" d="M198.7,444.6h-24.9c-1.1,0-2.1-0.9-2.1-2.1l0,0c0-1.1,0.9-2.1,2.1-2.1h24.9c1.1,0,2.1,0.9,2.1,2.1l0,0
		C200.8,443.7,199.9,444.6,198.7,444.6z"/>
	<path class="st9" d="M240.1,444.6H207c-1.1,0-2.1-0.9-2.1-2.1l0,0c0-1.1,0.9-2.1,2.1-2.1h33.1c1.1,0,2.1,0.9,2.1,2.1l0,0
		C242.2,443.7,241.3,444.6,240.1,444.6z"/>
	<path class="st9" d="M219.4,436.4h-4.1c-1.1,0-2.1-0.9-2.1-2.1l0,0c0-1.1,0.9-2.1,2.1-2.1h4.1c1.1,0,2.1,0.9,2.1,2.1l0,0
		C221.5,435.4,220.6,436.4,219.4,436.4z"/>
</g>
<path class="st10" d="M182.1,436.4h-8.3c-1.1,0-2.1-0.9-2.1-2.1l0,0c0-1.1,0.9-2.1,2.1-2.1h8.3c1.1,0,2.1,0.9,2.1,2.1l0,0
	C184.2,435.4,183.3,436.4,182.1,436.4z"/>
<path class="st9" d="M240.1,374.2h-29c-1.1,0-2.1-0.9-2.1-2.1l0,0c0-1.1,0.9-2.1,2.1-2.1h29c1.1,0,2.1,0.9,2.1,2.1l0,0
	C242.2,373.3,241.3,374.2,240.1,374.2z"/>
<path class="st8" d="M240.1,357.6h-29c-1.1,0-2.1-0.9-2.1-2.1l0,0c0-1.1,0.9-2.1,2.1-2.1h29c1.1,0,2.1,0.9,2.1,2.1l0,0
	C242.2,356.7,241.3,357.6,240.1,357.6z"/>
</svg>
