<?xml version="1.0" encoding="utf-8"?>
<!-- Generator: Adobe Illustrator 21.1.0, SVG Export Plug-In . SVG Version: 6.00 Build 0)  -->
<svg version="1.1" id="Layer_1" xmlns="http://www.w3.org/2000/svg" xmlns:xlink="http://www.w3.org/1999/xlink" x="0px" y="0px"
	 viewBox="152.5 347.2 109 99.6" style="enable-background:new 152.5 347.2 109 99.6;" xml:space="preserve">
<style type="text/css">
	.st0{fill:#E4EAF8;}
	.st1{fill:#5B5D6E;}
	.st2{fill:#D5DCED;}
	.st3{fill:#FF5050;}
	.st4{fill:#FFF082;}
	.st5{fill:#A0FFB4;}
	.st6{fill:#00C3FF;}
	.st7{fill:#80E1FF;}
	.st8{fill:#00AAF0;}
	.st9{fill:#AFB9D2;}
	.st10{fill:#FFFFFF;}
</style>
<path class="st0" d="M257.7,443H156.3c-2.1,0-3.8-1.7-3.8-3.8v-84.6c0-2.1,1.7-3.8,3.8-3.8h101.5c2.1,0,3.8,1.7,3.8,3.8v84.6
	C261.5,441.4,259.8,443,257.7,443z"/>
<path class="st1" d="M257.7,443H207v-82.7h54.5v78.9C261.5,441.4,259.8,443,257.7,443z"/>
<path class="st2" d="M261.5,360.4h-109v-5.6c0-2.1,1.7-3.8,3.8-3.8h101.5c2.1,0,3.8,1.7,3.8,3.8V360.4z"/>
<path class="st0" d="M158.1,358.5h-1.9c-1,0-1.9-0.8-1.9-1.9v-1.9c0-1,0.8-1.9,1.9-1.9h1.9c1,0,1.9,0.8,1.9,1.9v1.9
	C160,357.6,159.2,358.5,158.1,358.5z"/>
<path class="st3" d="M242.7,358.5h-1.9c-1,0-1.9-0.8-1.9-1.9v-1.9c0-1,0.8-1.9,1.9-1.9h1.9c1,0,1.9,0.8,1.9,1.9v1.9
	C244.6,357.6,243.7,358.5,242.7,358.5z"/>
<path class="st4" d="M250.2,358.5h-1.9c-1,0-1.9-0.8-1.9-1.9v-1.9c0-1,0.8-1.9,1.9-1.9h1.9c1,0,1.9,0.8,1.9,1.9v1.9
	C252.1,357.6,251.3,358.5,250.2,358.5z"/>
<path class="st5" d="M257.7,358.5h-1.9c-1,0-1.9-0.8-1.9-1.9v-1.9c0-1,0.8-1.9,1.9-1.9h1.9c1,0,1.9,0.8,1.9,1.9v1.9
	C259.6,357.6,258.8,358.5,257.7,358.5z"/>
<path class="st6" d="M183.3,374.6l-12.7,12.7c-0.7,0.7-0.7,1.8-0.1,2.5l36.5,43.8v-60.1h-21C185,373.5,184.1,373.9,183.3,374.6z"/>
<polygon class="st7" points="207,373.5 190.1,388.5 207,388.5 "/>
<g>
	<path class="st8" d="M190.1,388.5l-5.5-14.7c-0.4,0.2-0.9,0.5-1.2,0.8l-12.7,12.7c-0.3,0.3-0.5,0.8-0.5,1.2H190.1L190.1,388.5z"/>
	<polygon class="st8" points="190.1,388.5 207,433.6 207,388.5 	"/>
</g>
<path class="st9" d="M207,446.8c-1,0-1.9-0.8-1.9-1.9v-95.8c0-1,0.8-1.9,1.9-1.9s1.9,0.8,1.9,1.9v95.8
	C208.9,446,208,446.8,207,446.8z"/>
<g>
	<path class="st3" d="M220.2,377.3h-3.8c-1,0-1.9-0.8-1.9-1.9c0-1,0.8-1.9,1.9-1.9h3.8c1,0,1.9,0.8,1.9,1.9
		C222,376.4,221.2,377.3,220.2,377.3z"/>
	<path class="st3" d="M220.2,392.3h-3.8c-1,0-1.9-0.8-1.9-1.9c0-1,0.8-1.9,1.9-1.9h3.8c1,0,1.9,0.8,1.9,1.9
		C222,391.5,221.2,392.3,220.2,392.3z"/>
</g>
<path class="st5" d="M225.8,384.8H222c-1,0-1.9-0.8-1.9-1.9c0-1,0.8-1.9,1.9-1.9h3.8c1,0,1.9,0.8,1.9,1.9
	C227.7,383.9,226.8,384.8,225.8,384.8z"/>
<path class="st10" d="M252.1,377.3h-24.4c-1,0-1.9-0.8-1.9-1.9c0-1,0.8-1.9,1.9-1.9h24.4c1,0,1.9,0.8,1.9,1.9
	C254,376.4,253.1,377.3,252.1,377.3z"/>
<path class="st4" d="M252.1,392.3h-24.4c-1,0-1.9-0.8-1.9-1.9c0-1,0.8-1.9,1.9-1.9h24.4c1,0,1.9,0.8,1.9,1.9
	C254,391.5,253.1,392.3,252.1,392.3z"/>
<path class="st2" d="M252.1,384.8h-18.8c-1,0-1.9-0.8-1.9-1.9c0-1,0.8-1.9,1.9-1.9h18.8c1,0,1.9,0.8,1.9,1.9
	C254,383.9,253.1,384.8,252.1,384.8z"/>
<path class="st5" d="M225.8,399.8H222c-1,0-1.9-0.8-1.9-1.9c0-1,0.8-1.9,1.9-1.9h3.8c1,0,1.9,0.8,1.9,1.9
	C227.7,399,226.8,399.8,225.8,399.8z"/>
<path class="st2" d="M252.1,399.8h-18.8c-1,0-1.9-0.8-1.9-1.9c0-1,0.8-1.9,1.9-1.9h18.8c1,0,1.9,0.8,1.9,1.9
	C254,399,253.1,399.8,252.1,399.8z"/>
<g>
	<path class="st3" d="M220.2,407.3h-3.8c-1,0-1.9-0.8-1.9-1.9c0-1,0.8-1.9,1.9-1.9h3.8c1,0,1.9,0.8,1.9,1.9
		C222,406.5,221.2,407.3,220.2,407.3z"/>
	<path class="st3" d="M220.2,422.4h-3.8c-1,0-1.9-0.8-1.9-1.9c0-1,0.8-1.9,1.9-1.9h3.8c1,0,1.9,0.8,1.9,1.9
		C222,421.5,221.2,422.4,220.2,422.4z"/>
</g>
<path class="st5" d="M225.8,414.9H222c-1,0-1.9-0.8-1.9-1.9c0-1,0.8-1.9,1.9-1.9h3.8c1,0,1.9,0.8,1.9,1.9
	C227.7,414,226.8,414.9,225.8,414.9z"/>
<path class="st10" d="M252.1,407.3h-24.4c-1,0-1.9-0.8-1.9-1.9c0-1,0.8-1.9,1.9-1.9h24.4c1,0,1.9,0.8,1.9,1.9
	C254,406.5,253.1,407.3,252.1,407.3z"/>
<path class="st4" d="M252.1,422.4h-24.4c-1,0-1.9-0.8-1.9-1.9c0-1,0.8-1.9,1.9-1.9h24.4c1,0,1.9,0.8,1.9,1.9
	C254,421.5,253.1,422.4,252.1,422.4z"/>
<path class="st2" d="M252.1,414.9h-18.8c-1,0-1.9-0.8-1.9-1.9c0-1,0.8-1.9,1.9-1.9h18.8c1,0,1.9,0.8,1.9,1.9
	C254,414,253.1,414.9,252.1,414.9z"/>
<path class="st5" d="M225.8,429.9H222c-1,0-1.9-0.8-1.9-1.9c0-1,0.8-1.9,1.9-1.9h3.8c1,0,1.9,0.8,1.9,1.9
	C227.7,429,226.8,429.9,225.8,429.9z"/>
<path class="st2" d="M252.1,429.9h-18.8c-1,0-1.9-0.8-1.9-1.9c0-1,0.8-1.9,1.9-1.9h18.8c1,0,1.9,0.8,1.9,1.9
	C254,429,253.1,429.9,252.1,429.9z"/>
</svg>
