<?xml version="1.0" encoding="utf-8"?>
<!-- Generator: Adobe Illustrator 21.1.0, SVG Export Plug-In . SVG Version: 6.00 Build 0)  -->
<svg version="1.1" id="Layer_1" xmlns="http://www.w3.org/2000/svg" xmlns:xlink="http://www.w3.org/1999/xlink" x="0px" y="0px"
	 viewBox="708.5 340.4 91 122.6" style="enable-background:new 708.5 340.4 91 122.6;" xml:space="preserve">
<style type="text/css">
	.st0{clip-path:url(#SVGID_2_);fill:#EBB45F;}
	.st1{clip-path:url(#SVGID_2_);fill:#FFC36E;}
	.st2{fill:#FFC36E;}
	.st3{fill:#EBB45F;}
	.st4{fill:#FFD782;}
	.st5{fill:#9B5A50;}
	.st6{fill:#874641;}
	.st7{fill:#AA6455;}
	.st8{fill:#FFFFFF;}
	.st9{fill:#C6122C;}
	.st10{fill:#F94B54;}
	.st11{fill:#A0102C;}
	.st12{fill:#DD173D;}
	.st13{opacity:0.5;fill:#AFB9D2;}
	.st14{fill:#E4EAF8;}
	.st15{fill:#F0C087;}
	.st16{fill:#59D8FF;}
	.st17{fill:#00C3F0;}
	.st18{fill:#E6AF78;}
	.st19{fill:#694B4B;}
	.st20{fill:#7F8499;}
	.st21{fill:#707487;}
	.st22{fill:#565C72;}
	.st23{fill:none;}
</style>
<g>
	<g>
		<defs>
			<rect id="SVGID_1_" x="739.6" y="340.4" width="28.7" height="37.9"/>
		</defs>
		<clipPath id="SVGID_2_">
			<use xlink:href="#SVGID_1_"  style="overflow:visible;"/>
		</clipPath>
		<path class="st0" d="M750.8,354.8c-4.5,0-8.4-3.3-9.1-7.7l0-0.1c-0.1-0.5,0-1,0.4-1.3c0.3-0.4,0.8-0.6,1.2-0.6h3.9v-2h-3.9
			c-1,0-2,0.5-2.7,1.3c-0.7,0.8-1,1.9-0.8,2.9l0,0.1c0.9,5.4,5.6,9.4,11.1,9.4h0L750.8,354.8C750.8,354.8,750.8,354.8,750.8,354.8
			L750.8,354.8z M750.8,354.8"/>
		<path class="st1" d="M767.5,344.3c-0.7-0.8-1.7-1.3-2.7-1.3h-3.9v2h3.9c0.5,0,0.9,0.2,1.2,0.6c0.3,0.4,0.4,0.8,0.4,1.3l0,0.1
			c-0.7,4.5-4.6,7.7-9.1,7.7h0v2h0c5.5,0,10.2-3.9,11.1-9.4l0-0.1C768.4,346.2,768.1,345.1,767.5,344.3L767.5,344.3z M767.5,344.3"
			/>
	</g>
	<path class="st2" d="M755.9,371.1H752l0.7-13.7h2.6L755.9,371.1z M755.9,371.1"/>
	<path class="st3" d="M752.7,357.4l-0.7,13.7h2v-13.7H752.7z M752.7,357.4"/>
	<path class="st4" d="M757.9,373.7h-7.8v-2.6c0-0.4,0.3-0.7,0.7-0.7h6.5c0.4,0,0.7,0.3,0.7,0.7V373.7z M757.9,373.7"/>
	<path class="st2" d="M754,370.4h-3.3c-0.4,0-0.7,0.3-0.7,0.7v2.6h3.3v-2.6C753.3,370.7,753.6,370.4,754,370.4L754,370.4z
		 M754,370.4"/>
	<path class="st5" d="M760.5,375h-13l0.9-1.4c0.2-0.4,0.6-0.6,1.1-0.6h9c0.4,0,0.8,0.2,1.1,0.6L760.5,375z M760.5,375"/>
	<path class="st6" d="M753.4,373h-3.9c-0.4,0-0.8,0.2-1.1,0.6l-0.9,1.4h3.9l0.9-1.4C752.5,373.2,752.9,373,753.4,373L753.4,373z
		 M753.4,373"/>
	<path class="st7" d="M760.5,378.2h-13c-0.4,0-0.7-0.3-0.7-0.7V375c0-0.4,0.3-0.7,0.7-0.7h13c0.4,0,0.7,0.3,0.7,0.7v2.6
		C761.1,377.9,760.8,378.2,760.5,378.2L760.5,378.2z M760.5,378.2"/>
	<path class="st5" d="M751.4,377.6V375c0-0.4,0.3-0.7,0.7-0.7h-4.6c-0.4,0-0.7,0.3-0.7,0.7v2.6c0,0.4,0.3,0.7,0.7,0.7h4.6
		C751.7,378.2,751.4,377.9,751.4,377.6L751.4,377.6z M751.4,377.6"/>
	<path class="st4" d="M759.2,355.5l-2.9,2.2c-0.2,0.2-0.5,0.3-0.8,0.3h-3c-0.3,0-0.6-0.1-0.8-0.3l-2.9-2.2c-1.7-1.3-2.8-3.2-3-5.4
		l-1-9.1h18.2l-1,9.1C761.9,352.3,760.8,354.2,759.2,355.5L759.2,355.5z M759.2,355.5"/>
	<path class="st2" d="M753.9,357.8l-1.3-2.2c-0.8-1.3-1.3-3.2-1.4-5.4l-0.4-9.1h-5.9l1,9.1c0.2,2.1,1.3,4,3,5.4l2.9,2.2
		c0.2,0.2,0.5,0.3,0.8,0.3h1.8C754.1,358,754,357.9,753.9,357.8L753.9,357.8z M753.9,357.8"/>
	<path class="st4" d="M763.1,341.7h-18.2c-0.4,0-0.7-0.3-0.7-0.7c0-0.4,0.3-0.7,0.7-0.7h18.2c0.4,0,0.7,0.3,0.7,0.7
		C763.7,341.4,763.5,341.7,763.1,341.7L763.1,341.7z M763.1,341.7"/>
	<path class="st4" d="M755.9,362.6H752c-0.4,0-0.7-0.3-0.7-0.7v-0.7c0-0.4,0.3-0.7,0.7-0.7h3.9c0.4,0,0.7,0.3,0.7,0.7v0.7
		C756.6,362.3,756.3,362.6,755.9,362.6L755.9,362.6z M755.9,362.6"/>
	<path class="st2" d="M753.3,361.9v-0.7c0-0.4,0.3-0.7,0.7-0.7h-2c-0.4,0-0.7,0.3-0.7,0.7v0.7c0,0.4,0.3,0.7,0.7,0.7h2
		C753.6,362.6,753.3,362.3,753.3,361.9L753.3,361.9z M753.3,361.9"/>
	<path class="st2" d="M762.9,343l0.1-1.3h-18.1l0.1,1.3H762.9z M762.9,343"/>
	<path class="st3" d="M750.7,341.7h-5.8l0.1,1.3h5.8L750.7,341.7z M750.7,341.7"/>
	<path class="st2" d="M750.1,341.1c0-0.4,0.3-0.7,0.7-0.7h-5.9c-0.4,0-0.7,0.3-0.7,0.7c0,0.4,0.3,0.7,0.7,0.7h5.9
		C750.4,341.7,750.1,341.4,750.1,341.1L750.1,341.1z M750.1,341.1"/>
	<path class="st8" d="M761.8,343.7c-1-0.2-1.7-1-2-2c0-0.1-0.1-0.1-0.1,0c-0.2,1-1,1.7-2,2c-0.1,0-0.1,0.1,0,0.1c1,0.2,1.7,1,2,2
		c0,0.1,0.1,0.1,0.1,0c0.2-1,1-1.7,2-2C761.8,343.8,761.8,343.7,761.8,343.7L761.8,343.7z M761.8,343.7"/>
	<path class="st8" d="M758.9,346.7c-0.7-0.2-1.2-0.7-1.4-1.4c0-0.1-0.1-0.1-0.1,0c-0.2,0.7-0.7,1.2-1.4,1.4c-0.1,0-0.1,0.1,0,0.1
		c0.7,0.2,1.2,0.7,1.4,1.4c0,0.1,0.1,0.1,0.1,0c0.2-0.7,0.7-1.2,1.4-1.4C759,346.8,759,346.7,758.9,346.7L758.9,346.7z M758.9,346.7
		"/>
</g>
<rect x="717.4" y="422.3" class="st9" width="73.2" height="10.8"/>
<polygon class="st10" points="790.6,422.3 717.4,422.3 726.2,418.1 781.7,418.1 "/>
<rect x="708.5" y="439.4" class="st11" width="91" height="16.5"/>
<polygon class="st10" points="799.5,439.4 708.5,439.4 717.4,433.1 790.6,433.1 "/>
<rect x="726.2" y="407.3" class="st12" width="55.5" height="10.8"/>
<polygon class="st10" points="781.7,407.3 726.2,407.3 732.3,405.1 775.7,405.1 "/>
<rect x="732.3" y="394.7" class="st13" width="43.4" height="10.4"/>
<rect x="738.3" y="384.8" class="st13" width="31.3" height="7.9"/>
<polygon class="st14" points="775.7,394.7 732.3,394.7 738.3,392.7 769.6,392.7 "/>
<polygon class="st14" points="769.6,384.8 738.3,384.8 741.3,384.1 766.8,384.1 "/>
<rect x="741.2" y="378.2" class="st13" width="25.5" height="5.9"/>
<g>
	<path class="st15" d="M764.1,410.6l-5.1-1.6c-0.5-0.2-0.8-0.6-0.8-1.1v-3.4H754h0H750v3.4c0,0.5-0.3,1-0.8,1.1l-5.1,1.6
		c-1,0.3-1.7,1.2-1.7,2.2v8.5c0,1.6,1.3,0,2.9,0h1.5h7.3h0h7.3h1.5c1.6,0,2.9,1.6,2.9,0v-8.5C765.7,411.9,765.1,410.9,764.1,410.6z"
		/>
	<path class="st16" d="M762.3,413l2.2-2.2c-0.1-0.1-0.3-0.1-0.4-0.2l-5.1-1.6c-1.4,2.2-2.1,2-4.9,2c-2.8,0-3.4,0.3-4.8-2l-5.2,1.6
		c-0.1,0-0.3,0.1-0.4,0.2l2.2,2.2c0.9,0.9,1.4,2.2,1.4,3.5v16h13.7v-16C760.8,415.1,761.4,413.9,762.3,413z"/>
	<path class="st17" d="M764.5,410.8l-2.2,2.2c-0.9,0.9-1.4,2.2-1.4,3.5v16v4.7h3.3v0c0.9,0,1.6-0.7,1.6-1.6v-7v-15.7
		C765.7,412,765.2,411.2,764.5,410.8z"/>
	<path class="st18" d="M760.8,439.8c0,0.4,0.3,0.7,0.7,0.7h1c0.9,0,1.6-0.7,1.6-1.6v-1.6h-3.3V439.8z"/>
	<rect x="760.8" y="437.2" class="st18" width="3.3" height="0"/>
	<path class="st17" d="M745.7,413l-2.2-2.2c-0.8,0.4-1.3,1.2-1.3,2.1v15.7v7c0,0.9,0.7,1.6,1.6,1.6v0h3.3v-4.7v-16
		C747.1,415.1,746.6,413.9,745.7,413z"/>
	<path class="st18" d="M743.9,438.8c0,0.9,0.7,1.6,1.6,1.6h1c0.4,0,0.7-0.3,0.7-0.7v-2.6h-3.3V438.8z"/>
	<rect x="743.9" y="437.2" class="st18" width="3.3" height="0"/>
	<path class="st15" d="M760.3,399.4h-0.1l-0.3-5.1h-11.6v5.1h-0.5c-0.6,0-1.1,0.5-1.1,1.1v1.5c0,0.6,0.5,1.1,1.1,1.1h0.7l0.1,0.7
		c0.1,0.6,0.4,1.1,0.8,1.4l2.4,2c0.3,0.3,0.7,0.4,1.1,0.4h2.2c0.4,0,0.8-0.1,1.1-0.4l2.4-2c0.4-0.4,0.7-0.9,0.8-1.4l0.1-0.7h0.7
		c0.6,0,1.1-0.5,1.1-1.1v-1.5C761.4,399.9,760.9,399.4,760.3,399.4z"/>
	<path class="st19" d="M762.9,394.1c0-0.8-0.6-1.5-1.3-1.7c0.1-0.2,0.1-0.4,0.1-0.7c0-1-0.8-1.8-1.8-1.8c0,0-0.1,0-0.1,0
		c-0.2-0.7-0.9-1.2-1.7-1.2c-0.2,0-0.4,0-0.5,0.1c-0.4-0.4-0.9-0.7-1.5-0.7c-0.2,0-0.3,0-0.5,0.1c-0.4-0.4-1-0.6-1.6-0.6
		c-0.6,0-1.2,0.2-1.6,0.6c-0.1,0-0.3-0.1-0.5-0.1c-0.6,0-1.1,0.2-1.4,0.6c0,0,0,0,0,0c-0.8,0-1.4,0.5-1.7,1.2c0,0-0.1,0-0.1,0
		c-1,0-1.8,0.8-1.8,1.8c0,0.2,0,0.5,0.1,0.7c-0.7,0.2-1.3,0.9-1.3,1.7c0,0.4,0.1,0.8,0.4,1.1c-0.3,0.3-0.6,0.7-0.6,1.2
		c0,0.6,0.3,1.1,0.8,1.4c0,0,0.1,0.1,0.2,0.1c0,0.1,0,0.2,0,0.3c0,0.6,0.3,1.1,0.8,1.4c-0.1,0.2-0.2,0.5-0.2,0.7
		c0,0.6,0.3,1.1,0.8,1.4c-0.1,0.2-0.1,0.3-0.1,0.5c0,0.5,0.2,1,0.6,1.3c-0.1,0.2-0.2,0.5-0.2,0.7c0,0.9,0.7,1.6,1.6,1.6
		c0.5,0,1-0.3,1.3-0.7c0,0,0,0,0,0c0,0.9,0.7,1.6,1.6,1.6c0.5,0,0.9-0.2,1.2-0.5c0.3,0.3,0.7,0.5,1.2,0.5c0.8,0,1.5-0.6,1.6-1.4
		c0.3,0.3,0.7,0.5,1.2,0.5c0.9,0,1.6-0.7,1.6-1.6c0-0.1,0-0.1,0-0.2c0.4-0.3,0.7-0.8,0.7-1.3c0-0.3-0.1-0.6-0.3-0.9
		c0.7-0.2,1.2-0.8,1.2-1.5c0-0.3-0.1-0.6-0.2-0.8c0,0,0.1-0.1,0.1-0.1c0.7-0.1,1.2-0.7,1.2-1.4c0,0,0,0,0,0c0.4-0.3,0.7-0.8,0.7-1.4
		c0-0.5-0.2-0.9-0.5-1.2C762.7,395,762.9,394.6,762.9,394.1z"/>
	<rect x="747.1" y="432.5" class="st20" width="6.9" height="29"/>
	<rect x="754" y="432.5" class="st20" width="6.9" height="29"/>
	<path class="st21" d="M754,436.2c-0.5,0-0.9,0.4-0.9,0.9v24.4h1.7v-24.4C754.9,436.6,754.5,436.2,754,436.2z"/>
	<path class="st22" d="M752.6,463h-4.9c-0.1,0-0.3-0.1-0.3-0.3v-1c0-0.1,0.1-0.3,0.3-0.3h4.9c0.1,0,0.3,0.1,0.3,0.3v1
		C752.8,462.9,752.7,463,752.6,463L752.6,463z M752.6,463"/>
	<path class="st22" d="M760.3,463h-4.9c-0.1,0-0.3-0.1-0.3-0.3v-1c0-0.1,0.1-0.3,0.3-0.3h4.9c0.1,0,0.3,0.1,0.3,0.3v1
		C760.5,462.9,760.4,463,760.3,463L760.3,463z M760.3,463"/>
	<g>
		<path class="st23" d="M764.1,410.6l-4.5-1.4c-1.3,1.4-3.3,2.3-5.6,2.3c-2.3,0-4.3-0.9-5.6-2.3l-4.4,1.4c-1,0.3-1.7,1.2-1.7,2.2
			v8.5c0,1.6,1.3,0,2.9,0h1.5h7.3h0h7.3h1.5c1.6,0,2.9,1.6,2.9,0v-8.5C765.7,411.9,765.1,410.9,764.1,410.6z"/>
		<path class="st23" d="M758.2,408.4c-0.1-0.2-0.1-0.3-0.1-0.5v-3.4H754h0H750v3.4c0,0.2-0.1,0.4-0.1,0.6c1,0.9,2.5,1.5,4.2,1.5
			C755.7,410,757.2,409.4,758.2,408.4z"/>
		<path class="st17" d="M754,411.6c2.3,0,4.3-0.9,5.6-2.3l-0.7-0.2c-0.3-0.1-0.6-0.3-0.7-0.6c-1,1-2.5,1.6-4.2,1.6
			c-1.7,0-3.1-0.6-4.2-1.5c-0.1,0.3-0.4,0.5-0.7,0.6l-0.7,0.2C749.7,410.7,751.7,411.6,754,411.6z"/>
	</g>
</g>
</svg>
