<?xml version="1.0" encoding="utf-8"?>
<!-- Generator: Adobe Illustrator 21.1.0, SVG Export Plug-In . SVG Version: 6.00 Build 0)  -->
<svg version="1.1" id="Слой_1" xmlns="http://www.w3.org/2000/svg" xmlns:xlink="http://www.w3.org/1999/xlink" x="0px" y="0px"
	 viewBox="0 0 39 20.7" style="enable-background:new 0 0 39 20.7;" xml:space="preserve">
<style type="text/css">
	.st0{fill:#FF4F19;}
	.st1{fill:#E9001E;}
	.st2{fill:#FFD200;}
	.st3{fill:#FF9600;}
	.st4{fill:#53DCFF;}
	.st5{fill:#B3F4FF;}
	.st6{fill:#5C546A;}
</style>
<g>
	<path class="st0" d="M7.2,6.6c-0.2,0-0.3,0-0.4-0.1L0.2,1.1C0.1,1,0,0.8,0,0.6c0-0.1,0-0.1,0-0.2C0.1,0.2,0.4,0,0.6,0h6.5
		c1,0,2.1,0.3,2.9,0.9l5.8,3.7c0.2,0.1,0.3,0.4,0.3,0.7c-0.1,0.3-0.3,0.4-0.5,0.5L7.2,6.6z M15.6,5.7"/>
	<path class="st1" d="M7.2,14.1c-0.2,0-0.3,0-0.4,0.1l-6.5,5.4C0.1,19.8,0,19.9,0,20.1c0,0.1,0,0.1,0,0.2c0.1,0.2,0.3,0.4,0.6,0.4
		h6.5c1,0,2.1-0.3,2.9-0.9l5.8-3.7c0.2-0.1,0.3-0.4,0.3-0.7c-0.1-0.3-0.3-0.4-0.5-0.5L7.2,14.1z M15.6,15"/>
	<path class="st2" d="M38.9,10C38.8,9.8,35,3.7,26.8,3.7c-3.3,0-12.1,0.8-20.4,1.9C5.2,5.7,4.3,6.8,4.3,8v4.8c0,1.2,0.9,2.3,2.1,2.4
		c8.3,1.1,17.1,1.9,20.4,1.9c8.2,0,11.9-6.1,12.1-6.4C39,10.5,39,10.2,38.9,10L38.9,10z M38.9,10"/>
	<path class="st3" d="M39,10.4L39,10.4c0,0.1,0,0.2-0.1,0.3c-0.2,0.3-3.9,6.4-12.1,6.4c-3.3,0-12.1-0.8-20.4-1.9
		C5.2,15,4.3,14,4.3,12.7v-2.4H39z M4.3,10.4"/>
	<path class="st4" d="M26.2,6.7c2,0,3.7,1.6,3.7,3.7c0,2-1.6,3.7-3.7,3.7c-2,0-3.7-1.6-3.7-3.7C22.5,8.3,24.2,6.7,26.2,6.7L26.2,6.7
		z M26.2,6.7"/>
	<path class="st0" d="M0,10.4C0,10,0.3,9.8,0.6,9.8h14.6c0.3,0,0.6,0.3,0.6,0.6c0,0.3-0.3,0.6-0.6,0.6H0.6C0.3,11,0,10.7,0,10.4
		L0,10.4z M0,10.4"/>
	<path class="st0" d="M38.9,10.7c0.1-0.2,0.1-0.4,0-0.6c-0.1-0.2-1.8-3-5.4-4.8v10.2C37.1,13.6,38.8,10.8,38.9,10.7L38.9,10.7z
		 M38.9,10.7"/>
	<path class="st1" d="M33.5,10.4v5.1c3.6-1.8,5.3-4.6,5.4-4.8c0.1-0.1,0.1-0.2,0.1-0.3H33.5z M39,10.4"/>
	<path class="st5" d="M26.2,6.7c-2,0-3.7,1.6-3.7,3.7h7.3C29.9,8.3,28.2,6.7,26.2,6.7L26.2,6.7z M26.2,6.7"/>
	<path class="st6" d="M21.9,10.4c0-2.4,1.9-4.3,4.3-4.3s4.3,1.9,4.3,4.3s-1.9,4.3-4.3,4.3S21.9,12.7,21.9,10.4L21.9,10.4z
		 M29.2,10.4c0-1.7-1.4-3-3-3c-1.7,0-3,1.4-3,3c0,1.7,1.4,3,3,3C27.9,13.4,29.2,12,29.2,10.4L29.2,10.4z M29.2,10.4"/>
</g>
</svg>
