<?xml version="1.0" encoding="utf-8"?>
<!-- Generator: Adobe Illustrator 21.1.0, SVG Export Plug-In . SVG Version: 6.00 Build 0)  -->
<svg version="1.1" id="Layer_1" xmlns="http://www.w3.org/2000/svg" xmlns:xlink="http://www.w3.org/1999/xlink" x="0px" y="0px"
	 viewBox="169.5 362.1 75 69.8" style="enable-background:new 169.5 362.1 75 69.8;" xml:space="preserve">
<style type="text/css">
	.st0{fill:#D29B6E;}
	.st1{fill:#59D8FF;}
	.st2{fill:#00C3F0;}
	.st3{fill:#F0C087;}
	.st4{fill:#E6AF78;}
	.st5{fill:#694B4B;}
	.st6{fill:#5A4146;}
	.st7{fill:#D5DCED;}
	.st8{fill:#AFB9D2;}
	.st9{fill:#FFFFFF;}
	.st10{fill:#F5DCB4;}
</style>
<g>
	<path class="st0" d="M186.8,391.8v6c0,0.9-0.6,1.7-1.5,2l-9.1,2.8c-1.7,0.5-2.9,2.1-2.9,4v15c0,2.9,2.3,5.2,5.2,5.2h2.6h27.2v-34.9
		H186.8z"/>
	<path class="st1" d="M194.1,407.3c-5,0-9.4-2.6-12-6.6l-5.8,1.8c-1.7,0.5-2.9,2.1-2.9,4v15c0,2.9,2.3,5.2,5.2,5.2h2.6h27.2v-33.6
		C208.3,400.9,201.9,407.3,194.1,407.3z"/>
	<g>
		<path class="st2" d="M208.3,393.1c0,7.8-6.4,14.2-14.2,14.2c-5,0-9.4-2.6-12-6.6l-2.6,0.8c2.9,5,8.3,8.4,14.5,8.4
			c6,0,11.2-3.2,14.2-7.9V393.1z"/>
		<path class="st2" d="M195.4,420.3h-12.9c-0.7,0-1.3-0.6-1.3-1.3v-6.2c0-1-0.4-2-1.1-2.7l-5.9-5.9c-0.5,0.7-0.7,1.5-0.7,2.3v15
			c0,2.9,2.3,5.2,5.2,5.2h2.6h18.1v-2.6C199.2,422,197.5,420.3,195.4,420.3z"/>
	</g>
	<path class="st3" d="M205.1,382.8h-0.2l-0.5-9.1h-20.5v9.1h-0.8c-1.1,0-1.9,0.9-1.9,1.9v2.6c0,1.1,0.9,1.9,1.9,1.9h1.2l0.2,1.3
		c0.2,1,0.7,1.9,1.4,2.5l4.2,3.5c0.6,0.5,1.3,0.7,2,0.7h4c0.7,0,1.4-0.3,2-0.7l4.2-3.5c0.8-0.6,1.3-1.5,1.4-2.5l0.2-1.3h1.2
		c1.1,0,1.9-0.9,1.9-1.9v-2.6C207,383.6,206.1,382.8,205.1,382.8z"/>
	<path class="st4" d="M204.4,373.7h-12.9h-7.6v9.1h-0.8c-1.1,0-1.9,0.9-1.9,1.9v2.6c0,1.1,0.9,1.9,1.9,1.9h1.2l0.2,1.3
		c0.2,1,0.7,1.9,1.4,2.5l4.2,3.5c0.6,0.5,1.3,0.7,2,0.7h1.6l-1.8-5.5c-0.3-0.8-0.4-1.6-0.4-2.5v-7.8c0-0.7,0.6-1.3,1.3-1.3l0,0
		c0,0,1.3,0,1.8-0.6c0.8,0.4,1.7,0.6,2.6,0.6s1.8-0.2,2.6-0.6c0.8,0.4,1.7,0.6,2.6,0.6c0.1,0,0.3,0,0.4,0l2,0L204.4,373.7z"/>
	<path class="st5" d="M209.6,373.5c0-1.4-1-2.6-2.3-3c0.1-0.4,0.2-0.7,0.2-1.2c0-1.7-1.4-3.1-3.1-3.1c-0.1,0-0.1,0-0.2,0
		c-0.4-1.2-1.6-2.1-2.9-2.1c-0.3,0-0.6,0.1-0.9,0.2c-0.7-0.7-1.6-1.2-2.7-1.2c-0.3,0-0.5,0-0.8,0.1c-0.7-0.7-1.7-1.1-2.8-1.1
		s-2.1,0.4-2.8,1.1c-0.3-0.1-0.5-0.1-0.8-0.1c-1,0-1.9,0.4-2.5,1c0,0,0,0-0.1,0c-1.4,0-2.5,0.9-2.9,2.1c-0.1,0-0.1,0-0.2,0
		c-1.7,0-3.1,1.4-3.1,3.1c0,0.4,0.1,0.8,0.2,1.2c-1.3,0.4-2.3,1.6-2.3,3c0,0.8,0.3,1.5,0.8,2.1c-0.5,0.5-0.8,1.3-0.8,2.1
		c0,1.1,0.6,2.1,1.6,2.7c0,1.4,1.2,2.5,2.6,2.5h1.1c0.5,0,0.9-0.4,1-0.9l0.7-4.3c0.1,0,0.2,0,0.2,0c1.1,0,2-0.6,2.6-1.4
		c0.6,0.8,1.5,1.4,2.6,1.4s2-0.6,2.6-1.4c0.6,0.8,1.5,1.4,2.6,1.4s2-0.6,2.6-1.4c0.6,0.8,1.5,1.4,2.6,1.4c0.1,0,0.2,0,0.2,0l0.7,4.3
		c0.1,0.5,0.5,0.9,1,0.9h1.4c1.4,0,2.6-1.2,2.6-2.6c0,0,0-0.1,0-0.1c0.8-0.6,1.3-1.5,1.3-2.5c0-0.8-0.3-1.5-0.8-2.1
		C209.3,375,209.6,374.3,209.6,373.5z"/>
	<path class="st6" d="M193.3,375.4c-1.2-0.4-2.1-1.6-2.1-2.9c0-0.8,0.3-1.5,0.8-2.1c-0.5-0.5-0.8-1.3-0.8-2.1c0-1.4,1-2.6,2.3-3
		c-0.1-0.4-0.2-0.7-0.2-1.2c0-0.8,0.3-1.5,0.8-2.1c0,0,0,0,0,0c-1.1,0-2.1,0.4-2.8,1.1c-0.3-0.1-0.5-0.1-0.8-0.1c-1,0-1.9,0.4-2.5,1
		c0,0,0,0-0.1,0c-1.4,0-2.5,0.9-2.9,2.1c-0.1,0-0.1,0-0.2,0c-1.7,0-3.1,1.4-3.1,3.1c0,0.4,0.1,0.8,0.2,1.2c-1.3,0.4-2.3,1.6-2.3,3
		c0,0.8,0.3,1.5,0.8,2.1c-0.5,0.5-0.8,1.3-0.8,2.1c0,1.1,0.6,2.1,1.6,2.7c0,1.4,1.2,2.5,2.6,2.5h1.1c0.5,0,0.9-0.4,1-0.9l0.7-4.3
		c0.1,0,0.2,0,0.2,0c1.1,0,2-0.6,2.6-1.4c0.6,0.8,1.5,1.4,2.6,1.4c0.7,0,1.4-0.3,1.9-0.7c-0.4-0.4-0.6-0.9-0.6-1.4
		C193.3,375.5,193.3,375.4,193.3,375.4z"/>
	<path class="st4" d="M191.5,420.3h3.9c2.1,0,3.9,1.7,3.9,3.9v2.6h-7.8V420.3z"/>
	<path class="st7" d="M240.6,417.7h-38.8c-2.1,0-3.9-1.7-3.9-3.9v-23.3c0-2.1,1.7-3.9,3.9-3.9h38.8c2.1,0,3.9,1.7,3.9,3.9v23.3
		C244.5,416,242.8,417.7,240.6,417.7z"/>
	<path class="st8" d="M229,426.7l-2.3-17.2c-0.2-1.3-1.3-2.2-2.6-2.2h-5.8c-1.3,0-2.4,1-2.6,2.2l-2.3,17.2v2.6H229V426.7z"/>
	<circle class="st9" cx="221.2" cy="399.6" r="2.6"/>
	<path class="st10" d="M243.2,431.9h-72.4c-0.7,0-1.3-0.6-1.3-1.3V428c0-0.7,0.6-1.3,1.3-1.3h72.4c0.7,0,1.3,0.6,1.3,1.3v2.6
		C244.5,431.3,243.9,431.9,243.2,431.9z"/>
</g>
</svg>
