<?xml version="1.0" encoding="utf-8"?>
<!-- Generator: Adobe Illustrator 21.1.0, SVG Export Plug-In . SVG Version: 6.00 Build 0)  -->
<svg version="1.1" id="Layer_1" xmlns="http://www.w3.org/2000/svg" xmlns:xlink="http://www.w3.org/1999/xlink" x="0px" y="0px"
	 viewBox="143 339.6 128 114.8" style="enable-background:new 143 339.6 128 114.8;" xml:space="preserve">
<style type="text/css">
	.st0{fill:#E4EAF8;}
	.st1{fill:#C7CFE2;}
	.st2{fill:#FF5050;}
	.st3{fill:#C84146;}
	.st4{fill:#5B5D6E;}
	.st5{fill:#D29B6E;}
	.st6{fill:#F0C087;}
	.st7{fill:#E6AF78;}
	.st8{fill:#FFFFFF;}
	.st9{fill:#AFB9D2;}
	.st10{fill:#7F8499;}
	.st11{fill:#EBC9A0;}
</style>
<g>
	<path class="st0" d="M229.1,408h-79.4c-3.7,0-6.6-3-6.6-6.6v-55.2c0-3.7,3-6.6,6.6-6.6h79.4c3.7,0,6.6,3,6.6,6.6v55.2
		C235.7,405.1,232.7,408,229.1,408z"/>
	<path class="st1" d="M235.1,366.1h-7.5c-6.4,0-12.5,2.8-16.7,7.7c-4.2,4.9-6.1,11.3-5.1,17.7l2.5,16.6h20.9c3.7,0,6.6-3,6.6-6.6
		v-35.3C235.5,366.1,235.3,366.1,235.1,366.1z"/>
	<rect x="167.3" y="394.8" class="st2" width="53" height="4.4"/>
	<g>
		<polygon class="st3" points="206.8,399.2 220.2,399.2 220.2,394.8 206.2,394.8 		"/>
		<path class="st3" d="M167.3,399.2h8.5c0.2-0.7,0.3-1.4,0.3-2.2c0-0.8-0.1-1.5-0.3-2.2h-8.5V399.2z"/>
	</g>
	<path class="st1" d="M151.8,394.8c-1.2,0-2.2,1-2.2,2.2c0,1.2,1,2.2,2.2,2.2h15.4v-4.4H151.8z"/>
	<g>
		<circle class="st2" cx="167.3" cy="397" r="4.4"/>
		<path class="st2" d="M202.6,386h-26.5c-4.9,0-8.8-4-8.8-8.8v-17.7c0-4.9,4-8.8,8.8-8.8h26.5c4.9,0,8.8,4,8.8,8.8v17.7
			C211.4,382,207.5,386,202.6,386z"/>
	</g>
	<path class="st4" d="M266,435.5l-21.5-5.4H218l-21.5,5.4c-2.9,0.7-5,3.4-5,6.4v8.1c0,2.4,2,4.4,4.4,4.4h70.6c2.4,0,4.4-2,4.4-4.4
		v-8.1C271,438.9,268.9,436.2,266,435.5z"/>
	<rect x="218" y="414.7" class="st5" width="26.5" height="22.1"/>
	<path class="st6" d="M237.5,424.2l8.8-7.3c1.7-1.4,2.8-3.3,3.1-5.5l3.1-20.5c1.6-10.7-6.7-20.3-17.5-20.3h-7.5
		c-10.8,0-19.1,9.6-17.5,20.3l3.1,20.5c0.3,2.1,1.4,4.1,3.1,5.5l8.8,7.3c1.2,1,2.7,1.5,4.2,1.5h4
		C234.8,425.7,236.3,425.1,237.5,424.2z"/>
	<path class="st7" d="M235.1,370.5h-7.5c-10.8,0-19.1,9.6-17.5,20.3l3.1,20.5c0.3,2.1,1.4,4.1,3.1,5.5l8.8,7.3
		c1.2,1,2.7,1.5,4.2,1.5h0.9l-4.1-8.2c-0.9-1.8-1.4-3.9-1.4-5.9V392c1.7-0.2,3.4-0.4,5-0.6c0.9,1.9,2.8,3.1,5,3.1
		c0.5,0,0.9-0.1,1.4-0.2c3.2-0.8,10.8-3.2,16.6-8.2C251.6,377.5,244.3,370.5,235.1,370.5z"/>
	<path class="st8" d="M182.7,363.1v10.5c0,1.6,1.7,2.7,3.2,2l10.5-5.3c1.6-0.8,1.6-3.1,0-3.9l-10.5-5.3
		C184.5,360.3,182.7,361.4,182.7,363.1z"/>
	<path class="st1" d="M251.1,381.6c0,0,0.1-0.1,0.1-0.3c-2.7-6.2-8.9-10.7-16.2-10.7h-7.5c-9.9,0-17.7,8.1-17.6,17.7h1.5
		c0,0,15.4,0,22.1-2.2v3c0,0.7,0.7,1.3,1.4,1.1C238,389.2,245.9,386.8,251.1,381.6z"/>
	<g>
		<path class="st9" d="M235.1,370.5h-7.5c-9.9,0-17.7,8.1-17.6,17.7h1.5c0,0,6.8,0,13.3-0.6c0.3-8.2,6.1-14.9,13.9-16.6
			C237.4,370.7,236.3,370.5,235.1,370.5z"/>
		<path class="st9" d="M237.9,398.7c-2-1.1-4.2-1.7-6.6-1.7s-4.7,0.6-6.6,1.7v5.7c1.5-1.8,3.9-3,6.6-3s5.1,1.2,6.6,3V398.7z"/>
	</g>
	<g>
		<circle class="st0" cx="222.4" cy="401.4" r="5.5"/>
		<circle class="st0" cx="240.1" cy="401.4" r="5.5"/>
	</g>
	<path class="st10" d="M248,427.6c-0.7-1-2.1-1.3-3.1-0.6l-13.6,9.7l-13.6-9.7c-1-0.7-2.4-0.5-3.1,0.6l-3.1,4.7l9.5,11.4
		c0.8,1,2.3,1.1,3.3,0.1l3-3c0.7-0.7,1.9-0.2,1.9,0.8v12.8h4.4v-12.8c0-1,1.2-1.5,1.9-0.8l3,3c0.9,0.9,2.4,0.8,3.3-0.1l9.5-11.4
		L248,427.6z"/>
	<path class="st3" d="M210.8,373.8c-2.9,3.3-4.6,7.4-5.1,11.6c3.4-1.2,5.8-4.5,5.8-8.3v-4C211.2,373.3,211,373.5,210.8,373.8z"/>
	<g>
		<path class="st11" d="M196.6,435.5c-2.9,0.7-5,3.4-5,6.4v8.1c0,2.4,2,4.4,4.4,4.4h19.9l-4.5-22.6L196.6,435.5z"/>
		<path class="st11" d="M266,435.5c2.9,0.7,5,3.4,5,6.4v8.1c0,2.4-2,4.4-4.4,4.4h-19.9l4.5-22.6L266,435.5z"/>
	</g>
</g>
</svg>
