<?xml version="1.0" encoding="utf-8"?>
<!-- Generator: Adobe Illustrator 21.1.0, SVG Export Plug-In . SVG Version: 6.00 Build 0)  -->
<svg version="1.1" id="Слой_1" xmlns="http://www.w3.org/2000/svg" xmlns:xlink="http://www.w3.org/1999/xlink" x="0px" y="0px"
	 viewBox="0 0 13 13" style="enable-background:new 0 0 13 13;" xml:space="preserve">
<style type="text/css">
	.st0{fill:#25AE88;}
	.st1{fill:#FFFFFF;}
</style>
<path class="st0" d="M13,6.5c0,3.6-2.9,6.5-6.5,6.5S0,10.1,0,6.5S2.9,0,6.5,0S13,2.9,13,6.5L13,6.5z M13,6.5"/>
<g>
	<path class="st1" d="M5.9,9.5c-0.2,0-0.4-0.1-0.5-0.2L3.2,7.3C2.9,7,2.9,6.5,3.2,6.2C3.5,5.9,4,5.8,4.3,6.1l1.5,1.4l2.7-3.1
		C8.9,4,9.4,4,9.7,4.3c0.3,0.3,0.4,0.8,0.1,1.1L6.5,9.2C6.4,9.4,6.2,9.5,5.9,9.5C6,9.5,5.9,9.5,5.9,9.5z"/>
</g>
</svg>
