<?xml version="1.0" encoding="utf-8"?>
<!-- Generator: Adobe Illustrator 19.0.0, SVG Export Plug-In . SVG Version: 6.00 Build 0)  -->
<svg version="1.1" id="Logo" xmlns="http://www.w3.org/2000/svg" xmlns:xlink="http://www.w3.org/1999/xlink" x="0px" y="0px"
	 viewBox="0 0 1344.4 296" style="enable-background:new 0 0 1344.4 296;" xml:space="preserve">
<style type="text/css">
	.st0{fill:#FFFFFF;}
	.st1{fill:url(#SVGID_1_);}
	.st2{fill:url(#SVGID_2_);}
	.st3{fill:url(#SVGID_3_);}
	.st4{fill:url(#SVGID_4_);}
	.st5{fill:url(#SVGID_5_);}
</style>
<path class="st0" d="M435,69l-49.4,160h46.3l4.9-19H485l5.1,19h46.3L487,69H435z M451.7,165.2l9.3-36.9l9,36.9H451.7z"/>
<path class="st0" d="M590.1,148.2L569.8,69h-50.7l42.8,158.5h56.5L661.1,69h-50.7L590.1,148.2z"/>
<path class="st0" d="M692.1,69l-49.4,160H689l4.9-19h48.3l5.1,19h46.3L744.1,69H692.1z M708.8,165.2l9.3-36.9l9,36.9H708.8z"/>
<path class="st0" d="M323.9,69v41.3h13.9v53.3c0,2.6-0.5,5.1-1.5,7.3c-1,2.3-2.4,4.3-4.1,6c-1.7,1.8-3.7,3.1-6.1,4.2
	c-2.4,1-15.9,1.5-18.5,1.5H297v12c0,12.1-2.7,23.8-7.7,34.4h31.2c8.8,0,17.1-1.7,24.8-5.1c7.7-3.4,14.4-7.9,20.2-13.7
	c5.7-5.7,10.3-12.5,13.7-20.2c3.4-7.7,5.1-16,5.1-24.8V69H323.9z"/>
<linearGradient id="SVGID_1_" gradientUnits="userSpaceOnUse" x1="891.2865" y1="66.547" x2="891.2865" y2="231.566">
	<stop  offset="0" style="stop-color:#F48F41"/>
	<stop  offset="1" style="stop-color:#F05E2D"/>
</linearGradient>
<path class="st1" d="M967.3,221.9c-6.9-6.7-12.4-14.6-16.4-23.6c-1.4-3-2.5-6.2-3.4-9.4c-2.8,2.1-7.1,4.9-8.7,5.7
	c-2.3,1.1-4.7,2-7.2,2.5c-2.5,0.6-5,0.9-7.5,0.9c-2.5,0-4.7-0.4-6.6-1.3c-4.1-1.8-7.4-3.7-9.8-5.8c-2.4-2.1-4.4-4.1-6-5.8
	c7-4.9,12.9-10.9,17.6-18.2c4.7-7.3,7.7-15.5,9-24.6c1.3-8.7,0.9-17.1-1.2-25.2c-2.1-8.1-5.6-15.4-10.4-22.1
	c-4.8-6.6-10.7-12.2-17.9-16.7c-7.1-4.5-15-7.5-23.7-8.9c-2.5-0.3-5.7-0.4-9.6-0.4c-3.9,0-7.1,0-9.6,0h-46.1v160h46.3v-33.5
	c2.3,2.5,4.8,5.3,7.3,8.4c2.5,3.1,5.2,6.3,8.2,9.5c3,3.2,6.5,6.5,10.4,9.8c4,3.3,8.6,6.5,13.9,9.6c3.7,2.1,8,3.7,13,4.9
	c5,1.2,10.3,1.8,15.8,1.8c4.1,0,8.5-0.2,13.2-0.7c4.7-0.4,9.3-1.2,13.7-2.3s8.6-2.5,12.5-4.3c3.3-1.5,6.1-3.3,8.5-5.3
	C970.8,225.2,969,223.6,967.3,221.9z M877.7,143.5c-2.9,3-6.5,4.5-10.7,4.5h-10.7v-30.7H867c4.2,0,7.8,1.5,10.7,4.4
	c2.9,2.9,4.4,6.5,4.4,10.8C882,136.8,880.6,140.4,877.7,143.5z"/>
<linearGradient id="SVGID_2_" gradientUnits="userSpaceOnUse" x1="1284.5491" y1="66.547" x2="1284.5491" y2="231.566">
	<stop  offset="0" style="stop-color:#F48F41"/>
	<stop  offset="1" style="stop-color:#F05E2D"/>
</linearGradient>
<path class="st2" d="M1298.1,69v56.5H1271V69h-46.3v160h46.3v-57.2h27.1V229h46.3V69H1298.1z"/>
<linearGradient id="SVGID_3_" gradientUnits="userSpaceOnUse" x1="1146.021" y1="66.547" x2="1146.021" y2="231.566">
	<stop  offset="0" style="stop-color:#F48F41"/>
	<stop  offset="1" style="stop-color:#F05E2D"/>
</linearGradient>
<path class="st3" d="M1207.7,160.3c-1.8-4.7-4.4-9-7.6-12.9c-3.2-3.9-7.1-7.3-11.5-10.3c-4.4-2.9-9.3-5.2-14.6-6.8l-25.1-8.2
	c-1.6-1-3-2.4-4.1-4.2c-1.1-1.8-0.8-3.5,0.8-5.1c2.1-1.6,4.4-2.6,7.2-3.1c2.7-0.4,5.5-0.5,8.5-0.2c5.1,0.7,10.8,1.9,17,3.5
	c6.2,1.6,11.6,3.4,16.3,5.3c0.6-10,1-17.5,1.1-22.4c0.1-4.9,0.2-8.6,0.2-11c0-2.4,0-4.2,0-5.4c0-1.2,0.1-3,0.4-5.5
	c-7.9-2.8-15.8-4.7-23.5-5.6c-7.7-1-15.5-1.3-23.3-1c-6,0-12.4,0.9-19,2.6c-6,1.5-11.2,3.6-15.6,6.5c-4.3,2.9-7.9,6.2-10.8,9.9
	s-5,7.8-6.3,12.2c-1.3,4.4-2,9-2,13.7c0,2.7-3.3,24,25,42.5c9.6,6.3,24.1,12.1,27.7,13.5c1.7,0.6,3.3,1.4,4.8,2.4
	c1.5,1,2.8,2.1,3.9,3.5c1,1.4,1.5,3,1.5,4.7c-0.3,2.5-1.3,4.2-2.9,5.2c-1.6,1-3.6,1.5-6,1.7c-3.8,0-15.8-2.8-19.1-4
	c-8.1-2.9-27.5-11.5-35.1-14.8v1.8c0,10.3-2.1,20.2-6.1,29.4c-2.3,5.1-5,9.8-8.2,14.2c30.4,15.4,54.6,18.4,71.5,17.5
	c21.8-1.1,34.3-8.8,43.2-17.2c4.7-4.5,8.1-10.1,10.7-16.3c2.6-6.3,3.8-13.3,3.6-21.1C1210.5,170,1209.6,165,1207.7,160.3z"/>
<linearGradient id="SVGID_4_" gradientUnits="userSpaceOnUse" x1="1020.3043" y1="66.547" x2="1020.3043" y2="231.566">
	<stop  offset="0" style="stop-color:#F48F41"/>
	<stop  offset="1" style="stop-color:#F05E2D"/>
</linearGradient>
<path class="st4" d="M1034.5,166.7c0,3.7-1.4,6.9-4.3,9.6c-2.9,2.7-6.2,4.1-10,4.1c-3.7,0-6.9-1.4-9.8-4.1c-2.9-2.7-4.3-5.9-4.3-9.6
	V68.5h-46.3v100.4c0,8.2,1.6,16,4.9,23.3c3.2,7.3,7.6,13.6,13.1,19c5.5,5.4,11.9,9.6,19.2,12.8c7.3,3.2,15,4.7,23.3,4.7
	c8.2,0,16-1.6,23.4-4.7c7.4-3.2,13.8-7.4,19.3-12.8c5.5-5.4,9.9-11.7,13.1-19c3.2-7.3,4.9-15,4.9-23.3V68.5h-46.3V166.7z"/>
<g>
	<linearGradient id="SVGID_5_" gradientUnits="userSpaceOnUse" x1="135.4949" y1="3.602" x2="135.4949" y2="297.2513">
		<stop  offset="0" style="stop-color:#F48F41"/>
		<stop  offset="1" style="stop-color:#F05E2D"/>
	</linearGradient>
	<path class="st5" d="M243.6,242l-80.7,46.6c-16.9,9.8-37.8,9.8-54.7,0L27.4,242C10.4,232.3,0,214.2,0,194.6v-93.3
		C0,81.8,10.4,63.7,27.4,54l80.7-46.6c16.9-9.8,37.8-9.8,54.7,0L243.6,54c16.9,9.8,27.4,27.9,27.4,47.4v93.3
		C271,214.2,260.6,232.3,243.6,242z"/>
</g>
<g id="_x7B_">
	
		<image style="overflow:visible;opacity:0.17;" width="287" height="837" xlink:href="630AE95450B1E10E.png"  transform="matrix(0.24 0 0 0.24 91.3 46.4021)">
	</image>
	<g>
		<path class="st0" d="M101,160.9c1.9,0.9,3.5,2.3,4.7,4c1.2,1.7,2.2,3.8,2.8,6.2c0.6,2.4,0.9,5.2,0.9,8.2v20.5
			c0,5.3,0.7,10.4,2.1,15.2c1.4,4.8,3.8,9.3,7.3,13.3c3.4,4.1,7.9,7.7,13.5,10.9c5.6,3.2,12.4,5.7,20.3,7.7l7.1-17.9
			c-2.9-1-5.3-2.5-7.2-4.3c-1.9-1.9-3.4-4.1-4.5-6.6c-1.1-2.5-1.9-5.3-2.4-8.4c-0.4-3.1-0.7-6.4-0.7-9.8v-20.5
			c0-6.7-1.8-12.8-5.4-18.2c-3.6-5.5-9.3-9.9-17.2-13.1c7.9-3.2,13.6-7.6,17.2-13c3.6-5.5,5.4-11.6,5.4-18.3V96.1
			c0-3.4,0.2-6.7,0.7-9.8c0.4-3.1,1.2-5.9,2.4-8.4c1.1-2.5,2.6-4.7,4.5-6.6c1.9-1.9,4.3-3.3,7.2-4.3l-7.1-17.8
			c-7.9,2-14.7,4.5-20.3,7.6c-5.6,3.1-10.1,6.7-13.5,10.8c-3.4,4.1-5.8,8.5-7.3,13.3c-1.4,4.8-2.1,9.9-2.1,15.2v20.5
			c0,6.1-1.2,10.9-3.7,14.5c-2.4,3.6-6.3,5.4-11.7,5.4v22.9C96.7,159.5,99,159.9,101,160.9z"/>
	</g>
</g>
</svg>
